<svg width="71" height="71" viewBox="0 0 71 71" fill="none" xmlns="http://www.w3.org/2000/svg">
<rect x="10" y="10" width="50" height="50" fill="#E57A7A" fill-opacity="0.05"/>
<rect x="35.3552" width="50" height="50" transform="rotate(45 35.3552 0)" fill="#E57A7A" fill-opacity="0.05"/>
<path d="M27.2516 38.963C27.1646 38.8747 27.1157 38.7548 27.1157 38.6299V40.0435H28.507C28.384 40.0435 28.2661 39.9938 28.1791 39.9054L27.2516 38.963Z" fill="#E57A7A"/>
<path d="M27.1157 38.6299C27.1157 38.5049 27.1646 38.3851 27.2516 38.2967C27.3385 38.2083 27.4565 38.1587 27.5795 38.1587H27.1157V38.6299Z" fill="#E57A7A"/>
<path d="M27.2516 34.251C27.1646 34.1626 27.1157 34.0428 27.1157 33.9178V35.3314H28.507C28.384 35.3314 28.2661 35.2818 28.1791 35.1934L27.2516 34.251Z" fill="#E57A7A"/>
<path d="M27.1157 33.9179C27.1157 33.7929 27.1646 33.673 27.2516 33.5847C27.3385 33.4963 27.4565 33.4467 27.5795 33.4467H27.1157V33.9179Z" fill="#E57A7A"/>
<path d="M24.989 25.4362H28.0434V22.3329L24.989 25.4362Z" fill="#E57A7A"/>
<path d="M34.5363 31.0906C35.2701 31.0906 35.9874 30.8695 36.5976 30.4553C37.2077 30.0411 37.6832 29.4524 37.964 28.7636C38.2449 28.0748 38.3183 27.3168 38.1752 26.5856C38.032 25.8544 37.6787 25.1827 37.1598 24.6555C36.6409 24.1283 35.9798 23.7693 35.2601 23.6238C34.5404 23.4784 33.7944 23.553 33.1165 23.8383C32.4386 24.1237 31.8591 24.6068 31.4514 25.2267C31.0438 25.8466 30.8262 26.5754 30.8262 27.321C30.8273 28.3204 31.2185 29.2786 31.9141 29.9853C32.6096 30.692 33.5527 31.0895 34.5363 31.0906ZM34.5363 27.7922C33.4961 27.7922 32.6812 27.1712 32.6812 26.3786C32.6812 25.709 33.2651 25.1671 34.0726 25.0121V24.4938C34.0726 24.3688 34.1214 24.249 34.2084 24.1606C34.2954 24.0722 34.4133 24.0226 34.5363 24.0226C34.6593 24.0226 34.7773 24.0722 34.8643 24.1606C34.9512 24.249 35.0001 24.3688 35.0001 24.4938V25.0121C35.8075 25.1662 36.3914 25.7081 36.3914 26.3786C36.3914 26.5036 36.3425 26.6234 36.2556 26.7118C36.1686 26.8002 36.0506 26.8498 35.9276 26.8498C35.8046 26.8498 35.6867 26.8002 35.5997 26.7118C35.5127 26.6234 35.4639 26.5036 35.4639 26.3786C35.4639 26.1863 35.1026 25.9074 34.5363 25.9074C33.9701 25.9074 33.6088 26.1863 33.6088 26.3786C33.6088 26.5708 33.9701 26.8498 34.5363 26.8498C35.5766 26.8498 36.3914 27.4708 36.3914 28.2634C36.3914 28.933 35.8075 29.4749 35.0001 29.6299V30.1482C35.0001 30.2732 34.9512 30.393 34.8643 30.4814C34.7773 30.5698 34.6593 30.6194 34.5363 30.6194C34.4133 30.6194 34.2954 30.5698 34.2084 30.4814C34.1214 30.393 34.0726 30.2732 34.0726 30.1482V29.6299C33.2651 29.4758 32.6812 28.9339 32.6812 28.2634C32.6812 28.1384 32.7301 28.0186 32.8171 27.9302C32.9041 27.8418 33.022 27.7922 33.145 27.7922C33.268 27.7922 33.386 27.8418 33.4729 27.9302C33.5599 28.0186 33.6088 28.1384 33.6088 28.2634C33.6088 28.4557 33.9701 28.7346 34.5363 28.7346C35.1026 28.7346 35.4639 28.4557 35.4639 28.2634C35.4639 28.0712 35.1026 27.7922 34.5363 27.7922Z" fill="#E57A7A"/>
<path d="M44.7422 48.3333V47.8724C44.7402 47.5914 44.821 47.3162 44.9741 47.0822L45.2774 46.62C45.5315 46.233 45.667 45.7781 45.6665 45.3129V38.8574C45.6677 38.4241 45.5842 37.9948 45.4211 37.5944C45.2579 37.1941 45.0181 36.8306 44.7157 36.525L42.8838 34.6642V38.5525L44.0094 39.6961C44.0939 39.785 44.1406 39.904 44.1396 40.0276C44.1385 40.1511 44.0897 40.2693 44.0038 40.3567C43.9178 40.444 43.8015 40.4936 43.6799 40.4947C43.5583 40.4957 43.4411 40.4483 43.3536 40.3624L42.2202 39.2108C42.1268 39.1647 42.0513 39.088 42.0059 38.9931L40.0748 37.031C39.8963 36.8604 39.6603 36.7656 39.4152 36.7661C39.1701 36.7667 38.9346 36.8624 38.7568 37.0339C38.5851 37.2125 38.4893 37.4525 38.4901 37.7022C38.4909 37.9519 38.5882 38.1912 38.7609 38.3688L41.1943 40.8412C41.2769 40.925 41.3253 41.0375 41.3298 41.156C41.3344 41.2745 41.2948 41.3904 41.2189 41.4806C40.849 41.9225 40.6421 42.4814 40.6336 43.0615C40.6252 43.6415 40.8157 44.2065 41.1725 44.6593L41.3882 44.9298C41.4657 45.0269 41.502 45.1513 41.4892 45.2756C41.4765 45.3999 41.4156 45.514 41.32 45.5927C41.2244 45.6715 41.102 45.7084 40.9796 45.6954C40.8573 45.6824 40.745 45.6206 40.6675 45.5235L40.4495 45.2502C40.1205 44.8303 39.8925 44.3382 39.7836 43.813H38.2021C38.0055 44.8909 38.2311 46.0042 38.831 46.9154L39.0962 47.3225C39.1466 47.3996 39.1736 47.4901 39.1737 47.5826V48.3333H44.7422Z" fill="#E57A7A"/>
<path d="M40.7279 36.362L41.9565 37.6102V21.6666H28.9709V25.9074C28.9709 26.0324 28.9221 26.1523 28.8351 26.2406C28.7481 26.329 28.6302 26.3786 28.5072 26.3786H24.3333V42.8707H39.7225C39.7571 42.2835 39.9405 41.7154 40.2549 41.2215L38.1039 39.036C37.7588 38.6807 37.5653 38.2015 37.5653 37.7023C37.5653 37.2031 37.7588 36.7239 38.1039 36.3686C38.4567 36.0252 38.9261 35.8329 39.4146 35.8317C39.9032 35.8305 40.3735 36.0204 40.7279 36.362ZM34.5362 22.609C35.4534 22.609 36.3501 22.8854 37.1127 23.4031C37.8754 23.9209 38.4698 24.6568 38.8208 25.5178C39.1718 26.3788 39.2637 27.3263 39.0847 28.2403C38.9058 29.1543 38.4641 29.9939 37.8155 30.6529C37.1669 31.3119 36.3406 31.7607 35.4409 31.9425C34.5413 32.1243 33.6088 32.031 32.7614 31.6744C31.914 31.3177 31.1897 30.7138 30.6801 29.9389C30.1705 29.164 29.8985 28.253 29.8985 27.321C29.8998 26.0718 30.3889 24.874 31.2583 23.9907C32.1278 23.1073 33.3066 22.6104 34.5362 22.609ZM36.3912 36.2739H32.2173C32.0943 36.2739 31.9764 36.2242 31.8894 36.1359C31.8024 36.0475 31.7535 35.9276 31.7535 35.8027C31.7535 35.6777 31.8024 35.5578 31.8894 35.4695C31.9764 35.3811 32.0943 35.3315 32.2173 35.3315H36.3912C36.5142 35.3315 36.6322 35.3811 36.7192 35.4695C36.8061 35.5578 36.855 35.6777 36.855 35.8027C36.855 35.9276 36.8061 36.0475 36.7192 36.1359C36.6322 36.2242 36.5142 36.2739 36.3912 36.2739ZM36.855 38.6299C36.855 38.7548 36.8061 38.8747 36.7192 38.9631C36.6322 39.0514 36.5142 39.1011 36.3912 39.1011H32.2173C32.0943 39.1011 31.9764 39.0514 31.8894 38.9631C31.8024 38.8747 31.7535 38.7548 31.7535 38.6299C31.7535 38.5049 31.8024 38.385 31.8894 38.2967C31.9764 38.2083 32.0943 38.1587 32.2173 38.1587H36.3912C36.5142 38.1587 36.6322 38.2083 36.7192 38.2967C36.8061 38.385 36.855 38.5049 36.855 38.6299ZM31.1539 37.5494L28.8351 39.9054C28.7481 39.9938 28.6302 40.0434 28.5072 40.0435H29.4347C29.5577 40.0435 29.6757 40.0931 29.7626 40.1815C29.8496 40.2699 29.8985 40.3897 29.8985 40.5147C29.8985 40.6396 29.8496 40.7595 29.7626 40.8479C29.6757 40.9362 29.5577 40.9859 29.4347 40.9859H26.6521C26.5291 40.9859 26.4111 40.9362 26.3242 40.8479C26.2372 40.7595 26.1883 40.6396 26.1883 40.5147V37.6875C26.1883 37.5625 26.2372 37.4426 26.3242 37.3543C26.4111 37.2659 26.5291 37.2163 26.6521 37.2163H28.9709C29.0939 37.2163 29.2119 37.2659 29.2989 37.3543C29.3858 37.4426 29.4347 37.5625 29.4347 37.6875C29.4347 37.8124 29.3858 37.9323 29.2989 38.0207C29.2119 38.109 29.0939 38.1587 28.9709 38.1587H27.5796C27.7026 38.1587 27.8206 38.2084 27.9075 38.2967L28.5072 38.906L30.4981 36.8831C30.5856 36.7973 30.7027 36.7498 30.8243 36.7509C30.9459 36.7519 31.0623 36.8015 31.1482 36.8889C31.2342 36.9762 31.283 37.0944 31.2841 37.218C31.2851 37.3415 31.2384 37.4605 31.1539 37.5494ZM31.1539 32.8374L28.8351 35.1934C28.7481 35.2818 28.6302 35.3314 28.5072 35.3315H29.4347C29.5577 35.3315 29.6757 35.3811 29.7626 35.4695C29.8496 35.5578 29.8985 35.6777 29.8985 35.8027C29.8985 35.9276 29.8496 36.0475 29.7626 36.1359C29.6757 36.2242 29.5577 36.2739 29.4347 36.2739H26.6521C26.5291 36.2739 26.4111 36.2242 26.3242 36.1359C26.2372 36.0475 26.1883 35.9276 26.1883 35.8027V32.9755C26.1883 32.8505 26.2372 32.7306 26.3242 32.6423C26.4111 32.5539 26.5291 32.5043 26.6521 32.5043H28.9709C29.0939 32.5043 29.2119 32.5539 29.2989 32.6423C29.3858 32.7306 29.4347 32.8505 29.4347 32.9755C29.4347 33.1004 29.3858 33.2203 29.2989 33.3086C29.2119 33.397 29.0939 33.4467 28.9709 33.4467H27.5796C27.7026 33.4467 27.8206 33.4963 27.9075 33.5847L28.5072 34.194L30.4981 32.1711C30.5856 32.0853 30.7027 32.0378 30.8243 32.0389C30.9459 32.0399 31.0623 32.0895 31.1482 32.1769C31.2342 32.2642 31.283 32.3824 31.2841 32.506C31.2851 32.6295 31.2384 32.7485 31.1539 32.8374ZM37.7825 40.0435C37.9055 40.0435 38.0235 40.0931 38.1105 40.1815C38.1974 40.2699 38.2463 40.3897 38.2463 40.5147C38.2463 40.6396 38.1974 40.7595 38.1105 40.8479C38.0235 40.9362 37.9055 40.9859 37.7825 40.9859H32.2173C32.0943 40.9859 31.9764 40.9362 31.8894 40.8479C31.8024 40.7595 31.7535 40.6396 31.7535 40.5147C31.7535 40.3897 31.8024 40.2699 31.8894 40.1815C31.9764 40.0931 32.0943 40.0435 32.2173 40.0435H37.7825ZM32.2173 34.3891C32.0943 34.3891 31.9764 34.3394 31.8894 34.251C31.8024 34.1627 31.7535 34.0428 31.7535 33.9179C31.7535 33.7929 31.8024 33.673 31.8894 33.5847C31.9764 33.4963 32.0943 33.4467 32.2173 33.4467H39.6376C39.7606 33.4467 39.8786 33.4963 39.9655 33.5847C40.0525 33.673 40.1014 33.7929 40.1014 33.9179C40.1014 34.0428 40.0525 34.1627 39.9655 34.251C39.8786 34.3394 39.7606 34.3891 39.6376 34.3891H32.2173Z" fill="#E57A7A"/>
</svg>
