<svg width="36" height="37" viewBox="0 0 36 37" fill="none" xmlns="http://www.w3.org/2000/svg">
<circle cx="18" cy="18.9685" r="17.75" stroke="white" stroke-width="0.5"/>
<path d="M10.474 26.1731H13.3781C13.5172 26.1731 13.63 26.0603 13.63 25.9206V16.1729C13.63 16.0344 13.5172 15.9216 13.3781 15.9216H10.474C10.3354 15.9216 10.2227 16.0344 10.2227 16.1729V25.9206C10.2227 26.0603 10.3354 26.1731 10.474 26.1731ZM25.9188 20.2941V25.9206C25.9188 26.0603 25.8061 26.1731 25.667 26.1731H22.7623C22.6232 26.1731 22.5105 26.0603 22.5105 25.9206V20.6882C22.5105 19.3105 22.0184 18.37 20.7844 18.37C19.8429 18.37 19.2828 19.0033 19.0357 19.616C18.9467 19.8352 18.9235 20.1404 18.9235 20.4474V25.9206C18.9235 26.0597 18.8107 26.1725 18.6711 26.1725H15.767C15.6279 26.1725 15.5151 26.0603 15.5157 25.9206C15.5225 24.5276 15.5515 17.7657 15.522 16.176C15.5193 16.0355 15.6326 15.9216 15.7733 15.9216H18.6716C18.8107 15.9216 18.9235 16.0344 18.9235 16.1729V17.3743C18.9167 17.3854 18.9066 17.3969 18.9008 17.4074H18.9235V17.3743C19.3766 16.6766 20.1843 15.6808 21.9952 15.6808C24.2381 15.6808 25.9188 17.1456 25.9188 20.2941Z" fill="white"/>
<path d="M13.6492 12.7933C13.6492 13.8005 12.832 14.6172 11.8246 14.6172C10.8167 14.6172 10 13.8005 10 12.7933C10 11.7852 10.8167 10.9686 11.8246 10.9686C12.832 10.9686 13.6492 11.7852 13.6492 12.7933Z" fill="white"/>
</svg>
