<svg width="36" height="37" viewBox="0 0 36 37" fill="none" xmlns="http://www.w3.org/2000/svg">
<circle cx="18" cy="18.9685" r="17.75" stroke="white" stroke-width="0.5"/>
<path d="M26.5293 13.7055C25.9702 13.9585 25.3548 14.1122 24.7521 14.2135C25.0382 14.1649 25.4602 13.6465 25.6288 13.4374C25.8865 13.1171 26.1004 12.7531 26.221 12.3593C26.2363 12.3289 26.2479 12.2904 26.2173 12.2667C26.1789 12.2519 26.1536 12.2593 26.123 12.2752C25.4497 12.6356 24.7531 12.8973 24.0124 13.0828C23.9502 13.098 23.9049 13.0828 23.8664 13.0443C23.8048 12.9747 23.7473 12.9095 23.682 12.8552C23.3706 12.5902 23.0361 12.3826 22.6588 12.2287C22.1641 12.027 21.6235 11.9416 21.0908 11.9759C20.5719 12.0101 20.0624 12.156 19.6024 12.3964C19.1409 12.6376 18.7294 12.9727 18.4017 13.3769C18.0634 13.7951 17.8131 14.2892 17.6851 14.813C17.5613 15.3183 17.5713 15.8178 17.6466 16.3288C17.6582 16.4138 17.6509 16.4253 17.5745 16.4138C14.6745 15.9822 12.2704 14.9443 10.3194 12.7208C10.2345 12.6244 10.1887 12.6244 10.1192 12.7288C9.26562 14.0085 9.67974 16.0644 10.7467 17.0749C10.8884 17.2099 11.0349 17.3447 11.1924 17.4676C11.135 17.4795 10.4247 17.4021 9.79248 17.0749C9.70766 17.0212 9.66499 17.0523 9.65761 17.1488C9.65024 17.2862 9.66182 17.4143 9.68027 17.5639C9.84465 18.8616 10.743 20.0612 11.9732 20.5296C12.1192 20.5908 12.2809 20.6444 12.439 20.6714C12.1587 20.733 11.8694 20.7768 11.0654 20.714C10.9653 20.6947 10.9274 20.7451 10.9653 20.8406C11.5696 22.4875 12.8737 22.9776 13.85 23.2562C13.9806 23.2795 14.1123 23.2795 14.243 23.3099C14.2351 23.3217 14.2272 23.3217 14.2198 23.3336C13.8958 23.8269 12.773 24.1951 12.2493 24.3775C11.2988 24.7099 10.263 24.8595 9.25771 24.7605C9.09648 24.7368 9.06329 24.7389 9.01903 24.7605C8.9753 24.7879 9.01377 24.8263 9.0654 24.8679C9.26931 25.0029 9.47741 25.1219 9.68869 25.2374C10.3273 25.5761 10.9927 25.8447 11.6887 26.0375C15.2831 27.0298 19.3321 26.301 22.0308 23.6192C24.1499 21.5134 24.8928 18.6098 24.8928 15.7019C24.8928 15.5881 25.0271 15.5253 25.1077 15.4655C25.6589 15.0507 26.0972 14.5553 26.5087 14.0017C26.6009 13.8774 26.5951 13.7667 26.5951 13.7214C26.5951 13.713 26.5951 13.7055 26.5951 13.7055C26.5951 13.6596 26.6009 13.6735 26.5293 13.7055Z" fill="white"/>
<path fill-rule="evenodd" clip-rule="evenodd" d="M14.2249 26.3993C14.2017 26.4007 13.9351 26.3993 14.2249 26.3993C14.2249 26.3993 14.1786 26.3993 14.2249 26.3993Z" fill="white"/>
<path fill-rule="evenodd" clip-rule="evenodd" d="M14.8184 26.4143C14.8184 26.3843 15.1297 26.4143 14.8184 26.4143C14.8184 26.3987 14.8568 26.4143 14.8184 26.4143Z" fill="white"/>
<path fill-rule="evenodd" clip-rule="evenodd" d="M21.041 11.99C21.0215 12.0053 20.9946 12.0053 20.9678 11.99C20.9946 11.99 21.0215 11.99 21.041 11.99Z" fill="white"/>
</svg>
