<svg width="36" height="37" viewBox="0 0 36 37" fill="none" xmlns="http://www.w3.org/2000/svg">
<circle cx="18" cy="18.9685" r="17.75" fill="white" stroke="white" stroke-width="0.5"/>
<path fill-rule="evenodd" clip-rule="evenodd" d="M15.853 19.0883V27.8376C15.853 27.9635 15.9547 28.0652 16.0806 28.0652H19.3299C19.4558 28.0652 19.5575 27.9635 19.5575 27.8376V18.9459H21.9132C22.0312 18.9459 22.1302 18.8547 22.1402 18.7368L22.3668 16.0578C22.3779 15.9248 22.273 15.811 22.1397 15.811H19.5575V13.9101C19.5575 13.4643 19.9189 13.1033 20.3641 13.1033H22.1798C22.3057 13.1033 22.4074 13.0013 22.4074 12.8753V10.1963C22.4074 10.0707 22.3057 9.96861 22.1798 9.96861H19.1118C17.3119 9.96861 15.853 11.4274 15.853 13.2279V15.811H14.2281C14.1027 15.811 14 15.9127 14 16.0386V18.7179C14 18.8432 14.1027 18.9459 14.2281 18.9459H15.853V19.0883Z" fill="#E57A7A"/>
</svg>
