<svg width="36" height="37" viewBox="0 0 36 37" fill="none" xmlns="http://www.w3.org/2000/svg">
<circle cx="18" cy="18.9685" r="17.75" stroke="white" stroke-width="0.5"/>
<path d="M26.0956 23.1592C26.0956 25.3162 24.3474 27.0643 22.1904 27.0643H14.6861C12.529 27.0643 10.7808 25.3162 10.7808 23.1592V15.6544C10.7808 13.4973 12.529 11.7491 14.6861 11.7491H22.1904C24.3474 11.7491 26.0956 13.4973 26.0956 15.6544V23.1592ZM27.8764 15.6544C27.8764 12.5143 25.3311 9.96842 22.1904 9.96842H14.6861C11.5453 9.96842 9 12.5143 9 15.6544V23.1592C9 26.2993 11.5453 28.8452 14.6861 28.8452H22.1904C25.3311 28.8452 27.8764 26.2993 27.8764 23.1592V15.6544ZM18.4706 22.5153C16.8241 22.5153 15.4843 21.1755 15.4843 19.529C15.4843 17.8825 16.8241 16.5426 18.4706 16.5426C20.1171 16.5426 21.4564 17.8825 21.4564 19.529C21.4564 21.1755 20.1171 22.5153 18.4706 22.5153ZM18.4706 14.8674C15.9 14.8674 13.8088 16.9584 13.8088 19.529C13.8088 22.0998 15.9 24.1904 18.4706 24.1904C21.0412 24.1904 23.1319 22.0998 23.1319 19.529C23.1319 16.9584 21.0412 14.8674 18.4706 14.8674ZM23.4043 13.4442C22.7915 13.4442 22.2942 13.9404 22.2942 14.5533C22.2942 15.1666 22.7915 15.6634 23.4043 15.6634C24.017 15.6634 24.5139 15.1666 24.5139 14.5533C24.5139 13.9404 24.017 13.4442 23.4043 13.4442Z" fill="white"/>
</svg>
