<svg width="71" height="71" viewBox="0 0 71 71" fill="none" xmlns="http://www.w3.org/2000/svg">
<rect x="11.3552" y="10" width="50" height="50" fill="#E57A7A" fill-opacity="0.05"/>
<rect x="35.3552" width="50" height="50" transform="rotate(45 35.3552 0)" fill="#E57A7A" fill-opacity="0.05"/>
<path fill-rule="evenodd" clip-rule="evenodd" d="M38.697 23.4166C38.0086 21.0833 34.702 21.0833 34.0136 23.4166L33.847 23.9833C33.7441 24.3326 33.5644 24.6545 33.321 24.9253C33.0775 25.1961 32.7766 25.409 32.4401 25.5484C32.1037 25.6878 31.7404 25.7501 31.3767 25.7307C31.0131 25.7114 30.6584 25.6109 30.3386 25.4366L29.822 25.1533C27.6836 23.99 25.3453 26.3283 26.5103 28.465L26.792 28.9833C27.5353 30.35 26.8303 32.0516 25.3386 32.4916L24.772 32.6583C22.4386 33.3466 22.4386 36.6533 24.772 37.3416L25.3386 37.5083C25.688 37.6111 26.0098 37.7909 26.2807 38.0343C26.5515 38.2777 26.7644 38.5787 26.9037 38.9151C27.0431 39.2516 27.1054 39.6149 27.0861 39.9785C27.0667 40.3422 26.9662 40.6969 26.792 41.0166L26.5086 41.5333C25.3453 43.6716 27.6836 46.01 29.8203 44.845L30.3386 44.5633C30.6584 44.389 31.0131 44.2885 31.3767 44.2692C31.7404 44.2499 32.1037 44.3122 32.4401 44.4515C32.7766 44.5909 33.0775 44.8038 33.321 45.0746C33.5644 45.3454 33.7441 45.6673 33.847 46.0166L34.0136 46.5833C34.702 48.9166 38.0086 48.9166 38.697 46.5833L38.8636 46.0166C38.9665 45.6673 39.1462 45.3454 39.3897 45.0746C39.6331 44.8038 39.9341 44.5909 40.2705 44.4515C40.6069 44.3122 40.9703 44.2499 41.3339 44.2692C41.6975 44.2885 42.0522 44.389 42.372 44.5633L42.8886 44.8466C45.027 46.01 47.3653 43.6716 46.2003 41.535L45.9186 41.0166C45.7444 40.6969 45.6439 40.3422 45.6245 39.9785C45.6052 39.6149 45.6675 39.2516 45.8069 38.9151C45.9462 38.5787 46.1591 38.2777 46.43 38.0343C46.7008 37.7909 47.0226 37.6111 47.372 37.5083L47.9386 37.3416C50.272 36.6533 50.272 33.3466 47.9386 32.6583L47.372 32.4916C47.0226 32.3888 46.7008 32.209 46.43 31.9656C46.1591 31.7222 45.9462 31.4212 45.8069 31.0848C45.6675 30.7484 45.6052 30.385 45.6245 30.0214C45.6439 29.6577 45.7444 29.303 45.9186 28.9833L46.202 28.4666C47.3653 26.3283 45.027 23.99 42.8903 25.155L42.372 25.4366C42.0522 25.6109 41.6975 25.7114 41.3339 25.7307C40.9703 25.7501 40.6069 25.6878 40.2705 25.5484C39.9341 25.409 39.6331 25.1961 39.3897 24.9253C39.1462 24.6545 38.9665 24.3326 38.8636 23.9833L38.697 23.4166ZM36.3553 39.8833C37.6504 39.8833 38.8925 39.3688 39.8083 38.453C40.7241 37.5372 41.2386 36.2951 41.2386 35C41.2386 33.7048 40.7241 32.4627 39.8083 31.5469C38.8925 30.6311 37.6504 30.1166 36.3553 30.1166C35.0606 30.1166 33.8189 30.6309 32.9034 31.5464C31.988 32.4619 31.4736 33.7036 31.4736 34.9983C31.4736 36.293 31.988 37.5347 32.9034 38.4502C33.8189 39.3656 35.0606 39.88 36.3553 39.88V39.8833Z" fill="#E57A7A"/>
</svg>
