<svg width="140" height="141" viewBox="0 0 140 141" fill="none" xmlns="http://www.w3.org/2000/svg">
<g filter="url(#filter0_d)">
<circle cx="70" cy="67.51" r="35" fill="white"/>
</g>
<g clip-path="url(#clip0)">
<path d="M72.3906 85.51H67.6094C66.834 85.51 66.2031 84.8791 66.2031 84.1038V82.0045C64.8801 81.6588 63.6175 81.1353 62.437 80.4428L60.9514 81.9285C60.4029 82.4767 59.5108 82.4767 58.9626 81.9285L55.5815 78.5474C55.0333 77.9992 55.0333 77.1071 55.5815 76.5589L57.0672 75.073C56.3748 73.8925 55.8513 72.6299 55.5055 71.3069H53.4062C52.6309 71.3069 52 70.676 52 69.9006V65.1194C52 64.344 52.6309 63.7131 53.4062 63.7131H55.5008C55.8455 62.3879 56.3684 61.1231 57.0609 59.9404L55.5815 58.4611C55.0333 57.9129 55.0333 57.0208 55.5815 56.4726L58.9626 53.0916C59.5108 52.5433 60.4029 52.5433 60.9514 53.0916L62.4255 54.5659C63.6093 53.8702 64.8757 53.3445 66.2031 52.9976V50.9163C66.2031 50.1409 66.834 49.51 67.6094 49.51H72.3906C73.166 49.51 73.7969 50.1409 73.7969 50.9163V52.993C75.1262 53.3387 76.3951 53.8639 77.5808 54.5593L79.0489 53.0916C79.5971 52.5433 80.4892 52.5433 81.0374 53.0916L84.4185 56.4726C84.9667 57.0208 84.9667 57.9129 84.4185 58.4614L82.9507 59.9292C83.6461 61.1149 84.1713 62.3838 84.5171 63.7131H86.5938C87.3691 63.7131 88 64.344 88 65.1194V69.9006C88 70.676 87.3691 71.3069 86.5938 71.3069H84.5124C84.1655 72.6343 83.6395 73.9008 82.9441 75.0845L84.4182 76.5589C84.9664 77.1071 84.9664 77.9992 84.4182 78.5474L81.0374 81.9285C80.4892 82.4767 79.5971 82.4767 79.0486 81.9285L77.5696 80.4492C76.3866 81.1416 75.1218 81.6645 73.7969 82.0092V84.1038C73.7969 84.8791 73.166 85.51 72.3906 85.51ZM62.3315 78.8506C62.4623 78.8506 62.5933 78.8869 62.7097 78.9611C64.0476 79.8152 65.5107 80.422 67.0581 80.7645C67.3803 80.8359 67.6094 81.1212 67.6094 81.4511V84.1038H72.3906V81.455C72.3906 81.1248 72.6202 80.8392 72.9427 80.7683C74.4923 80.4272 75.9576 79.8213 77.2977 78.9677C77.5756 78.7905 77.9395 78.8303 78.1727 79.0635L80.0432 80.9339L83.4239 77.5532L81.5576 75.6869C81.3242 75.4534 81.2846 75.0889 81.4626 74.8107C82.3198 73.4704 82.929 72.0037 83.2726 70.4519C83.3437 70.1297 83.6294 69.9006 83.959 69.9006H86.5938V65.1194H83.9628C83.6327 65.1194 83.347 64.8898 83.2762 64.5673C82.9342 63.0133 82.3261 61.5444 81.4689 60.2019C81.2915 59.9237 81.3313 59.5598 81.5645 59.3263L83.4239 57.4669L80.0432 54.0861L78.1837 55.9455C77.9505 56.1787 77.5863 56.2185 77.3081 56.0411C75.9656 55.1839 74.4967 54.5761 72.9427 54.2339C72.6202 54.163 72.3906 53.8773 72.3906 53.5472V50.9163H67.6094V53.5511C67.6094 53.8809 67.3803 54.1663 67.0584 54.2377C65.5063 54.5813 64.0396 55.1902 62.6993 56.0474C62.4214 56.2254 62.0566 56.1859 61.8234 55.9524L59.9568 54.0861L56.5761 57.4669L58.4465 59.3376C58.6797 59.5705 58.7195 59.9344 58.5424 60.2123C57.6887 61.5524 57.0828 63.0177 56.7417 64.5673C56.6708 64.8898 56.3852 65.1194 56.0551 65.1194H53.4062V69.9006H56.0589C56.3888 69.9006 56.6741 70.13 56.7455 70.4519C57.088 71.9996 57.695 73.4624 58.549 74.8003C58.7264 75.0785 58.6868 75.4427 58.4534 75.6759L56.5761 77.5532L59.9568 80.9342L61.8341 79.0566C61.9701 78.921 62.15 78.8506 62.3315 78.8506Z" fill="#E57A7A"/>
<path d="M69.9999 77.7709C67.3711 77.7709 64.7424 76.77 62.741 74.7688C58.7384 70.7662 58.7384 64.2536 62.741 60.251C64.3554 58.6368 66.4024 57.6271 68.6607 57.3316C70.8472 57.0454 73.1046 57.4788 75.0179 58.5516C75.3566 58.7414 75.4771 59.1699 75.2873 59.5086C75.0973 59.8475 74.6688 59.9681 74.3302 59.778C70.887 57.8471 66.5301 58.4506 63.7355 61.2455C60.2811 64.6996 60.2811 70.3202 63.7355 73.7746C65.4625 75.5014 67.7315 76.3649 69.9999 76.3652C72.2689 76.3654 74.5373 75.5019 76.2646 73.7746C78.9653 71.0739 79.6341 66.9653 77.9285 63.551C77.7549 63.2035 77.8958 62.7811 78.2432 62.6075C78.5904 62.4339 79.0128 62.5751 79.1864 62.9226C81.1628 66.8787 80.3883 71.6397 77.2588 74.7688C75.2574 76.77 72.6287 77.7709 69.9999 77.7709Z" fill="#E57A7A"/>
<path d="M76.9153 61.6047C76.7296 61.6047 76.5489 61.53 76.4173 61.3985C76.2866 61.2677 76.2122 61.087 76.2122 60.9016C76.2122 60.7165 76.2866 60.5352 76.4173 60.4045C76.5481 60.2735 76.7296 60.1985 76.9153 60.1985C77.1001 60.1985 77.2814 60.2735 77.4124 60.4045C77.5432 60.5352 77.6184 60.7165 77.6184 60.9016C77.6184 61.087 77.5432 61.2677 77.4124 61.3985C77.2809 61.53 77.1001 61.6047 76.9153 61.6047Z" fill="#E57A7A"/>
<path d="M69.0077 72.6896C68.8212 72.6896 68.6424 72.6155 68.5106 72.4836L64.0641 68.0369C63.7895 67.7625 63.7895 67.3173 64.0641 67.0427L66.5861 64.5205C66.7179 64.3886 66.8967 64.3148 67.0832 64.3148C67.2697 64.3148 67.4488 64.3886 67.5806 64.5205L69.0077 65.9479L72.4198 62.5361C72.6942 62.2614 73.1394 62.2614 73.4141 62.5361L75.9362 65.0583C76.2106 65.3326 76.2106 65.7779 75.9362 66.0525L69.5051 72.4836C69.373 72.6155 69.1942 72.6896 69.0077 72.6896ZM65.5555 67.5398L69.0077 70.992L74.4446 65.5554L72.9169 64.0277L69.5051 67.4395C69.3733 67.5714 69.1942 67.6455 69.0077 67.6455C68.8212 67.6455 68.6424 67.5714 68.5106 67.4395L67.0832 66.0121L65.5555 67.5398Z" fill="#E57A7A"/>
</g>
<defs>
<filter id="filter0_d" x="0" y="0.51001" width="140" height="140" filterUnits="userSpaceOnUse" color-interpolation-filters="sRGB">
<feFlood flood-opacity="0" result="BackgroundImageFix"/>
<feColorMatrix in="SourceAlpha" type="matrix" values="0 0 0 0 0 0 0 0 0 0 0 0 0 0 0 0 0 0 127 0"/>
<feOffset dy="3"/>
<feGaussianBlur stdDeviation="17.5"/>
<feColorMatrix type="matrix" values="0 0 0 0 0 0 0 0 0 0 0 0 0 0 0 0 0 0 0.1 0"/>
<feBlend mode="normal" in2="BackgroundImageFix" result="effect1_dropShadow"/>
<feBlend mode="normal" in="SourceGraphic" in2="effect1_dropShadow" result="shape"/>
</filter>
<clipPath id="clip0">
<rect width="36" height="36" fill="white" transform="translate(52 49.51)"/>
</clipPath>
</defs>
</svg>
