<svg width="140" height="141" viewBox="0 0 140 141" fill="none" xmlns="http://www.w3.org/2000/svg">
<g filter="url(#filter0_d)">
<circle cx="70" cy="67.51" r="35" fill="white"/>
</g>
<path d="M61.8 68.31H78.2V71.39H79.7999V66.71H70.8V63.51H69.2V66.71H60.2V71.39H61.8V68.31Z" fill="#E57A7A"/>
<path d="M66 72.51H56C55.4696 72.51 54.9609 72.7207 54.5858 73.0958C54.2107 73.4709 54 73.9796 54 74.51V80.51C54 81.0404 54.2107 81.5492 54.5858 81.9242C54.9609 82.2993 55.4696 82.51 56 82.51H66C66.5304 82.51 67.0391 82.2993 67.4142 81.9242C67.7893 81.5492 68 81.0404 68 80.51V74.51C68 73.9796 67.7893 73.4709 67.4142 73.0958C67.0391 72.7207 66.5304 72.51 66 72.51ZM56 80.51V74.51H66V80.51H56Z" fill="#E57A7A"/>
<path d="M84 72.51H74C73.4696 72.51 72.9609 72.7207 72.5858 73.0958C72.2107 73.4709 72 73.9796 72 74.51V80.51C72 81.0404 72.2107 81.5492 72.5858 81.9242C72.9609 82.2993 73.4696 82.51 74 82.51H84C84.5304 82.51 85.0391 82.2993 85.4142 81.9242C85.7893 81.5492 86 81.0404 86 80.51V74.51C86 73.9796 85.7893 73.4709 85.4142 73.0958C85.0391 72.7207 84.5304 72.51 84 72.51ZM74 80.51V74.51H84V80.51H74Z" fill="#E57A7A"/>
<path d="M65 62.51H75C75.5304 62.51 76.0391 62.2993 76.4142 61.9242C76.7893 61.5492 77 61.0404 77 60.51V54.51C77 53.9796 76.7893 53.4709 76.4142 53.0958C76.0391 52.7207 75.5304 52.51 75 52.51H65C64.4696 52.51 63.9609 52.7207 63.5858 53.0958C63.2107 53.4709 63 53.9796 63 54.51V60.51C63 61.0404 63.2107 61.5492 63.5858 61.9242C63.9609 62.2993 64.4696 62.51 65 62.51ZM65 54.51H75V60.51H65V54.51Z" fill="#E57A7A"/>
<defs>
<filter id="filter0_d" x="0" y="0.51001" width="140" height="140" filterUnits="userSpaceOnUse" color-interpolation-filters="sRGB">
<feFlood flood-opacity="0" result="BackgroundImageFix"/>
<feColorMatrix in="SourceAlpha" type="matrix" values="0 0 0 0 0 0 0 0 0 0 0 0 0 0 0 0 0 0 127 0"/>
<feOffset dy="3"/>
<feGaussianBlur stdDeviation="17.5"/>
<feColorMatrix type="matrix" values="0 0 0 0 0 0 0 0 0 0 0 0 0 0 0 0 0 0 0.1 0"/>
<feBlend mode="normal" in2="BackgroundImageFix" result="effect1_dropShadow"/>
<feBlend mode="normal" in="SourceGraphic" in2="effect1_dropShadow" result="shape"/>
</filter>
</defs>
</svg>
