<svg width="71" height="71" viewBox="0 0 71 71" fill="none" xmlns="http://www.w3.org/2000/svg">
<rect x="10.3552" y="10.3553" width="50" height="50" fill="#E57A7A" fill-opacity="0.05"/>
<rect x="35.3552" width="50" height="50" transform="rotate(45 35.3552 0)" fill="#E57A7A" fill-opacity="0.05"/>
<path d="M48.363 29.9291C48.2849 29.8404 48.2004 29.7579 48.1028 29.6945L36.1354 21.5979C35.6671 21.2745 35.0427 21.2745 34.5744 21.5979L22.62 29.6945C22.5225 29.7579 22.4379 29.834 22.3599 29.9228L26.9647 35.179V27.6846C26.9582 27.3296 27.2444 27.0379 27.6021 27.0316H43.1077C43.4654 27.0443 43.7516 27.3359 43.7451 27.6846V35.3565L48.363 29.9291Z" fill="#E57A7A"/>
<path d="M42.4449 36.8782V28.2997H28.2661V36.6626L31.0108 39.7948L34.0482 38.1273C34.8612 37.6834 35.8498 37.6834 36.6628 38.1273L39.8953 39.9026L42.4514 36.8909C42.4514 36.8845 42.4449 36.8845 42.4449 36.8782ZM36.0059 36.5992V36.9859C36.0059 37.3347 35.7132 37.62 35.3555 37.62C34.9978 37.62 34.7051 37.3347 34.7051 36.9859V36.5992C33.8401 36.3265 33.2482 35.5403 33.2482 34.6463C33.2482 34.2976 33.5409 34.0123 33.8986 34.0123C34.2563 34.0123 34.549 34.2976 34.549 34.6463C34.549 35.0775 34.9132 35.4325 35.362 35.4325C35.8043 35.4325 36.1685 35.0775 36.1685 34.64C36.1685 34.2089 35.8043 33.8538 35.3555 33.8538C34.4384 33.8538 33.6254 33.2832 33.3458 32.4335C32.9945 31.3493 33.5994 30.1891 34.7051 29.8403V29.4345C34.7051 29.0858 34.9978 28.8005 35.3555 28.8005C35.7132 28.8005 36.0059 29.0858 36.0059 29.4345V29.8403C36.871 30.113 37.4628 30.8992 37.4628 31.7932C37.4628 32.1419 37.1701 32.4272 36.8124 32.4272C36.4547 32.4272 36.162 32.1419 36.162 31.7932C36.162 31.362 35.8043 31.007 35.3555 31.007C34.9132 31.007 34.5555 31.3557 34.5555 31.7932C34.549 32.2243 34.9067 32.5794 35.3555 32.5857C36.2661 32.5857 37.0791 33.1564 37.3588 34.006C37.7295 35.0839 37.1246 36.2505 36.0059 36.5992Z" fill="#E57A7A"/>
<path d="M27.1081 37.2967L22.022 31.4952V44.0492C22.022 44.2584 22.0675 44.4613 22.1651 44.6452L29.8463 40.4225L27.1081 37.2967Z" fill="#E57A7A"/>
<path d="M39.8235 41.2911L36.0382 39.2242C35.6219 38.9959 35.1081 38.9959 34.6919 39.2178L23.4724 45.3553H47.2511L39.8235 41.2911Z" fill="#E57A7A"/>
<path d="M41.0525 40.5367L48.5451 44.6452C48.6362 44.4614 48.6882 44.2585 48.6882 44.0492V31.5333L41.0525 40.5367Z" fill="#E57A7A"/>
</svg>
