<svg width="71" height="71" viewBox="0 0 71 71" fill="none" xmlns="http://www.w3.org/2000/svg">
<rect x="10" y="10" width="50" height="50" fill="#E57A7A" fill-opacity="0.05"/>
<rect x="35.3552" width="50" height="50" transform="rotate(45 35.3552 0)" fill="#E57A7A" fill-opacity="0.05"/>
<path d="M48.0713 37.5998C47.7103 36.9101 47.0284 36.4816 46.2919 36.4816C45.944 36.4816 45.5985 36.5795 45.293 36.7646L39.3475 40.3675C39.2698 40.4145 39.2138 40.494 39.1926 40.5871C39.0889 41.0426 38.8447 41.6785 38.2713 42.1214C37.6365 42.6116 36.7778 42.7137 35.7314 42.4249C35.7251 42.4232 35.7189 42.4213 35.7134 42.4195L32.2835 41.2735C32.0762 41.2043 31.9599 40.9663 32.0242 40.7432C32.0758 40.5648 32.2269 40.4449 32.4003 40.4449C32.4397 40.4449 32.4791 40.4513 32.5173 40.464L35.9293 41.604C35.9347 41.6058 35.9403 41.6075 35.9459 41.609C36.7506 41.8276 37.379 41.7668 37.8119 41.4327C38.3588 41.0105 38.4551 40.2682 38.4665 40.1591C38.4669 40.1557 38.4673 40.1522 38.4675 40.1486C38.4677 40.1469 38.4678 40.1459 38.4678 40.1456C38.4679 40.1445 38.468 40.1433 38.468 40.1422C38.4681 40.1415 38.4681 40.1408 38.4682 40.14C38.5333 39.2247 37.9844 38.3796 37.162 38.1297L37.1469 38.1247C37.1218 38.1159 34.5977 37.2289 32.9895 36.7351C32.8108 36.6803 32.3185 36.5528 31.6064 36.5528C30.6106 36.5528 29.125 36.8067 27.7 38.0188L21.7864 43.166C21.6511 43.2836 21.6271 43.4956 21.7321 43.6449L24.934 48.1959C24.986 48.2696 25.063 48.318 25.1482 48.3303C25.1624 48.3324 25.1767 48.3334 25.191 48.3334C25.2617 48.3334 25.3309 48.3083 25.3876 48.2613L29.5119 44.8442C29.6046 44.7675 29.7288 44.7386 29.8427 44.7675L36.5041 46.4614C36.9981 46.587 37.532 46.506 37.9738 46.238L47.295 40.5893C48.2749 39.9953 48.6232 38.6543 48.0713 37.5998Z" fill="#E57A7A"/>
<path d="M44.3669 21.6667H32.1927C31.7972 21.6667 31.4766 22.0117 31.4766 22.4373V25.9437C31.4766 26.3693 31.7972 26.7143 32.1927 26.7143H32.4602V34.1598C32.4602 34.5854 32.7808 34.9304 33.1763 34.9304H43.383C43.7785 34.9304 44.0991 34.5854 44.0991 34.1598V26.7142H44.3668C44.7623 26.7142 45.083 26.3692 45.083 25.9436V22.4373C45.083 22.0117 44.7623 21.6667 44.3669 21.6667ZM39.7862 28.545H36.7733C36.4574 28.545 36.2004 28.2684 36.2004 27.9285C36.2004 27.5886 36.4574 27.3121 36.7733 27.3121H39.7862C40.1021 27.3121 40.3591 27.5886 40.3591 27.9285C40.3591 28.2684 40.1021 28.545 39.7862 28.545ZM43.6508 25.173H43.3831H33.1763H32.9088V23.2078H43.6508V25.173Z" fill="#E57A7A"/>
</svg>
