<svg width="128" height="41" viewBox="0 0 128 41" fill="none" xmlns="http://www.w3.org/2000/svg">
<path d="M124 40.3635H4.00024C1.80024 40.3635 0.000244141 38.5635 0.000244141 36.3635V4.36353C0.000244141 2.16353 1.80024 0.363525 4.00024 0.363525H124C126.2 0.363525 128 2.16353 128 4.36353V36.3635C128 38.5635 126.2 40.3635 124 40.3635Z" fill="black"/>
<path d="M27.0002 20.1635C27.0002 17.0635 29.6003 15.5635 29.7003 15.4635C28.2003 13.3635 26.0003 13.0635 25.2003 12.9635C23.3003 12.7635 21.4002 14.0635 20.5002 14.0635C19.5002 14.0635 18.0002 12.9635 16.4002 12.9635C14.3002 12.9635 12.4002 14.1635 11.3002 16.0635C9.10025 19.8635 10.7002 25.4635 12.8002 28.5635C13.9002 30.0635 15.1003 31.7635 16.7003 31.6635C18.3003 31.5635 18.9003 30.6635 20.8003 30.6635C22.7002 30.6635 23.2002 31.6635 24.9002 31.6635C26.6002 31.6635 27.7003 30.1635 28.7003 28.6635C29.9003 26.9635 30.4002 25.2635 30.4002 25.1635C30.3002 25.0635 27.0002 23.8635 27.0002 20.1635Z" fill="white"/>
<path d="M23.9001 10.9636C24.7001 9.86362 25.3001 8.46362 25.2001 6.96362C24.0001 7.06362 22.4001 7.76362 21.6001 8.86362C20.8001 9.76362 20.1001 11.2636 20.3001 12.6636C21.6001 12.7636 23.0001 11.9636 23.9001 10.9636Z" fill="white"/>
<path d="M49.8002 31.4635H47.6003L46.4002 27.6635H42.2002L41.1003 31.4635H39.0002L43.2002 18.5635H45.8002L49.8002 31.4635ZM46.0002 26.0635L44.9002 22.6635C44.8002 22.3635 44.6002 21.4635 44.2002 20.2635C44.1002 20.7635 43.9003 21.6635 43.6003 22.6635L42.5002 26.0635H46.0002Z" fill="white"/>
<path d="M60.5002 26.7635C60.5002 28.3635 60.1002 29.5635 59.2002 30.5635C58.4002 31.3635 57.5002 31.7635 56.3002 31.7635C55.1002 31.7635 54.2002 31.3635 53.7002 30.4635V35.3635H51.6003V25.3635C51.6003 24.3635 51.6002 23.3635 51.5002 22.2635H53.3002L53.4002 23.7635C54.1002 22.6635 55.1002 22.0635 56.5002 22.0635C57.6002 22.0635 58.5002 22.4635 59.2002 23.3635C60.1002 24.1635 60.5002 25.2635 60.5002 26.7635ZM58.4002 26.7635C58.4002 25.8635 58.2002 25.0635 57.8002 24.5635C57.4002 23.9635 56.8002 23.6635 56.0002 23.6635C55.5002 23.6635 55.0003 23.8635 54.6003 24.1635C54.2003 24.4635 53.9002 24.9635 53.8002 25.4635C53.7002 25.7635 53.7002 25.9635 53.7002 26.0635V27.6635C53.7002 28.3635 53.9002 28.8635 54.3002 29.3635C54.7002 29.8635 55.3002 30.0635 55.9002 30.0635C56.7002 30.0635 57.3002 29.7635 57.7002 29.1635C58.2002 28.5635 58.4002 27.7635 58.4002 26.7635Z" fill="white"/>
<path d="M71.2002 26.7635C71.2002 28.3635 70.8002 29.5635 69.9002 30.5635C69.1002 31.3635 68.2002 31.7635 67.0002 31.7635C65.8002 31.7635 64.9002 31.3635 64.4002 30.4635V35.3635H62.3002V25.3635C62.3002 24.3635 62.3002 23.3635 62.2002 22.2635H64.0002L64.1002 23.7635C64.8002 22.6635 65.8002 22.0635 67.2002 22.0635C68.3002 22.0635 69.2002 22.4635 69.9002 23.3635C70.8002 24.1635 71.2002 25.2635 71.2002 26.7635ZM69.1002 26.7635C69.1002 25.8635 68.9002 25.0635 68.5002 24.5635C68.1002 23.9635 67.5002 23.6635 66.7002 23.6635C66.2002 23.6635 65.7002 23.8635 65.3002 24.1635C64.9002 24.4635 64.6002 24.9635 64.5002 25.4635C64.4002 25.7635 64.4002 25.9635 64.4002 26.0635V27.6635C64.4002 28.3635 64.6002 28.8635 65.0002 29.3635C65.4002 29.8635 66.0002 30.0635 66.6002 30.0635C67.4002 30.0635 68.0002 29.7635 68.4002 29.1635C68.9002 28.5635 69.1002 27.7635 69.1002 26.7635Z" fill="white"/>
<path d="M83.2003 27.8636C83.2003 28.9636 82.8003 29.8636 82.1003 30.5636C81.3003 31.3636 80.1003 31.6636 78.6003 31.6636C77.2003 31.6636 76.1003 31.3636 75.3003 30.8636L75.8003 29.1636C76.7003 29.6636 77.7003 29.9636 78.8003 29.9636C79.6003 29.9636 80.2003 29.7636 80.6003 29.4636C81.0003 29.0636 81.2003 28.6636 81.2003 28.0636C81.2003 27.5636 81.0003 27.0636 80.7003 26.7636C80.3003 26.3636 79.7003 26.0636 78.9003 25.7636C76.6003 24.9636 75.5003 23.6636 75.5003 22.0636C75.5003 20.9636 75.9003 20.1636 76.7003 19.4636C77.5003 18.7636 78.5003 18.4636 79.9003 18.4636C81.1003 18.4636 82.0003 18.6636 82.8003 19.0636L82.3003 20.7636C81.6003 20.3636 80.8003 20.1636 79.8003 20.1636C79.1003 20.1636 78.5003 20.3636 78.1003 20.6636C77.8003 20.9636 77.6003 21.3636 77.6003 21.8636C77.6003 22.3636 77.8003 22.7636 78.2003 23.1636C78.5003 23.4636 79.2003 23.7636 80.1003 24.1636C81.2003 24.5636 82.0003 25.1636 82.6003 25.7636C82.9003 26.2636 83.2003 26.9636 83.2003 27.8636Z" fill="white"/>
<path d="M90.0003 23.7635H87.7003V28.2635C87.7003 29.3635 88.1003 29.9635 88.9003 29.9635C89.3003 29.9635 89.6003 29.9635 89.8003 29.8635L89.9003 31.4635C89.5003 31.6635 89.0003 31.6635 88.3003 31.6635C87.5003 31.6635 86.8003 31.4635 86.4003 30.9635C85.9003 30.4635 85.7003 29.6635 85.7003 28.4635V23.7635H84.3003V22.1635H85.7003V20.4635L87.7003 19.8635V22.1635H90.0003V23.7635Z" fill="white"/>
<path d="M100.3 26.7636C100.3 28.1636 99.9002 29.3636 99.1002 30.2636C98.2002 31.1636 97.1002 31.6636 95.7002 31.6636C94.3002 31.6636 93.2002 31.1636 92.4002 30.2636C91.6002 29.3636 91.2002 28.2636 91.2002 26.8636C91.2002 25.4636 91.6002 24.2636 92.5002 23.3636C93.3002 22.4636 94.5002 21.9636 95.9002 21.9636C97.3002 21.9636 98.4002 22.4636 99.2002 23.3636C99.9002 24.2636 100.3 25.3636 100.3 26.7636ZM98.1002 26.8636C98.1002 25.9636 97.9002 25.2636 97.5002 24.6636C97.1002 23.9636 96.4002 23.5636 95.6002 23.5636C94.8002 23.5636 94.1002 23.9636 93.7002 24.6636C93.3002 25.2636 93.1002 26.0636 93.1002 26.8636C93.1002 27.7636 93.3002 28.4636 93.7002 29.0636C94.1002 29.7636 94.8002 30.1636 95.6002 30.1636C96.4002 30.1636 97.0002 29.7636 97.5002 29.0636C97.9002 28.4636 98.1002 27.6636 98.1002 26.8636Z" fill="white"/>
<path d="M107 23.9635C106.8 23.9635 106.6 23.8635 106.3 23.8635C105.6 23.8635 105 24.1635 104.6 24.6635C104.3 25.1635 104.1 25.7635 104.1 26.4635V31.3635H102V24.9635C102 23.8635 102 22.9635 101.9 22.0635H103.7L103.8 23.8635H103.9C104.1 23.2635 104.5 22.7635 104.9 22.3635C105.4 22.0635 105.9 21.8635 106.4 21.8635C106.6 21.8635 106.8 21.8635 106.9 21.8635V23.9635H107Z" fill="white"/>
<path d="M116.2 26.3636C116.2 26.7636 116.2 27.0636 116.1 27.2636H109.9C109.9 28.1636 110.2 28.8636 110.8 29.3636C111.3 29.7636 112 30.0636 112.8 30.0636C113.7 30.0636 114.6 29.9636 115.3 29.6636L115.6 31.0636C114.7 31.4636 113.7 31.6636 112.5 31.6636C111.1 31.6636 109.9 31.2636 109.1 30.3636C108.3 29.5636 107.9 28.3636 107.9 26.9636C107.9 25.5636 108.3 24.3636 109 23.4636C109.8 22.4636 110.9 21.9636 112.3 21.9636C113.6 21.9636 114.7 22.4636 115.3 23.4636C116 24.2636 116.2 25.2636 116.2 26.3636ZM114.3 25.8636C114.3 25.2636 114.2 24.7636 113.9 24.2636C113.5 23.6636 113 23.3636 112.3 23.3636C111.6 23.3636 111.1 23.6636 110.7 24.1636C110.4 24.5636 110.2 25.1636 110.1 25.7636H114.3V25.8636Z" fill="white"/>
<path d="M45.4002 10.6636C45.4002 11.7636 45.1002 12.6636 44.4002 13.2636C43.8002 13.7636 42.9002 14.0636 41.7002 14.0636C41.1002 14.0636 40.6002 14.0636 40.2002 13.9636V7.76357C40.7002 7.66357 41.3002 7.66357 42.0002 7.66357C43.1002 7.66357 43.9002 7.86357 44.5002 8.36357C45.0002 8.86357 45.4002 9.66357 45.4002 10.6636ZM44.3002 10.6636C44.3002 9.96357 44.1002 9.36358 43.7002 8.96358C43.3002 8.56358 42.7002 8.36357 42.0002 8.36357C41.7002 8.36357 41.4002 8.36358 41.2002 8.46358V13.1636C41.3002 13.1636 41.6002 13.1636 41.9002 13.1636C42.7002 13.1636 43.3002 12.9636 43.7002 12.5636C44.1002 12.1636 44.3002 11.4636 44.3002 10.6636Z" fill="white"/>
<path d="M51.0002 11.6634C51.0002 12.3634 50.8002 12.9634 50.4002 13.3634C50.0002 13.8634 49.4002 14.0634 48.7002 14.0634C48.0002 14.0634 47.5003 13.8634 47.1003 13.3634C46.7003 12.9634 46.5002 12.3634 46.5002 11.6634C46.5002 10.9634 46.7003 10.3634 47.1003 9.96343C47.5003 9.46343 48.1002 9.26343 48.8002 9.26343C49.5002 9.26343 50.0002 9.46343 50.4002 9.96343C50.8002 10.3634 51.0002 10.9634 51.0002 11.6634ZM50.0002 11.6634C50.0002 11.2634 49.9002 10.8634 49.7002 10.5634C49.5002 10.1634 49.2002 10.0634 48.8002 10.0634C48.4002 10.0634 48.1002 10.2634 47.9002 10.5634C47.7002 10.8634 47.6003 11.2634 47.6003 11.6634C47.6003 12.0634 47.7002 12.4634 47.9002 12.7634C48.1002 13.1634 48.4002 13.2634 48.8002 13.2634C49.2002 13.2634 49.5002 13.0634 49.7002 12.6634C49.9002 12.4634 50.0002 12.0634 50.0002 11.6634Z" fill="white"/>
<path d="M58.7002 9.36353L57.3002 13.9635H56.4002L55.8002 11.9635C55.6002 11.4635 55.5002 10.9635 55.4002 10.4635C55.3002 10.9635 55.2002 11.4635 55.0002 11.9635L54.4002 13.9635H53.5002L52.0002 9.36353H53.0002L53.5002 11.5635C53.6002 12.0635 53.7002 12.5635 53.8002 13.0635C53.9002 12.6635 54.0002 12.1635 54.2002 11.5635L54.8002 9.36353H55.6003L56.2002 11.4635C56.4002 11.9635 56.5003 12.4635 56.6003 12.9635C56.7003 12.4635 56.8002 11.9635 56.9002 11.4635L57.5002 9.36353H58.7002Z" fill="white"/>
<path d="M63.9002 13.9636H62.9002V11.3636C62.9002 10.5636 62.6002 10.1636 62.0002 10.1636C61.7002 10.1636 61.5002 10.2636 61.3002 10.4636C61.1002 10.6636 61.0002 10.9636 61.0002 11.2636V13.9636H60.0002V10.6636C60.0002 10.2636 60.0002 9.86357 60.0002 9.36357H60.9002V10.0636C61.0002 9.86358 61.2002 9.66358 61.4002 9.46358C61.7002 9.26358 62.0002 9.16357 62.3002 9.16357C62.7002 9.16357 63.1002 9.26358 63.4002 9.56358C63.8002 9.86358 63.9002 10.3636 63.9002 11.0636V13.9636Z" fill="white"/>
<path d="M66.7002 13.9634H65.7002V7.26343H66.7002V13.9634Z" fill="white"/>
<path d="M72.7002 11.6634C72.7002 12.3634 72.5002 12.9634 72.1002 13.3634C71.7002 13.8634 71.1002 14.0634 70.4002 14.0634C69.7002 14.0634 69.2002 13.8634 68.8002 13.3634C68.4002 12.9634 68.2002 12.3634 68.2002 11.6634C68.2002 10.9634 68.4002 10.3634 68.8002 9.96343C69.2002 9.56343 69.8002 9.26343 70.5002 9.26343C71.2002 9.26343 71.7002 9.46343 72.1002 9.96343C72.5002 10.3634 72.7002 10.9634 72.7002 11.6634ZM71.7002 11.6634C71.7002 11.2634 71.6002 10.8634 71.4002 10.5634C71.2002 10.1634 70.9002 10.0634 70.5002 10.0634C70.1002 10.0634 69.8002 10.2634 69.6002 10.5634C69.4002 10.8634 69.3002 11.2634 69.3002 11.6634C69.3002 12.0634 69.4002 12.4634 69.6002 12.7634C69.8002 13.1634 70.1002 13.2634 70.5002 13.2634C70.9002 13.2634 71.2002 13.0634 71.4002 12.6634C71.6002 12.4634 71.7002 12.0634 71.7002 11.6634Z" fill="white"/>
<path d="M77.6002 13.9634H76.7001L76.6002 13.4634C76.3002 13.8634 75.8001 14.0634 75.3001 14.0634C74.9001 14.0634 74.5001 13.9634 74.3001 13.6634C74.1001 13.3634 73.9001 13.0634 73.9001 12.7634C73.9001 12.1634 74.1002 11.7634 74.6002 11.4634C75.1002 11.1634 75.7002 11.0634 76.6002 11.0634V10.9634C76.6002 10.3634 76.3001 10.0634 75.7001 10.0634C75.2001 10.0634 74.9001 10.1634 74.5001 10.3634L74.3001 9.66343C74.7001 9.36343 75.2001 9.26343 75.9001 9.26343C77.1001 9.26343 77.7001 9.86343 77.7001 11.1634V12.8634C77.6001 13.3634 77.6002 13.6634 77.6002 13.9634ZM76.6002 12.3634V11.6634C75.5002 11.6634 74.9001 11.9634 74.9001 12.5634C74.9001 12.7634 75.0002 12.9634 75.1002 13.0634C75.2002 13.1634 75.4002 13.2634 75.6002 13.2634C75.8002 13.2634 76.0001 13.1634 76.2001 13.0634C76.4001 12.9634 76.5002 12.7634 76.6002 12.5634C76.6002 12.5634 76.6002 12.4634 76.6002 12.3634Z" fill="white"/>
<path d="M83.4003 13.9635H82.5003V13.2635C82.2003 13.8635 81.7003 14.0635 81.0003 14.0635C80.4003 14.0635 80.0003 13.8635 79.6003 13.4635C79.2003 13.0635 79.1003 12.4635 79.1003 11.7635C79.1003 11.0635 79.3003 10.4635 79.7003 9.96353C80.1003 9.56353 80.6003 9.36353 81.1003 9.36353C81.7003 9.36353 82.1003 9.56353 82.4003 9.96353V7.36353H83.4003V12.7635C83.4003 13.1635 83.4003 13.5635 83.4003 13.9635ZM82.4003 12.0635V11.2635C82.4003 11.1635 82.4003 11.0635 82.4003 10.9635C82.3003 10.7635 82.2003 10.5635 82.0003 10.3635C81.8003 10.1635 81.6003 10.1635 81.3003 10.1635C80.9003 10.1635 80.6003 10.3635 80.4003 10.6635C80.2003 10.9635 80.1003 11.3635 80.1003 11.8635C80.1003 12.3635 80.2003 12.6635 80.4003 12.9635C80.6003 13.2635 80.9003 13.4635 81.3003 13.4635C81.6003 13.4635 81.9003 13.3635 82.1003 13.0635C82.3003 12.6635 82.4003 12.3635 82.4003 12.0635Z" fill="white"/>
<path d="M92.1003 11.6634C92.1003 12.3634 91.9003 12.9634 91.5003 13.3634C91.1003 13.8634 90.5003 14.0634 89.8003 14.0634C89.1003 14.0634 88.6003 13.8634 88.2003 13.3634C87.8003 12.9634 87.6003 12.3634 87.6003 11.6634C87.6003 10.9634 87.8003 10.3634 88.2003 9.96343C88.6003 9.46343 89.2003 9.26343 89.9003 9.26343C90.6003 9.26343 91.1003 9.46343 91.5003 9.96343C91.9003 10.3634 92.1003 10.9634 92.1003 11.6634ZM91.0003 11.6634C91.0003 11.2634 90.9003 10.8634 90.7003 10.5634C90.5003 10.1634 90.2003 10.0634 89.8003 10.0634C89.4003 10.0634 89.1003 10.2634 88.9003 10.5634C88.7003 10.8634 88.6003 11.2634 88.6003 11.6634C88.6003 12.0634 88.7003 12.4634 88.9003 12.7634C89.1003 13.1634 89.4003 13.2634 89.8003 13.2634C90.2003 13.2634 90.5003 13.0634 90.7003 12.6634C90.9003 12.4634 91.0003 12.0634 91.0003 11.6634Z" fill="white"/>
<path d="M97.6002 13.9636H96.6002V11.3636C96.6002 10.5636 96.3002 10.1636 95.7002 10.1636C95.4002 10.1636 95.2002 10.2636 95.0002 10.4636C94.8002 10.6636 94.7002 10.9636 94.7002 11.2636V13.9636H93.7002V10.6636C93.7002 10.2636 93.7002 9.86357 93.7002 9.36357H94.6002V10.0636C94.7002 9.86358 94.9002 9.66358 95.1002 9.46358C95.4002 9.26358 95.7002 9.16357 96.0002 9.16357C96.4002 9.16357 96.8002 9.26358 97.1002 9.56358C97.5002 9.86358 97.6002 10.3636 97.6002 11.0636V13.9636Z" fill="white"/>
<path d="M104.4 10.1634H103.3V12.3634C103.3 12.9634 103.5 13.1634 103.9 13.1634C104.1 13.1634 104.2 13.1634 104.4 13.1634V13.9634C104.2 14.0634 103.9 14.0634 103.6 14.0634C103.2 14.0634 102.9 13.9634 102.7 13.6634C102.5 13.4634 102.4 12.9634 102.4 12.4634V10.1634H101.7V9.36343H102.4V8.56343L103.4 8.26343V9.36343H104.5V10.1634H104.4Z" fill="white"/>
<path d="M109.8 13.9634H108.8V11.3634C108.8 10.5634 108.5 10.1634 107.9 10.1634C107.4 10.1634 107.1 10.3634 106.9 10.8634C106.9 10.9634 106.9 11.0634 106.9 11.2634V13.9634H105.9V7.26343H106.9V10.0634C107.2 9.56343 107.7 9.26343 108.3 9.26343C108.7 9.26343 109.1 9.36343 109.3 9.66343C109.6 9.96343 109.8 10.5634 109.8 11.1634V13.9634Z" fill="white"/>
<path d="M115.3 11.4635C115.3 11.6635 115.3 11.7635 115.3 11.9635H112.3C112.3 12.4635 112.5 12.7635 112.7 12.9635C113 13.1635 113.3 13.2635 113.7 13.2635C114.2 13.2635 114.6 13.1635 114.9 13.0635L115.1 13.7635C114.7 13.9635 114.2 14.0635 113.6 14.0635C112.9 14.0635 112.3 13.8635 111.9 13.4635C111.5 13.0635 111.3 12.4635 111.3 11.7635C111.3 11.0635 111.5 10.4635 111.9 10.0635C112.3 9.56353 112.8 9.36353 113.5 9.36353C114.2 9.36353 114.7 9.56353 115 10.0635C115.2 10.3635 115.3 10.8635 115.3 11.4635ZM114.4 11.1635C114.4 10.8635 114.3 10.5635 114.2 10.3635C114 10.0635 113.8 9.96353 113.4 9.96353C113.1 9.96353 112.8 10.0635 112.6 10.3635C112.4 10.5635 112.3 10.8635 112.3 11.1635H114.4Z" fill="white"/>
</svg>
