<svg width="128" height="41" viewBox="0 0 128 41" fill="none" xmlns="http://www.w3.org/2000/svg">
<path d="M124 40.3635H4.00024C1.80024 40.3635 0.000244141 38.5635 0.000244141 36.3635V4.36353C0.000244141 2.16353 1.80024 0.363525 4.00024 0.363525H124C126.2 0.363525 128 2.16353 128 4.36353V36.3635C128 38.5635 126.2 40.3635 124 40.3635Z" fill="black"/>
<path fill-rule="evenodd" clip-rule="evenodd" d="M9.80029 19.9635V9.46353C9.80029 8.86353 10.3003 8.36353 10.8003 8.36353C11.3003 8.36353 11.5003 8.46352 11.8003 8.66352L31.1003 19.2635C31.5003 19.4635 31.7003 19.7635 31.7003 20.0635C31.7003 20.3635 31.5003 20.6635 31.1003 20.8635L11.8003 31.4635C11.6003 31.5635 11.3003 31.7635 10.8003 31.7635C10.3003 31.7635 9.80029 31.2635 9.80029 30.6635V19.9635Z" fill="url(#paint0_linear)"/>
<path fill-rule="evenodd" clip-rule="evenodd" d="M22.3003 20.0635L10.6003 8.36353C10.7003 8.36353 10.7003 8.36353 10.8003 8.36353C11.3003 8.36353 11.5003 8.46352 11.8003 8.66352L26.0003 16.4635L22.3003 20.0635Z" fill="url(#paint1_linear)"/>
<path fill-rule="evenodd" clip-rule="evenodd" d="M25.9003 23.5634L22.3003 19.9634L26.0003 16.2634L31.1003 19.0634C31.5003 19.2634 31.7003 19.5634 31.7003 19.8634C31.7003 20.1634 31.5003 20.4634 31.1003 20.6634L25.9003 23.5634Z" fill="url(#paint2_linear)"/>
<path fill-rule="evenodd" clip-rule="evenodd" d="M10.7002 31.5636L22.3002 19.9636L25.9002 23.5636L11.8002 31.2636C11.5002 31.4636 11.3002 31.5636 10.7002 31.5636C10.8002 31.5636 10.8002 31.5636 10.7002 31.5636Z" fill="url(#paint3_linear)"/>
<path fill-rule="evenodd" clip-rule="evenodd" d="M71.1004 34.2635C70.6004 33.8635 70.2004 33.1635 70.0004 32.7635L71.6004 32.0635C71.7004 32.2635 71.9004 32.5635 72.1004 32.8635C72.5004 33.2635 73.1004 33.6635 73.7004 33.6635C74.3004 33.6635 75.0004 33.3635 75.4004 32.8635C75.7004 32.3635 75.9004 31.8635 75.9004 31.1635V30.5635C74.7004 32.0635 72.2004 31.8635 70.8004 30.2635C69.3004 28.6635 69.3004 25.9635 70.8004 24.3635C72.3004 22.8635 74.5004 22.6635 75.8004 24.0635V23.3635H77.5004V30.8635C77.5004 32.7635 76.8004 33.8635 75.9004 34.5635C75.3004 35.0635 74.4004 35.2635 73.6004 35.2635C72.7004 35.1635 71.8004 34.8635 71.1004 34.2635ZM113 34.6635L114.7 30.6635L111.7 23.7635H113.4L115.5 28.6635L117.6 23.7635H119.3L114.7 34.6635H113ZM104.9 30.8635C104.4 30.3635 104.2 29.6635 104.2 28.9635C104.2 28.3635 104.4 27.7635 104.8 27.3635C105.5 26.6635 106.5 26.3635 107.6 26.3635C108.3 26.3635 108.9 26.4635 109.4 26.7635C109.4 25.5635 108.4 25.0635 107.6 25.0635C106.9 25.0635 106.2 25.4635 105.9 26.1635L104.4 25.5635C104.7 24.8635 105.5 23.5635 107.5 23.5635C108.5 23.5635 109.5 23.8635 110.1 24.5635C110.7 25.2635 110.9 26.0635 110.9 27.1635V31.3635H109.2V30.6635C109 30.9635 108.6 31.1635 108.3 31.3635C107.9 31.5635 107.4 31.6635 106.9 31.6635C106.3 31.5635 105.4 31.3635 104.9 30.8635ZM51.6004 27.2635C51.6004 25.2635 53.1004 23.0635 55.8004 23.0635C58.4004 23.0635 60.0004 25.2635 60.0004 27.2635C60.0004 29.2635 58.5004 31.4635 55.8004 31.4635C53.1004 31.4635 51.6004 29.2635 51.6004 27.2635ZM60.6004 27.2635C60.6004 25.2635 62.1004 23.0635 64.8004 23.0635C67.4004 23.0635 69.0004 25.2635 69.0004 27.2635C69.0004 29.2635 67.5004 31.4635 64.8004 31.4635C62.2004 31.4635 60.6004 29.2635 60.6004 27.2635ZM40.3004 29.4635C37.8004 26.9635 37.9004 22.8635 40.4004 20.2635C41.7004 18.9635 43.3004 18.3635 45.0004 18.3635C46.6004 18.3635 48.2004 18.9635 49.4004 20.1635L48.2004 21.4635C46.4004 19.6635 43.5004 19.7635 41.8004 21.5635C40.0004 23.4635 40.0004 26.3635 41.8004 28.2635C43.6004 30.1635 46.6004 30.2635 48.4004 28.3635C49.0004 27.7635 49.2004 26.9635 49.3004 26.1635H45.1004V24.3635H51.0004C51.1004 24.7635 51.1004 25.2635 51.1004 25.7635C51.1004 27.2635 50.5004 28.7635 49.5004 29.7635C48.4004 30.8635 46.8004 31.4635 45.2004 31.4635C43.4004 31.3635 41.6004 30.7635 40.3004 29.4635ZM82.6004 30.1635C81.1004 28.5635 81.1004 25.8635 82.6004 24.1635C84.1004 22.5635 86.6004 22.5635 88.0004 24.1635C88.5004 24.6635 88.8004 25.3635 89.1004 26.0635L83.6004 28.3635C83.9004 29.0635 84.6004 29.6635 85.6004 29.6635C86.5004 29.6635 87.1004 29.3635 87.7004 28.4635L89.2004 29.4635C89.0004 29.6635 88.8004 29.8635 88.7004 30.0635C87.0004 31.7635 84.1004 31.7635 82.6004 30.1635ZM93.0004 31.3635V20.2635H96.6004C98.7004 20.2635 100.4 21.7635 100.4 23.5635C100.4 25.3635 98.9004 26.8635 97.0004 26.8635H94.8004V31.2635H93.0004V31.3635ZM101.4 31.3635V20.2635H103.1V31.3635H101.4ZM78.8004 31.1635V18.7635H80.6004V31.1635H78.8004ZM109.3 28.0635C108.9 27.7635 108.3 27.6635 107.7 27.6635C106.5 27.6635 105.8 28.2635 105.8 28.9635C105.8 29.6635 106.5 30.0635 107.2 30.0635C108.2 30.0635 109.3 29.2635 109.3 28.0635ZM58.1004 27.2635C58.1004 26.0635 57.3004 24.7635 55.8004 24.7635C54.3004 24.7635 53.5004 26.0635 53.5004 27.2635C53.5004 28.4635 54.3004 29.7635 55.8004 29.7635C57.2004 29.7635 58.1004 28.4635 58.1004 27.2635ZM67.1004 27.2635C67.1004 26.0635 66.3004 24.7635 64.8004 24.7635C63.3004 24.7635 62.5004 26.0635 62.5004 27.2635C62.5004 28.4635 63.3004 29.7635 64.8004 29.7635C66.3004 29.7635 67.1004 28.4635 67.1004 27.2635ZM76.0004 27.9635C76.0004 27.8635 76.0004 27.7635 76.1004 27.6635C76.1004 27.5635 76.1004 27.3635 76.1004 27.2635C76.1004 27.1635 76.1004 26.9635 76.1004 26.8635V26.7635C76.1004 26.6635 76.0004 26.4635 76.0004 26.3635C75.7004 25.3635 74.8004 24.6635 73.9004 24.6635C72.7004 24.6635 71.7004 25.8635 71.7004 27.1635C71.7004 28.5635 72.7004 29.6635 74.0004 29.6635C74.8004 29.7635 75.6004 29.0635 76.0004 27.9635ZM83.3004 27.0635L87.0004 25.4635C86.6004 24.7635 86.0004 24.5635 85.5004 24.5635C84.0004 24.6635 83.1003 26.2635 83.3004 27.0635ZM98.6004 23.6635C98.6004 22.6635 97.8004 21.9635 96.7004 21.9635H94.7004V25.4635H96.8004C97.8004 25.4635 98.6004 24.6635 98.6004 23.6635Z" fill="white"/>
<path fill-rule="evenodd" clip-rule="evenodd" d="M114.3 32.6635H114.2V32.5635H114.3H114.2V32.6635H114.3Z" fill="white"/>
<path fill-rule="evenodd" clip-rule="evenodd" d="M114.5 32.6635C114.5 32.5635 114.5 32.5635 114.5 32.6635C114.4 32.5635 114.4 32.5635 114.5 32.6635C114.4 32.6635 114.4 32.6635 114.5 32.6635ZM114.5 32.5635C114.5 32.6635 114.5 32.6635 114.5 32.5635C114.5 32.6635 114.4 32.6635 114.5 32.5635C114.4 32.5635 114.5 32.5635 114.5 32.5635Z" fill="white"/>
<path fill-rule="evenodd" clip-rule="evenodd" d="M114.6 32.5635H114.5H114.6V32.6635V32.5635Z" fill="white"/>
<path d="M38.9001 10.4635C38.9001 8.66348 40.2002 7.56348 41.8002 7.56348C42.9002 7.56348 43.6002 8.06348 44.1002 8.76348L43.3002 9.26348C43.0002 8.86348 42.5002 8.56348 41.8002 8.56348C40.7002 8.56348 39.9001 9.36348 39.9001 10.5635C39.9001 11.7635 40.7002 12.5635 41.8002 12.5635C42.4002 12.5635 42.9002 12.2635 43.1002 12.0635V11.1635H41.5002V10.2635H44.2001V12.3635C43.7001 12.9635 42.9001 13.3635 41.9001 13.3635C40.2001 13.3635 38.9001 12.1635 38.9001 10.4635Z" fill="white"/>
<path d="M45.4001 13.2636V7.66357H49.2001V8.56358H46.3002V9.96358H49.1002V10.8636H46.3002V12.4636H49.2001V13.3636L45.4001 13.2636Z" fill="white"/>
<path d="M52.0003 13.2636V8.56358H50.3003V7.66357H54.7003V8.56358H53.0003V13.2636H52.0003Z" fill="white"/>
<path d="M58.1003 13.2636V7.66357H59.1003V13.2636H58.1003Z" fill="white"/>
<path d="M61.8003 13.2636V8.56358H60.1003V7.66357H64.5003V8.56358H62.8003V13.2636H61.8003Z" fill="white"/>
<path d="M67.7002 10.4635C67.7002 8.76348 68.9002 7.56348 70.6002 7.56348C72.3002 7.56348 73.5002 8.76348 73.5002 10.4635C73.5002 12.1635 72.3002 13.3635 70.6002 13.3635C68.9002 13.3635 67.7002 12.0635 67.7002 10.4635ZM72.4002 10.4635C72.4002 9.26348 71.7002 8.46348 70.5002 8.46348C69.4002 8.46348 68.6002 9.36348 68.6002 10.4635C68.6002 11.6635 69.3002 12.4635 70.5002 12.4635C71.7002 12.4635 72.4002 11.5635 72.4002 10.4635Z" fill="white"/>
<path d="M78.5003 13.2636L75.6003 9.26357V13.2636H74.6003V7.66357H75.6003L78.5003 11.5636V7.66357H79.5003V13.2636H78.5003Z" fill="white"/>
<defs>
<linearGradient id="paint0_linear" x1="16.2677" y1="6.93713" x2="21.8659" y2="29.928" gradientUnits="userSpaceOnUse">
<stop stop-color="#006884"/>
<stop offset="1" stop-color="#8AD1D0"/>
</linearGradient>
<linearGradient id="paint1_linear" x1="9.44104" y1="10.2073" x2="24.697" y2="18.4548" gradientUnits="userSpaceOnUse">
<stop stop-color="#24BBB6"/>
<stop offset="1" stop-color="#DBE692"/>
</linearGradient>
<linearGradient id="paint2_linear" x1="26.9947" y1="23.9835" x2="26.9947" y2="16.0351" gradientUnits="userSpaceOnUse">
<stop stop-color="#FCC072"/>
<stop offset="1" stop-color="#F58A5B"/>
</linearGradient>
<linearGradient id="paint3_linear" x1="12.3949" y1="33.6327" x2="24.4466" y2="21.3675" gradientUnits="userSpaceOnUse">
<stop stop-color="#712B8F"/>
<stop offset="1" stop-color="#EA1D27"/>
</linearGradient>
</defs>
</svg>
