<svg width="572" height="419" viewBox="0 0 572 419" fill="none" xmlns="http://www.w3.org/2000/svg">
<g clip-path="url(#clip0)">
<path d="M319.275 412.366C432.947 412.366 525.096 320.055 525.096 206.183C525.096 92.3113 432.947 0 319.275 0C205.602 0 113.453 92.3113 113.453 206.183C113.453 320.055 205.602 412.366 319.275 412.366Z" fill="#F2F2F2"/>
<path d="M382.181 128.796C411.742 128.796 435.705 104.79 435.705 75.1774C435.705 45.5646 411.742 21.5587 382.181 21.5587C352.62 21.5587 328.656 45.5646 328.656 75.1774C328.656 104.79 352.62 128.796 382.181 128.796Z" fill="#FF6584"/>
<path d="M157.795 40.0667L159.258 70.6219C165.323 78.7249 171.865 87.9976 178.323 98.1035L179.244 51.4885L179.753 51.8141C172.284 46.469 164.691 42.3794 157.286 39.7835L157.795 40.0667Z" fill="#E57A7A"/>
<path d="M158.191 69.2023L156.774 39.6044C148.457 36.7631 140.388 35.8206 133.012 37.1383C132.629 37.2069 132.251 37.2858 131.875 37.3658C133.749 39.38 144.671 51.2753 158.191 69.2023Z" fill="#E57A7A"/>
<path d="M225.341 105.656L225.832 106.125C223.817 102.327 221.68 98.6352 219.423 95.0484L205.669 149.26L205.437 149.054C206.431 151.433 207.376 153.795 208.273 156.14L225.341 105.656Z" fill="#E57A7A"/>
<path d="M204.389 74.8356L204.896 75.2416C197.624 66.611 189.358 58.8735 180.27 52.1908L179.33 99.6941C185.339 109.194 190.719 118.551 195.47 127.765L204.389 74.8356Z" fill="#E57A7A"/>
<path d="M104.622 89.6663C105.395 97.673 106.973 105.581 109.333 113.27L191.348 121.744C187.066 113.835 182.646 106.415 178.356 99.6515L104.831 90.3122L104.622 89.6663Z" fill="#E57A7A"/>
<path d="M112.317 122.137L112.096 121.492L195.102 128.883C194.1 126.918 193.086 124.979 192.06 123.066L109.743 114.561L109.526 113.915C110.356 116.625 111.286 119.366 112.317 122.137Z" fill="#E57A7A"/>
<path d="M218.488 93.9181L218.987 94.3589C214.872 87.875 210.324 81.6768 205.376 75.8063L196.336 129.451C199.469 135.613 202.307 141.689 204.849 147.678L218.488 93.9181Z" fill="#E57A7A"/>
<path d="M216.733 183.53C220.032 197.83 221.282 211.352 220.457 223.945C225.099 214.037 242.752 172.992 236.153 134.739L216.733 183.53Z" fill="#E57A7A"/>
<path d="M127.544 151.048C131.936 156.975 136.72 162.6 141.863 167.886L141.662 167.169L215.499 182.386C213.578 174.401 211.181 166.538 208.32 158.84L127.544 151.048Z" fill="#E57A7A"/>
<path d="M157.554 69.7014C142.921 50.3093 131.376 38.0527 131.209 37.8773L131.4 37.4687C120.296 39.9941 112.455 47.5623 108.142 58.5168L157.554 69.7014Z" fill="#E57A7A"/>
<path d="M208.957 157.96C209.23 158.689 209.507 159.421 209.77 160.147C212.306 167.106 214.462 174.198 216.228 181.392L235.463 133.064L235.933 133.536C234.715 126.811 232.652 120.268 229.792 114.063C228.657 111.63 227.47 109.233 226.229 106.874L208.957 157.96Z" fill="#E57A7A"/>
<path d="M177.496 98.304C171.105 88.3173 164.637 79.1561 158.641 71.1484L108.095 59.7068L107.924 59.0677C104.768 67.3922 103.614 77.6187 104.57 89.0408L177.496 98.304Z" fill="#E57A7A"/>
<path d="M215.798 183.655L142.502 168.55C173.332 200.254 216.465 224.568 219.218 226.105C220.503 212.137 219.046 197.789 215.798 183.655Z" fill="#E57A7A"/>
<path d="M207.801 157.539L207.817 157.49C204.293 148.183 200.271 139.072 195.768 130.197L112.558 122.788C113.97 126.536 115.567 130.323 117.348 134.151C119.941 139.605 123.026 144.81 126.563 149.702L207.801 157.539Z" fill="#E57A7A"/>
<path d="M313.649 142.985L295.322 167.453C294.834 177.569 293.969 188.891 292.508 200.8L322.897 165.487L323.082 166.063C320.732 157.174 317.488 149.173 313.438 142.442L313.649 142.985Z" fill="#E57A7A"/>
<path d="M295.403 165.678L313.157 141.977C308.561 134.475 302.946 128.593 296.426 124.896C296.087 124.703 295.746 124.523 295.405 124.344C295.566 127.093 296.404 143.233 295.403 165.678Z" fill="#E57A7A"/>
<path d="M323.913 236.659L323.992 237.334C324.858 233.122 325.563 228.913 326.108 224.708L280.999 257.674L280.951 257.367C280.202 259.834 279.427 262.257 278.624 264.637L323.913 236.659Z" fill="#E57A7A"/>
<path d="M327.399 199.535L327.53 200.171C327.425 188.878 325.985 177.637 323.24 166.684L292.271 202.67C290.851 213.825 289.037 224.469 286.829 234.602L327.399 199.535Z" fill="#E57A7A"/>
<path d="M241.116 147.212C236.613 153.873 232.794 160.972 229.716 168.402L287.487 227.331C289.226 218.503 290.546 209.964 291.547 202.014L240.865 147.843L241.116 147.212Z" fill="#E57A7A"/>
<path d="M226.369 177.137L226.61 176.499L285.834 235.228C286.313 233.074 286.767 230.933 287.195 228.804L229.21 169.658L229.455 169.022C228.368 171.64 227.34 174.345 226.369 177.137Z" fill="#E57A7A"/>
<path d="M326.107 223.24L326.211 223.899C327.169 216.275 327.613 208.596 327.54 200.913L286.422 236.454C284.911 243.202 283.229 249.694 281.374 255.931L326.107 223.24Z" fill="#E57A7A"/>
<path d="M267.7 291.137C261.136 304.258 253.489 315.471 244.836 324.643C254.719 319.978 294.449 299.644 313.722 265.966L267.7 291.137Z" fill="#E57A7A"/>
<path d="M219.689 209.133C219.298 216.504 219.401 223.893 219.997 231.25L220.299 230.571L267.479 289.467C271.083 282.09 274.243 274.502 276.941 266.746L219.689 209.133Z" fill="#E57A7A"/>
<path d="M294.595 165.656C295.672 141.371 294.583 124.554 294.567 124.313L294.974 124.119C284.813 118.97 273.956 119.789 263.659 125.47L294.595 165.656Z" fill="#E57A7A"/>
<path d="M277.991 266.475C277.737 267.211 277.485 267.951 277.225 268.679C274.747 275.659 271.892 282.499 268.672 289.168L314.257 264.236L314.319 264.9C317.662 258.942 320.239 252.584 321.987 245.978C322.663 243.379 323.274 240.774 323.82 238.164L277.991 266.475Z" fill="#E57A7A"/>
<path d="M291.744 200.427C293.18 188.652 294.031 177.463 294.512 167.465L262.866 126.357L263.141 125.755C255.411 130.151 248.011 137.29 241.475 146.697L291.744 200.427Z" fill="#E57A7A"/>
<path d="M266.9 290.636L220.065 232.17C223.625 276.287 241.364 322.573 242.506 325.516C252.389 315.578 260.402 303.597 266.9 290.636Z" fill="#E57A7A"/>
<path d="M277.369 265.411L277.412 265.385C280.624 255.964 283.327 246.377 285.51 236.666L226.139 177.793C224.841 181.582 223.659 185.519 222.594 189.605C221.119 195.462 220.18 201.442 219.79 207.47L277.369 265.411Z" fill="#E57A7A"/>
<path d="M130.908 175.652L141.728 204.258C149.995 210.087 159.079 216.879 168.338 224.491L154.832 179.873L155.416 180.025C146.663 177.255 138.18 175.717 130.337 175.541L130.908 175.652Z" fill="#E57A7A"/>
<path d="M140.275 203.238L129.795 175.529C121.009 175.402 113.044 177.004 106.436 180.541C106.092 180.725 105.758 180.917 105.425 181.109C107.829 182.445 121.886 190.376 140.275 203.238Z" fill="#E57A7A"/>
<path d="M215.385 217.114L215.997 217.409C212.908 214.421 209.737 211.571 206.483 208.859L210.131 264.674L209.846 264.551C211.525 266.505 213.154 268.458 214.73 270.412L215.385 217.114Z" fill="#E57A7A"/>
<path d="M185.95 194.291L186.557 194.52C176.978 188.564 166.73 183.765 156.024 180.223L169.788 225.691C178.434 232.865 186.437 240.098 193.799 247.39L185.95 194.291Z" fill="#E57A7A"/>
<path d="M95.6445 239.287C98.8499 246.663 102.791 253.695 107.408 260.277L188.021 242.941C181.509 236.745 175.016 231.056 168.848 225.953L96.0422 239.837L95.6445 239.287Z" fill="#E57A7A"/>
<path d="M112.98 267.785L112.571 267.24L193.794 248.567C192.234 247.009 190.671 245.479 189.106 243.978L108.195 261.377L107.79 260.83C109.415 263.151 111.145 265.469 112.98 267.785Z" fill="#E57A7A"/>
<path d="M205.246 208.074L205.857 208.338C199.942 203.446 193.705 198.96 187.188 194.909L195.143 248.726C200.024 253.616 204.597 258.516 208.863 263.424L205.246 208.074Z" fill="#E57A7A"/>
<path d="M231.227 293.84C238.776 306.419 244.137 318.891 247.238 331.123C248.596 320.263 252.719 275.762 234.641 241.426L231.227 293.84Z" fill="#E57A7A"/>
<path d="M136.383 290.566C142.389 294.842 148.674 298.711 155.196 302.145L154.784 301.526L229.7 293.135C225.41 286.135 220.704 279.4 215.608 272.965L136.383 290.566Z" fill="#E57A7A"/>
<path d="M139.824 203.91C119.924 189.999 105.162 181.918 104.95 181.802L105.005 181.355C95.2234 187.195 90.1024 196.82 89.3799 208.574L139.824 203.91Z" fill="#E57A7A"/>
<path d="M215.941 271.931C216.426 272.54 216.915 273.149 217.389 273.759C221.948 279.592 226.187 285.669 230.086 291.964L233.468 240.046L234.06 240.35C230.827 234.331 226.846 228.748 222.211 223.732C220.382 221.769 218.513 219.858 216.604 217.998L215.941 271.931Z" fill="#E57A7A"/>
<path d="M167.615 224.937C158.455 217.419 149.477 210.709 141.304 204.95L89.7027 209.72L89.3425 209.165C88.9101 218.059 90.9683 228.142 95.4015 238.709L167.615 224.937Z" fill="#E57A7A"/>
<path d="M230.377 294.249L156.009 302.579C195.111 323.184 243.635 332.952 246.727 333.562C243.639 319.88 237.826 306.685 230.377 294.249Z" fill="#E57A7A"/>
<path d="M214.713 271.888L214.713 271.837C208.49 264.076 201.854 256.657 194.833 249.611L113.411 268.33C115.911 271.457 118.598 274.565 121.473 277.654C125.622 282.037 130.161 286.032 135.035 289.59L214.713 271.888Z" fill="#E57A7A"/>
<path d="M572 350.457C572 375.185 445.017 419 288.375 419C131.733 419 4.75 375.185 4.75 350.457C4.75 325.728 131.733 329.451 288.375 329.451C445.017 329.451 572 325.728 572 350.457Z" fill="#3F3D56"/>
<path opacity="0.1" d="M572 350.457C572 375.185 445.017 419 288.375 419C131.733 419 4.75 375.185 4.75 350.457C4.75 325.728 131.733 329.451 288.375 329.451C445.017 329.451 572 325.728 572 350.457Z" fill="black"/>
<path d="M288.375 395.231C445.017 395.231 572 375.185 572 350.457C572 325.728 445.017 305.682 288.375 305.682C131.733 305.682 4.75 325.728 4.75 350.457C4.75 375.185 131.733 395.231 288.375 395.231Z" fill="#424141"/>
<path opacity="0.1" d="M337.547 303.658C337.547 330.598 300.061 322.265 254.163 322.265C208.265 322.265 171.336 330.598 171.336 303.658C171.336 276.717 208.817 270.858 254.715 270.858C300.613 270.858 337.547 276.717 337.547 303.658Z" fill="black"/>
<path d="M337.547 297.024C337.547 323.965 300.061 315.632 254.163 315.632C208.265 315.632 171.336 323.965 171.336 297.024C171.336 270.084 208.817 264.225 254.715 264.225C300.613 264.225 337.547 270.084 337.547 297.024Z" fill="#3F3D56"/>
<path d="M189.895 222.895C190.905 222.175 192.019 221.615 193.199 221.235C200.678 218.447 208.515 216.738 216.475 216.16C223.396 215.668 230.897 216.252 236.303 220.609C237.143 221.227 237.832 222.03 238.314 222.957C238.994 224.427 238.788 226.136 238.568 227.741C238.518 228.364 238.362 228.973 238.105 229.542C237.377 230.929 235.586 231.415 234.031 231.249C232.475 231.083 231.015 230.423 229.481 230.118C228.531 229.952 227.571 229.854 226.608 229.825L216.984 229.303C211 228.978 204.937 228.659 199.068 229.869C197.261 230.194 195.514 230.797 193.891 231.656C192.55 232.41 191.648 233.492 190.403 232.099C188.218 229.652 187.008 225.155 189.895 222.895Z" fill="#2F2E41"/>
<path d="M204.807 227.158C204.807 227.158 217.75 221.345 222.66 228.052C227.57 234.759 219.982 232.076 219.982 232.076L211.502 234.759L202.129 232.97L204.807 227.158Z" fill="#F2F2F2"/>
<path d="M205.477 222.91C205.477 222.91 207.262 231.406 205.923 233.641C204.584 235.877 213.511 239.007 213.511 239.007L221.991 235.43C221.991 235.43 219.759 221.569 221.991 218.886L205.477 222.91Z" fill="#FFB9B9"/>
<path opacity="0.1" d="M205.477 222.91C205.477 222.91 207.262 231.406 205.923 233.641C204.584 235.877 213.511 239.007 213.511 239.007L221.991 235.43C221.991 235.43 219.759 221.569 221.991 218.886L205.477 222.91Z" fill="black"/>
<path d="M197.113 325.059C198.313 327.552 199.3 330.142 200.062 332.802C200.075 332.89 200.106 332.974 200.153 333.049C200.2 333.124 200.263 333.189 200.337 333.238C200.41 333.287 200.494 333.32 200.581 333.334C200.668 333.349 200.758 333.345 200.844 333.323L208.783 333.314C209.762 333.313 211.077 332.997 211.067 332.016C211.059 331.327 210.356 330.897 209.832 330.449C208.379 329.207 208 327.159 207.399 325.342C206.229 321.843 203.974 318.81 200.963 316.684C200.556 316.365 200.088 316.133 199.588 316.003C199.084 315.93 198.572 315.957 198.079 316.085C196.686 316.366 191.481 317.33 192.465 319.361C192.888 320.235 194.457 321.145 195.114 321.962C195.881 322.926 196.55 323.963 197.113 325.059Z" fill="#575A89"/>
<path d="M224.721 315.835C224.441 316.425 224.129 316.998 223.787 317.554C222.637 319.454 221.28 321.227 220.209 323.173C219.487 324.362 219.041 325.698 218.905 327.083C218.843 327.776 218.949 328.473 219.213 329.116C219.476 329.759 219.89 330.329 220.42 330.779C221.572 331.655 223.152 331.695 224.585 331.491C226.017 331.287 227.441 330.876 228.884 330.984C228.397 328.227 230.718 325.8 231.299 323.061C231.462 322.292 231.486 321.494 231.705 320.739C231.94 320.048 232.241 319.381 232.603 318.748C233.759 316.493 234.576 314.079 235.028 311.585C235.083 311.282 227.971 311.233 227.304 311.377C225.222 311.828 225.526 314.106 224.721 315.835Z" fill="#575A89"/>
<path d="M169.906 272.517C167.876 275.7 168.344 279.918 169.77 283.414C171.196 286.911 173.465 290.002 175.018 293.443C176.009 295.637 176.703 297.964 177.818 300.097C179.199 302.738 181.215 305.067 182.142 307.9C182.732 309.706 182.868 311.686 183.825 313.327C184.403 314.205 185.063 315.025 185.796 315.777C187.857 318.142 189.404 320.911 190.339 323.907C191.214 321.298 193.832 319.587 196.522 319.022C199.211 318.458 201.998 318.841 204.719 319.226C203.201 316.871 201.669 314.486 200.764 311.833C199.889 309.267 199.631 306.537 199.041 303.891C197.833 298.464 195.251 293.459 192.694 288.523L205.833 287.479C207.978 287.264 210.134 287.183 212.288 287.24C215.679 287.4 219.002 288.233 222.375 288.617C225.748 289.002 229.316 288.902 232.322 287.321C226.574 295.583 223.581 305.454 223.769 315.523C225.054 314.526 226.545 313.829 228.134 313.484C229.722 313.138 231.367 313.153 232.949 313.527C234.531 313.901 236.009 314.625 237.276 315.645C238.542 316.665 239.565 317.956 240.269 319.424C245.418 312.375 244.806 302.563 248.886 294.844C249.725 293.257 250.753 291.778 251.658 290.228C253.369 287.115 254.834 283.872 256.039 280.53C257.181 277.606 258.33 274.352 257.236 271.41C256.781 270.294 256.119 269.274 255.285 268.405C252.931 265.806 249.655 263.882 246.152 263.802C240.774 263.679 236.332 267.672 231.615 270.262C225.984 273.26 219.614 274.583 213.257 274.075C206.777 273.616 200.589 271.491 194.416 269.62C191.328 268.64 188.189 267.829 185.013 267.19C182.366 266.693 179.845 267.244 177.236 267.922C174.396 268.66 171.541 269.954 169.906 272.517Z" fill="#2F2E41"/>
<path d="M226.008 214.415C226.005 217.972 224.594 221.382 222.083 223.897C219.573 226.412 216.169 227.826 212.618 227.829C211.82 227.83 211.024 227.758 210.239 227.614C207.733 227.161 205.409 226.001 203.537 224.271C201.666 222.541 200.326 220.312 199.675 217.846C199.024 215.38 199.088 212.779 199.86 210.348C200.632 207.917 202.08 205.757 204.034 204.122C205.988 202.486 208.367 201.443 210.892 201.114C213.417 200.785 215.984 201.184 218.29 202.264C220.597 203.345 222.548 205.062 223.915 207.214C225.282 209.366 226.008 211.864 226.008 214.415Z" fill="#FFB9B9"/>
<path d="M204.807 227.158C204.807 227.158 207.262 228.276 208.155 229.17C209.048 230.064 211.726 234.982 216.189 231.853C220.652 228.723 221.099 226.934 222.438 226.934C223.777 226.934 225.562 229.617 225.562 229.617L237.836 266.504C234.528 270.245 230.694 273.483 226.455 276.117C219.313 280.588 210.833 282.824 206.816 281.035C202.799 279.247 195.211 277.905 193.872 274.329C192.533 270.752 190.302 260.021 190.302 260.021L196.55 232.747L204.807 227.158Z" fill="#F2F2F2"/>
<path d="M203.084 264.464C204.057 262.359 204.198 259.976 204.281 257.657C204.412 255.36 204.351 253.057 204.099 250.77C203.704 247.779 202.731 244.898 202.117 241.944C201.579 239.354 201.317 236.713 201.337 234.067C201.346 232.86 201.433 231.589 202.09 230.577C202.548 229.87 203.265 229.323 203.551 228.531C204.112 226.979 202.725 225.353 201.205 224.713C199.354 224.018 197.328 223.936 195.427 224.481C193.542 225.027 191.72 225.773 189.993 226.708C188.687 227.266 187.486 228.044 186.442 229.007C185.056 230.444 184.447 232.444 183.955 234.379C183.561 235.929 183.211 237.544 183.511 239.114C183.997 241.664 186.072 243.581 187.178 245.929C188.463 248.655 188.376 251.832 187.865 254.802C187.355 257.773 186.448 260.677 186.168 263.678C185.888 266.68 186.318 269.906 188.195 272.262C188.96 273.222 191.035 275.497 192.435 275.24C193.535 275.038 195.13 272.612 196.016 271.843C198.576 269.621 201.614 267.645 203.084 264.464Z" fill="#2F2E41"/>
<path d="M226.469 225.7C226.508 228.193 225.411 230.564 224.12 232.697C222.83 234.829 221.314 236.847 220.363 239.151C219.181 242.037 218.94 245.222 219.674 248.253C219.946 249.286 220.275 250.302 220.658 251.299L223.104 258.018C223.433 259.075 223.91 260.079 224.522 261.001C225.075 261.707 225.724 262.332 226.449 262.858C228.307 264.361 230.444 265.478 232.737 266.144C235.046 266.806 237.511 266.665 239.729 265.745C239.965 256.635 241.426 247.599 244.073 238.881C244.562 237.272 245.096 235.578 244.719 233.938C244.296 232.102 242.824 230.723 241.425 229.464C237.144 225.614 232.438 221.57 226.708 221.051C223.392 220.75 226.441 223.897 226.469 225.7Z" fill="#2F2E41"/>
<path d="M197.178 277.683C197.518 278.349 197.729 279.074 198.065 279.742C198.56 280.637 199.173 281.462 199.886 282.195C202.87 285.51 206.518 288.812 210.97 289.012C211.412 289.053 211.858 288.997 212.276 288.847C212.652 288.654 212.976 288.372 213.218 288.025C213.461 287.678 213.615 287.276 213.666 286.856C213.982 285.124 213.219 283.397 212.455 281.812C210.799 278.376 208.936 274.854 205.836 272.638C204.288 271.575 202.52 270.878 200.664 270.598C198.808 270.319 196.914 270.464 195.122 271.023C193.507 271.522 190.829 272.392 192.967 273.868C194.589 274.987 196.238 275.84 197.178 277.683Z" fill="#FFB9B9"/>
<path d="M216.421 233.946C215.957 232.689 215.244 231.538 214.327 230.563C213.401 229.779 212.305 229.223 211.127 228.939C209.6 228.502 208.021 228.275 206.433 228.265C204.543 228.253 202.351 228.761 201.549 230.475C200.911 231.837 201.405 233.449 202.047 234.808C202.321 235.512 202.778 236.131 203.37 236.599C204.186 237.151 205.24 237.133 206.206 237.318C207.704 237.699 209.123 238.343 210.397 239.221L213.708 241.225L219.395 244.669C219.245 244.578 219.298 240.671 219.124 240.031C218.561 237.969 217.294 235.899 216.421 233.946Z" fill="#FFB9B9"/>
<path d="M199.856 331.79C198.526 333.601 198.792 336.191 197.614 338.105C196.592 339.764 194.666 340.634 193.389 342.104C192.981 342.593 192.617 343.116 192.302 343.67C191.117 345.659 190.153 348.208 191.321 350.208C192.26 351.817 194.234 352.446 196.045 352.874C198.333 353.416 200.711 353.849 203.026 353.435C205.341 353.021 207.603 351.601 208.428 349.396C208.591 348.841 208.784 348.296 209.006 347.763C210.261 345.288 214.196 345.262 215.48 342.802C216.379 341.081 215.553 339.001 214.727 337.244L212.205 331.877C211.368 330.095 207.976 331.12 206.207 330.693C203.9 330.136 201.516 329.523 199.856 331.79Z" fill="#2F2E41"/>
<path d="M219.363 327.179C218.33 327.994 217.541 329.077 217.081 330.311C215.833 333.195 215.404 336.357 214.988 339.473C214.751 340.713 214.727 341.984 214.916 343.231C215.454 345.776 217.756 347.65 220.234 348.428C222.711 349.207 225.369 349.087 227.963 348.959C228.799 348.981 229.63 348.812 230.392 348.465C231.696 347.745 232.205 346.053 231.981 344.578C231.758 343.104 230.954 341.793 230.167 340.527C229.38 339.261 228.575 337.951 228.35 336.477C227.971 333.997 229.041 330.358 227.52 328.115C225.996 325.867 221.396 325.751 219.363 327.179Z" fill="#2F2E41"/>
<path d="M225.671 207.425C225.433 206.623 224.908 205.936 224.197 205.497C224.234 204.638 224.129 203.779 223.886 202.954C223.075 200.552 221.154 200.69 219.341 199.628C218.555 199.167 218.604 198.76 218.194 198.004C217.658 197.012 216.854 196.191 215.875 195.633C214.712 194.891 213.485 194.127 212.109 194.033C209.219 193.836 207.002 196.559 204.239 197.434C203.021 197.819 201.713 197.835 200.488 198.199C199.264 198.563 198.042 199.433 197.86 200.699C197.776 201.284 197.924 201.884 197.839 202.468C197.669 203.63 196.652 204.443 195.971 205.399C194.465 207.511 194.637 210.496 195.841 212.795C196.095 213.271 196.386 213.726 196.71 214.156C196.81 215.243 197.122 216.299 197.627 217.266C198.831 219.565 200.903 221.283 203.068 222.71C202.891 221.947 202.783 221.17 202.747 220.389C202.717 220.128 202.75 219.864 202.846 219.619C203.087 219.115 203.724 218.98 204.21 218.704C205.216 218.131 205.61 216.864 205.639 215.705C205.668 214.546 205.423 213.385 205.544 212.233C205.549 211.967 205.609 211.706 205.721 211.466C205.833 211.226 205.993 211.011 206.193 210.837C206.564 210.625 206.988 210.523 207.415 210.545C209.476 210.461 211.63 210.423 213.448 209.446C214.035 209.056 214.665 208.737 215.326 208.495C216.871 208.091 218.451 209.176 219.341 210.504C220.232 211.832 220.676 213.412 221.497 214.783C222.319 216.155 223.738 217.378 225.327 217.216C225.416 217.216 225.505 217.197 225.586 217.161C225.668 217.124 225.741 217.071 225.801 217.004C225.87 216.881 225.9 216.74 225.889 216.6L225.977 210.517C226.051 209.476 225.947 208.43 225.671 207.425Z" fill="#2F2E41"/>
<path d="M183.296 239.244C182.019 241.132 180.546 242.947 179.843 245.117C179.431 246.392 179.302 247.741 179.004 249.047C178.008 253.4 175.133 257.266 174.844 261.722C174.743 262.712 174.888 263.712 175.266 264.632C176.091 266.43 178.065 267.377 179.948 267.973C181.831 268.569 183.854 268.998 185.357 270.281C186.113 271.008 186.799 271.805 187.406 272.661C189.858 275.716 193.157 277.978 196.888 279.16C196.593 277.126 196.455 274.674 198.079 273.416C198.957 272.735 200.132 272.614 201.238 272.518L206.468 272.066C202.981 268.677 199.137 265.678 195.004 263.119C193.558 262.225 191.984 261.281 191.324 259.712C190.983 258.701 190.841 257.633 190.907 256.568C190.871 252.671 190.542 248.784 189.922 244.937C189.491 242.266 188.921 239.619 188.269 236.994C188.086 236.257 187.004 232.951 185.673 233.724C185.359 233.906 185.066 236.004 184.883 236.439C184.447 237.424 183.915 238.363 183.296 239.244Z" fill="#2F2E41"/>
<path d="M243.529 232.109L245.664 236.558C246.693 238.388 247.161 240.48 247.011 242.575L247.137 255.921C247.236 257.704 247.088 259.493 246.699 261.236C246.566 261.81 246.315 262.35 245.963 262.823C245.601 263.23 245.174 263.574 244.7 263.842C240.658 266.372 235.417 267.81 231.146 265.69C230.168 265.167 229.239 264.559 228.368 263.873C226.666 262.61 224.939 261.323 223.666 259.628C222.333 257.853 221.569 255.729 220.673 253.698C219.064 250.056 216.985 246.64 214.49 243.539C214.076 243.129 213.807 242.595 213.724 242.018C213.698 240.849 215.083 240.273 216.163 239.828C218.009 239.067 219.749 237.6 220.058 235.625C223.983 240.781 228.314 246.228 234.507 248.112C234.604 248.174 234.716 248.209 234.832 248.212C234.947 248.216 235.061 248.188 235.161 248.132C235.262 248.076 235.346 247.994 235.404 247.894C235.462 247.794 235.491 247.68 235.49 247.565C235.842 246.091 235.966 244.574 236.223 243.081C236.695 240.363 237.603 237.739 238.913 235.311C239.646 233.95 242.021 228.968 243.529 232.109Z" fill="#2F2E41"/>
<path opacity="0.1" d="M190.533 244.975C190.592 248.134 189.922 251.263 188.576 254.12C188.226 254.751 187.968 255.43 187.81 256.134C187.575 257.638 188.429 259.093 189.405 260.258C191.331 262.551 193.828 264.291 196.643 265.303" fill="black"/>
<path opacity="0.1" d="M236.908 242.313C236.593 243.161 236.879 244.099 237.121 244.97C237.824 247.497 238.152 250.113 238.095 252.736C238.105 252.782 238.104 252.829 238.091 252.874C238.078 252.92 238.054 252.961 238.022 252.995C237.989 253.028 237.948 253.053 237.903 253.067C237.859 253.081 237.811 253.084 237.765 253.075C236.735 253.138 235.555 253.144 234.856 252.384" fill="black"/>
<path opacity="0.1" d="M411.978 368.698C450.377 368.698 481.505 362.016 481.505 353.773C481.505 345.53 450.377 338.848 411.978 338.848C373.579 338.848 342.451 345.53 342.451 353.773C342.451 362.016 373.579 368.698 411.978 368.698Z" fill="black"/>
<path d="M446.742 220.556L441.775 225.53L446.742 230.505L451.708 220.556H446.742Z" fill="#A0616A"/>
<path d="M447.86 177.417C449.253 177.989 449.916 179.551 450.441 180.964L456.884 198.306L458.138 201.681C458.753 203.336 459.368 204.993 459.888 206.68C460.217 207.748 460.507 208.826 460.759 209.916C461.02 210.848 461.121 211.818 461.056 212.784C460.882 213.847 460.495 214.863 459.918 215.772C457.676 219.683 454.484 222.962 450.639 225.306C450.417 223.872 449.84 222.517 448.96 221.364C448.08 220.211 446.926 219.298 445.603 218.708L448.934 216.873C449.639 216.541 450.273 216.076 450.801 215.503C451.123 215.056 451.353 214.548 451.475 214.01C451.598 213.473 451.611 212.916 451.514 212.373C451.314 211.289 450.981 210.234 450.525 209.232C449.407 206.438 448.437 203.586 447.619 200.689C447.135 198.976 446.691 197.215 445.732 195.716C444.862 194.356 443.602 193.268 442.812 191.86C441.608 189.714 441.638 187.072 442.17 184.668C442.619 182.639 443.372 180.686 444.006 178.711C444.504 177.159 446.368 176.806 447.86 177.417Z" fill="#D0CDE1"/>
<path d="M417.145 131.086C414.583 131.953 412.262 133.98 411.738 136.637C411.495 137.868 411.644 139.149 411.439 140.387C410.965 143.26 408.714 145.454 406.637 147.492C404.561 149.53 402.417 151.898 402.266 154.805C402.1 157.99 404.405 160.973 404.006 164.136C403.543 167.811 399.668 170.192 398.71 173.77C398.07 176.159 398.854 178.733 400.143 180.842C402.601 184.862 406.801 187.591 411.274 189.054C415.747 190.517 420.511 190.825 425.216 190.874C430.945 190.935 437.165 190.442 441.47 186.654C443.928 184.471 445.472 181.438 445.792 178.162C446.201 173.775 444.373 169.241 445.634 165.02C446.428 162.363 448.418 159.936 448.121 157.179C447.83 154.483 445.48 152.572 443.867 150.394C442.362 148.361 441.448 145.959 440.553 143.592L437.49 135.491C436.887 133.899 436.226 132.224 434.884 131.179C432.371 129.222 428.331 129.606 425.393 130.01C422.668 130.384 419.766 130.199 417.145 131.086Z" fill="#2F2E41"/>
<path d="M419.516 157.782C419.516 157.782 419.815 166.794 418.916 167.695C418.016 168.596 422.514 174.604 422.514 174.604L430.61 174.303L434.808 170.999L431.21 166.193C431.21 166.193 429.711 158.383 430.91 156.581C432.109 154.779 419.516 157.782 419.516 157.782Z" fill="#A0616A"/>
<path opacity="0.1" d="M419.516 157.782C419.516 157.782 419.815 166.794 418.916 167.695C418.016 168.596 422.514 174.604 422.514 174.604L430.61 174.303L434.808 170.999L431.21 166.193C431.21 166.193 429.711 158.383 430.91 156.581C432.109 154.779 419.516 157.782 419.516 157.782Z" fill="black"/>
<path d="M400.773 227.321L405.871 238.736L409.769 233.929L401.973 223.716L400.773 227.321Z" fill="#A0616A"/>
<path d="M387.131 341.616L385.032 353.332L381.434 358.438L383.533 359.64L387.131 359.039L391.329 357.537L393.128 350.628L396.427 341.616H387.131Z" fill="#A0616A"/>
<path d="M425.512 334.407L424.312 351.229L427.311 353.632L432.109 349.427V337.111L425.512 334.407Z" fill="#A0616A"/>
<path d="M424.463 161.237C430.425 161.237 435.258 156.395 435.258 150.423C435.258 144.451 430.425 139.609 424.463 139.609C418.501 139.609 413.668 144.451 413.668 150.423C413.668 156.395 418.501 161.237 424.463 161.237Z" fill="#A0616A"/>
<path d="M432.792 164.968C432.469 164.812 432.116 164.727 431.757 164.72C431.398 164.713 431.042 164.784 430.713 164.928C430.058 165.218 429.422 165.55 428.809 165.921C427.234 166.742 425.447 167.068 423.684 166.855C423.477 166.839 423.274 166.787 423.085 166.701C422.885 166.576 422.701 166.427 422.537 166.257C421.897 165.736 421.081 165.485 420.261 165.556C419.44 165.627 418.679 166.014 418.138 166.637C417.821 167.032 417.604 167.505 417.258 167.875C416.362 168.835 414.883 168.874 413.571 168.872C410.851 168.796 408.132 169.046 405.471 169.616C402.798 170.193 400.337 171.5 398.358 173.391C397.818 173.9 397.388 174.514 397.095 175.196C396.733 176.13 396.781 177.18 396.455 178.128C396.093 179.184 395.291 180.05 394.966 181.118C394.722 181.923 394.756 182.818 394.347 183.552C396.099 185.072 397.584 187.098 399.336 188.617C400.496 189.623 401.711 190.712 402.147 192.185C402.343 193.094 402.43 194.023 402.407 194.952C402.623 199.396 405.029 203.426 407.719 206.966C408.456 208.016 409.339 208.955 410.341 209.756C411.7 210.683 413.244 211.304 414.866 211.576C417.93 212.204 421.083 212.201 424.209 212.17C427.441 212.138 430.729 212.069 433.8 211.063C435.364 210.626 436.77 209.751 437.854 208.541C439.118 206.987 439.611 204.738 441.334 203.72C441.752 203.529 442.147 203.292 442.513 203.015C442.864 202.633 443.113 202.169 443.235 201.665C443.838 199.778 444.17 197.815 444.222 195.835C444.178 194.646 444.258 193.457 444.462 192.285C444.76 191.253 445.195 190.265 445.754 189.348L449.325 182.858C449.616 182.331 449.54 181.555 449.567 180.953C449.54 180.086 449.274 179.242 448.798 178.517C446.482 174.415 442.842 171.224 438.477 169.466C438.133 169.349 437.806 169.188 437.502 168.988C437.145 168.687 436.843 168.326 436.61 167.921C435.662 166.49 434.504 164.878 432.792 164.968Z" fill="#D0CDE1"/>
<path d="M388.275 200.31C387.571 202.025 387.054 203.812 386.733 205.639C386.388 208.163 386.794 210.732 387.901 213.026C389.825 216.995 393.615 219.687 396.29 223.194C398.775 226.451 400.255 230.356 402.407 233.844C402.031 232.956 402.487 231.928 403.101 231.186C403.716 230.443 404.501 229.828 404.951 228.976C405.257 228.316 405.45 227.609 405.521 226.884C405.842 224.722 406.015 222.372 404.915 220.484C404.086 219.063 402.655 218.119 401.522 216.927C400.389 215.715 399.556 214.252 399.091 212.658C398.626 211.064 398.54 209.383 398.843 207.75C399.061 206.625 399.462 205.546 399.762 204.441C400.134 202.956 400.416 201.45 400.605 199.93L401.956 190.64C402.315 188.168 402.618 185.434 401.221 183.366C400.949 182.933 400.572 182.575 400.125 182.327C399.756 182.158 399.362 182.047 398.959 181.998C397.49 181.757 395.499 181.113 394.781 182.69C393.915 184.594 393.312 186.669 392.587 188.632L388.275 200.31Z" fill="#D0CDE1"/>
<path d="M439.739 205.393C439.739 205.393 421.914 208.847 417.716 208.847H410.22C410.22 208.847 407.521 213.654 407.521 218.46C407.521 223.266 389.829 290.552 389.829 290.552C389.829 290.552 373.037 345.822 391.628 346.122C410.22 346.423 421.914 347.324 422.214 341.016C422.514 334.708 424.313 253.304 424.313 253.304L427.112 295.162C427.864 305.524 427.061 315.941 424.728 326.064C423.386 331.74 423.594 337.962 430.31 339.214C443.204 341.617 459.396 339.514 459.396 335.008C459.396 330.503 451 230.475 451 230.475C451 230.475 446.802 215.756 444.403 214.555C442.004 213.353 439.739 205.393 439.739 205.393Z" fill="#2F2E41"/>
<path d="M383.832 357.837L390.429 355.434L394.927 344.02L399.725 343.419C399.725 343.419 397.026 349.126 395.527 350.027C394.027 350.929 391.629 358.438 391.629 358.438C391.629 358.438 392.828 361.442 387.131 362.644C381.433 363.845 377.235 364.746 377.235 364.746C377.235 364.746 376.636 363.545 379.334 360.541C382.033 357.537 385.184 352.48 385.184 352.48L383.832 357.837Z" fill="#2F2E41"/>
<path d="M424.313 344.02L423.113 353.031C423.113 353.031 426.412 357.837 427.311 357.837C428.211 357.837 433.008 353.632 433.008 353.632C433.008 353.632 432.709 349.126 433.008 347.925C433.308 346.723 433.908 341.016 433.008 340.716C432.109 340.415 432.109 347.41 432.109 347.41L428.211 351.529L424.452 349.272L424.313 344.02Z" fill="#2F2E41"/>
<path d="M425.362 150.423C431.821 150.423 437.057 147.599 437.057 144.115C437.057 140.631 431.821 137.807 425.362 137.807C418.904 137.807 413.668 140.631 413.668 144.115C413.668 147.599 418.904 150.423 425.362 150.423Z" fill="#2F2E41"/>
<path d="M0 267.905C0 303.291 22.1605 331.925 49.5466 331.925L0 267.905Z" fill="#3F3D56"/>
<path d="M49.5459 331.926C49.5459 296.142 74.2757 267.186 104.837 267.186L49.5459 331.926Z" fill="#E57A7A"/>
<path d="M17.9512 271.113C17.9512 304.726 32.0825 331.926 49.5461 331.926L17.9512 271.113Z" fill="#E57A7A"/>
<path d="M49.5459 331.926C49.5459 286.202 78.1297 249.203 113.454 249.203L49.5459 331.926Z" fill="#3F3D56"/>
<path d="M39.123 332.377C39.123 332.377 46.1496 332.16 48.2672 330.65C50.3848 329.139 59.0757 327.335 59.6011 329.758C60.1264 332.18 70.1606 341.807 62.2277 341.871C54.2948 341.935 43.7952 340.633 41.6816 339.343C39.5681 338.054 39.123 332.377 39.123 332.377Z" fill="#A8A8A8"/>
<path opacity="0.2" d="M62.3693 341.028C54.4364 341.092 43.9368 339.79 41.8232 338.5C40.2136 337.518 39.5722 333.994 39.3576 332.368C39.209 332.374 39.123 332.377 39.123 332.377C39.123 332.377 39.5681 338.054 41.6816 339.343C43.7952 340.633 54.2948 341.935 62.2277 341.871C64.5176 341.852 65.3086 341.036 65.2652 339.828C64.9471 340.558 64.0737 341.014 62.3693 341.028Z" fill="black"/>
</g>
<defs>
<clipPath id="clip0">
<rect width="572" height="419" fill="white"/>
</clipPath>
</defs>
</svg>
