<svg width="470" height="304" viewBox="0 0 470 304" fill="none" xmlns="http://www.w3.org/2000/svg">
<path opacity="0.1" d="M225.741 304C346.022 304 443.528 298.419 443.528 291.535C443.528 284.651 346.022 279.07 225.741 279.07C105.461 279.07 7.95508 284.651 7.95508 291.535C7.95508 298.419 105.461 304 225.741 304Z" fill="#E57A7A"/>
<g opacity="0.2">
<path opacity="0.2" d="M405.485 292.094C405.286 292.472 405.053 292.831 404.789 293.167C402.47 291.535 400.112 289.936 397.716 288.37C397.764 288.27 397.816 288.165 397.873 288.065C398.429 286.991 399.263 286.086 400.288 285.443C401.613 284.639 403.106 284.446 404.314 285.097C405.522 285.749 406.23 287.084 406.303 288.628C406.345 289.835 406.062 291.032 405.485 292.094Z" fill="#3F3D56"/>
<path opacity="0.2" d="M408.726 286.039C410.184 283.289 409.662 280.159 407.56 279.047C405.458 277.934 402.572 279.262 401.114 282.011C399.656 284.76 400.178 287.891 402.28 289.003C404.382 290.115 407.268 288.788 408.726 286.039Z" fill="#3F3D56"/>
<path opacity="0.2" d="M411.951 279.953C413.409 277.204 412.887 274.073 410.785 272.961C408.682 271.849 405.796 273.176 404.338 275.925C402.88 278.675 403.402 281.805 405.505 282.917C407.607 284.03 410.493 282.702 411.951 279.953Z" fill="#3F3D56"/>
<path opacity="0.2" d="M415.181 273.866C416.639 271.116 416.117 267.986 414.015 266.873C411.913 265.761 409.027 267.088 407.569 269.838C406.111 272.587 406.633 275.718 408.735 276.83C410.837 277.942 413.723 276.615 415.181 273.866Z" fill="#3F3D56"/>
<path opacity="0.2" d="M418.408 267.776C419.866 265.027 419.344 261.896 417.242 260.784C415.139 259.672 412.253 260.999 410.795 263.748C409.337 266.498 409.859 269.628 411.962 270.74C414.064 271.853 416.95 270.525 418.408 267.776Z" fill="#3F3D56"/>
<path opacity="0.2" d="M422.413 216.539C422.245 215.609 422.14 214.669 422.099 213.724L432.968 217.375L422.099 211.746C422.258 208.932 422.99 206.181 424.252 203.66C425.514 201.14 427.279 198.904 429.438 197.09L439.949 212.313L431.773 195.397C434.175 193.898 436.861 192.909 439.662 192.491C442.464 192.074 445.321 192.236 448.057 192.969C450.793 193.702 453.349 194.99 455.565 196.752C457.781 198.514 459.611 200.712 460.939 203.211C462.268 205.71 463.068 208.455 463.289 211.275C463.511 214.096 463.148 216.932 462.225 219.607C461.302 222.281 459.837 224.738 457.922 226.823C456.008 228.908 453.684 230.577 451.096 231.726C451.362 233.185 451.47 234.668 451.418 236.15L434.852 236.021L451.164 238.703C450.613 242.088 449.227 245.283 447.129 247.998C445.032 250.714 442.29 252.865 439.152 254.256C439.844 258.064 439.45 261.989 438.014 265.583C436.578 269.178 434.158 272.296 431.031 274.581C427.905 276.866 424.197 278.227 420.333 278.506C416.469 278.786 412.604 277.974 409.18 276.163C405.756 274.352 402.911 271.615 400.971 268.265C399.032 264.915 398.075 261.088 398.21 257.22C398.345 253.353 399.567 249.601 401.737 246.395C403.906 243.189 406.935 240.657 410.477 239.089C409.655 234.542 410.385 229.85 412.551 225.767C414.717 221.684 418.193 218.445 422.421 216.571L422.413 216.539Z" fill="#E57A7A"/>
<path opacity="0.1" d="M449.019 245.04C446.86 249.131 443.38 252.373 439.144 254.24C439.836 258.048 439.442 261.973 438.006 265.567C436.57 269.162 434.15 272.28 431.024 274.565C427.897 276.85 424.189 278.21 420.325 278.49C416.461 278.77 412.596 277.958 409.172 276.147C405.748 274.336 402.904 271.599 400.964 268.249C399.024 264.899 398.067 261.072 398.202 257.204C398.337 253.337 399.56 249.585 401.729 246.379C403.898 243.173 406.927 240.641 410.47 239.073C409.668 234.678 450.106 242.997 449.019 245.04Z" fill="black"/>
</g>
<g opacity="0.2">
<path opacity="0.2" d="M392.552 170.471C392.301 171.116 391.998 171.74 391.646 172.336C387.591 170.176 383.483 168.077 379.323 166.039C379.38 165.866 379.444 165.686 379.512 165.513C380.187 163.68 381.341 162.061 382.854 160.824C384.814 159.256 387.177 158.665 389.295 159.465C391.412 160.265 392.765 162.28 393.188 164.737C393.493 166.67 393.273 168.65 392.552 170.471Z" fill="#3F3D56"/>
<path opacity="0.2" d="M396.531 160.063C398.325 155.354 396.861 150.426 393.26 149.057C389.659 147.688 385.285 150.396 383.491 155.105C381.696 159.814 383.16 164.742 386.761 166.111C390.362 167.48 394.736 164.772 396.531 160.063Z" fill="#3F3D56"/>
<path opacity="0.2" d="M400.504 149.644C402.299 144.934 400.835 140.007 397.234 138.638C393.633 137.269 389.259 139.976 387.464 144.685C385.67 149.395 387.134 154.322 390.735 155.691C394.336 157.06 398.71 154.353 400.504 149.644Z" fill="#3F3D56"/>
<path opacity="0.2" d="M404.473 139.219C406.268 134.51 404.804 129.582 401.203 128.213C397.602 126.844 393.228 129.552 391.433 134.261C389.638 138.97 391.103 143.897 394.704 145.267C398.304 146.636 402.678 143.928 404.473 139.219Z" fill="#3F3D56"/>
<path opacity="0.2" d="M408.447 128.803C410.241 124.094 408.777 119.167 405.176 117.798C401.575 116.428 397.201 119.136 395.407 123.845C393.612 128.555 395.076 133.482 398.677 134.851C402.278 136.22 406.652 133.513 408.447 128.803Z" fill="#3F3D56"/>
<path opacity="0.2" d="M404.677 45.7188C404.218 44.2466 403.861 42.7446 403.61 41.2234L421.814 44.9267L403.231 38.0186C402.926 33.4824 403.551 28.9318 405.068 24.6451C406.585 20.3585 408.961 16.426 412.052 13.0884L432.002 35.3889L415.497 9.84344C419.059 6.96998 423.175 4.8584 427.588 3.63976C432.001 2.42111 436.617 2.1214 441.151 2.75923C445.685 3.39705 450.039 4.95881 453.943 7.34756C457.848 9.73631 461.219 12.9011 463.848 16.6455C466.476 20.3899 468.307 24.6339 469.225 29.1143C470.143 33.5947 470.13 38.2158 469.185 42.6908C468.241 47.1657 466.386 51.3991 463.735 55.1281C461.085 58.8571 457.695 62.0023 453.777 64.3683C454.492 66.6587 454.959 69.0191 455.17 71.409L428.532 74.4972L455.275 75.5627C455.065 81.112 453.474 86.5217 450.645 91.3021C447.816 96.0826 443.838 100.083 439.072 102.942C440.938 108.919 441.084 115.301 439.491 121.357C437.899 127.413 434.633 132.9 430.067 137.19C425.5 141.48 419.818 144.4 413.669 145.617C407.519 146.834 401.151 146.299 395.292 144.072C389.433 141.845 384.32 138.017 380.536 133.025C376.752 128.033 374.45 122.078 373.894 115.841C373.337 109.604 374.549 103.337 377.39 97.7551C380.231 92.1734 384.586 87.5025 389.959 84.2762C387.723 77.1313 387.958 69.4432 390.624 62.4473C393.29 55.4514 398.234 49.554 404.66 45.7027L404.677 45.7188Z" fill="#E57A7A"/>
<path opacity="0.1" d="M453.105 86.2104C450.448 93.2075 445.503 99.1033 439.072 102.942C440.938 108.919 441.084 115.301 439.491 121.357C437.899 127.413 434.633 132.9 430.067 137.19C425.5 141.48 419.818 144.4 413.669 145.617C407.519 146.834 401.151 146.299 395.292 144.072C389.433 141.845 384.32 138.017 380.536 133.025C376.752 128.033 374.45 122.078 373.894 115.841C373.337 109.604 374.549 103.337 377.39 97.7551C380.231 92.1734 384.586 87.5025 389.959 84.2762C387.813 77.3923 454.441 82.7121 453.105 86.2104Z" fill="black"/>
</g>
<g opacity="0.2">
<path opacity="0.2" d="M71.8094 205.136C72.0132 205.934 72.2825 206.714 72.6145 207.468C77.7137 205.516 82.8705 203.64 88.085 201.838C88.0407 201.625 87.9965 201.404 87.9401 201.187C87.4149 198.923 86.2933 196.841 84.6914 195.155C82.6061 193.016 79.9049 191.971 77.3084 192.606C74.7119 193.241 72.7997 195.421 71.9342 198.236C71.2742 200.483 71.2311 202.866 71.8094 205.136Z" fill="#3F3D56"/>
<path opacity="0.2" d="M79.3176 200.816C83.769 199.73 86.2243 194.132 84.8016 188.311C83.379 182.491 78.617 178.652 74.1656 179.738C69.7141 180.823 67.2588 186.422 68.6815 192.242C70.1042 198.063 74.8661 201.902 79.3176 200.816Z" fill="#3F3D56"/>
<path opacity="0.2" d="M76.1682 187.94C80.6196 186.855 83.0749 181.256 81.6522 175.436C80.2295 169.615 75.4676 165.776 71.0161 166.862C66.5647 167.948 64.1094 173.546 65.5321 179.367C66.9548 185.187 71.7167 189.026 76.1682 187.94Z" fill="#3F3D56"/>
<path opacity="0.2" d="M73.0227 175.059C77.4741 173.974 79.9294 168.375 78.5067 162.555C77.084 156.734 72.3221 152.896 67.8706 153.981C63.4192 155.067 60.9639 160.665 62.3866 166.486C63.8093 172.307 68.5712 176.145 73.0227 175.059Z" fill="#3F3D56"/>
<path opacity="0.2" d="M69.8723 162.176C74.3237 161.09 76.779 155.492 75.3563 149.671C73.9336 143.851 69.1717 140.012 64.7202 141.098C60.2688 142.183 57.8135 147.782 59.2362 153.602C60.6589 159.423 65.4208 163.261 69.8723 162.176Z" fill="#3F3D56"/>
<path opacity="0.2" d="M75.915 56.145C76.6757 54.4763 77.3187 52.7564 77.8393 50.9981L55.815 52.6789L78.7611 47.2666C79.7934 41.9564 79.7293 36.4916 78.5726 31.207C77.4159 25.9225 75.191 20.9295 72.0343 16.5341L45.1914 39.9524L68.4475 12.2397C64.6709 8.31144 60.1255 5.20147 55.0939 3.10324C50.0624 1.00501 44.6524 -0.0366073 39.2006 0.0432034C33.7488 0.123014 28.3717 1.32254 23.4039 3.56716C18.4361 5.81177 13.9838 9.05346 10.3241 13.0905C6.66444 17.1276 3.87558 21.8737 2.13105 27.0336C0.386529 32.1935 -0.276334 37.6567 0.183701 43.0835C0.643736 48.5102 2.21683 53.7844 4.80511 58.5778C7.39339 63.3712 10.9415 67.5814 15.2287 70.9463C14.0462 73.5448 13.146 76.2625 12.5436 79.0527L43.5208 86.6162L11.8069 83.9342C11.2353 90.5115 12.3136 97.1275 14.9444 103.184C17.5752 109.241 21.6756 114.547 26.8748 118.623C23.7869 125.403 22.6712 132.914 23.6552 140.297C24.6391 147.68 27.683 154.638 32.4389 160.374C37.1949 166.111 43.4708 170.395 50.5494 172.737C57.628 175.08 65.2235 175.385 72.4677 173.619C79.7118 171.852 86.3122 168.086 91.5144 162.75C96.7165 157.413 100.31 150.722 101.885 143.442C103.46 136.162 102.952 128.586 100.42 121.58C97.8877 114.575 93.433 108.422 87.5652 103.826C91.2546 95.7221 92.1093 86.6145 89.992 77.9668C87.8747 69.3191 82.9083 61.6335 75.8908 56.145H75.915Z" fill="#E57A7A"/>
<path opacity="0.1" d="M12.7857 96.7936C14.886 105.448 19.8508 113.14 26.8754 118.624C23.7876 125.403 22.6718 132.914 23.6558 140.297C24.6397 147.68 27.6836 154.638 32.4396 160.375C37.1955 166.111 43.4715 170.396 50.55 172.738C57.6286 175.08 65.2241 175.385 72.4683 173.619C79.7124 171.853 86.3128 168.086 91.515 162.75C96.7171 157.413 100.311 150.723 101.886 143.442C103.461 136.162 102.953 128.586 100.421 121.581C97.8883 114.575 93.4336 108.422 87.5658 103.826C91.1405 96.0055 11.735 92.4871 12.7857 96.7936Z" fill="black"/>
</g>
<path d="M425.227 45.7228H35.2485C34.7914 45.7234 34.3389 45.8139 33.9169 45.9892C33.4948 46.1645 33.1115 46.4213 32.7889 46.7447C32.4662 47.0681 32.2106 47.4518 32.0365 47.874C31.8624 48.2962 31.7734 48.7485 31.7744 49.205V287.602C31.7728 288.523 31.9528 289.434 32.3039 290.285C32.6551 291.136 33.1706 291.91 33.821 292.562C34.4715 293.214 35.2441 293.731 36.0948 294.085C36.9455 294.439 37.8576 294.621 38.779 294.623H421.697C422.618 294.621 423.53 294.439 424.381 294.085C425.232 293.731 426.004 293.214 426.655 292.562C427.305 291.91 427.821 291.136 428.172 290.285C428.523 289.434 428.703 288.523 428.701 287.602V49.205C428.702 48.2833 428.337 47.3988 427.686 46.7458C427.034 46.0929 426.15 45.725 425.227 45.7228Z" fill="url(#paint0_linear)"/>
<path d="M427.123 60.5242V286.199C427.122 288.038 426.39 289.802 425.088 291.103C423.786 292.403 422.021 293.134 420.179 293.135H40.3652C38.5224 293.135 36.7551 292.404 35.4521 291.103C34.149 289.801 33.417 288.036 33.417 286.195V60.5242H427.123Z" fill="white"/>
<path d="M427.123 50.4958V60.5241H33.417V50.4958C33.417 49.5829 33.78 48.7074 34.4263 48.0619C35.0725 47.4164 35.949 47.0538 36.8629 47.0538H423.677C424.591 47.0538 425.468 47.4164 426.114 48.0619C426.76 48.7074 427.123 49.5829 427.123 50.4958Z" fill="#EDEDF4"/>
<path opacity="0.8" d="M39.6561 55.2969C40.5455 55.2969 41.2664 54.5768 41.2664 53.6885C41.2664 52.8002 40.5455 52.0801 39.6561 52.0801C38.7668 52.0801 38.0459 52.8002 38.0459 53.6885C38.0459 54.5768 38.7668 55.2969 39.6561 55.2969Z" fill="#FA5959"/>
<path opacity="0.8" d="M44.0849 55.2969C44.9742 55.2969 45.6951 54.5768 45.6951 53.6885C45.6951 52.8002 44.9742 52.0801 44.0849 52.0801C43.1955 52.0801 42.4746 52.8002 42.4746 53.6885C42.4746 54.5768 43.1955 55.2969 44.0849 55.2969Z" fill="#FED253"/>
<path opacity="0.8" d="M48.5126 55.2969C49.4019 55.2969 50.1228 54.5768 50.1228 53.6885C50.1228 52.8002 49.4019 52.0801 48.5126 52.0801C47.6233 52.0801 46.9023 52.8002 46.9023 53.6885C46.9023 54.5768 47.6233 55.2969 48.5126 55.2969Z" fill="#8CCF4D"/>
<path d="M253.184 41.3037V39.6953H250.768V41.3037H253.184Z" fill="url(#paint1_linear)"/>
<path d="M161.802 80.3035H123.961V84.3245H161.802V80.3035Z" fill="#EDEDF4"/>
<path d="M336.514 91.9644H123.961V95.9854H336.514V91.9644Z" fill="#EDEDF4"/>
<path d="M336.514 103.625H123.961V107.646H336.514V103.625Z" fill="#EDEDF4"/>
<path d="M336.514 115.286H123.961V119.307H336.514V115.286Z" fill="#EDEDF4"/>
<path d="M336.514 126.947H123.961V130.968H336.514V126.947Z" fill="#EDEDF4"/>
<path d="M295.787 149.191H164.552V250.521H295.787V149.191Z" fill="#EDEDF4"/>
<path d="M253.196 180.583C253.027 180.583 252.858 180.607 252.685 180.611C252.742 180.377 252.761 180.136 252.741 179.896C252.692 178.882 252.417 177.891 251.936 176.997C251.64 176.469 251.306 175.964 250.938 175.485C249.843 173.973 248.828 172.429 247.625 171.001C247.103 170.447 246.672 169.813 246.348 169.123C246.227 168.751 246.082 168.387 245.914 168.034C245.681 167.672 245.353 167.382 244.966 167.194C244.579 167.006 244.148 166.928 243.72 166.968C242.858 167.07 242.066 167.488 241.498 168.142C241.159 168.504 240.882 169.063 241.163 169.473C241.445 169.883 242.057 169.936 242.093 170.386C242.093 170.627 242.093 171.021 241.848 171.098C241.412 171.213 240.996 171.395 240.616 171.637C240.428 171.761 240.271 171.928 240.159 172.123C240.046 172.318 239.981 172.537 239.968 172.762C240.664 172.867 241.248 172.284 241.88 171.958C242.682 171.617 243.583 171.584 244.408 171.866C244.725 171.95 245.021 172.099 245.278 172.304C245.503 172.525 245.694 172.78 245.841 173.06C246.617 174.18 247.096 175.477 247.234 176.832L247.588 179.092C247.064 179.133 246.543 179.203 246.026 179.301C244.636 179.505 243.218 179.409 241.868 179.019C240.459 178.617 239.05 177.885 237.597 178.215C236.916 178.364 236.296 178.742 235.608 178.85C235.07 178.902 234.527 178.874 233.998 178.766L232.891 178.589C232.855 178.496 232.826 178.4 232.798 178.303C232.569 177.497 232.463 176.66 232.484 175.822C233.206 175.784 233.907 175.569 234.527 175.197C235.147 174.826 235.666 174.308 236.039 173.69C236.412 173.071 236.628 172.371 236.668 171.65C236.708 170.929 236.571 170.209 236.268 169.554C236.865 169.219 237.359 168.729 237.697 168.134L237.416 168.082L237.681 167.68C237.619 167.642 237.566 167.59 237.527 167.528C237.488 167.466 237.464 167.396 237.456 167.323C237.449 167.25 237.458 167.177 237.484 167.108C237.51 167.04 237.551 166.978 237.605 166.928C237.37 166.806 237.108 166.748 236.844 166.759C236.928 166.602 236.792 166.409 236.627 166.357C236.454 166.322 236.278 166.311 236.103 166.325C235.846 166.305 235.594 166.247 235.354 166.152C233.635 165.561 231.772 165.042 230.02 165.537C229.249 165.777 228.527 166.156 227.891 166.655C227.271 167.002 226.808 167.574 226.597 168.252C226.385 168.931 226.442 169.664 226.756 170.302C227.021 170.96 227.212 171.647 227.323 172.348C227.348 173.003 227.273 173.658 227.102 174.29C227.485 174.407 227.877 174.494 228.273 174.552C228.05 175.415 227.654 176.225 227.11 176.932C226.861 177.245 226.592 177.542 226.305 177.821H226.257C225.458 177.97 224.652 178.069 223.841 178.118C222.988 178.118 222.15 177.797 221.301 177.857C220.798 177.914 220.302 178.026 219.824 178.191C217.614 178.838 215.318 179.144 213.016 179.1L212.738 179.128L212.996 177.487C213.134 176.133 213.614 174.835 214.389 173.715C214.537 173.436 214.727 173.181 214.953 172.959C215.21 172.755 215.508 172.605 215.826 172.521C216.65 172.239 217.549 172.272 218.35 172.614C218.982 172.923 219.558 173.506 220.266 173.418C220.252 173.193 220.186 172.974 220.072 172.779C219.959 172.583 219.802 172.417 219.614 172.292C219.234 172.05 218.818 171.868 218.382 171.753C218.149 171.677 218.117 171.283 218.137 171.041C218.173 170.591 218.813 170.495 219.067 170.125C219.32 169.755 219.067 169.16 218.733 168.794C218.163 168.141 217.371 167.724 216.51 167.624C216.083 167.583 215.652 167.661 215.266 167.849C214.879 168.037 214.552 168.328 214.321 168.689C214.149 169.042 214.003 169.406 213.882 169.779C213.558 170.468 213.128 171.102 212.606 171.657C211.398 173.084 210.388 174.628 209.293 176.14C208.926 176.62 208.593 177.123 208.294 177.648C207.816 178.545 207.541 179.536 207.489 180.551C207.469 180.793 207.488 181.036 207.545 181.271C207.519 181.328 207.503 181.389 207.501 181.452C207.514 181.562 207.548 181.668 207.602 181.765C207.656 181.861 207.728 181.946 207.815 182.015C208.431 182.634 209.079 183.273 209.908 183.539C210.424 183.661 210.947 183.751 211.474 183.808C212.747 184.037 213.918 184.773 215.21 184.769C216.1 184.769 216.977 184.415 217.855 184.54C219.063 184.705 219.932 185.686 220.673 186.639C221.302 187.383 221.774 188.246 222.062 189.176C222.348 190.298 222.171 191.561 222.77 192.55C222.922 192.752 223.039 192.977 223.117 193.217C223.129 193.597 223.044 193.973 222.871 194.311C222.364 195.867 223.475 197.528 223.358 199.136C223.302 199.92 222.955 200.66 222.919 201.444C222.859 202.454 223.27 203.583 222.706 204.424C223.048 204.247 223.394 204.09 223.749 203.949C222.058 208.899 220.528 214.002 220.645 219.205C220.733 222.579 221.45 226.294 219.51 229.065C219.234 229.395 219.015 229.768 218.861 230.17C218.708 230.713 218.861 231.288 218.962 231.843C219.32 234.256 218.016 236.632 217.928 239.081C217.917 239.835 217.966 240.59 218.072 241.337L218.547 245.414C218.069 245.518 217.623 245.739 217.251 246.057C216.752 246.459 216.313 247.119 216.547 247.722C216.736 248.209 217.291 248.442 217.803 248.562C218.327 248.621 218.828 248.811 219.26 249.113C219.398 249.266 219.545 249.411 219.699 249.548C219.996 249.709 220.337 249.772 220.673 249.728C221.289 249.704 221.881 249.652 222.509 249.568C222.639 249.562 222.766 249.522 222.875 249.451C222.949 249.37 223.005 249.274 223.04 249.171C223.075 249.067 223.089 248.957 223.08 248.848C223.125 248.236 223.1 247.621 223.004 247.014C222.98 246.898 222.947 246.785 222.915 246.669C223.127 246.152 223.277 245.612 223.362 245.06C223.487 244.256 223.507 243.416 223.559 242.591C223.68 240.492 223.962 238.409 224.284 236.326L224.687 233.648C224.811 232.768 224.94 231.887 225.089 231.007C225.835 226.237 226.997 221.542 228.559 216.973C228.901 215.996 229.485 214.85 230.52 214.822L231.136 216.028C231.941 217.54 232.432 219.217 233.044 220.805C233.849 222.892 233.575 225.329 234.654 227.291C234.831 227.617 235.057 227.927 235.189 228.268C235.38 228.794 235.491 229.346 235.519 229.905L236.232 237.143C236.554 240.396 236.9 243.737 238.362 246.66C238.453 246.849 238.561 247.029 238.684 247.199C238.639 247.686 238.632 248.175 238.663 248.663C238.641 248.749 238.639 248.839 238.657 248.927C238.676 249.014 238.714 249.095 238.77 249.165C238.825 249.235 238.896 249.291 238.977 249.329C239.058 249.366 239.146 249.385 239.235 249.383C239.843 249.463 240.443 249.515 241.067 249.54C241.403 249.583 241.743 249.52 242.041 249.359C242.198 249.224 242.346 249.079 242.484 248.924C242.914 248.622 243.414 248.432 243.937 248.373C244.448 248.257 245.004 248.024 245.193 247.533C245.431 246.93 244.988 246.274 244.489 245.868C244.084 245.515 243.587 245.285 243.055 245.205C242.837 245.217 242.617 245.2 242.403 245.153C242.453 244.888 242.469 244.617 242.452 244.348C242.4 244.032 242.387 243.711 242.411 243.391C242.494 243.069 242.604 242.754 242.741 242.45C243.204 241.027 242.218 239.579 241.872 238.124C241.409 236.186 242.097 234.155 241.973 232.165C241.779 229.04 239.597 226.109 240.177 223.033C240.64 220.572 240.246 218.043 239.807 215.578L238.197 206.406C238.083 205.662 237.887 204.932 237.613 204.231C237.912 204.179 238.205 204.101 238.49 203.998C238.893 203.016 238.825 201.935 238.704 200.881C238.583 199.828 238.301 198.798 238.16 197.753C238.038 196.912 237.968 196.065 237.951 195.216C237.907 194.378 237.967 193.538 238.128 192.715C238.313 191.992 238.565 191.288 238.881 190.612C239.66 188.659 240.603 186.776 241.699 184.982C243.353 184.854 244.956 184.713 246.606 184.58C247.002 184.562 247.395 184.51 247.782 184.423C248.274 184.254 248.775 184.11 249.283 183.993C249.472 183.983 249.66 183.947 249.839 183.885C250.201 183.72 250.422 183.257 250.821 183.241C250.971 183.261 251.122 183.261 251.272 183.241C251.449 183.185 251.537 182.992 251.674 182.839C251.924 182.562 252.33 182.505 252.657 182.324C252.936 182.143 253.143 181.869 253.242 181.551C253.34 181.233 253.324 180.891 253.196 180.583Z" fill="url(#paint2_linear)"/>
<path d="M232.254 176.184C234.7 176.184 236.683 174.204 236.683 171.761C236.683 169.318 234.7 167.338 232.254 167.338C229.809 167.338 227.826 169.318 227.826 171.761C227.826 174.204 229.809 176.184 232.254 176.184Z" fill="#A1616A"/>
<path d="M227.142 177.266C226.69 177.822 226.184 178.332 225.633 178.79C228.234 180.339 231.326 180.848 234.288 180.213C234.179 179.912 233.785 179.868 233.507 179.715C233.146 179.459 232.9 179.072 232.823 178.637C232.524 177.577 232.437 176.469 232.565 175.376C232.619 175.111 232.619 174.837 232.565 174.572C232.41 174.174 232.113 173.847 231.732 173.655C231.105 173.264 230.427 172.96 229.719 172.75C228.986 172.533 228.568 172.433 228.539 173.285C228.51 174.727 228.02 176.121 227.142 177.266Z" fill="#A1616A"/>
<path d="M247.689 180.049L247.239 177.194C247.166 176.619 247.046 176.052 246.88 175.497C246.61 174.776 246.265 174.086 245.85 173.438C245.702 173.16 245.512 172.906 245.286 172.686C245.03 172.481 244.734 172.332 244.417 172.248C243.594 171.967 242.696 172.001 241.897 172.344C241.265 172.65 240.689 173.229 239.984 173.128C239.998 172.903 240.063 172.685 240.177 172.49C240.29 172.295 240.448 172.129 240.637 172.007C241.009 171.765 241.416 171.583 241.844 171.468C242.074 171.395 242.11 171.001 242.09 170.76C242.054 170.314 241.413 170.217 241.16 169.851C240.906 169.485 241.16 168.89 241.49 168.524C242.058 167.874 242.85 167.46 243.708 167.362C244.135 167.32 244.566 167.396 244.952 167.582C245.339 167.769 245.666 168.059 245.898 168.42C246.069 168.771 246.216 169.134 246.337 169.505C246.66 170.191 247.089 170.822 247.609 171.375C248.817 172.795 249.827 174.331 250.918 175.835C251.283 176.314 251.616 176.816 251.916 177.338C252.396 178.229 252.671 179.215 252.721 180.225C252.757 180.536 252.712 180.851 252.589 181.138C252.464 181.348 252.287 181.521 252.076 181.642C251.864 181.764 251.625 181.828 251.381 181.83C250.886 181.818 250.397 181.72 249.936 181.54L248.181 180.949C247.967 180.902 247.771 180.795 247.617 180.64C247.553 180.55 247.525 180.439 247.539 180.33C247.552 180.221 247.606 180.12 247.689 180.049Z" fill="#A1616A"/>
<path d="M212.605 180.68L213.052 177.825C213.128 177.251 213.25 176.683 213.415 176.128C213.683 175.407 214.029 174.717 214.445 174.069C214.589 173.791 214.778 173.538 215.005 173.321C215.26 173.114 215.556 172.965 215.874 172.883C216.698 172.601 217.597 172.634 218.398 172.976C219.03 173.281 219.606 173.86 220.311 173.76C220.297 173.535 220.23 173.316 220.117 173.122C220.004 172.927 219.847 172.761 219.658 172.638C219.286 172.397 218.879 172.215 218.451 172.099C218.221 172.027 218.185 171.633 218.205 171.391C218.241 170.945 218.877 170.848 219.135 170.483C219.393 170.117 219.135 169.522 218.801 169.16C218.233 168.508 217.442 168.092 216.583 167.994C216.156 167.951 215.725 168.028 215.339 168.214C214.952 168.401 214.625 168.69 214.393 169.051C214.223 169.403 214.078 169.765 213.958 170.137C213.633 170.822 213.204 171.453 212.686 172.007C211.478 173.426 210.468 174.962 209.373 176.466C209.009 176.945 208.676 177.447 208.378 177.97C207.9 178.861 207.626 179.847 207.573 180.857C207.539 181.169 207.586 181.485 207.71 181.774C207.838 181.985 208.018 182.159 208.233 182.28C208.448 182.4 208.691 182.463 208.938 182.461C209.432 182.451 209.92 182.353 210.379 182.172L212.138 181.597C212.351 181.55 212.546 181.443 212.698 181.287C212.764 181.194 212.792 181.078 212.774 180.965C212.757 180.851 212.697 180.749 212.605 180.68Z" fill="#A1616A"/>
<path d="M244.488 245.852C244.987 246.254 245.426 246.91 245.192 247.509C244.999 247.995 244.448 248.225 243.936 248.345C243.414 248.404 242.915 248.592 242.483 248.892C242.346 249.04 242.2 249.178 242.044 249.306C241.747 249.469 241.406 249.533 241.07 249.487C240.458 249.463 239.862 249.411 239.238 249.33C239.108 249.325 238.981 249.285 238.872 249.214C238.798 249.134 238.742 249.039 238.708 248.936C238.673 248.832 238.66 248.723 238.671 248.615C238.622 248.005 238.647 247.393 238.743 246.789C238.845 246.183 239.157 245.632 239.625 245.233C240.092 244.871 241.509 243.797 242.04 244.485C242.181 244.67 242.125 244.923 242.322 245.076C242.519 245.229 242.829 245.145 243.055 245.173C243.588 245.257 244.085 245.493 244.488 245.852Z" fill="#3F3D56"/>
<path d="M217.288 246.061C216.788 246.463 216.35 247.119 216.583 247.718C216.772 248.205 217.324 248.438 217.835 248.554C218.357 248.613 218.857 248.801 219.288 249.101C219.426 249.256 219.574 249.401 219.731 249.535C220.028 249.696 220.367 249.759 220.701 249.716C221.313 249.692 221.909 249.64 222.533 249.556C222.663 249.551 222.79 249.51 222.899 249.439C222.974 249.359 223.03 249.265 223.066 249.161C223.101 249.058 223.114 248.949 223.105 248.84C223.15 248.232 223.124 247.62 223.028 247.018C222.929 246.41 222.617 245.857 222.146 245.458C221.684 245.096 220.266 244.023 219.731 244.71C219.59 244.895 219.647 245.153 219.445 245.301C219.244 245.45 218.942 245.37 218.713 245.398C218.185 245.481 217.691 245.711 217.288 246.061Z" fill="#3F3D56"/>
<path d="M224.131 203.157C222.316 208.385 220.552 213.793 220.689 219.338C220.778 222.695 221.494 226.395 219.558 229.149C219.282 229.477 219.063 229.85 218.91 230.251C218.757 230.79 218.91 231.361 219.006 231.915C219.369 234.328 218.068 236.684 217.976 239.121C217.966 239.872 218.014 240.622 218.121 241.365L218.624 245.659C218.793 247.131 220.693 247.734 222.158 247.939C222.848 247.118 223.28 246.113 223.402 245.048C223.527 244.244 223.547 243.412 223.596 242.595C223.72 240.504 224.022 238.429 224.32 236.359L224.723 233.693C224.852 232.816 224.976 231.94 225.125 231.063C225.877 226.33 227.04 221.671 228.599 217.138C228.942 216.161 229.525 215.023 230.556 214.995L231.172 216.177C231.977 217.677 232.464 219.35 233.076 220.93C233.881 223.009 233.603 225.43 234.686 227.388C234.863 227.709 235.089 228.019 235.218 228.357C235.406 228.874 235.518 229.416 235.548 229.965L236.26 237.155C236.582 240.392 236.924 243.717 238.386 246.624C238.53 246.972 238.762 247.276 239.058 247.509C239.654 247.911 240.487 247.706 241.071 247.288C241.533 246.949 241.902 246.499 242.145 245.981C242.388 245.463 242.498 244.892 242.464 244.32C242.416 244.005 242.403 243.685 242.423 243.367C242.509 243.047 242.619 242.734 242.754 242.43C243.221 241.015 242.234 239.575 241.884 238.128C241.421 236.198 242.109 234.179 241.989 232.197C241.795 229.085 239.618 226.165 240.193 223.105C240.656 220.657 240.262 218.139 239.827 215.687L238.197 206.559C237.939 205.119 237.552 203.495 236.268 202.791C235.532 202.462 234.725 202.324 233.921 202.389C230.592 202.389 227.412 202.852 224.131 203.157Z" fill="#3F3D56"/>
<path d="M253.196 180.909C252.024 181.027 250.844 180.783 249.815 180.209C249.424 179.95 249.007 179.732 248.571 179.558C247.766 179.297 246.88 179.526 246.035 179.65C244.647 179.851 243.232 179.755 241.884 179.369C240.475 178.967 239.066 178.239 237.617 178.565C236.937 178.714 236.321 179.087 235.632 179.196C235.094 179.25 234.551 179.222 234.022 179.112L229.433 178.396C228.397 178.189 227.339 178.113 226.285 178.171C225.486 178.319 224.68 178.42 223.869 178.472C223.02 178.472 222.183 178.151 221.333 178.207C220.831 178.264 220.337 178.376 219.86 178.541C217.655 179.184 215.365 179.489 213.069 179.445C211.237 179.565 209.473 180.176 207.96 181.215C207.856 181.272 207.766 181.352 207.696 181.449C207.626 181.545 207.579 181.656 207.558 181.774C207.571 181.882 207.606 181.988 207.661 182.083C207.715 182.178 207.788 182.262 207.876 182.328C208.488 182.948 209.136 183.583 209.965 183.848C210.48 183.969 211.001 184.058 211.527 184.114C212.795 184.347 213.966 185.075 215.255 185.075C216.144 185.075 217.018 184.721 217.895 184.846C219.103 185.01 219.969 185.984 220.713 186.932C221.34 187.674 221.812 188.532 222.102 189.458C222.384 190.575 222.207 191.83 222.807 192.815C222.957 193.016 223.074 193.24 223.153 193.479C223.166 193.857 223.081 194.232 222.907 194.568C222.4 196.116 223.511 197.753 223.394 199.394C223.338 200.17 222.992 200.909 222.956 201.686C222.899 202.695 223.306 203.817 222.742 204.653C224.917 203.559 227.334 203.032 229.767 203.121C230.172 203.131 230.575 203.168 230.975 203.234C231.751 203.392 232.515 203.604 233.261 203.869C234.944 204.404 236.796 204.786 238.454 204.175C238.857 203.197 238.788 202.12 238.664 201.074C238.539 200.029 238.281 199 238.124 197.958C238.002 197.121 237.932 196.278 237.915 195.433C237.871 194.599 237.93 193.763 238.092 192.944C238.276 192.225 238.529 191.525 238.845 190.853C239.622 188.9 240.564 187.016 241.663 185.224C243.313 185.091 244.911 184.95 246.562 184.821C246.956 184.8 247.348 184.747 247.733 184.665C248.225 184.497 248.725 184.355 249.231 184.238C249.421 184.228 249.608 184.19 249.786 184.126C250.149 183.961 250.374 183.503 250.769 183.49C250.918 183.508 251.07 183.508 251.22 183.49C251.397 183.438 251.481 183.241 251.622 183.088C251.872 182.811 252.278 182.755 252.604 182.578C252.878 182.408 253.086 182.151 253.194 181.847C253.301 181.544 253.302 181.213 253.196 180.909Z" fill="#E57A7A"/>
<path d="M233.024 173.358C233.153 173.459 233.309 173.518 233.472 173.528C233.635 173.538 233.798 173.498 233.938 173.414C234.114 173.249 234.232 173.032 234.276 172.795C234.421 172.292 234.538 171.782 234.626 171.267C234.65 171.042 234.718 170.825 234.828 170.627C235.121 170.177 235.757 170.153 236.253 169.948C236.865 169.617 237.371 169.121 237.714 168.516L237.436 168.46L237.698 168.058C237.636 168.02 237.583 167.969 237.544 167.907C237.506 167.846 237.482 167.776 237.475 167.704C237.468 167.632 237.478 167.559 237.504 167.491C237.53 167.424 237.572 167.363 237.625 167.314C237.39 167.189 237.126 167.129 236.86 167.141C236.945 166.988 236.808 166.795 236.643 166.739C236.472 166.703 236.297 166.694 236.124 166.711C235.867 166.69 235.614 166.63 235.375 166.534C233.66 165.947 231.8 165.428 230.053 165.923C229.281 166.161 228.559 166.539 227.924 167.037C227.308 167.382 226.849 167.949 226.638 168.622C226.428 169.294 226.483 170.022 226.792 170.655C227.056 171.309 227.245 171.99 227.356 172.686C227.382 173.339 227.309 173.993 227.139 174.624C227.615 174.777 228.109 174.873 228.608 174.91C229.111 174.948 229.61 174.805 230.017 174.508C230.419 174.162 230.645 173.627 230.975 173.193C231.102 173.001 231.275 172.845 231.478 172.738C231.682 172.631 231.909 172.577 232.138 172.581C232.585 172.65 232.666 173.104 233.024 173.358Z" fill="#3F3D56"/>
<path d="M221.381 249.306H216.667C216.528 249.334 216.402 249.41 216.312 249.52C216.222 249.63 216.173 249.767 216.173 249.909C216.173 250.052 216.222 250.189 216.312 250.299C216.402 250.409 216.528 250.485 216.667 250.513H217.609V258.502H201.478C201.441 258.44 201.389 258.387 201.326 258.349C201.264 258.311 201.193 258.289 201.12 258.285H196.41C196.271 258.313 196.145 258.389 196.055 258.499C195.965 258.608 195.916 258.746 195.916 258.888C195.916 259.03 195.965 259.168 196.055 259.278C196.145 259.388 196.271 259.463 196.41 259.491H197.352V267.698H181.777C181.763 267.587 181.712 267.483 181.631 267.404C181.551 267.325 181.446 267.276 181.334 267.264H176.628C176.485 267.288 176.355 267.361 176.261 267.472C176.167 267.582 176.115 267.722 176.115 267.867C176.115 268.012 176.167 268.152 176.261 268.263C176.355 268.373 176.485 268.447 176.628 268.47H177.099V276.914H161.267C161.208 276.881 161.141 276.863 161.073 276.862H156.363C156.224 276.89 156.098 276.966 156.008 277.076C155.918 277.186 155.869 277.323 155.869 277.465C155.869 277.608 155.918 277.745 156.008 277.855C156.098 277.965 156.224 278.041 156.363 278.069H156.834V286.111H141.203C141.169 286.031 141.113 285.963 141.042 285.915C140.97 285.866 140.886 285.839 140.8 285.837H136.09C135.951 285.865 135.825 285.94 135.735 286.05C135.645 286.16 135.596 286.298 135.596 286.44C135.596 286.582 135.645 286.72 135.735 286.83C135.825 286.94 135.951 287.015 136.09 287.043H136.561V295.95H243.051V249.306H221.381Z" fill="#3F3D56"/>
<path opacity="0.1" d="M69.6515 95.0203C69.1864 94.4073 68.6589 93.844 68.0775 93.3396C67.9196 93.2024 67.7957 93.0305 67.7156 92.8375C67.6355 92.6444 67.6013 92.4354 67.6157 92.2269C67.6302 92.0184 67.6928 91.8161 67.7988 91.6359C67.9048 91.4557 68.0511 91.3025 68.2264 91.1883C68.4197 91.0637 68.6089 90.931 68.7981 90.7862C70.9961 89.1175 72.1071 86.8778 71.2738 85.7801C70.4405 84.6823 67.9809 85.1488 65.7829 86.8175C65.5288 87.0061 65.2855 87.2088 65.0542 87.4247C64.8996 87.5635 64.715 87.6648 64.5147 87.7206C64.3144 87.7764 64.1039 87.7852 63.8997 87.7462C63.6954 87.7073 63.503 87.6217 63.3373 87.4962C63.1717 87.3706 63.0373 87.2086 62.9448 87.0226C62.636 86.4178 62.2736 85.8418 61.8619 85.3016C59.9055 82.7281 57.2807 81.4294 55.9966 82.4024C54.7124 83.3755 55.2518 86.2546 57.2043 88.836C57.586 89.3404 58.0103 89.8112 58.4723 90.2434C58.625 90.3918 58.7407 90.574 58.81 90.7753C58.8793 90.9766 58.9003 91.1913 58.8713 91.4022C58.8423 91.6131 58.7642 91.8142 58.6431 91.9894C58.5221 92.1645 58.3615 92.3089 58.1744 92.4107C55.7591 93.7899 54.3944 95.8688 55.0787 97.063C55.7631 98.2572 58.267 98.1085 60.6623 96.7333C61.0334 96.5181 61.391 96.2804 61.7331 96.0216C61.8942 95.8991 62.0806 95.8141 62.2788 95.7728C62.4769 95.7314 62.6818 95.7348 62.8785 95.7825C63.0752 95.8303 63.2587 95.9213 63.4158 96.0489C63.5728 96.1765 63.6993 96.3375 63.7862 96.5202C64.1128 97.233 64.5178 97.9074 64.9938 98.5307C66.9463 101.104 69.575 102.403 70.8592 101.43C72.1434 100.457 71.6039 97.5978 69.6515 95.0203Z" fill="#E57A7A"/>
<path opacity="0.1" d="M354.794 164.507C355.248 163.886 355.636 163.219 355.95 162.517C356.034 162.326 356.162 162.158 356.323 162.025C356.484 161.892 356.674 161.798 356.877 161.752C357.081 161.705 357.293 161.706 357.496 161.755C357.699 161.804 357.887 161.9 358.047 162.034C358.224 162.179 358.409 162.32 358.599 162.461C360.837 164.069 363.308 164.471 364.114 163.365C364.919 162.26 363.759 160.036 361.521 158.42C361.253 158.229 360.984 158.056 360.716 157.901C360.538 157.793 360.388 157.645 360.276 157.47C360.165 157.294 360.096 157.095 360.074 156.888C360.053 156.681 360.08 156.472 360.153 156.278C360.226 156.083 360.343 155.908 360.495 155.766C360.984 155.296 361.429 154.782 361.823 154.23C363.719 151.612 364.194 148.725 362.89 147.796C361.586 146.867 358.985 148.198 357.089 150.832C356.719 151.34 356.392 151.878 356.111 152.44C356.013 152.63 355.873 152.793 355.7 152.918C355.528 153.043 355.329 153.126 355.118 153.16C354.908 153.194 354.693 153.179 354.489 153.114C354.286 153.05 354.101 152.939 353.949 152.79C351.936 150.904 349.521 150.189 348.591 151.182C347.661 152.175 348.522 154.531 350.539 156.409C350.853 156.699 351.185 156.967 351.534 157.213C351.697 157.332 351.833 157.485 351.93 157.663C352.027 157.84 352.083 158.037 352.094 158.239C352.105 158.441 352.071 158.643 351.995 158.83C351.918 159.017 351.8 159.184 351.65 159.32C351.06 159.849 350.529 160.441 350.068 161.085C348.172 163.703 347.697 166.59 349.005 167.519C350.314 168.448 352.898 167.129 354.794 164.507Z" fill="#E57A7A"/>
<path d="M356.856 300.244C364.37 300.244 370.462 299.074 370.462 297.631C370.462 296.187 364.37 295.017 356.856 295.017C349.341 295.017 343.249 296.187 343.249 297.631C343.249 299.074 349.341 300.244 356.856 300.244Z" fill="#E57A7A"/>
<path d="M356.63 298.592C357.506 298.592 358.216 297.665 358.216 296.521C358.216 295.377 357.506 294.45 356.63 294.45C355.754 294.45 355.044 295.377 355.044 296.521C355.044 297.665 355.754 298.592 356.63 298.592Z" fill="#3F3D56"/>
<path d="M356.63 296.059C357.506 296.059 358.216 295.131 358.216 293.988C358.216 292.844 357.506 291.917 356.63 291.917C355.754 291.917 355.044 292.844 355.044 293.988C355.044 295.131 355.754 296.059 356.63 296.059Z" fill="#3F3D56"/>
<path d="M356.63 293.529C357.506 293.529 358.216 292.602 358.216 291.459C358.216 290.315 357.506 289.388 356.63 289.388C355.754 289.388 355.044 290.315 355.044 291.459C355.044 292.602 355.754 293.529 356.63 293.529Z" fill="#3F3D56"/>
<path d="M356.63 290.996C357.506 290.996 358.216 290.069 358.216 288.925C358.216 287.782 357.506 286.854 356.63 286.854C355.754 286.854 355.044 287.782 355.044 288.925C355.044 290.069 355.754 290.996 356.63 290.996Z" fill="#3F3D56"/>
<path d="M356.63 288.463C357.506 288.463 358.216 287.536 358.216 286.392C358.216 285.248 357.506 284.321 356.63 284.321C355.754 284.321 355.044 285.248 355.044 286.392C355.044 287.536 355.754 288.463 356.63 288.463Z" fill="#3F3D56"/>
<path d="M356.63 285.934C357.506 285.934 358.216 285.006 358.216 283.863C358.216 282.719 357.506 281.792 356.63 281.792C355.754 281.792 355.044 282.719 355.044 283.863C355.044 285.006 355.754 285.934 356.63 285.934Z" fill="#3F3D56"/>
<path d="M356.63 283.4C357.506 283.4 358.216 282.473 358.216 281.33C358.216 280.186 357.506 279.259 356.63 279.259C355.754 279.259 355.044 280.186 355.044 281.33C355.044 282.473 355.754 283.4 356.63 283.4Z" fill="#3F3D56"/>
<path d="M362.56 264.003C362.775 263.727 362.971 263.437 363.148 263.135L358.99 262.451L363.49 262.487C363.923 261.549 364.16 260.532 364.185 259.498C364.21 258.465 364.023 257.438 363.635 256.48L357.597 259.608L363.168 255.519C362.644 254.622 361.941 253.843 361.103 253.229C360.265 252.615 359.31 252.179 358.296 251.949C357.283 251.719 356.233 251.7 355.212 251.892C354.19 252.084 353.219 252.483 352.359 253.066C351.498 253.648 350.767 254.401 350.21 255.277C349.652 256.153 349.281 257.135 349.12 258.16C348.958 259.186 349.008 260.233 349.269 261.239C349.529 262.244 349.993 263.185 350.633 264.003C350.296 264.432 350.006 264.896 349.767 265.386L355.173 268.201L349.409 266.271C349.003 267.464 348.901 268.739 349.112 269.982C349.323 271.224 349.84 272.395 350.616 273.388C349.737 274.506 349.189 275.849 349.037 277.263C348.886 278.677 349.135 280.106 349.757 281.385C350.38 282.664 351.35 283.742 352.557 284.497C353.763 285.251 355.159 285.652 356.582 285.652C358.006 285.652 359.401 285.251 360.608 284.497C361.815 283.742 362.785 282.664 363.408 281.385C364.03 280.106 364.279 278.677 364.127 277.263C363.975 275.849 363.428 274.506 362.548 273.388C363.599 272.051 364.171 270.401 364.171 268.702C364.171 267.002 363.599 265.352 362.548 264.015L362.56 264.003Z" fill="#E57A7A"/>
<path opacity="0.1" d="M349.006 268.688C349.001 270.387 349.568 272.038 350.616 273.376C349.737 274.494 349.189 275.837 349.037 277.251C348.886 278.665 349.135 280.094 349.757 281.373C350.38 282.652 351.35 283.73 352.557 284.485C353.763 285.239 355.159 285.64 356.582 285.64C358.006 285.64 359.401 285.239 360.608 284.485C361.815 283.73 362.785 282.652 363.408 281.373C364.03 280.094 364.279 278.665 364.127 277.251C363.976 275.837 363.428 274.494 362.548 273.376C363.575 272.085 349.006 267.839 349.006 268.688Z" fill="black"/>
<path d="M108.877 299.436C112.279 299.436 115.036 298.907 115.036 298.254C115.036 297.601 112.279 297.072 108.877 297.072C105.475 297.072 102.718 297.601 102.718 298.254C102.718 298.907 105.475 299.436 108.877 299.436Z" fill="#E57A7A"/>
<path d="M108.777 298.688C109.173 298.688 109.494 298.269 109.494 297.751C109.494 297.234 109.173 296.814 108.777 296.814C108.381 296.814 108.061 297.234 108.061 297.751C108.061 298.269 108.381 298.688 108.777 298.688Z" fill="#3F3D56"/>
<path d="M108.777 297.542C109.173 297.542 109.494 297.123 109.494 296.605C109.494 296.088 109.173 295.668 108.777 295.668C108.381 295.668 108.061 296.088 108.061 296.605C108.061 297.123 108.381 297.542 108.777 297.542Z" fill="#3F3D56"/>
<path d="M108.777 296.396C109.173 296.396 109.494 295.977 109.494 295.459C109.494 294.942 109.173 294.522 108.777 294.522C108.381 294.522 108.061 294.942 108.061 295.459C108.061 295.977 108.381 296.396 108.777 296.396Z" fill="#3F3D56"/>
<path d="M108.777 295.25C109.173 295.25 109.494 294.831 109.494 294.313C109.494 293.796 109.173 293.376 108.777 293.376C108.381 293.376 108.061 293.796 108.061 294.313C108.061 294.831 108.381 295.25 108.777 295.25Z" fill="#3F3D56"/>
<path d="M108.777 294.104C109.173 294.104 109.494 293.685 109.494 293.167C109.494 292.65 109.173 292.231 108.777 292.231C108.381 292.231 108.061 292.65 108.061 293.167C108.061 293.685 108.381 294.104 108.777 294.104Z" fill="#3F3D56"/>
<path d="M108.777 292.958C109.173 292.958 109.494 292.539 109.494 292.021C109.494 291.504 109.173 291.085 108.777 291.085C108.381 291.085 108.061 291.504 108.061 292.021C108.061 292.539 108.381 292.958 108.777 292.958Z" fill="#3F3D56"/>
<path d="M108.777 291.812C109.173 291.812 109.494 291.393 109.494 290.875C109.494 290.358 109.173 289.939 108.777 289.939C108.381 289.939 108.061 290.358 108.061 290.875C108.061 291.393 108.381 291.812 108.777 291.812Z" fill="#3F3D56"/>
<path d="M111.458 283.03C111.558 282.903 111.648 282.769 111.727 282.628L109.843 282.319H111.88C112.088 281.868 112.195 281.379 112.194 280.883C112.195 280.444 112.111 280.008 111.945 279.601L109.211 281.016L111.731 279.166C111.494 278.761 111.176 278.408 110.797 278.13C110.418 277.852 109.985 277.655 109.527 277.551C109.068 277.447 108.593 277.438 108.13 277.525C107.668 277.612 107.229 277.793 106.839 278.056C106.45 278.32 106.119 278.661 105.867 279.057C105.615 279.454 105.447 279.898 105.374 280.362C105.301 280.826 105.324 281.301 105.442 281.755C105.56 282.21 105.77 282.636 106.059 283.006C105.903 283.199 105.768 283.408 105.657 283.63L108.1 284.9L105.492 284.024C105.31 284.564 105.265 285.141 105.362 285.702C105.459 286.264 105.695 286.792 106.047 287.24C105.647 287.747 105.398 288.355 105.329 288.996C105.259 289.637 105.371 290.285 105.653 290.865C105.935 291.446 106.374 291.935 106.921 292.277C107.468 292.62 108.101 292.801 108.746 292.801C109.392 292.801 110.025 292.62 110.572 292.277C111.119 291.935 111.558 291.446 111.84 290.865C112.122 290.285 112.234 289.637 112.164 288.996C112.095 288.355 111.845 287.747 111.446 287.24C111.923 286.636 112.182 285.889 112.182 285.119C112.182 284.35 111.923 283.603 111.446 282.998L111.458 283.03Z" fill="#E57A7A"/>
<path opacity="0.1" d="M105.322 285.15C105.322 285.92 105.582 286.668 106.059 287.273C105.659 287.779 105.41 288.387 105.34 289.028C105.271 289.67 105.383 290.317 105.665 290.897C105.946 291.478 106.386 291.967 106.933 292.309C107.48 292.652 108.113 292.833 108.758 292.833C109.404 292.833 110.036 292.652 110.583 292.309C111.131 291.967 111.57 291.478 111.852 290.897C112.133 290.317 112.246 289.67 112.176 289.028C112.106 288.387 111.857 287.779 111.457 287.273C111.92 286.702 105.322 284.763 105.322 285.15Z" fill="black"/>
<defs>
<linearGradient id="paint0_linear" x1="230.238" y1="294.623" x2="230.238" y2="45.7228" gradientUnits="userSpaceOnUse">
<stop stop-color="#808080" stop-opacity="0.25"/>
<stop offset="0.54" stop-color="#808080" stop-opacity="0.12"/>
<stop offset="1" stop-color="#808080" stop-opacity="0.1"/>
</linearGradient>
<linearGradient id="paint1_linear" x1="-2192.31" y1="982.732" x2="-2177.82" y2="982.732" gradientUnits="userSpaceOnUse">
<stop stop-color="#808080" stop-opacity="0.25"/>
<stop offset="0.54" stop-color="#808080" stop-opacity="0.12"/>
<stop offset="1" stop-color="#808080" stop-opacity="0.1"/>
</linearGradient>
<linearGradient id="paint2_linear" x1="27175.9" y1="58659.1" x2="27175.9" y2="40945.4" gradientUnits="userSpaceOnUse">
<stop stop-color="#808080" stop-opacity="0.25"/>
<stop offset="0.54" stop-color="#808080" stop-opacity="0.12"/>
<stop offset="1" stop-color="#808080" stop-opacity="0.1"/>
</linearGradient>
</defs>
</svg>
