<svg width="527" height="404" viewBox="0 0 527 404" fill="none" xmlns="http://www.w3.org/2000/svg">
<g clip-path="url(#clip0)">
<path opacity="0.1" d="M30.3399 207.583C48.2328 230.309 41.2814 263.503 29.9132 290.095C26.1038 298.998 21.8025 308.414 23.3885 317.959C25.3509 329.631 35.7805 338.169 46.7321 342.691C66.6928 350.938 90.5835 348.973 108.928 337.572C124.778 327.721 136.131 311.703 152.253 302.302C179.235 286.57 213.575 292.511 242.871 303.35C263.6 311.016 286.261 320.987 306.854 312.976C321.344 307.336 331.362 293.614 336.823 279.065C339.458 272.046 341.37 264.441 346.404 258.871C349.416 255.562 353.301 253.21 357.301 251.23C393.824 233.142 439.949 242.828 475.424 222.769C499.38 209.232 514.718 183.664 521.509 157.012C528.3 130.361 527.532 102.415 525.785 74.9718C524.56 55.4644 522.362 34.6435 509.885 19.588C496.685 3.66528 474.034 -2.26064 453.561 0.767495C433.088 3.79563 414.528 14.5846 398.201 27.2887C377.798 43.1714 358.872 62.9445 333.822 69.4018C316.757 73.7836 298.814 71.4072 281.217 70.5549C251.8 69.1662 222.374 72.2545 193.118 75.6285C165.111 78.8622 136.904 82.4218 110.223 91.5212C91.3464 97.9385 76.219 109.63 58.3913 117.777C46.7722 123.101 34.0991 124.57 23.0924 131.353C9.54093 139.706 -2.88623 154.235 0.586951 171.235C3.88948 187.414 20.8438 195.521 30.3399 207.583Z" fill="#FDEEE5"/>
<path d="M95.2514 306.929C95.2514 306.929 93.5951 257.918 67.0494 230.223C55.9071 218.602 48.5893 203.842 46.6519 187.87C45.7463 180.289 45.538 172.642 46.0296 165.023" stroke="#535461" stroke-width="2" stroke-miterlimit="10"/>
<path d="M29.4015 147.486C31.2183 152.961 46.406 165.535 46.406 165.535C46.406 165.535 51.0586 146.378 49.2417 140.908C48.3692 138.28 46.4872 136.106 44.0098 134.864C41.5325 133.622 38.6626 133.414 36.0316 134.286C33.4006 135.157 31.224 137.037 29.9806 139.512C28.7372 141.986 28.5289 144.853 29.4015 147.481V147.486Z" fill="#E57A7A"/>
<path d="M23.0871 183.227C27.6042 186.837 47.1785 189.153 47.1785 189.153C47.1785 189.153 40.6538 170.548 36.1366 166.943C33.9636 165.348 31.2571 164.653 28.5833 165.005C25.9094 165.357 23.4753 166.728 21.7899 168.831C20.1045 170.934 19.2984 173.606 19.5401 176.289C19.7819 178.973 21.0528 181.458 23.0871 183.227Z" fill="#E57A7A"/>
<path d="M40.9809 234.791C46.6926 235.633 64.7762 227.772 64.7762 227.772C64.7762 227.772 49.7492 214.997 44.0375 214.155C41.2954 213.75 38.5046 214.45 36.279 216.101C34.0534 217.751 32.5753 220.217 32.17 222.956C31.7647 225.695 32.4653 228.483 34.1176 230.706C35.77 232.929 38.2388 234.406 40.9809 234.811V234.791Z" fill="#E57A7A"/>
<path d="M63.3253 270.757C68.8111 272.552 87.9688 267.839 87.9688 267.839C87.9688 267.839 75.3158 252.714 69.83 250.919C67.1963 250.055 64.3268 250.271 61.8527 251.52C59.3787 252.769 57.5027 254.949 56.6374 257.579C55.7722 260.21 55.9886 263.076 57.239 265.548C58.4895 268.019 60.6716 269.893 63.3052 270.757H63.3253Z" fill="#E57A7A"/>
<path d="M68.3447 183.312C65.6796 188.426 48.6851 198.443 48.6851 198.443C48.6851 198.443 47.1393 178.795 49.8044 173.676C50.4378 172.46 51.3048 171.381 52.3558 170.5C53.4069 169.618 54.6214 168.952 55.9301 168.54C57.2388 168.127 58.6161 167.976 59.9832 168.096C61.3503 168.215 62.6805 168.602 63.8979 169.235C65.1152 169.867 66.1959 170.733 67.0783 171.783C67.9606 172.833 68.6272 174.046 69.0402 175.353C69.4531 176.661 69.6042 178.036 69.4849 179.402C69.3656 180.768 68.9781 182.096 68.3447 183.312Z" fill="#E57A7A"/>
<path d="M93.9466 225.706C89.8711 229.792 70.6582 234.264 70.6582 234.264C70.6582 234.264 75.0699 215.053 79.1404 210.967C80.109 209.995 81.2595 209.224 82.5264 208.697C83.7933 208.171 85.1517 207.898 86.524 207.895C87.8963 207.893 89.2557 208.16 90.5245 208.683C91.7934 209.205 92.9468 209.972 93.919 210.939C94.8912 211.907 95.6631 213.056 96.1906 214.321C96.7181 215.587 96.991 216.944 96.9935 218.314C96.9961 219.685 96.7283 221.043 96.2055 222.31C95.6827 223.578 94.9151 224.73 93.9466 225.701V225.706Z" fill="#E57A7A"/>
<path d="M113.17 270.321C109.847 275.034 91.6631 282.689 91.6631 282.689C91.6631 282.689 92.7572 263.011 96.0849 258.294C96.8547 257.124 97.8523 256.121 99.0181 255.345C100.184 254.568 101.494 254.033 102.871 253.773C104.248 253.512 105.663 253.531 107.032 253.828C108.402 254.125 109.697 254.694 110.842 255.501C111.987 256.308 112.958 257.337 113.696 258.526C114.435 259.716 114.927 261.042 115.142 262.425C115.357 263.808 115.292 265.22 114.949 266.578C114.607 267.935 113.995 269.21 113.15 270.326L113.17 270.321Z" fill="#E57A7A"/>
<path d="M328.527 273.65C328.527 273.65 320.557 270.953 316.722 277.967C315.711 279.868 315.196 281.994 315.226 284.147C315.256 286.301 315.829 288.412 316.893 290.285C319.403 294.832 324.602 300.738 334.46 300.211C342.801 299.765 345.552 293.408 346.315 287.492C346.603 285.274 346.317 283.019 345.483 280.943C344.65 278.867 343.296 277.04 341.553 275.636C339.81 274.233 337.735 273.299 335.527 272.926C333.319 272.553 331.052 272.752 328.944 273.505L328.527 273.65Z" fill="#E57A7A"/>
<path opacity="0.1" d="M318.579 290.916C317.515 289.043 316.942 286.932 316.912 284.779C316.882 282.626 317.397 280.5 318.409 278.598C322.243 271.579 330.213 274.282 330.213 274.282L330.62 274.136C333.659 273.038 336.999 273.113 339.985 274.347C338.337 273.367 336.492 272.764 334.583 272.582C332.673 272.4 330.747 272.643 328.944 273.294L328.537 273.439C328.537 273.439 320.567 270.742 316.732 277.756C315.721 279.658 315.206 281.784 315.236 283.937C315.265 286.09 315.839 288.201 316.903 290.074C318.564 293.082 321.38 296.647 325.937 298.597C322.827 296.757 320.282 294.101 318.579 290.916Z" fill="white"/>
<path opacity="0.2" d="M324.411 277.024C324.411 277.024 327.367 279.345 334.54 277.024H324.411Z" fill="black"/>
<path d="M323.779 260.159C323.779 260.159 328.844 273.86 328.422 277.445L332.437 277.024C332.437 277.024 325.682 264.992 327.373 260.159H323.779Z" fill="#E57A7A"/>
<path opacity="0.2" d="M323.779 260.159C323.779 260.159 328.844 273.86 328.422 277.445L332.437 277.024C332.437 277.024 325.682 264.992 327.373 260.159H323.779Z" fill="black"/>
<path d="M344.452 261.302C344.452 261.302 336.482 257.231 332.909 260.595C329.335 263.959 328.793 272.557 328.793 272.557C328.793 272.557 341.797 274.342 344.452 261.302Z" fill="#E57A7A"/>
<path opacity="0.1" d="M344.452 261.302C344.452 261.302 336.482 257.231 332.909 260.595C329.335 263.959 328.793 272.557 328.793 272.557C328.793 272.557 341.797 274.342 344.452 261.302Z" fill="white"/>
<path d="M328.798 272.557C328.798 272.557 330.891 262.575 344.452 261.302" stroke="#E57A7A" stroke-miterlimit="10"/>
<path d="M99.6935 212.827C99.6935 212.827 101.32 186.325 88.4357 170.042C82.9875 163.246 79.8931 154.869 79.6173 146.168C79.5202 142.034 79.8024 137.901 80.4605 133.819" stroke="#535461" stroke-width="2" stroke-miterlimit="10"/>
<path d="M72.4047 123.512C73.1024 126.555 80.641 134.115 80.641 134.115C80.641 134.115 84.1543 124.028 83.4366 120.99C83.2718 120.266 82.9659 119.581 82.5362 118.975C82.1065 118.369 81.5615 117.853 80.9323 117.457C80.3031 117.062 79.6021 116.794 78.8692 116.669C78.1363 116.544 77.3859 116.564 76.6609 116.728C75.9359 116.893 75.2504 117.199 74.6436 117.628C74.0368 118.057 73.5206 118.602 73.1245 119.23C72.7283 119.858 72.46 120.559 72.3348 121.291C72.2096 122.023 72.2299 122.772 72.3947 123.497L72.4047 123.512Z" fill="#E57A7A"/>
<path d="M67.1547 142.453C69.3982 144.628 79.8378 146.884 79.8378 146.884C79.8378 146.884 77.2831 136.522 75.0396 134.351C74.5067 133.834 73.8771 133.426 73.1866 133.152C72.4962 132.878 71.7584 132.743 71.0155 132.753C70.2726 132.764 69.5391 132.921 68.8569 133.215C68.1746 133.509 67.557 133.934 67.0393 134.466C66.5215 134.998 66.1138 135.627 65.8394 136.317C65.565 137.007 65.4293 137.744 65.44 138.486C65.4508 139.228 65.6077 139.961 65.9019 140.642C66.1961 141.324 66.6218 141.94 67.1547 142.458V142.453Z" fill="#E57A7A"/>
<path d="M74.1564 171.165C77.1678 171.912 87.3415 168.593 87.3415 168.593C87.3415 168.593 79.8982 160.937 76.8667 160.19C76.1453 160.012 75.3959 159.978 74.6613 160.09C73.9268 160.201 73.2213 160.456 72.5854 160.84C71.3011 161.615 70.3776 162.869 70.0182 164.324C69.6588 165.779 69.8929 167.317 70.6689 168.6C71.445 169.883 72.6995 170.806 74.1564 171.165Z" fill="#E57A7A"/>
<path d="M84.3503 191.69C87.2161 192.938 97.7812 191.379 97.7812 191.379C97.7812 191.379 91.7584 182.575 88.8774 181.352C88.1938 181.038 87.4542 180.863 86.702 180.837C85.9498 180.812 85.2001 180.937 84.4968 181.205C83.7936 181.473 83.1509 181.878 82.6064 182.397C82.062 182.916 81.6267 183.539 81.3262 184.228C81.0256 184.917 80.8657 185.659 80.8559 186.411C80.8462 187.163 80.9867 187.909 81.2693 188.606C81.5518 189.303 81.9708 189.936 82.5015 190.469C83.0323 191.002 83.6642 191.424 84.3603 191.71L84.3503 191.69Z" fill="#E57A7A"/>
<path d="M91.5529 144.824C89.8564 147.446 80.1797 151.968 80.1797 151.968C80.1797 151.968 80.3554 141.299 82.0568 138.677C82.8728 137.42 84.1556 136.537 85.623 136.224C87.0904 135.911 88.6223 136.193 89.8815 137.008C91.1408 137.823 92.0243 139.104 92.3377 140.57C92.6512 142.036 92.3688 143.566 91.5529 144.824Z" fill="#E57A7A"/>
<path d="M103.172 168.984C100.768 170.989 90.1777 172.403 90.1777 172.403C90.1777 172.403 93.5405 162.276 95.9496 160.28C97.1051 159.324 98.5936 158.865 100.088 159.004C101.582 159.144 102.96 159.871 103.917 161.025C104.875 162.179 105.335 163.666 105.195 165.159C105.055 166.651 104.327 168.027 103.172 168.984Z" fill="#E57A7A"/>
<path d="M111.237 194.016C109.204 196.387 99.0107 199.581 99.0107 199.581C99.0107 199.581 100.612 189.053 102.65 186.661C103.133 186.098 103.724 185.635 104.386 185.299C105.049 184.963 105.772 184.761 106.513 184.705C107.254 184.648 107.999 184.737 108.705 184.968C109.412 185.199 110.066 185.566 110.63 186.05C111.194 186.533 111.657 187.122 111.994 187.785C112.33 188.447 112.532 189.168 112.589 189.909C112.646 190.649 112.556 191.393 112.325 192.099C112.094 192.804 111.726 193.457 111.242 194.021L111.237 194.016Z" fill="#E57A7A"/>
<path opacity="0.5" d="M72.4047 123.512C73.1024 126.555 80.641 134.115 80.641 134.115C80.641 134.115 84.1543 124.028 83.4366 120.99C83.2718 120.266 82.9659 119.581 82.5362 118.975C82.1065 118.369 81.5615 117.853 80.9323 117.457C80.3031 117.062 79.6021 116.794 78.8692 116.669C78.1363 116.544 77.3859 116.564 76.6609 116.728C75.9359 116.893 75.2504 117.199 74.6436 117.628C74.0368 118.057 73.5206 118.602 73.1245 119.23C72.7283 119.858 72.46 120.559 72.3348 121.291C72.2096 122.023 72.2299 122.772 72.3947 123.497L72.4047 123.512Z" fill="white"/>
<path opacity="0.5" d="M67.1547 142.453C69.3982 144.628 79.8378 146.884 79.8378 146.884C79.8378 146.884 77.2831 136.522 75.0396 134.351C74.5067 133.834 73.8771 133.426 73.1866 133.152C72.4962 132.878 71.7584 132.743 71.0155 132.753C70.2726 132.764 69.5391 132.921 68.8569 133.215C68.1746 133.509 67.557 133.934 67.0393 134.466C66.5215 134.998 66.1138 135.627 65.8394 136.317C65.565 137.007 65.4293 137.744 65.44 138.486C65.4508 139.228 65.6077 139.961 65.9019 140.642C66.1961 141.324 66.6218 141.94 67.1547 142.458V142.453Z" fill="white"/>
<path opacity="0.5" d="M74.1564 171.165C77.1678 171.912 87.3415 168.593 87.3415 168.593C87.3415 168.593 79.8982 160.937 76.8667 160.19C76.1453 160.012 75.3959 159.978 74.6613 160.09C73.9268 160.201 73.2213 160.456 72.5854 160.84C71.3011 161.615 70.3776 162.869 70.0182 164.324C69.6588 165.779 69.8929 167.317 70.6689 168.6C71.445 169.883 72.6995 170.806 74.1564 171.165Z" fill="white"/>
<path opacity="0.5" d="M84.3503 191.69C87.2161 192.938 97.7812 191.379 97.7812 191.379C97.7812 191.379 91.7584 182.575 88.8774 181.352C88.1938 181.038 87.4542 180.863 86.702 180.837C85.9498 180.812 85.2001 180.937 84.4968 181.205C83.7936 181.473 83.1509 181.878 82.6064 182.397C82.062 182.916 81.6267 183.539 81.3262 184.228C81.0256 184.917 80.8657 185.659 80.8559 186.411C80.8462 187.163 80.9867 187.909 81.2693 188.606C81.5518 189.303 81.9708 189.936 82.5015 190.469C83.0323 191.002 83.6642 191.424 84.3603 191.71L84.3503 191.69Z" fill="white"/>
<path opacity="0.5" d="M91.5529 144.824C89.8564 147.446 80.1797 151.968 80.1797 151.968C80.1797 151.968 80.3554 141.299 82.0568 138.677C82.8728 137.42 84.1556 136.537 85.623 136.224C87.0904 135.911 88.6223 136.193 89.8815 137.008C91.1408 137.823 92.0243 139.104 92.3377 140.57C92.6512 142.036 92.3688 143.566 91.5529 144.824Z" fill="white"/>
<path opacity="0.5" d="M103.172 168.984C100.768 170.989 90.1777 172.403 90.1777 172.403C90.1777 172.403 93.5405 162.276 95.9496 160.28C97.1051 159.324 98.5936 158.865 100.088 159.004C101.582 159.144 102.96 159.871 103.917 161.025C104.875 162.179 105.335 163.666 105.195 165.159C105.055 166.651 104.327 168.027 103.172 168.984Z" fill="white"/>
<path opacity="0.5" d="M111.237 194.016C109.204 196.387 99.0107 199.581 99.0107 199.581C99.0107 199.581 100.612 189.053 102.65 186.661C103.133 186.098 103.724 185.635 104.386 185.299C105.049 184.963 105.772 184.761 106.513 184.705C107.254 184.648 107.999 184.737 108.705 184.968C109.412 185.199 110.066 185.566 110.63 186.05C111.194 186.533 111.657 187.122 111.994 187.785C112.33 188.447 112.532 189.168 112.589 189.909C112.646 190.649 112.556 191.393 112.325 192.099C112.094 192.804 111.726 193.457 111.242 194.021L111.237 194.016Z" fill="white"/>
<path d="M253.211 10.2225V18.9208V182.666H506.633V18.9208V10.2225H253.211Z" fill="url(#paint0_linear)"/>
<path d="M503.947 18.0435H256.97V179.542H503.947V18.0435Z" fill="white"/>
<path d="M503.947 10.3628H256.97V22.2447H503.947V10.3628Z" fill="#EEEEEE"/>
<path d="M266.365 19.006C267.959 19.006 269.251 17.7154 269.251 16.1233C269.251 14.5312 267.959 13.2406 266.365 13.2406C264.772 13.2406 263.479 14.5312 263.479 16.1233C263.479 17.7154 264.772 19.006 266.365 19.006Z" fill="#FF5252"/>
<path d="M274.301 19.006C275.895 19.006 277.187 17.7154 277.187 16.1233C277.187 14.5312 275.895 13.2406 274.301 13.2406C272.707 13.2406 271.415 14.5312 271.415 16.1233C271.415 17.7154 272.707 19.006 274.301 19.006Z" fill="#FFFF00"/>
<path d="M282.231 19.006C283.825 19.006 285.117 17.7154 285.117 16.1233C285.117 14.5312 283.825 13.2406 282.231 13.2406C280.637 13.2406 279.345 14.5312 279.345 16.1233C279.345 17.7154 280.637 19.006 282.231 19.006Z" fill="#69F0AE"/>
<path opacity="0.5" d="M358.471 41.2758H266.437V45.1061H358.471V41.2758Z" fill="#E57A7A"/>
<path opacity="0.5" d="M358.471 48.9364H266.437V52.7667H358.471V48.9364Z" fill="#E57A7A"/>
<path opacity="0.5" d="M358.471 56.597H266.437V60.4273H358.471V56.597Z" fill="#E57A7A"/>
<path opacity="0.5" d="M358.465 64.2576H298.156V68.0878H358.465V64.2576Z" fill="#E57A7A"/>
<path opacity="0.5" d="M314.895 71.9232H266.437V75.7534H314.895V71.9232Z" fill="#E57A7A"/>
<path opacity="0.5" d="M329.882 79.5837H292.58V83.414H329.882V79.5837Z" fill="#E57A7A"/>
<path opacity="0.5" d="M479.093 68.0929H370.672V130.425H479.093V68.0929Z" fill="#E57A7A"/>
<path d="M491.992 74.0088H383.57V136.341H491.992V74.0088Z" fill="#EEEEEE"/>
<path d="M444.231 136.326H383.57V124.926C398.392 118.007 421.193 114.121 444.231 136.326Z" fill="#E57A7A"/>
<g opacity="0.1">
<path opacity="0.1" d="M491.295 134.712V136.326H415.643V135.98C415.643 135.98 452.869 99.793 491.295 134.712Z" fill="black"/>
</g>
<path d="M491.992 134.712V136.326H416.34V135.98C416.34 135.98 453.566 99.793 491.992 134.712Z" fill="#E57A7A"/>
<path d="M396.123 90.7236C399.203 90.7236 401.699 88.2299 401.699 85.1537C401.699 82.0775 399.203 79.5837 396.123 79.5837C393.043 79.5837 390.547 82.0775 390.547 85.1537C390.547 88.2299 393.043 90.7236 396.123 90.7236Z" fill="#E57A7A"/>
<path d="M443.608 80.9323C442.971 80.9323 442.258 80.9323 441.776 80.9725C441.559 80.9845 441.344 81.0284 441.139 81.1028L437.856 82.281C440.507 82.3461 443.272 82.3261 445.982 82.281L461.21 82.1657C462.761 82.1657 464.397 82.1406 465.692 82.0453C466.56 81.9852 467.198 81.8899 467.996 81.8197C470.877 81.564 475.083 81.6142 478.837 81.6242C482.591 81.6342 487.123 81.539 488.443 81.163H480.388C479.52 81.163 478.606 81.163 477.838 81.1178C476.94 81.0677 476.393 80.9674 475.605 80.8973C474.3 80.787 472.503 80.7719 470.827 80.7669C461.652 80.7619 452.582 80.9825 443.608 80.9323Z" fill="#F4F4F4"/>
<path d="M452.648 87.6955C452.508 87.6955 452.357 87.6955 452.252 87.6955C452.205 87.6992 452.16 87.7094 452.116 87.7256L451.403 87.9813C451.975 87.9813 452.578 87.9813 453.165 87.9813L456.463 87.9562C456.799 87.9562 457.15 87.9562 457.431 87.9312L457.933 87.881C458.555 87.8259 459.469 87.8359 460.282 87.8409C460.978 87.8641 461.674 87.8306 462.365 87.7406H460.618C460.428 87.7406 460.232 87.7406 460.066 87.7406C459.901 87.7406 459.755 87.7055 459.564 87.6955C459.283 87.6955 458.892 87.6705 458.53 87.6654C456.553 87.6554 454.59 87.6955 452.648 87.6955Z" fill="#F4F4F4"/>
<path d="M429.29 97.4417C429.149 97.4417 428.999 97.4417 428.893 97.4417C428.847 97.4454 428.801 97.4555 428.758 97.4718L428.045 97.7275C428.617 97.7275 429.219 97.7275 429.807 97.7275L433.104 97.7024C433.44 97.7024 433.792 97.7024 434.073 97.6773L434.575 97.6272C435.197 97.572 436.111 97.5821 436.924 97.5871C437.619 97.6103 438.316 97.5768 439.007 97.4868H437.26C437.069 97.4868 436.873 97.4868 436.708 97.4868C436.542 97.4868 436.397 97.4517 436.206 97.4417C435.925 97.4417 435.533 97.4166 435.172 97.4116C433.199 97.4066 431.232 97.4517 429.29 97.4417Z" fill="#F4F4F4"/>
<path d="M416.169 133.253H413.569C413.569 133.253 412.751 104.616 416.189 95.7772H416.847C416.847 95.7772 414.533 128.184 416.169 133.253Z" fill="#E57A7A"/>
<path d="M414.368 94.3083C414.368 94.3083 412.24 100.199 413.223 102.831C413.223 102.831 414.699 97.4317 416.421 96.6145C418.142 95.7973 419.934 102.831 419.934 102.831C419.934 102.831 420.938 98.4143 419.116 94.8096C421.421 96.1725 423.294 98.1569 424.521 100.535C424.521 100.535 424.848 98.0784 420.591 93.0148C420.591 93.0148 424.361 94.0175 426.815 96.2886C426.815 96.2886 427.633 94.4888 422.554 91.5409C422.554 91.5409 423.211 89.4151 427.141 90.3978C427.141 90.3978 427.141 87.6153 420.918 88.1066C420.918 88.1066 420.918 86.3068 425.013 86.6327C425.013 86.6327 425.013 84.3415 420.26 85.1587C420.26 85.1587 421.264 83.6848 421.896 83.3589C421.076 83.2836 420.258 83.518 419.603 84.0156C419.603 84.0156 419.768 81.0677 417.309 79.9247L416.983 84.0156C416.983 84.0156 414.227 80.7719 414.855 81.3986C415.25 82.3849 415.422 83.4465 415.357 84.507C415.357 84.507 412.571 82.2158 409.133 84.6724C409.133 84.6724 413.394 84.9983 414.047 86.4722C414.047 86.4722 410.443 85.8155 409.625 86.3068C409.625 86.3068 412.41 87.3095 412.245 87.9412C412.245 87.9412 407.331 87.9412 406.674 89.741C406.674 89.741 411.753 90.3978 412.079 90.8841C412.079 90.8841 406.182 95.1405 405.855 96.2836C405.855 96.2836 411.918 92.6839 412.882 92.6839C413.846 92.6839 408.46 97.923 408.787 99.2315C408.802 99.2265 413.223 93.9774 414.368 94.3083Z" fill="#E57A7A"/>
<path d="M448.507 132.185H450.514C450.514 132.185 451.142 110.306 448.507 103.553H448.005C448.005 103.553 449.757 128.305 448.507 132.185Z" fill="#E57A7A"/>
<path d="M449.882 102.425C449.882 102.425 451.508 106.937 450.76 108.943C450.76 108.943 449.636 104.816 448.321 104.19C447.006 103.563 445.631 108.943 445.631 108.943C445.631 108.943 444.878 105.569 446.258 102.816C444.497 103.858 443.065 105.375 442.128 107.193C442.128 107.193 441.877 105.318 445.139 101.442C445.139 101.442 442.258 102.194 440.381 103.949C440.381 103.949 439.754 102.575 443.633 100.324C443.633 100.324 443.132 98.7001 440.12 99.4471C440.12 99.4471 440.12 97.3214 444.878 97.6974C444.878 97.6974 444.878 96.3237 441.751 96.5744C441.751 96.5744 441.751 94.8247 445.38 95.4513C445.044 94.9262 444.622 94.4617 444.13 94.0777C444.756 94.0196 445.382 94.1986 445.882 94.579C445.882 94.579 445.756 92.328 447.634 91.4556L447.885 94.579C447.885 94.579 449.988 92.1023 449.511 92.5736C449.211 93.3281 449.082 94.1398 449.134 94.95C449.134 94.95 451.262 93.2003 453.892 95.0753C453.892 95.0753 450.64 95.326 450.138 96.449C450.138 96.449 452.894 95.9477 453.516 96.3237C453.516 96.3237 451.388 97.0757 451.508 97.572C451.508 97.572 455.263 97.572 455.764 98.9457C455.764 98.9457 451.885 99.4471 451.634 99.8231C451.634 99.8231 456.151 103.072 456.392 103.949C456.392 103.949 451.759 101.197 451.011 101.197C450.264 101.197 454.389 105.208 454.138 106.21C454.138 106.175 450.76 102.174 449.882 102.425Z" fill="#E57A7A"/>
<path d="M472.467 127.908H473.707C473.707 127.908 474.094 114.372 472.467 110.176H472.156C472.156 110.176 473.24 125.507 472.467 127.908Z" fill="#E57A7A"/>
<path d="M473.296 109.479C473.296 109.479 474.3 112.266 473.838 113.49C473.838 113.49 473.14 110.933 472.332 110.547C471.524 110.161 470.666 113.49 470.666 113.49C470.41 112.215 470.545 110.892 471.053 109.695C469.961 110.34 469.073 111.28 468.493 112.407C468.493 112.407 468.337 111.244 470.355 108.847C469.273 109.148 468.269 109.676 467.409 110.396C467.409 110.396 467.022 109.544 469.416 108.15C469.416 108.15 469.105 107.148 467.248 107.609C467.248 107.609 467.248 106.29 470.194 106.526C470.194 106.526 470.194 105.674 468.257 105.829C468.257 105.829 468.257 104.746 470.505 105.132C470.298 104.807 470.037 104.518 469.732 104.28C470.12 104.245 470.507 104.356 470.817 104.591C470.798 104.199 470.89 103.81 471.081 103.468C471.273 103.126 471.557 102.845 471.901 102.656L472.056 104.591C472.056 104.591 473.361 103.057 473.06 103.353C472.875 103.819 472.797 104.321 472.829 104.822C473.26 104.507 473.782 104.344 474.315 104.358C474.848 104.372 475.362 104.561 475.775 104.897C475.775 104.897 473.768 105.052 473.452 105.749C473.452 105.749 475.158 105.438 475.545 105.674C475.545 105.674 474.225 106.14 474.305 106.446C474.305 106.446 476.629 106.446 476.94 107.298C476.94 107.298 474.536 107.609 474.38 107.84C474.38 107.84 477.171 109.845 477.326 110.396C477.326 110.396 474.46 108.692 473.994 108.692C473.527 108.692 476.087 111.169 475.931 111.79C475.956 111.8 473.863 109.324 473.296 109.479Z" fill="#E57A7A"/>
<path d="M427.121 112.587L426.86 111.194C426.86 111.091 426.839 110.99 426.798 110.896C426.757 110.802 426.698 110.718 426.624 110.647L425.414 110.056C425.324 109.947 425.252 109.825 425.199 109.695V109.665C425.266 109.581 425.314 109.483 425.339 109.379C425.341 109.352 425.341 109.325 425.339 109.299C425.453 109.315 425.569 109.286 425.663 109.219C425.756 109.152 425.82 109.051 425.841 108.938V108.907C425.818 108.999 425.766 109.081 425.693 109.142C425.62 109.202 425.529 109.238 425.435 109.243C425.6 109.133 425.736 108.984 425.831 108.809C425.927 108.635 425.978 108.44 425.982 108.241C425.982 108.241 425.982 108.206 425.982 108.191C426.035 108.158 426.081 108.114 426.117 108.062C426.152 108.01 426.176 107.952 426.187 107.89V107.86C426.173 107.919 426.146 107.974 426.109 108.022C426.071 108.071 426.025 108.111 425.972 108.14C425.962 108.025 425.937 107.912 425.896 107.805H425.926C426.045 107.805 426.159 107.758 426.242 107.674C426.326 107.59 426.373 107.477 426.373 107.358C426.373 107.358 426.373 107.358 426.373 107.328C426.365 107.441 426.315 107.547 426.232 107.624C426.149 107.702 426.04 107.745 425.926 107.744H425.871C426.003 107.702 426.119 107.624 426.208 107.518C426.297 107.413 426.354 107.284 426.373 107.148C426.373 107.148 426.373 107.148 426.373 107.118C426.367 107.205 426.336 107.289 426.283 107.358C426.291 107.3 426.288 107.241 426.274 107.184C426.26 107.126 426.234 107.073 426.199 107.025C426.164 106.978 426.119 106.938 426.069 106.908C426.018 106.878 425.962 106.858 425.904 106.849C425.846 106.841 425.786 106.844 425.729 106.858C425.672 106.873 425.618 106.898 425.571 106.933C425.523 106.968 425.483 107.013 425.453 107.063C425.423 107.114 425.403 107.17 425.394 107.228L425.314 107.183C425.339 107.093 425.392 107.013 425.465 106.955C425.538 106.896 425.627 106.862 425.721 106.857H425.691C425.596 106.855 425.503 106.883 425.426 106.937C425.348 106.991 425.29 107.068 425.259 107.158C424.989 107.033 424.683 107.009 424.398 107.091C424.112 107.173 423.865 107.355 423.703 107.604C423.608 107.674 423.487 107.774 423.492 107.86C423.453 107.9 423.418 107.943 423.387 107.99C423.254 108.28 423.206 108.601 423.246 108.918C423.264 109.075 423.244 109.234 423.188 109.382C423.132 109.53 423.042 109.663 422.925 109.77C422.977 109.792 423.034 109.803 423.091 109.803C423.148 109.803 423.204 109.792 423.256 109.77C423.361 109.726 423.458 109.669 423.547 109.599C423.63 109.55 423.7 109.483 423.753 109.404C423.812 109.442 423.874 109.474 423.939 109.499C423.964 109.71 423.969 109.95 423.879 110.025V109.985C423.653 110.156 423.372 110.237 423.091 110.211C422.924 110.22 422.763 110.271 422.621 110.359C422.479 110.446 422.361 110.568 422.278 110.712L421.901 112.322V112.347V112.372C421.906 112.394 421.917 112.414 421.933 112.43C421.949 112.446 421.97 112.457 421.992 112.462L422.107 112.492C422.146 112.748 422.144 113.009 422.102 113.264C422.023 113.654 421.977 114.05 421.966 114.447C421.997 114.648 422.047 115.681 422.067 116.172C422.025 116.337 421.991 116.505 421.966 116.673L421.404 120.037C421.404 120.037 420.988 122.73 421.008 123.547L420.933 124.018C420.933 124.018 419.793 125.447 420.129 125.647C420.466 125.848 420.978 125.938 421.47 125.176C421.535 124.997 421.642 124.836 421.781 124.705C421.836 124.657 421.879 124.596 421.906 124.528C421.933 124.46 421.943 124.387 421.936 124.314L421.901 123.983H421.961H421.997C422.306 122.968 422.475 121.915 422.498 120.855C422.498 120.855 423.537 117.155 424.33 116.573L424.406 116.538L424.576 120.118L424.406 124.068L424.371 124.304C424.371 124.304 423.231 125.733 423.567 125.933C423.904 126.134 424.416 126.224 424.908 125.462C424.973 125.283 425.08 125.122 425.219 124.991C425.274 124.943 425.317 124.882 425.344 124.814C425.371 124.746 425.381 124.672 425.374 124.6L425.324 124.098C425.52 123.436 426.027 121.516 425.826 120.408L426.172 118.047C426.524 117.656 426.474 116.658 426.474 116.658C426.75 116.087 426.81 113.831 426.81 113.831L426.88 112.718H427.036H427.091L427.116 112.688V112.663L427.121 112.587ZM426.147 114.848C426.117 114.773 426.082 114.693 426.042 114.618H426.012V114.588V114.563V114.533C426.028 114.495 426.041 114.457 426.052 114.417C426.097 114.345 426.119 114.261 426.117 114.177C426.167 114.397 426.184 114.623 426.167 114.848H426.147ZM426.042 113.896L425.972 113.149V113.089L426.067 114.036L426.042 113.896ZM422.734 113.996C422.711 114.024 422.694 114.056 422.683 114.09C422.673 114.125 422.67 114.161 422.674 114.197C422.674 114.273 422.684 114.349 422.704 114.422L422.594 114.889V113.996C422.665 113.902 422.727 113.801 422.78 113.695C422.804 113.795 422.797 113.9 422.759 113.996H422.734Z" fill="url(#paint1_linear)"/>
<path d="M423.462 108.251C423.335 108.53 423.288 108.839 423.327 109.143C423.345 109.295 423.327 109.449 423.272 109.592C423.218 109.736 423.13 109.864 423.016 109.965C423.066 109.986 423.119 109.997 423.174 109.997C423.228 109.997 423.282 109.986 423.332 109.965C423.433 109.923 423.527 109.867 423.613 109.8C423.691 109.752 423.758 109.687 423.809 109.609C423.857 109.489 423.872 109.357 423.854 109.228C423.855 109.001 423.875 108.775 423.914 108.552C423.914 108.411 424.07 108.05 423.914 107.96C423.758 107.87 423.533 108.14 423.462 108.251Z" fill="#72351C"/>
<path d="M421.159 123.045L421.053 123.732C421.053 123.732 419.954 125.111 420.28 125.301C420.606 125.492 421.098 125.582 421.57 124.85C421.634 124.679 421.737 124.524 421.871 124.399C421.924 124.353 421.966 124.294 421.992 124.229C422.018 124.164 422.028 124.093 422.022 124.023L421.916 122.96L421.159 123.045Z" fill="#333333"/>
<path d="M424.466 123.321L424.361 124.008C424.361 124.008 423.262 125.387 423.588 125.577C423.914 125.768 424.406 125.858 424.878 125.126C424.942 124.954 425.045 124.8 425.179 124.675C425.232 124.628 425.273 124.57 425.299 124.505C425.325 124.44 425.336 124.369 425.329 124.299L425.224 123.236L424.466 123.321Z" fill="#333333"/>
<path d="M422.754 114.994C422.754 114.994 422.252 115.365 422.046 116.663L421.504 119.902C421.308 121.063 421.184 122.235 421.133 123.411L422.046 123.722C422.35 122.747 422.519 121.735 422.548 120.714C422.548 120.714 423.647 116.809 424.415 116.533L424.576 119.982L424.405 123.873L425.188 124.028C425.188 124.028 425.981 121.556 425.73 120.248L426.137 117.465C426.4 116.548 426.336 115.568 425.956 114.693L422.754 114.994Z" fill="#4D8AF0"/>
<g opacity="0.1">
<path opacity="0.1" d="M424.325 116.583V116.523C423.557 116.799 422.458 120.704 422.458 120.704C422.439 121.714 422.28 122.716 421.986 123.682L422.087 123.717C422.391 122.742 422.559 121.73 422.589 120.709C422.589 120.709 423.562 117.145 424.325 116.583Z" fill="black"/>
<path opacity="0.1" d="M425.972 114.683H425.866C426.242 115.556 426.304 116.532 426.042 117.445L425.636 120.228C425.876 121.466 425.174 123.737 425.104 123.988H425.204C425.204 123.988 425.997 121.516 425.746 120.208L426.153 117.425C426.408 116.518 426.344 115.55 425.972 114.683Z" fill="black"/>
</g>
<path d="M422.052 112.457C422.051 112.484 422.06 112.51 422.076 112.531C422.093 112.552 422.116 112.567 422.142 112.572C422.394 112.632 422.63 112.745 422.835 112.903C423.221 113.204 422.428 112.302 422.428 112.302L422.162 112.362L422.052 112.457Z" fill="#F55F44"/>
<path opacity="0.1" d="M422.052 112.457C422.051 112.484 422.06 112.51 422.076 112.531C422.093 112.552 422.116 112.567 422.142 112.572C422.394 112.632 422.63 112.745 422.835 112.903C423.221 113.204 422.428 112.302 422.428 112.302L422.162 112.362L422.052 112.457Z" fill="black"/>
<path d="M425.826 113.264C426.148 113.034 426.522 112.886 426.915 112.833C426.942 112.833 426.967 112.822 426.986 112.804C427.005 112.785 427.016 112.759 427.016 112.733C426.904 112.682 426.782 112.655 426.659 112.655C426.535 112.654 426.413 112.68 426.301 112.73C426.188 112.78 426.088 112.854 426.006 112.946C425.924 113.038 425.863 113.147 425.826 113.264Z" fill="#F55F44"/>
<path opacity="0.1" d="M427.016 112.718C426.904 112.667 426.782 112.64 426.659 112.639C426.535 112.639 426.413 112.665 426.301 112.715C426.188 112.765 426.088 112.839 426.006 112.931C425.924 113.023 425.863 113.132 425.826 113.249C425.826 113.249 426.499 112.748 426.965 112.818" fill="black"/>
<path d="M424.767 109.71C425.424 109.71 425.956 109.178 425.956 108.521C425.956 107.865 425.424 107.333 424.767 107.333C424.11 107.333 423.577 107.865 423.577 108.521C423.577 109.178 424.11 109.71 424.767 109.71Z" fill="#72351C"/>
<path d="M423.944 109.354C423.944 109.354 424.115 110.051 423.944 110.196C423.774 110.341 423.442 110.602 423.693 110.808C423.944 111.013 424.858 111.359 425.159 111.194C425.46 111.028 425.806 111.073 425.726 110.727C425.646 110.381 424.983 110.452 424.968 108.722L423.944 109.354Z" fill="#FDB797"/>
<path opacity="0.1" d="M422.262 112.262C422.288 112.639 422.264 113.018 422.192 113.39C422.116 113.764 422.072 114.145 422.062 114.528C422.097 114.778 422.172 116.438 422.172 116.438C422.172 116.438 422.041 117.892 422.749 117.756C423.457 117.621 422.639 116.102 422.639 116.102L422.674 114.096C422.87 113.837 422.995 113.531 423.035 113.209C423.065 112.763 422.262 112.262 422.262 112.262Z" fill="black"/>
<path d="M422.248 112.262C422.273 112.639 422.25 113.018 422.177 113.39C422.101 113.764 422.057 114.145 422.047 114.528C422.082 114.778 422.157 116.438 422.157 116.438C422.157 116.438 422.027 117.892 422.734 117.756C423.442 117.621 422.624 116.102 422.624 116.102L422.659 114.096C422.856 113.837 422.98 113.531 423.021 113.209C423.056 112.763 422.248 112.262 422.248 112.262Z" fill="#FDB797"/>
<path opacity="0.1" d="M426.78 112.357L426.684 113.906C426.684 113.906 426.624 116.077 426.358 116.628C426.358 116.628 426.428 118.132 425.721 118.132C425.013 118.132 425.841 116.463 425.841 116.463C425.841 116.463 426.223 114.768 426.027 114.227L425.841 112.367L426.78 112.357Z" fill="black"/>
<path d="M426.79 112.357L426.694 113.906C426.694 113.906 426.634 116.077 426.368 116.628C426.368 116.628 426.438 118.132 425.73 118.132C425.023 118.132 425.851 116.463 425.851 116.463C425.851 116.463 426.232 114.768 426.037 114.227L425.851 112.367L426.79 112.357Z" fill="#FDB797"/>
<path opacity="0.1" d="M424.486 110.853C424.486 110.853 425.058 111.118 425.374 110.351L426.544 110.923C426.615 110.991 426.672 111.072 426.711 111.163C426.749 111.253 426.769 111.351 426.769 111.449L427.02 112.793C426.914 112.751 426.801 112.731 426.686 112.734C426.572 112.736 426.46 112.762 426.355 112.809C426.251 112.855 426.157 112.922 426.079 113.006C426.001 113.089 425.941 113.187 425.901 113.294L425.971 114.051C426.028 114.238 426.016 114.439 425.936 114.618C425.929 114.634 425.926 114.651 425.926 114.668C425.926 114.685 425.929 114.702 425.936 114.718C425.957 114.773 425.964 114.833 425.958 114.891C425.951 114.95 425.93 115.006 425.897 115.055C425.864 115.104 425.82 115.145 425.769 115.173C425.717 115.202 425.659 115.218 425.6 115.219C425.286 115.222 424.972 115.245 424.661 115.29C424.411 115.36 423.658 115.144 423.402 115.29C423.146 115.435 422.619 115.179 422.619 115.179L422.764 114.568C422.764 114.568 422.669 114.267 422.764 114.162C422.856 113.727 422.835 113.277 422.704 112.853C422.704 112.853 422.272 112.447 422.021 112.517L422.383 110.968C422.459 110.824 422.571 110.702 422.708 110.614C422.845 110.526 423.003 110.476 423.166 110.467C423.436 110.491 423.707 110.414 423.924 110.251C423.924 110.251 423.643 110.757 424.486 110.853Z" fill="black"/>
<path opacity="0.1" d="M424.546 110.828C424.702 110.868 425.124 110.918 425.375 110.286L426.544 110.858C426.615 110.926 426.672 111.007 426.711 111.098C426.75 111.188 426.77 111.286 426.77 111.384L427.021 112.728C426.915 112.686 426.801 112.666 426.687 112.669C426.572 112.671 426.46 112.697 426.356 112.743C426.251 112.79 426.158 112.857 426.08 112.941C426.002 113.024 425.941 113.122 425.902 113.229L425.972 113.986L426.017 114.137C426.038 114.2 426.043 114.268 426.033 114.334C426.022 114.4 425.996 114.463 425.957 114.518C425.944 114.539 425.937 114.563 425.937 114.588C425.937 114.613 425.944 114.637 425.957 114.658C425.978 114.713 425.985 114.773 425.978 114.831C425.971 114.89 425.951 114.946 425.918 114.995C425.885 115.044 425.841 115.084 425.789 115.113C425.737 115.142 425.68 115.157 425.621 115.159C425.306 115.162 424.993 115.185 424.682 115.229C424.431 115.3 423.678 115.084 423.422 115.229C423.166 115.375 422.639 115.119 422.639 115.119L422.785 114.508C422.785 114.508 422.689 114.207 422.785 114.101C422.876 113.667 422.856 113.217 422.725 112.793C422.725 112.793 422.293 112.387 422.042 112.457L422.403 110.908C422.479 110.764 422.591 110.642 422.729 110.554C422.866 110.466 423.024 110.415 423.186 110.407C423.457 110.431 423.727 110.354 423.944 110.191C423.944 110.191 423.663 110.692 424.406 110.818L424.546 110.828Z" fill="black"/>
<path d="M424.546 110.853C424.702 110.893 425.123 110.943 425.374 110.311L426.544 110.883C426.615 110.951 426.672 111.032 426.711 111.123C426.749 111.213 426.769 111.311 426.769 111.409L427.02 112.753C426.914 112.711 426.801 112.691 426.686 112.694C426.572 112.696 426.46 112.722 426.355 112.768C426.251 112.815 426.157 112.882 426.079 112.966C426.001 113.049 425.941 113.147 425.901 113.254L425.971 114.011C426.028 114.198 426.016 114.399 425.936 114.578C425.929 114.594 425.926 114.611 425.926 114.628C425.926 114.645 425.929 114.662 425.936 114.678C425.957 114.733 425.964 114.793 425.958 114.851C425.951 114.91 425.93 114.966 425.897 115.015C425.864 115.064 425.82 115.105 425.769 115.133C425.717 115.162 425.659 115.178 425.6 115.179C425.286 115.182 424.972 115.205 424.661 115.25C424.411 115.32 423.658 115.104 423.402 115.25C423.146 115.395 422.619 115.139 422.619 115.139L422.764 114.528C422.764 114.528 422.669 114.227 422.764 114.121C422.856 113.687 422.835 113.237 422.704 112.813C422.704 112.813 422.272 112.407 422.021 112.477L422.383 110.928C422.459 110.784 422.571 110.662 422.708 110.574C422.845 110.486 423.003 110.435 423.166 110.427C423.436 110.451 423.707 110.374 423.924 110.211C423.924 110.211 423.643 110.712 424.385 110.838L424.546 110.853Z" fill="#F55F44"/>
<path opacity="0.1" d="M424.988 108.777L423.984 109.414C424.01 109.523 424.03 109.633 424.045 109.745C424.161 109.791 424.286 109.815 424.411 109.815C424.661 109.799 424.897 109.692 425.073 109.514C425.022 109.272 424.993 109.025 424.988 108.777Z" fill="black"/>
<path d="M424.37 109.755C424.914 109.755 425.354 109.315 425.354 108.772C425.354 108.229 424.914 107.789 424.37 107.789C423.827 107.789 423.387 108.229 423.387 108.772C423.387 109.315 423.827 109.755 424.37 109.755Z" fill="#FDB797"/>
<path d="M425.826 108.015C426.065 108.015 426.258 107.822 426.258 107.584C426.258 107.346 426.065 107.153 425.826 107.153C425.588 107.153 425.395 107.346 425.395 107.584C425.395 107.822 425.588 108.015 425.826 108.015Z" fill="#72351C"/>
<path d="M425.906 108.04C425.797 108.04 425.691 107.999 425.611 107.925C425.531 107.85 425.482 107.748 425.475 107.639C425.475 107.639 425.475 107.639 425.475 107.669C425.475 107.783 425.52 107.893 425.601 107.974C425.682 108.055 425.792 108.1 425.906 108.1C426.021 108.1 426.131 108.055 426.211 107.974C426.292 107.893 426.338 107.783 426.338 107.669C426.338 107.669 426.338 107.669 426.338 107.639C426.33 107.748 426.281 107.85 426.201 107.925C426.121 107.999 426.016 108.04 425.906 108.04Z" fill="#72351C"/>
<path d="M425.66 108.471C425.553 108.452 425.457 108.392 425.392 108.305C425.326 108.217 425.297 108.108 425.309 108V108.03C425.288 108.143 425.313 108.26 425.379 108.354C425.444 108.449 425.544 108.513 425.658 108.534C425.771 108.555 425.887 108.529 425.982 108.464C426.077 108.399 426.141 108.299 426.162 108.186V108.155C426.135 108.262 426.067 108.354 425.974 108.413C425.881 108.472 425.768 108.493 425.66 108.471Z" fill="#72351C"/>
<path d="M425.324 109.504C425.217 109.484 425.121 109.425 425.056 109.337C424.991 109.25 424.961 109.141 424.973 109.033V109.063C424.952 109.176 424.977 109.293 425.043 109.387C425.108 109.481 425.209 109.546 425.322 109.567C425.435 109.587 425.552 109.562 425.646 109.497C425.741 109.432 425.805 109.331 425.826 109.218V109.188C425.799 109.295 425.731 109.387 425.638 109.446C425.545 109.505 425.432 109.525 425.324 109.504Z" fill="#72351C"/>
<path d="M425.906 107.815C425.797 107.815 425.691 107.774 425.611 107.699C425.531 107.625 425.482 107.523 425.475 107.413C425.475 107.413 425.475 107.413 425.475 107.444C425.475 107.558 425.52 107.668 425.601 107.748C425.682 107.829 425.792 107.875 425.906 107.875C426.021 107.875 426.131 107.829 426.211 107.748C426.292 107.668 426.338 107.558 426.338 107.444C426.338 107.444 426.338 107.444 426.338 107.413C426.33 107.523 426.281 107.625 426.201 107.699C426.121 107.774 426.016 107.815 425.906 107.815Z" fill="#72351C"/>
<path d="M425.304 107.579C425.305 107.47 425.348 107.365 425.423 107.286C425.499 107.207 425.602 107.159 425.711 107.153H425.681C425.566 107.153 425.456 107.198 425.375 107.279C425.295 107.36 425.249 107.47 425.249 107.584C425.249 107.698 425.295 107.808 425.375 107.889C425.456 107.97 425.566 108.015 425.681 108.015H425.711C425.6 108.009 425.496 107.96 425.42 107.878C425.344 107.797 425.303 107.69 425.304 107.579Z" fill="#72351C"/>
<path opacity="0.1" d="M425.74 111.655C425.786 111.868 425.786 112.088 425.74 112.302C425.74 112.302 425.68 112.868 425.776 112.963" fill="black"/>
<path opacity="0.1" d="M422.82 111.76C422.865 111.973 422.865 112.194 422.82 112.407C422.82 112.407 422.759 112.973 422.855 113.069" fill="black"/>
<path opacity="0.1" d="M422.795 114.101C422.888 114.134 422.988 114.134 423.081 114.101C423.194 114.068 423.314 114.068 423.427 114.101" fill="black"/>
<path opacity="0.1" d="M422.94 113.264C423.282 113.281 423.624 113.228 423.944 113.109C423.944 113.109 425.169 113.41 425.52 113.194" fill="black"/>
<path d="M422.599 118.423H422.263C422.146 118.423 422.052 118.517 422.052 118.634V118.679C422.052 118.795 422.146 118.889 422.263 118.889H422.599C422.715 118.889 422.81 118.795 422.81 118.679V118.634C422.81 118.517 422.715 118.423 422.599 118.423Z" fill="#FDB797"/>
<path d="M422.052 118.543H422.458L422.81 118.599H422.684L422.052 118.543Z" fill="#F0E4E4"/>
<path d="M424.777 116.598H425.184L425.535 116.633H425.41L424.777 116.598Z" fill="#F0E4E4"/>
<path d="M424.777 116.683H425.184L425.535 116.718H425.41L424.777 116.683Z" fill="#F0E4E4"/>
<path d="M424.777 116.774H425.184L425.535 116.809H425.41L424.777 116.774Z" fill="#F0E4E4"/>
<path d="M424.777 116.849H425.184L425.535 116.884H425.41L424.777 116.849Z" fill="#F0E4E4"/>
<path d="M422.052 118.874H422.458L422.81 118.914H422.684L422.052 118.874Z" fill="#F0E4E4"/>
<path d="M422.052 118.834H422.458L422.81 118.874H422.684L422.052 118.834Z" fill="#F0E4E4"/>
<path d="M422.052 118.779H422.458L422.81 118.819H422.684L422.052 118.779Z" fill="#F0E4E4"/>
<path d="M422.052 118.749H422.458L422.81 118.789H422.684L422.052 118.749Z" fill="#F0E4E4"/>
<path d="M422.052 118.488H422.458L422.81 118.543H422.684L422.052 118.488Z" fill="#F0E4E4"/>
<path d="M422.052 118.418H422.458L422.81 118.473H422.684L422.052 118.418Z" fill="#F0E4E4"/>
<path opacity="0.1" d="M424.536 108.14C424.497 108.507 424.543 108.878 424.672 109.223C424.733 109.39 424.76 109.568 424.749 109.746C424.739 109.924 424.692 110.097 424.611 110.256C424.665 110.269 424.72 110.269 424.774 110.256C424.827 110.243 424.876 110.217 424.918 110.181C425.003 110.105 425.078 110.017 425.138 109.92C425.203 109.841 425.249 109.749 425.274 109.649C425.284 109.494 425.26 109.338 425.204 109.193C425.136 108.926 425.088 108.655 425.058 108.381C425.058 108.216 425.058 107.734 424.872 107.689C424.687 107.644 424.571 108 424.536 108.14Z" fill="black"/>
<path d="M424.561 108.13C424.522 108.497 424.568 108.868 424.697 109.213C424.761 109.381 424.789 109.561 424.779 109.741C424.77 109.92 424.723 110.096 424.642 110.256C424.695 110.269 424.751 110.269 424.804 110.256C424.857 110.243 424.907 110.217 424.948 110.181C425.034 110.105 425.108 110.017 425.169 109.92C425.233 109.841 425.28 109.749 425.304 109.649C425.314 109.494 425.29 109.338 425.234 109.193C425.167 108.926 425.118 108.655 425.088 108.381C425.088 108.216 425.088 107.734 424.903 107.689C424.717 107.644 424.612 107.99 424.561 108.13Z" fill="#72351C"/>
<path opacity="0.1" d="M424.14 108.386C424.22 108.471 424.24 108.602 424.311 108.702C424.374 108.77 424.452 108.823 424.539 108.857C424.626 108.891 424.72 108.905 424.813 108.897C424.861 108.895 424.91 108.905 424.953 108.928C425.028 108.978 425.033 109.088 425.084 109.163C425.109 109.192 425.141 109.215 425.177 109.231C425.212 109.247 425.25 109.255 425.289 109.255C425.328 109.255 425.367 109.247 425.402 109.231C425.438 109.215 425.469 109.192 425.495 109.163C425.579 109.043 425.621 108.899 425.616 108.752C425.631 108.585 425.631 108.417 425.616 108.251C425.611 108.052 425.532 107.863 425.395 107.719C425.28 107.635 425.148 107.579 425.008 107.554C424.817 107.486 424.611 107.471 424.411 107.509C424.315 107.541 424.223 107.586 424.14 107.644L423.789 107.88C423.658 107.97 423.417 108.15 423.653 108.251C423.824 108.286 424.015 108.251 424.14 108.386Z" fill="black"/>
<path d="M424.164 108.376C424.245 108.461 424.265 108.592 424.335 108.692C424.399 108.76 424.477 108.813 424.564 108.847C424.65 108.881 424.744 108.895 424.837 108.887C424.886 108.885 424.934 108.895 424.977 108.918C425.053 108.968 425.058 109.078 425.108 109.153C425.134 109.182 425.166 109.205 425.201 109.221C425.237 109.237 425.275 109.245 425.314 109.245C425.353 109.245 425.391 109.237 425.426 109.221C425.462 109.205 425.494 109.182 425.52 109.153C425.62 109.032 425.675 108.879 425.675 108.722C425.691 108.555 425.691 108.387 425.675 108.221C425.67 108.022 425.592 107.833 425.454 107.689C425.34 107.605 425.208 107.548 425.068 107.524C424.876 107.456 424.67 107.44 424.471 107.479C424.374 107.511 424.283 107.556 424.2 107.614L423.848 107.85C423.718 107.94 423.477 108.12 423.713 108.221C423.848 108.251 424.034 108.251 424.164 108.376Z" fill="#72351C"/>
<path d="M424.802 116.598H425.208L425.56 116.633H425.434L424.802 116.598Z" fill="#F0E4E4"/>
<path d="M424.802 116.683H425.208L425.56 116.718H425.434L424.802 116.683Z" fill="#F0E4E4"/>
<path d="M424.802 116.774H425.208L425.56 116.809H425.434L424.802 116.774Z" fill="#F0E4E4"/>
<path d="M424.802 116.849H425.208L425.56 116.884H425.434L424.802 116.849Z" fill="#F0E4E4"/>
<path d="M424.611 121.476H425.018L425.369 121.511H425.244L424.611 121.476Z" fill="#F0E4E4"/>
<path d="M424.611 121.556H425.018L425.369 121.592H425.244L424.611 121.556Z" fill="#F0E4E4"/>
<path d="M424.611 121.642H425.018L425.369 121.677H425.244L424.611 121.642Z" fill="#F0E4E4"/>
<path d="M424.611 121.727H425.018L425.369 121.762H425.244L424.611 121.727Z" fill="#F0E4E4"/>
<path opacity="0.2" d="M196.937 348.275H157.016V325.81H196.937V348.275ZM158.702 346.591H195.241V327.495H158.702V346.591Z" fill="#E57A7A"/>
<path d="M130.445 314.595C132.955 316.059 135.6 316.655 138.335 315.748C139.046 315.509 139.733 315.205 140.388 314.841C165.985 315.382 189.69 315.131 190.609 312.379C192.114 307.817 182.578 285.346 177.765 274.487C179.181 273.526 180.378 272.277 181.278 270.822C187.964 278.458 200.401 288.309 207.794 288.801C207.794 288.801 218.585 314.404 230.726 310.359C242.867 306.313 244.217 284.755 238.144 282.063L197.675 256.459V213.975C198.905 211.539 199.488 208.829 199.367 206.104C199.367 205.602 199.392 205.101 199.367 204.599L198.017 192.472C198.017 192.472 197.947 192.071 197.761 191.344C194.749 179.658 188.039 171.791 178.578 170.623C179.039 169.783 179.319 168.856 179.401 167.901C179.597 165.635 178.653 163.324 179.185 161.113C179.808 158.536 182.197 156.871 184.159 155.097C188.35 151.266 190.99 146.072 193.54 141.004C195.969 136.176 198.433 131.222 199.061 125.858C199.688 120.494 198.057 114.538 193.665 111.379C190.252 108.918 185.449 108.271 182.995 104.862C181.896 103.327 181.439 101.437 180.681 99.7128C178.498 94.7445 173.79 91.22 168.68 89.38C150.752 82.9327 128.759 90.3326 117.321 105.203C113.586 110.056 110.891 115.61 108.226 121.12L98.5895 141.019C96.9282 144.443 95.3221 148.719 97.5405 151.813C98.6246 153.317 100.482 154.249 101.235 155.949C102.238 158.205 100.984 161.158 102.459 163.143C103.272 164.241 104.683 164.677 105.892 165.319C107.516 166.242 108.93 167.494 110.043 168.994L88.8826 185.373C87.3536 186.556 86.0818 188.038 85.1447 189.728C84.2076 191.419 83.6249 193.282 83.4319 195.204L81.339 216.04C80.673 218.407 80.3552 220.857 80.3954 223.315C80.3201 225.511 80.5761 227.932 81.6753 229.832L82.137 229.722C82.6389 244.336 83.5122 265.363 84.3755 269.248C84.8774 271.554 88.0445 275.62 92.3106 279.811L90.8049 284.073H91.3068L90.8049 285.412H91.8087C87.5526 300.773 75.9736 312.349 75.9736 312.349C75.9736 312.349 102.75 313.803 130.445 314.595ZM105.28 243.614V227.235C107.749 227.616 109.571 228.469 110.153 230.023L105.28 243.614ZM112.427 172.333L112.507 172.453H112.477L112.427 172.333Z" fill="url(#paint2_linear)"/>
<path d="M173.312 209.523C173.312 209.523 174.592 254.955 175.877 260.715C177.162 266.476 195.743 283.772 205.344 284.414C205.344 284.414 215.593 308.729 227.127 304.889C238.66 301.049 239.94 280.574 234.153 278.012L195.743 253.696V205.066L173.312 209.523Z" fill="#FDB797"/>
<path d="M174.276 265.217C174.276 265.217 190.934 301.054 189.012 306.829C187.09 312.605 80.0986 306.829 80.0986 306.829C80.0986 306.829 99.959 286.991 96.1144 265.217H174.276Z" fill="#565171"/>
<path d="M161.463 158.992C161.463 158.992 158.899 183.949 163.386 189.71C167.873 195.47 145.447 198.664 143.545 198.664C141.643 198.664 121.125 191.645 117.281 189.704C113.436 187.764 110.254 173.707 110.254 173.707C110.254 173.707 129.472 177.547 135.239 155.157L161.463 158.992Z" fill="#FDB797"/>
<path d="M168.179 94.9751C173.032 96.7197 177.504 100.069 179.577 104.786C180.3 106.426 180.731 108.221 181.775 109.68C184.104 112.928 188.666 113.54 191.909 115.881C196.069 118.889 197.61 124.539 197.033 129.633C196.456 134.727 194.112 139.434 191.808 144.017C189.384 148.835 186.88 153.763 182.899 157.403C181.042 159.102 178.764 160.682 178.171 163.128C177.67 165.229 178.563 167.42 178.372 169.575C177.91 174.895 171.546 177.371 166.231 177.963C163.922 178.219 161.277 178.234 159.651 176.574C158.818 175.722 158.401 174.569 157.869 173.496C156.66 171.053 154.797 168.992 152.486 167.542C150.176 166.092 147.509 165.309 144.78 165.281C142.052 165.253 139.369 165.981 137.029 167.383C134.689 168.785 132.784 170.807 131.524 173.225C130.28 175.622 129.552 178.524 127.283 179.988C123.81 182.229 119.168 179.597 116.613 176.359C114.058 173.12 112.196 169.049 108.547 167.109C107.398 166.497 106.038 166.106 105.29 165.043C103.89 163.158 105.079 160.356 104.13 158.21C103.413 156.596 101.651 155.703 100.617 154.279C98.5091 151.341 100.035 147.26 101.621 144.027L110.776 125.126C113.285 119.892 115.87 114.598 119.413 110.005C130.26 95.8775 151.149 88.8486 168.179 94.9751Z" fill="#8F5A6A"/>
<path opacity="0.1" d="M144.809 194.187C144.809 194.187 119.825 194.187 113.42 171.15L92.3904 187.428C90.9391 188.554 89.732 189.962 88.8424 191.567C87.9529 193.173 87.3994 194.943 87.2158 196.768L85.2082 216.587C85.2082 216.587 82.9646 223.946 85.5294 228.423C85.5294 228.423 112.13 221.705 112.758 229.381L94.1973 281.215C94.1973 281.215 123.027 281.857 130.711 276.738C130.711 276.738 162.1 283.135 169.789 276.097C177.478 269.058 185.162 269.699 178.758 253.701C178.758 253.701 191.572 240.902 185.785 222.984C179.998 205.066 185.464 223.305 185.464 223.305C185.464 223.305 197.956 217.223 197.314 205.707L196.034 194.177C196.034 194.177 195.963 193.795 195.788 193.109C191.883 177.928 181.388 169.545 166.637 174.89C162.326 176.449 157.919 174.664 157.919 174.664C157.919 174.664 162.742 195.485 144.809 194.187Z" fill="black"/>
<path d="M144.809 192.908C144.809 192.908 119.825 192.908 113.42 169.871L92.3904 186.15C90.9397 187.275 89.7329 188.682 88.8434 190.287C87.9538 191.891 87.4001 193.66 87.2158 195.485L85.2082 215.303C85.2082 215.303 82.9646 222.663 85.5294 227.14C85.5294 227.14 112.13 220.422 112.758 228.098L94.1872 279.932C94.1872 279.932 123.017 280.574 130.701 275.455C130.701 275.455 162.09 281.852 169.779 274.813C177.468 267.774 185.152 268.416 178.748 252.418C178.748 252.418 191.562 239.619 185.775 221.7C179.988 203.782 185.454 222.021 185.454 222.021C185.454 222.021 197.946 215.94 197.304 204.424L196.024 192.893C196.024 192.893 195.953 192.512 195.778 191.825C191.873 176.644 181.378 168.262 166.627 173.606C162.316 175.165 157.909 173.381 157.909 173.381C157.909 173.381 162.742 194.187 144.809 192.908Z" fill="#B45181"/>
<path d="M85.5498 214.662C85.5498 214.662 86.8297 260.094 88.1145 265.854C89.3994 271.614 107.975 288.891 117.581 289.533C117.581 289.533 127.83 313.848 139.364 310.008C150.898 306.167 152.178 285.692 146.391 283.13L107.955 258.815V210.185L85.5498 214.662Z" fill="#FDB797"/>
<path opacity="0.1" d="M113.094 216.261C113.094 216.261 98.3728 226.248 85.5492 225.415C85.5492 225.415 84.2693 208.264 88.1139 207.307C91.9585 206.349 108.612 207.307 113.094 216.261Z" fill="black"/>
<path d="M113.094 215.624C113.094 215.624 98.3728 225.611 85.5492 224.774C85.5492 224.774 84.2693 207.623 88.1139 206.665C91.9585 205.707 108.612 206.665 113.094 215.624Z" fill="#B45181"/>
<path opacity="0.1" d="M133.918 156.43L160.183 160.27C160.183 160.27 159.59 166.046 159.475 172.679C154.371 174.828 148.764 175.498 143.297 174.611C137.83 173.724 132.723 171.317 128.562 167.665C130.761 164.958 132.658 161.318 133.918 156.43Z" fill="black"/>
<path d="M149.291 173.707C165.565 173.707 178.758 160.528 178.758 144.272C178.758 128.016 165.565 114.838 149.291 114.838C133.017 114.838 119.824 128.016 119.824 144.272C119.824 160.528 133.017 173.707 149.291 173.707Z" fill="#FDB797"/>
<path opacity="0.1" d="M141.537 138.617C142.752 139.179 144.137 139.189 145.477 139.179C150.69 139.145 155.898 138.953 161.101 138.602C165.046 138.337 169.252 137.875 172.294 135.354C176.389 131.959 177.037 125.597 174.924 120.719C172.811 115.841 168.499 112.246 163.947 109.499C161.372 107.868 158.581 106.604 155.656 105.744C147.209 103.453 137.868 106.245 131.158 111.885C124.447 117.526 120.171 125.612 117.907 134.06C117.124 136.983 116.121 140.462 113.225 141.35C115.152 144.553 119.855 145.06 123.238 143.455C128.217 141.089 130.766 132.035 135.238 130.611C140.212 129.042 137.311 136.682 141.537 138.617Z" fill="black"/>
<path d="M141.537 137.976C142.751 138.537 144.137 138.547 145.477 138.537C150.69 138.504 155.898 138.311 161.101 137.961C165.046 137.695 169.252 137.234 172.293 134.712C176.389 131.318 177.036 124.956 174.923 120.077C172.81 115.199 168.499 111.605 163.947 108.857C161.375 107.236 158.589 105.981 155.67 105.127C147.223 102.836 137.883 105.629 131.172 111.269C124.462 116.909 120.186 124.996 117.922 133.443C117.139 136.366 116.135 139.846 113.239 140.733C115.167 143.937 119.869 144.443 123.252 142.839C128.231 140.472 130.781 131.418 135.253 129.994C140.212 128.405 137.311 136.04 141.537 137.976Z" fill="#8F5A6A"/>
<path opacity="0.1" d="M179.08 252.097C169.469 249.532 159.562 248.241 149.613 248.257L179.08 252.097Z" fill="black"/>
<path opacity="0.1" d="M113.094 217.544C113.094 217.544 122.705 224.563 120.12 228.423L113.094 217.544Z" fill="black"/>
<g opacity="0.7">
<path opacity="0.7" d="M378.727 290.099H64.1836V317.568H82.4931V322.932V404.005H361.07V322.932V317.568H378.727V290.099Z" fill="url(#paint3_linear)"/>
</g>
<path d="M358.225 306.097H85.3242V404.005H358.225V306.097Z" fill="#E0E0E0"/>
<path opacity="0.1" d="M358.225 311.216H85.3242V326.572H358.225V311.216Z" fill="black"/>
<path d="M375.525 295.218H67.3857V321.453H375.525V295.218Z" fill="#E0E0E0"/>
<path d="M181.283 288.76H128.869C127.067 288.76 125.606 290.219 125.606 292.019V293.819C125.606 295.619 127.067 297.078 128.869 297.078H181.283C183.084 297.078 184.545 295.619 184.545 293.819V292.019C184.545 290.219 183.084 288.76 181.283 288.76Z" fill="#424141"/>
<g opacity="0.7">
<path opacity="0.7" d="M293.795 196.011H175.641C167.819 196.011 161.478 202.346 161.478 210.159V283.035C161.478 290.849 167.819 297.183 175.641 297.183H293.795C301.617 297.183 307.958 290.849 307.958 283.035V210.159C307.958 202.346 301.617 196.011 293.795 196.011Z" fill="url(#paint4_linear)"/>
</g>
<path d="M289.383 197.881H177.564C170.124 197.881 164.093 203.906 164.093 211.338V283.727C164.093 291.159 170.124 297.183 177.564 297.183H289.383C296.823 297.183 302.854 291.159 302.854 283.727V211.338C302.854 203.906 296.823 197.881 289.383 197.881Z" fill="#99999E"/>
<path d="M291.306 197.881H179.487C172.047 197.881 166.016 203.906 166.016 211.338V283.727C166.016 291.159 172.047 297.183 179.487 297.183H291.306C298.746 297.183 304.777 291.159 304.777 283.727V211.338C304.777 203.906 298.746 197.881 291.306 197.881Z" fill="#424141"/>
<path d="M241.878 251.325C244.353 251.325 246.36 249.321 246.36 246.848C246.36 244.375 244.353 242.371 241.878 242.371C239.402 242.371 237.396 244.375 237.396 246.848C237.396 249.321 239.402 251.325 241.878 251.325Z" fill="#E0E0E0"/>
</g>
<defs>
<linearGradient id="paint0_linear" x1="379.922" y1="182.666" x2="379.922" y2="10.2174" gradientUnits="userSpaceOnUse">
<stop stop-color="#808080" stop-opacity="0.25"/>
<stop offset="0.54" stop-color="#808080" stop-opacity="0.12"/>
<stop offset="1" stop-color="#808080" stop-opacity="0.1"/>
</linearGradient>
<linearGradient id="paint1_linear" x1="6902.46" y1="5847.41" x2="6902.46" y2="5108.26" gradientUnits="userSpaceOnUse">
<stop stop-color="#808080" stop-opacity="0.25"/>
<stop offset="0.54" stop-color="#808080" stop-opacity="0.12"/>
<stop offset="1" stop-color="#808080" stop-opacity="0.1"/>
</linearGradient>
<linearGradient id="paint2_linear" x1="-87907.7" y1="155382" x2="-87907.7" y2="50634.7" gradientUnits="userSpaceOnUse">
<stop stop-color="#808080" stop-opacity="0.25"/>
<stop offset="0.54" stop-color="#808080" stop-opacity="0.12"/>
<stop offset="1" stop-color="#808080" stop-opacity="0.1"/>
</linearGradient>
<linearGradient id="paint3_linear" x1="138850" y1="92078.9" x2="138850" y2="66200.6" gradientUnits="userSpaceOnUse">
<stop stop-color="#808080" stop-opacity="0.25"/>
<stop offset="0.54" stop-color="#808080" stop-opacity="0.12"/>
<stop offset="1" stop-color="#808080" stop-opacity="0.1"/>
</linearGradient>
<linearGradient id="paint4_linear" x1="68664.7" y1="60167.6" x2="68664.7" y2="39751.1" gradientUnits="userSpaceOnUse">
<stop stop-color="#808080" stop-opacity="0.25"/>
<stop offset="0.54" stop-color="#808080" stop-opacity="0.12"/>
<stop offset="1" stop-color="#808080" stop-opacity="0.1"/>
</linearGradient>
<clipPath id="clip0">
<rect width="527" height="404" fill="white"/>
</clipPath>
</defs>
</svg>
