<svg width="570" height="410" viewBox="0 0 570 410" fill="none" xmlns="http://www.w3.org/2000/svg">
<g clip-path="url(#clip0)">
<path d="M0 409.724H91.6861" stroke="#3F3D56" stroke-miterlimit="10"/>
<path d="M530.565 70.6147H144.929C139.012 70.6147 134.215 75.4151 134.215 81.3366V335.712C134.215 341.634 139.012 346.434 144.929 346.434H530.565C536.482 346.434 541.279 341.634 541.279 335.712V81.3366C541.279 75.4151 536.482 70.6147 530.565 70.6147Z" fill="#F2F2F2"/>
<path d="M518.138 53.2032H132.502C126.585 53.2032 121.788 58.0036 121.788 63.9252V318.301C121.788 324.223 126.585 329.023 132.502 329.023H518.138C524.055 329.023 528.852 324.223 528.852 318.301V63.9252C528.852 58.0036 524.055 53.2032 518.138 53.2032Z" stroke="#3F3D56" stroke-miterlimit="10"/>
<path d="M121.788 79.6467H528.852" stroke="#3F3D56" stroke-miterlimit="10"/>
<path opacity="0.3" d="M472.187 141.642H369.004C366.841 141.642 365.087 143.398 365.087 145.563V154.857C365.087 157.022 366.841 158.777 369.004 158.777H472.187C474.35 158.777 476.104 157.022 476.104 154.857V145.563C476.104 143.398 474.35 141.642 472.187 141.642Z" fill="#E57A7A"/>
<path opacity="0.3" d="M493.452 189.178H347.741C345.577 189.178 343.823 190.934 343.823 193.099V199.077C343.823 201.242 345.577 202.997 347.741 202.997H493.452C495.616 202.997 497.37 201.242 497.37 199.077V193.099C497.37 190.934 495.616 189.178 493.452 189.178Z" fill="#E57A7A"/>
<path opacity="0.3" d="M493.452 226.765H347.741C345.577 226.765 343.823 228.52 343.823 230.685V236.663C343.823 238.828 345.577 240.584 347.741 240.584H493.452C495.616 240.584 497.37 238.828 497.37 236.663V230.685C497.37 228.52 495.616 226.765 493.452 226.765Z" fill="#E57A7A"/>
<path opacity="0.3" d="M493.452 264.352H347.741C345.577 264.352 343.823 266.107 343.823 268.272V274.25C343.823 276.415 345.577 278.17 347.741 278.17H493.452C495.616 278.17 497.37 276.415 497.37 274.25V268.272C497.37 266.107 495.616 264.352 493.452 264.352Z" fill="#E57A7A"/>
<path d="M477.71 136.115H374.528C372.364 136.115 370.61 137.87 370.61 140.035V149.33C370.61 151.495 372.364 153.25 374.528 153.25H477.71C479.874 153.25 481.628 151.495 481.628 149.33V140.035C481.628 137.87 479.874 136.115 477.71 136.115Z" stroke="#3F3D56" stroke-miterlimit="10"/>
<path d="M498.975 183.651H353.263C351.1 183.651 349.346 185.406 349.346 187.571V193.549C349.346 195.714 351.1 197.47 353.263 197.47H498.975C501.138 197.47 502.892 195.714 502.892 193.549V187.571C502.892 185.406 501.138 183.651 498.975 183.651Z" stroke="#3F3D56" stroke-miterlimit="10"/>
<path d="M498.975 221.238H353.263C351.1 221.238 349.346 222.993 349.346 225.158V231.136C349.346 233.301 351.1 235.056 353.263 235.056H498.975C501.138 235.056 502.892 233.301 502.892 231.136V225.158C502.892 222.993 501.138 221.238 498.975 221.238Z" stroke="#3F3D56" stroke-miterlimit="10"/>
<path d="M498.975 258.824H353.263C351.1 258.824 349.346 260.579 349.346 262.745V268.723C349.346 270.888 351.1 272.643 353.263 272.643H498.975C501.138 272.643 502.892 270.888 502.892 268.723V262.745C502.892 260.579 501.138 258.824 498.975 258.824Z" stroke="#3F3D56" stroke-miterlimit="10"/>
<path opacity="0.3" d="M152.718 78.0767C157.293 78.0767 161.002 74.3647 161.002 69.7856C161.002 65.2065 157.293 61.4944 152.718 61.4944C148.142 61.4944 144.433 65.2065 144.433 69.7856C144.433 74.3647 148.142 78.0767 152.718 78.0767Z" fill="#E57A7A"/>
<path opacity="0.3" d="M175.916 78.0767C180.491 78.0767 184.201 74.3647 184.201 69.7856C184.201 65.2065 180.491 61.4944 175.916 61.4944C171.34 61.4944 167.631 65.2065 167.631 69.7856C167.631 74.3647 171.34 78.0767 175.916 78.0767Z" fill="#E57A7A"/>
<path opacity="0.3" d="M199.113 78.0767C203.689 78.0767 207.398 74.3647 207.398 69.7856C207.398 65.2065 203.689 61.4944 199.113 61.4944C194.537 61.4944 190.828 65.2065 190.828 69.7856C190.828 74.3647 194.537 78.0767 199.113 78.0767Z" fill="#E57A7A"/>
<path d="M156.032 74.7603C160.608 74.7603 164.317 71.0482 164.317 66.4691C164.317 61.89 160.608 58.1779 156.032 58.1779C151.456 58.1779 147.747 61.89 147.747 66.4691C147.747 71.0482 151.456 74.7603 156.032 74.7603Z" stroke="#3F3D56" stroke-miterlimit="10"/>
<path d="M179.229 74.7603C183.805 74.7603 187.514 71.0482 187.514 66.4691C187.514 61.89 183.805 58.1779 179.229 58.1779C174.654 58.1779 170.944 61.89 170.944 66.4691C170.944 71.0482 174.654 74.7603 179.229 74.7603Z" stroke="#3F3D56" stroke-miterlimit="10"/>
<path d="M202.427 74.7603C207.003 74.7603 210.712 71.0482 210.712 66.4691C210.712 61.89 207.003 58.1779 202.427 58.1779C197.852 58.1779 194.143 61.89 194.143 66.4691C194.143 71.0482 197.852 74.7603 202.427 74.7603Z" stroke="#3F3D56" stroke-miterlimit="10"/>
<path d="M250.399 317.415C249.012 311.021 248.644 302.287 249.111 296.212C249.111 296.212 242.097 265.376 236.579 262.499L236.577 262.501C236.492 262.609 233.814 266.123 233.474 276.996C233.129 288.042 229.222 295.29 229.222 295.29C229.222 295.29 230.486 309.058 229.763 317.415L250.399 317.415Z" fill="#E57A7A"/>
<path d="M301.42 121.191H174.133C172.408 121.191 170.701 121.531 169.108 122.191C167.515 122.851 166.068 123.819 164.849 125.039C163.629 126.259 162.662 127.708 162.002 129.302C161.343 130.896 161.003 132.605 161.003 134.33V304.276C161.003 306.001 161.343 307.71 162.002 309.304C162.662 310.898 163.629 312.347 164.849 313.567C166.068 314.787 167.515 315.755 169.108 316.415C170.701 317.075 172.408 317.415 174.133 317.415H218.791C217.3 311.225 215.446 301.557 217.323 294.834L217.322 294.83L217.324 294.833C217.411 294.519 217.504 294.21 217.609 293.909C218.898 289.547 219.328 284.975 218.874 280.448C219.704 276.58 219.704 272.58 218.874 268.712C217.495 262.269 216.529 255.941 216.529 255.941C216.529 255.941 215.769 247.427 216.433 242.208C216.447 242.094 216.464 241.985 216.48 241.874C216.246 241.82 216.115 241.789 216.115 241.789C216.115 241.789 218.069 232.93 218.759 227.292C218.922 225.961 219.136 224.274 219.368 222.475C218.731 222.369 218.105 222.21 217.494 222C211.286 219.814 209.331 200.024 209.331 200.024V193.753C209.331 193.753 207.262 184.146 214.505 179.889C221.48 175.79 224.264 174.668 224.461 174.59C224.514 174.552 224.566 174.518 224.621 174.476C225.409 173.857 226.033 173.053 226.438 172.136C226.447 171.978 226.449 171.821 226.444 171.665C226.327 169.417 224.763 167.372 223.279 165.589C222.014 164.067 220.748 162.546 219.483 161.025C219.049 160.571 218.716 160.032 218.505 159.441C218.425 159.115 218.39 158.779 218.402 158.444C218.401 158.32 218.402 158.196 218.404 158.072C218.425 156.938 218.456 155.803 218.496 154.669C218.532 153.679 218.781 152.429 219.751 152.225C220.255 152.119 220.922 152.304 221.189 151.863C221.278 151.681 221.301 151.474 221.253 151.277C221.25 151.291 221.249 151.307 221.245 151.321C221.242 151.303 221.239 151.284 221.235 151.266C221.036 150.472 220.915 149.66 220.876 148.841C220.865 148.472 220.918 148.104 221.032 147.753C221.593 146.108 223.527 145.433 225.236 145.123C226.944 144.813 228.862 144.546 229.935 143.179C230.222 142.725 230.533 142.287 230.868 141.867C231.36 141.419 231.964 141.114 232.616 140.984C234.737 140.447 236.978 140.646 238.971 141.549C239.798 141.926 240.628 142.435 241.535 142.377C242.477 142.317 243.281 141.654 244.211 141.493C245.713 141.232 247.149 142.358 247.889 143.692C248.359 144.54 248.594 145.498 248.57 146.468C248.587 147.433 248.239 148.37 247.595 149.089C246.949 149.775 245.985 150.246 245.716 151.15C245.607 151.518 245.632 151.914 245.536 152.286C245.524 152.332 245.504 152.376 245.488 152.42C245.506 152.443 245.525 152.465 245.543 152.488C246.673 153.979 247.431 155.719 247.753 157.563C248.075 159.407 247.951 161.301 247.393 163.087C246.834 164.873 245.857 166.5 244.542 167.831C243.228 169.162 241.614 170.16 239.836 170.74C239.832 170.856 239.827 170.973 239.828 171.09C239.794 171.815 239.917 172.539 240.188 173.213C240.458 173.886 240.87 174.494 241.396 174.995L251.64 179.199C251.64 179.199 257.807 178.451 260.033 187.661C260.389 189.192 260.518 190.767 260.414 192.336C260.333 193.725 260.521 196.17 262.102 199.334C264.632 204.396 264.057 216.017 258.883 217.167C253.983 218.257 252.076 217.799 251.889 217.748L251.877 217.951C251.958 220.132 252.734 238.938 255.549 241.214C256.328 241.843 256.179 242.268 255.54 242.555L255.542 242.557C255.542 242.557 255.547 242.678 255.559 242.895C255.643 244.271 256.078 249.509 257.963 252.489C260.148 255.941 259.918 275.847 259.918 275.847L261.412 287.582C261.412 287.582 260.493 294.831 261.412 296.096C261.934 296.813 262.567 307.927 263.016 317.415H301.42C304.902 317.415 308.242 316.031 310.704 313.567C313.166 311.103 314.549 307.76 314.549 304.276V134.33C314.549 132.605 314.21 130.896 313.55 129.302C312.89 127.708 311.923 126.259 310.704 125.039C309.485 123.819 308.037 122.851 306.444 122.191C304.851 121.531 303.144 121.191 301.42 121.191Z" fill="#E57A7A"/>
<path d="M288.164 106.267H160.877C153.625 106.267 147.747 112.15 147.747 119.406V289.351C147.747 296.608 153.625 302.491 160.877 302.491H288.164C295.415 302.491 301.294 296.608 301.294 289.351V119.406C301.294 112.15 295.415 106.267 288.164 106.267Z" stroke="#3F3D56" stroke-miterlimit="10"/>
<path d="M55.6883 177.78C55.6883 177.78 50.5383 176.256 49.4336 177.914C48.329 179.572 50.9397 191.593 50.9397 191.593L62.2877 192.283L58.3274 182.275L55.6883 177.78Z" fill="#2F2E41"/>
<path d="M15.9862 276.494C15.9862 276.494 26.3118 299.18 18.3599 298.468C10.4081 297.755 7.32227 276.494 7.32227 276.494H15.9862Z" fill="#A0616A"/>
<path d="M83.5178 274.131C83.5178 274.131 78.988 298.644 86.5308 296.026C94.0737 293.407 91.9239 272.032 91.9239 272.032L83.5178 274.131Z" fill="#A0616A"/>
<path d="M53.4904 172.092C53.4904 172.092 53.3717 183.494 57.763 184.088C62.1544 184.682 55.2706 190.739 55.2706 190.739L47.4375 192.283L36.1625 191.452L31.1777 185.038C31.1777 185.038 39.9604 180.881 36.1625 167.935L53.4904 172.092Z" fill="#A0616A"/>
<path opacity="0.1" d="M53.4904 172.092C53.4904 172.092 53.3717 183.494 57.763 184.088C62.1544 184.682 55.2706 190.739 55.2706 190.739L47.4375 192.283L36.1625 191.452L31.1777 185.038C31.1777 185.038 39.9604 180.881 36.1625 167.935L53.4904 172.092Z" fill="black"/>
<path d="M73.6676 268.536C73.6676 268.536 79.2458 280.533 74.8544 318.184C74.8544 318.184 76.16 331.487 75.0918 333.981C74.0237 336.475 65.241 370.326 65.241 370.326C65.241 370.326 53.966 372.82 52.4231 365.338C52.4231 365.338 53.966 354.648 53.8473 352.985C53.7286 351.322 56.3397 333.15 56.3397 333.15L50.9989 297.993L46.9636 329.705C46.9636 329.705 46.9636 338.851 45.6581 340.87C44.3525 342.889 45.6581 383.51 45.6581 383.51C45.6581 383.51 49.3373 389.686 43.7591 389.805C38.1809 389.924 33.1962 389.686 32.7214 385.767C32.2467 381.847 32.0093 377.928 30.8225 375.552C29.6357 373.177 28.0928 345.977 28.4488 336.475C28.8049 326.974 20.6156 278.157 23.2267 273.05C25.8377 267.943 73.6676 268.536 73.6676 268.536Z" fill="#2F2E41"/>
<path d="M47.4374 176.367C55.3032 176.367 61.6796 169.986 61.6796 162.115C61.6796 154.243 55.3032 147.862 47.4374 147.862C39.5717 147.862 33.1953 154.243 33.1953 162.115C33.1953 169.986 39.5717 176.367 47.4374 176.367Z" fill="#A0616A"/>
<path d="M33.1953 185.276C33.1953 185.276 41.8593 191.689 54.4399 186.582C54.4399 186.582 58.5938 184.563 58.2378 181.475C57.8817 178.387 66.9017 206.299 66.9017 206.299L76.0404 254.877L75.5657 274.713C75.5657 274.713 71.5304 272.694 58.9499 277.207C46.3693 281.72 25.8369 272.1 25.8369 272.1L26.549 221.145L27.2611 191.452L29.1601 184.919C29.1601 184.919 30.1095 183.138 33.1953 185.276Z" fill="#F2F2F2"/>
<path d="M53.8867 177.302C53.8867 177.302 55.9833 176.961 58.0009 180.168C60.0186 183.375 64.7659 185.394 64.7659 185.394C64.7659 185.394 76.2783 186.107 77.9399 192.283C79.6015 198.46 83.7555 206.892 85.7731 222.452C87.7907 238.011 91.826 262.835 92.4194 264.854C93.0128 266.874 91.5886 273.05 93.2502 274.95C94.9118 276.851 81.5004 276.851 81.5004 276.851C81.5004 276.851 80.3136 267.111 79.4828 267.111C78.652 267.111 78.8894 273.644 79.7202 278.395C80.551 283.146 73.6673 278.395 73.6673 278.395C73.6673 278.395 68.3265 256.659 63.223 237.061C58.1196 217.463 55.1525 206.655 56.102 202.26C57.0514 197.866 59.6625 185.276 57.7636 184.088C55.8646 182.9 53.8867 177.302 53.8867 177.302Z" fill="#424141"/>
<path d="M36.7716 177.292C36.7716 177.292 33.6708 178.981 25.8376 184.563C18.0044 190.145 12.6637 194.421 12.6637 194.421C12.6637 194.421 9.57786 196.797 7.67892 210.931C5.77997 225.065 1.50732 261.648 3.16891 266.28C4.8305 270.912 5.42392 273.644 4.83049 276.376C4.23707 279.107 17.2924 278.989 17.5297 278.395C17.7671 277.801 17.1737 266.992 17.7671 266.755C18.3605 266.517 21.565 273.169 22.1584 278.751C22.7518 284.334 29.6355 288.728 31.1784 288.728C32.7214 288.728 40.6732 256.54 40.7919 234.567C40.9106 212.594 38.1808 194.065 36.1632 191.452C34.1456 188.839 36.7716 177.292 36.7716 177.292Z" fill="#424141"/>
<path d="M57.6446 371.395C57.6446 371.395 58.5941 368.782 61.9173 369.614C65.2404 370.445 67.4954 367.476 67.4954 367.476C67.4954 367.476 69.2757 367.238 68.0888 369.495C66.902 371.752 65.9525 373.296 65.9525 373.296C65.9525 373.296 73.0736 389.568 68.4449 393.487C63.8162 397.407 58.4754 395.031 58.4754 395.031C58.4754 395.031 53.2533 391.349 53.4907 381.61C53.4907 381.61 53.2533 378.522 50.4049 373.533C47.5565 368.545 45.4202 360.943 48.862 359.518C52.3038 358.092 53.1897 358.039 53.1897 358.039C53.1897 358.039 51.5791 365.412 55.7394 367.988L57.6446 371.395Z" fill="#3F3D56"/>
<path d="M35.5691 389.805C35.5691 389.805 32.7207 384.46 37.468 383.867C42.2154 383.273 47.3188 382.916 47.0815 385.411C46.8441 387.905 46.2507 391.706 46.2507 391.706L47.0815 394.437C47.0815 394.437 47.3188 401.208 48.1496 402.039C48.9804 402.87 53.4904 409.997 43.877 409.997C34.2635 409.997 31.4151 408.928 32.2459 406.671C33.0767 404.414 33.3141 393.25 33.3141 393.25L35.5691 389.805Z" fill="#3F3D56"/>
<path d="M42.9276 150.712C42.9276 150.712 49.5739 152.494 53.0158 153.206C56.4576 153.919 56.1016 151.9 56.1016 151.9C56.1016 151.9 60.6116 152.494 60.3742 152.019C60.1369 151.544 62.2732 149.049 59.7808 146.199C57.2884 143.348 58.0005 141.21 58.0005 141.21H55.8642L55.2708 140.379H51.9476C51.9476 140.379 49.4553 139.429 42.9276 140.379C36.3999 141.329 27.4986 141.567 26.7865 145.486C26.0744 149.406 22.3952 154.275 23.7007 156.532C25.0063 158.789 32.4834 168.053 33.1955 171.973C33.9076 175.892 37.2326 176.763 37.113 174.309C36.9934 171.854 33.6702 163.302 36.5186 162.946C39.3671 162.59 44.2331 155.344 42.9276 150.712Z" fill="#2F2E41"/>
<path d="M516.359 4.12202C514.004 4.25511 511.734 5.04191 509.801 6.3942C507.868 7.74649 506.35 9.6108 505.417 11.7781C502.681 18.3966 506.204 26.1709 511.492 30.9972C516.781 35.8234 523.574 38.5821 529.746 42.2081C538.036 47.0785 545.485 53.8394 549.633 62.5181C553.781 71.1968 554.222 81.9472 549.347 90.2382C544.821 97.9338 536.592 102.54 528.744 106.787" stroke="#3F3D56" stroke-miterlimit="10"/>
<path d="M523.329 9.39666C528.667 9.39666 532.995 7.29315 532.995 4.69833C532.995 2.10351 528.667 0 523.329 0C517.991 0 513.663 2.10351 513.663 4.69833C513.663 7.29315 517.991 9.39666 523.329 9.39666Z" fill="#E57A7A"/>
<path d="M531.061 40.3504C536.399 40.3504 540.727 38.2469 540.727 35.652C540.727 33.0572 536.399 30.9537 531.061 30.9537C525.723 30.9537 521.396 33.0572 521.396 35.652C521.396 38.2469 525.723 40.3504 531.061 40.3504Z" fill="#E57A7A"/>
<path d="M513.386 45.3251C518.725 45.3251 523.052 43.2215 523.052 40.6267C523.052 38.0319 518.725 35.9284 513.386 35.9284C508.048 35.9284 503.721 38.0319 503.721 40.6267C503.721 43.2215 508.048 45.3251 513.386 45.3251Z" fill="#E57A7A"/>
<path d="M541.003 71.3041C546.341 71.3041 550.668 69.2006 550.668 66.6057C550.668 64.0109 546.341 61.9074 541.003 61.9074C535.664 61.9074 531.337 64.0109 531.337 66.6057C531.337 69.2006 535.664 71.3041 541.003 71.3041Z" fill="#E57A7A"/>
<path d="M560.335 71.3041C565.673 71.3041 570 69.2006 570 66.6057C570 64.0109 565.673 61.9074 560.335 61.9074C554.996 61.9074 550.669 64.0109 550.669 66.6057C550.669 69.2006 554.996 71.3041 560.335 71.3041Z" fill="#E57A7A"/>
</g>
<defs>
<clipPath id="clip0">
<rect width="570" height="410" fill="white"/>
</clipPath>
</defs>
</svg>
