<svg width="572" height="513" viewBox="0 0 572 513" fill="none" xmlns="http://www.w3.org/2000/svg">
<path opacity="0.18" d="M7 414C43 368.5 65.03 376.16 77 350.5C83.7249 336.54 98.7302 313.412 109.079 301.88C118.319 291.66 139.71 279.17 151.5 273C170.6 263 166.49 246.82 177 228C182.971 191.21 206.829 196.48 222.029 181.16C238.889 164.1 262.229 154.07 286.079 151.63C309.929 149.19 334.269 154.03 356.259 163.63C366.339 168.04 376.109 173.53 384.009 181.2C400.589 197.31 407.009 220.81 415.659 242.25C420.404 254.011 435.612 253.544 442 264.5C447.67 274.22 469.18 289.98 474 300C478.82 310.02 477.599 322.92 483.769 332.5C489.589 341.55 497.29 350.06 502.5 359.5C514.42 381.253 569.311 399.235 566.5 423.88C589.5 452.38 520.289 470.03 512.5 480C503.99 490.89 462.609 485.98 449.909 491.43C397.635 513.691 339.565 518.458 284.359 505.02C264.689 500.17 245.359 493.02 225.179 491.68C204.799 490.34 184.569 495.02 164.279 497.34C144.619 499.59 61.3198 497.36 43.9998 486C25.3698 473.77 -14.9999 486.5 7 414Z" fill="#E57A7A"/>
<path d="M251.879 397.45C252.459 406.7 250.879 416.01 251.739 425.24C252.039 428.24 252.589 431.38 251.589 434.24C250.665 436.693 248.842 438.702 246.489 439.86C241.019 442.66 233.909 440.86 229.639 436.41C225.369 431.96 223.639 425.55 223.989 419.41C224.339 413.27 226.479 407.41 229.039 401.81C231.339 396.81 235.219 386.94 240.909 384.81C248.259 382.13 251.559 392.21 251.879 397.45Z" fill="#3E3E54"/>
<path d="M242.17 380.7C239.88 376.56 233.55 374.83 228.98 377.1C227.624 377.951 226.211 378.706 224.75 379.36C223.03 379.94 221.16 379.79 219.36 379.97C213.57 380.57 208.44 385.08 207.57 390.32C207.08 393.32 207.84 396.32 207.36 399.32C206.23 406.4 198.5 411.74 197.72 418.85C197.47 421.16 197.99 423.46 198.19 425.76C198.54 430.08 197.79 434.418 196.01 438.37C194.74 441.2 192.95 443.9 192.48 446.91C191.55 452.91 196.58 458.67 202.88 460.51C209.18 462.35 216.26 460.9 222.23 458.07C228.81 454.95 234.67 449.84 236.65 443.37C239.75 433.28 232.94 422.55 236 412.45C236.848 410.103 237.85 407.815 239 405.6C242 399.04 245.87 387.41 242.17 380.7Z" fill="#3E3E54"/>
<path d="M216.65 419.19C216.72 416.46 216.29 413.19 218.37 411.46C218.546 411.293 218.769 411.184 219.01 411.15C219.244 411.161 219.472 411.234 219.67 411.36C221.943 412.606 223.975 414.248 225.67 416.21C227.75 418.62 229.37 421.54 232.05 423.21C233.13 423.9 234.34 424.36 235.46 424.96C237.775 426.211 239.72 428.049 241.1 430.29C241.301 430.557 241.447 430.862 241.528 431.187C241.609 431.512 241.623 431.849 241.57 432.18C241.32 433.03 240.34 433.4 239.47 433.57C236.967 433.993 234.423 434.128 231.89 433.97C228.436 433.877 224.986 433.737 221.54 433.55C219.317 433.507 217.107 433.215 214.95 432.68C214.03 432.42 212.34 431.78 212.11 430.68C211.88 429.58 213.39 428.46 214 427.53C215.628 425.044 216.544 422.16 216.65 419.19Z" fill="url(#paint0_linear)"/>
<path d="M498.639 468.3H74.1995V483.87H498.639V468.3Z" fill="#E57A7A"/>
<path d="M498.639 468.3H74.1995V476.52H498.639V468.3Z" fill="url(#paint1_linear)"/>
<path d="M253.08 444.4L256.31 471.17C233.058 472.36 209.757 472.16 186.53 470.57C186.01 465.76 187.78 461.02 189.63 456.57C194.23 445.49 200.69 433.63 212.12 430C220.86 427.22 228.53 430.69 237.12 431.55C241.38 431.98 246.05 430.55 249.42 433.94C252 436.54 252.65 440.88 253.08 444.4Z" fill="#E57A7A"/>
<path d="M253.08 444.4L256.31 471.17C233.058 472.36 209.757 472.16 186.53 470.57C186.01 465.76 187.78 461.02 189.63 456.57C194.23 445.49 200.69 433.63 212.12 430C220.86 427.22 228.53 430.69 237.12 431.55C241.38 431.98 246.05 430.55 249.42 433.94C252 436.54 252.65 440.88 253.08 444.4Z" fill="url(#paint2_linear)"/>
<path d="M150.47 428.58C153.19 429.23 155.98 430.02 158.17 431.76C159.857 433.222 161.266 434.977 162.33 436.94C167.677 445.888 171.084 455.861 172.33 466.21C172.505 467.049 172.436 467.92 172.13 468.72C171.38 470.24 169.32 470.43 167.62 470.41L88.7196 469.56L79.8096 470.12C81.8096 461.24 87.6296 431.78 100.16 427.96C105.181 426.701 110.293 425.838 115.45 425.38C120.816 425.158 126.191 425.232 131.55 425.6C137.925 426.091 144.252 427.088 150.47 428.58Z" fill="#E57A7A"/>
<path d="M150.47 428.58C153.19 429.23 155.98 430.02 158.17 431.76C159.857 433.222 161.266 434.977 162.33 436.94C167.677 445.888 171.084 455.861 172.33 466.21C172.505 467.049 172.436 467.92 172.13 468.72C171.38 470.24 169.32 470.43 167.62 470.41L88.7196 469.56L79.8096 470.12C81.8096 461.24 87.6296 431.78 100.16 427.96C105.181 426.701 110.293 425.838 115.45 425.38C120.816 425.158 126.191 425.232 131.55 425.6C137.925 426.091 144.252 427.088 150.47 428.58Z" fill="url(#paint3_linear)"/>
<path d="M138.13 426.02C138.155 427.328 137.986 428.632 137.63 429.89C136.53 433.16 132.73 435.06 129.32 434.56C127.619 434.236 126.017 433.52 124.642 432.468C123.267 431.416 122.157 430.057 121.4 428.5C119.919 425.383 119.232 421.947 119.4 418.5C119.296 416.935 119.692 415.377 120.53 414.05C121.096 413.421 121.789 412.918 122.562 412.574C123.336 412.229 124.173 412.051 125.02 412.05C128.061 411.865 131.055 412.869 133.37 414.85C134.5 415.85 136.7 416.67 137.37 417.75C138.19 419.24 138.2 424.2 138.13 426.02Z" fill="url(#paint4_linear)"/>
<path d="M120.469 415.81C120.469 415.81 130.969 432.34 134.789 427.64C135.909 426.267 136.714 424.666 137.15 422.949C137.585 421.232 137.639 419.44 137.309 417.7L120.469 415.81Z" fill="url(#paint5_linear)"/>
<path d="M158.68 427.27L152.45 431.53C151.967 431.822 151.529 432.182 151.15 432.6C150.613 433.378 150.27 434.273 150.15 435.21C148.19 444.749 147.261 454.472 147.38 464.21C147.322 465.23 147.475 466.252 147.83 467.21C148.4 468.324 149.34 469.205 150.49 469.7C152.78 470.81 155.41 470.9 157.95 470.97L168.04 471.24C169.051 471.33 170.07 471.221 171.04 470.92C173.37 470.02 174.28 467.13 174.1 464.64C173.762 462.018 172.991 459.47 171.82 457.1L164.96 441.02C163.3 437.03 161.86 430.28 158.68 427.27Z" fill="#E57A7A"/>
<path d="M225.62 463.75C227.641 463.715 229.659 463.947 231.62 464.44C232.595 464.696 233.494 465.184 234.239 465.864C234.985 466.543 235.554 467.393 235.9 468.34C236.65 471.02 234.69 473.85 232.18 475.04C229.67 476.23 226.78 476.19 224 476.13L201.6 475.6C198.993 475.66 196.391 475.354 193.87 474.69C192.61 474.347 191.437 473.745 190.424 472.922C189.412 472.099 188.582 471.073 187.99 469.91C186.37 466.29 188.32 461.77 191.66 459.62C196.73 456.37 202.13 458 207.23 459.92C213.12 462.156 219.326 463.449 225.62 463.75Z" fill="#E57A7A"/>
<path d="M397.429 470.66C401.879 459.22 411.149 443.21 415.599 431.77C417.679 426.43 420.039 420.77 424.889 417.67C428.159 415.59 432.129 415.03 435.979 414.51L455.129 411.88C460.269 411.19 464.399 412.88 468.579 415.95C472.759 419.02 475.879 423.33 478.579 427.77C484.843 438.035 489.289 449.303 491.719 461.08C492.249 463.68 492.559 466.77 490.669 468.64C489.299 470.01 487.179 470.26 485.239 470.36C457.529 471.93 425.229 469.21 397.429 470.66Z" fill="#E57A7A"/>
<path d="M397.429 470.66C401.879 459.22 411.149 443.21 415.599 431.77C417.679 426.43 420.039 420.77 424.889 417.67C428.159 415.59 432.129 415.03 435.979 414.51L455.129 411.88C460.269 411.19 464.399 412.88 468.579 415.95C472.759 419.02 475.879 423.33 478.579 427.77C484.843 438.035 489.289 449.303 491.719 461.08C492.249 463.68 492.559 466.77 490.669 468.64C489.299 470.01 487.179 470.26 485.239 470.36C457.529 471.93 425.229 469.21 397.429 470.66Z" fill="url(#paint6_linear)"/>
<path d="M449.69 418.01C448.644 419.39 447.207 420.422 445.565 420.971C443.924 421.521 442.155 421.562 440.49 421.09C439.975 420.957 439.497 420.711 439.09 420.37C438.712 419.98 438.416 419.517 438.22 419.01C436.71 415.51 436.64 411.59 436.58 407.78C436.446 406.233 436.657 404.675 437.2 403.22C439.07 399.14 447.9 395.04 450.74 400.02C453.13 404.22 452.49 414.18 449.69 418.01Z" fill="url(#paint7_linear)"/>
<path d="M165.079 357.01C164.278 356.524 163.336 356.324 162.406 356.442C161.476 356.56 160.614 356.989 159.959 357.66C158.687 359.055 158.011 360.893 158.079 362.78C158.014 363.88 158.253 364.977 158.769 365.95C159.036 366.43 159.426 366.831 159.899 367.11C160.371 367.389 160.91 367.538 161.459 367.54C162.292 367.438 163.063 367.049 163.639 366.44C164.26 365.783 164.742 365.009 165.059 364.163C165.376 363.316 165.52 362.416 165.484 361.513C165.448 360.61 165.231 359.724 164.848 358.906C164.464 358.088 163.92 357.355 163.249 356.75" fill="white"/>
<path d="M181.479 344.98C180.269 346.79 180.479 349.63 182.379 350.77C183.299 351.261 184.341 351.477 185.379 351.39C186.602 351.349 187.813 351.14 188.979 350.77C189.336 350.609 189.732 350.554 190.119 350.61C190.459 350.756 190.76 350.978 190.999 351.26C191.901 352.03 193.072 352.411 194.254 352.318C195.437 352.225 196.534 351.667 197.304 350.765C198.075 349.863 198.456 348.692 198.363 347.51C198.27 346.328 197.711 345.23 196.809 344.46C196.559 344.26 196.249 344.02 196.289 343.7C196.319 343.532 196.395 343.376 196.509 343.25C197.073 342.381 197.283 341.33 197.097 340.311C196.912 339.293 196.343 338.384 195.509 337.77C191.909 335.27 191.189 338.82 189.629 340.77C187.609 343.32 183.579 341.88 181.479 344.98Z" fill="white"/>
<path d="M225.23 326.59C226.7 326.49 228.32 326.09 229.09 324.84C229.457 324.147 229.646 323.374 229.64 322.59C229.707 321.334 229.653 320.075 229.48 318.83C228.89 314.63 222.95 312.59 220.77 316.67C218.59 320.75 219.58 326.99 225.23 326.59Z" fill="white"/>
<path d="M262.24 343.24C261.88 342.96 261.41 343.43 261.24 343.84C260.719 345.078 260.494 346.421 260.585 347.762C260.675 349.102 261.077 350.403 261.76 351.56C261.906 351.834 262.115 352.07 262.37 352.25C262.626 352.391 262.917 352.46 263.21 352.45C263.958 352.395 264.668 352.1 265.234 351.608C265.8 351.116 266.192 350.453 266.35 349.72C266.484 348.982 266.465 348.225 266.292 347.495C266.12 346.766 265.799 346.08 265.35 345.48C264.543 344.272 263.363 343.362 261.99 342.89" fill="white"/>
<path d="M341.68 355.37C342.236 355.355 342.767 355.129 343.162 354.737C343.558 354.345 343.789 353.817 343.81 353.26C344.59 348.84 339.21 341.26 334.56 345.52C329.91 349.78 337.08 356.07 341.68 355.37Z" fill="white"/>
<path d="M386.529 318.61C387.048 317.684 387.219 316.603 387.012 315.562C386.805 314.52 386.233 313.587 385.399 312.93C384.884 312.517 384.252 312.275 383.593 312.237C382.934 312.2 382.279 312.368 381.719 312.72C380.499 313.63 380.419 315.39 380.449 316.91C379.289 316.35 377.829 317.47 377.699 318.75C377.692 319.397 377.842 320.037 378.137 320.613C378.431 321.19 378.861 321.686 379.389 322.06C379.919 322.526 380.538 322.88 381.208 323.1C381.878 323.32 382.587 323.402 383.289 323.34C383.989 323.262 384.645 322.963 385.163 322.486C385.681 322.01 386.033 321.38 386.169 320.69C386.289 319.74 385.909 318.76 386.099 317.82" fill="white"/>
<path d="M403.01 335.38C401.857 334.82 400.548 334.672 399.3 334.96C398.811 335.042 398.361 335.281 398.02 335.64C397.687 336.127 397.532 336.713 397.58 337.3C397.579 338.177 397.69 339.051 397.91 339.9C398.011 340.483 398.294 341.019 398.72 341.43C399.65 342.2 401.04 341.73 402.14 341.23C402.99 340.84 403.95 340.33 404.14 339.41C404.219 338.832 404.114 338.245 403.84 337.73C403.336 336.534 402.692 335.403 401.92 334.36" fill="white"/>
<path d="M428.33 338.88C427.867 339.554 427.646 340.364 427.702 341.179C427.758 341.994 428.089 342.767 428.64 343.37C428.885 343.651 429.196 343.868 429.544 344C429.893 344.133 430.269 344.178 430.64 344.13C431.08 343.99 431.472 343.728 431.77 343.374C432.067 343.02 432.258 342.588 432.32 342.13C432.513 340.974 432.267 339.788 431.631 338.803C430.994 337.819 430.013 337.108 428.88 336.81" fill="white"/>
<path d="M324.25 430.13C319.35 435.39 316.51 442.2 313.76 448.84L305.94 467.84C305.682 468.273 305.525 468.758 305.478 469.26C305.432 469.761 305.497 470.267 305.67 470.74C305.969 471.114 306.346 471.419 306.773 471.635C307.201 471.851 307.671 471.972 308.15 471.99C312.153 472.595 316.185 472.995 320.23 473.19C340.583 474.463 360.956 474.93 381.349 474.59C383.789 474.59 386.349 474.47 388.509 473.37C394.13 470.52 394.58 462.71 393.58 456.49C392.428 449.268 390.393 442.215 387.52 435.49C386.514 432.816 385.038 430.343 383.159 428.19C378.499 423.31 371.089 422.53 364.349 422.34C351.439 421.94 333.91 419.74 324.25 430.13Z" fill="#E57A7A"/>
<path d="M309.279 425.78C309.054 425.022 308.596 424.353 307.969 423.87C307.426 423.591 306.82 423.453 306.209 423.47C304.434 423.393 302.655 423.457 300.889 423.66C299.758 423.695 298.671 424.107 297.799 424.83C297.165 425.59 296.775 426.524 296.679 427.51C295.249 435.26 296.889 443.19 297.529 451.04C297.959 456.39 298.009 462.04 300.899 466.6C302.201 468.593 303.981 470.227 306.077 471.354C308.174 472.481 310.519 473.064 312.899 473.05C314.899 473.05 317.199 472.31 317.969 470.46C318.273 469.525 318.358 468.533 318.219 467.56C317.289 453.47 315.259 438.74 309.279 425.78Z" fill="#E57A7A"/>
<path d="M308.269 418.88C309.219 416.83 310.499 414.96 311.629 413C311.953 412.517 312.161 411.966 312.239 411.39C312.275 411.1 312.22 410.806 312.082 410.548C311.944 410.291 311.73 410.082 311.469 409.95C310.339 409.52 309.469 411.08 308.259 411.32C307.049 411.56 306.259 410.63 305.479 409.84C302.138 406.504 298.186 403.843 293.839 402C293.62 401.866 293.375 401.779 293.12 401.745C292.866 401.711 292.607 401.729 292.359 401.8C291.879 402 291.749 402.8 292.239 402.98C291.774 403.013 291.311 402.894 290.919 402.64C290.489 402.46 289.869 402.45 289.679 402.87C289.489 403.29 290.049 403.87 289.909 404.43C289.386 404.451 288.864 404.373 288.369 404.2C287.859 404.1 287.189 404.27 287.089 404.79C287.075 404.985 287.095 405.182 287.149 405.37C287.219 406.155 287.219 406.945 287.149 407.73C287.149 409.82 288.419 411.73 289.659 413.38C292.299 416.97 295.199 420.38 297.249 424.38C297.797 425.633 298.51 426.807 299.369 427.87C300.609 429.18 305.189 431.07 306.369 428.77C306.939 427.69 306.469 425.32 306.669 424.05C306.965 422.262 307.503 420.523 308.269 418.88Z" fill="url(#paint8_linear)"/>
<path d="M370.31 450.65C370.71 452.59 370.77 454.81 369.51 456.35C368.25 457.89 365.91 458.26 363.85 458.35C353.85 458.87 343.59 457.15 333.85 459.43C332.444 459.615 331.147 460.283 330.18 461.32C329.18 462.67 329.31 464.53 329.51 466.21L330.35 473.39L320.58 471.61C320.323 471.6 320.071 471.538 319.839 471.428C319.606 471.318 319.399 471.162 319.229 470.97C319.059 470.777 318.929 470.552 318.849 470.308C318.768 470.064 318.738 469.806 318.76 469.55C317.979 465.809 317.644 461.99 317.76 458.17C317.888 454.347 319.381 450.697 321.97 447.88C324.32 445.56 327.51 444.33 330.68 443.42C338.23 441.27 346.12 440.63 353.94 440C357.33 439.73 362.94 439 365.87 441.28C368.25 443.12 369.71 447.77 370.31 450.65Z" fill="url(#paint9_linear)"/>
<path d="M462.79 446.49C461.79 448.08 459.5 448.22 457.59 448.22C449.214 448.258 440.865 449.173 432.68 450.95C429.661 451.472 426.749 452.485 424.06 453.95C422.72 454.686 421.544 455.685 420.602 456.889C419.66 458.092 418.972 459.473 418.58 460.95C417.95 463.95 419.24 467.41 421.98 468.76C423.678 469.431 425.51 469.698 427.33 469.54L481.78 468.95C483.026 469.022 484.274 468.842 485.45 468.42C488.15 467.23 489.31 463.85 489.15 460.9C487.29 425.57 469.55 415.51 466.6 415.96C464.24 416.31 463.85 434.54 463.19 437.15C462.44 440.11 464.67 443.6 462.79 446.49Z" fill="#E57A7A"/>
<path d="M415.729 461.6C413.514 461.284 411.258 461.407 409.089 461.96C404.705 462.999 400.684 465.203 397.449 468.34C397.071 468.663 396.773 469.071 396.579 469.53C396.467 470.069 396.55 470.631 396.814 471.115C397.078 471.599 397.505 471.973 398.019 472.17C399.062 472.536 400.178 472.639 401.269 472.47L411.499 471.75C413.011 471.731 414.507 471.447 415.919 470.91C417.609 470.16 419.049 468.67 420.919 468.59C421.462 468.639 422.009 468.602 422.539 468.48C424.169 467.87 423.749 465.25 422.819 464.28C421.399 462.8 417.659 461.88 415.729 461.6Z" fill="url(#paint10_linear)"/>
<path d="M150.4 394.97C150.4 404.04 147.19 414.21 138.98 418.07C133.08 420.84 125.81 419.53 120.47 415.81C115.13 412.09 111.54 406.27 109.34 400.14C106.81 393.08 105.96 385.25 108.09 378.06C110.22 370.87 115.62 364.47 122.76 362.19C142.65 355.88 150.42 379.98 150.4 394.97Z" fill="url(#paint11_linear)"/>
<path d="M121.22 375.31C121.913 375.135 122.584 374.88 123.22 374.55C124.38 373.82 124.98 372.45 126.04 371.55C127.215 370.79 128.543 370.298 129.93 370.11C133.567 369.25 137.01 367.714 140.08 365.58C143.08 363.49 145.88 359.98 144.7 356.58C144.222 355.369 143.424 354.311 142.39 353.52C140.829 352.252 138.991 351.372 137.025 350.951C135.059 350.531 133.022 350.582 131.08 351.1C125.76 352.6 122.08 357.34 117.63 360.58C112.37 364.39 105.29 366.76 102.92 372.81C101.64 376.09 102.06 379.89 100.56 383.08C99.8396 384.61 98.6496 386.18 99.1196 387.81C99.5496 389.26 101.21 390.22 101.27 391.73C101.22 392.451 101.019 393.153 100.68 393.79C99.3696 397.07 100.06 400.89 101.68 404.02C103.47 407.076 105.712 409.844 108.33 412.23C111.33 415.23 115.19 418.54 119.42 417.77C119.669 417.737 119.909 417.648 120.12 417.51C120.98 416.86 120.12 415.51 119.37 414.79C116.502 412.029 114.376 408.59 113.19 404.79C113.005 404.34 112.966 403.843 113.08 403.37C113.249 403.021 113.537 402.743 113.893 402.587C114.248 402.431 114.648 402.407 115.02 402.52C115.758 402.764 116.427 403.183 116.97 403.74C117.378 403.338 117.637 402.809 117.704 402.24C117.772 401.671 117.643 401.096 117.34 400.61C116.01 398.12 113.74 396.61 112.57 393.87C111.532 391.8 111.161 389.459 111.51 387.17C112.38 381.88 115.98 376.96 121.22 375.31Z" fill="#3E3E54"/>
<path d="M148.62 409.5C145.968 409.314 143.341 410.12 141.25 411.76C140.31 412.43 139.33 413.49 139.68 414.6C139.902 415.053 140.256 415.428 140.694 415.678C141.133 415.928 141.636 416.04 142.14 416C143.143 415.902 144.156 415.966 145.14 416.19C143.321 418.605 142.129 421.432 141.669 424.42C141.229 427.33 141.67 430.73 144.12 432.42C145.854 433.443 147.891 433.828 149.88 433.51C151.471 433.421 153.03 433.024 154.47 432.34C156.002 431.461 157.261 430.174 158.107 428.622C158.953 427.07 159.351 425.315 159.26 423.55C159.14 420.14 157.43 417.24 155.2 414.77C153.23 412.6 151.85 409.88 148.62 409.5Z" fill="url(#paint12_linear)"/>
<path d="M337.729 395.43C336.563 397.603 335.718 399.934 335.219 402.35C334.914 404.528 335.133 406.748 335.858 408.825C336.584 410.902 337.794 412.775 339.389 414.29C341.719 416.5 344.919 418.13 345.929 421.18C346.849 423.97 345.609 427.18 346.799 429.9C347.989 432.62 351.239 433.74 354.039 433.15C356.825 432.401 359.216 430.611 360.719 428.15C362.176 425.683 363.398 423.085 364.369 420.39C365.84 416.868 367.554 413.453 369.499 410.17C370.951 407.933 372.237 405.593 373.349 403.17C374.481 400.286 375.071 397.218 375.089 394.12C375.229 386.96 372.619 379.41 366.849 375.17C364.2 373.263 361.012 372.251 357.748 372.28C354.484 372.309 351.315 373.377 348.699 375.33C346.029 377.33 345.119 380 343.699 382.96C341.706 387.093 339.716 391.25 337.729 395.43Z" fill="url(#paint13_linear)"/>
<path d="M350.259 358.96C349.259 358.03 347.899 356.96 346.759 357.68C346.341 357.984 346.027 358.41 345.859 358.9C345.131 360.662 345.029 362.621 345.569 364.45C344.451 363.901 343.171 363.78 341.969 364.11C340.159 364.88 339.879 367.39 340.459 369.27C341.039 371.15 342.159 372.91 342.169 374.87C342.169 375.87 341.869 376.87 341.849 377.93C341.801 378.443 341.899 378.958 342.133 379.417C342.367 379.876 342.726 380.258 343.169 380.52C344.399 381.07 345.719 380.1 346.839 379.34C352.779 375.34 361.839 377.19 365.749 383.22C369.659 389.25 368.189 397.02 366.639 403.97C367.029 404.57 367.769 403.66 368.239 403.12C369.239 401.97 371.399 402.91 371.699 404.41C371.772 405.173 371.63 405.94 371.291 406.627C370.952 407.314 370.429 407.894 369.779 408.3C368.539 409.2 367.059 409.71 365.779 410.53C365.603 410.616 365.446 410.737 365.318 410.884C365.189 411.032 365.091 411.204 365.029 411.39C364.993 411.719 365.059 412.051 365.219 412.34C365.632 413.283 366.099 414.202 366.619 415.09C366.788 415.471 367.035 415.813 367.343 416.094C367.651 416.374 368.014 416.588 368.409 416.72C368.992 416.768 369.575 416.636 370.079 416.34C374.169 414.34 376.949 410.43 379.239 406.49C381.529 402.55 383.359 397.84 381.129 394.04C380.689 393.29 380.129 392.63 379.699 391.87C379.07 390.412 378.698 388.855 378.599 387.27C377.465 380.017 373.913 373.36 368.519 368.38C365.969 366.02 363.259 363.96 359.809 363.38C355.899 362.75 353.209 361.88 350.259 358.96Z" fill="#B7A451"/>
<path d="M425.179 392.79C424.879 396.5 425.519 400.79 428.589 402.85C430.799 404.35 433.679 404.3 436.359 404.19C440.119 404.04 444.009 403.85 447.359 402.19C452.489 399.69 455.549 394.34 457.879 389.12C459.65 385.56 460.791 381.72 461.249 377.77C461.549 373.77 460.559 369.61 457.839 366.71C456.102 364.96 453.953 363.675 451.589 362.97C434.959 357.5 426.189 379.88 425.179 392.79Z" fill="url(#paint14_linear)"/>
<path d="M436.179 357.37C436.24 356.025 436.617 354.713 437.279 353.54C438.097 352.374 439.29 351.523 440.659 351.13C444.839 349.81 449.269 351.78 453.199 353.71L463.399 358.71C465.315 359.336 467.055 360.407 468.478 361.833C469.902 363.26 470.968 365.003 471.589 366.92C472.199 368.166 472.601 369.504 472.779 370.88C472.809 372.728 472.365 374.552 471.489 376.18C470.942 377.619 470.008 378.879 468.789 379.82C469.839 380.3 470.139 381.67 470.009 382.82C469.715 384.845 468.775 386.721 467.329 388.17C465.886 389.605 464.294 390.882 462.579 391.98L459.279 394.26C458.699 394.66 457.969 395.08 457.279 394.79C457.04 394.657 456.845 394.458 456.715 394.217C456.586 393.976 456.528 393.703 456.549 393.43C456.6 392.885 456.745 392.354 456.979 391.86C458.692 387.533 459.456 382.888 459.219 378.24C459.223 377.434 459.067 376.635 458.759 375.89C458.402 375.259 457.946 374.688 457.409 374.2L452.649 369.43C451.469 368.134 450.124 366.998 448.649 366.05C447.251 365.25 445.685 364.786 444.076 364.696C442.467 364.605 440.859 364.891 439.379 365.53C438.719 365.82 437.539 366.59 436.789 366.39C435.789 366.12 436.059 365.17 435.999 364.19C435.862 361.916 435.922 359.634 436.179 357.37Z" fill="#3E3E54"/>
<path d="M461.639 391.28C461.717 391.898 461.668 392.524 461.496 393.123C461.324 393.721 461.033 394.278 460.639 394.76C459.827 395.846 458.74 396.695 457.489 397.22C456.927 397.516 456.274 397.591 455.659 397.43C455.244 397.216 454.898 396.887 454.663 396.484C454.427 396.08 454.312 395.617 454.329 395.15C454.3 394.1 454.53 393.058 454.999 392.118C455.469 391.178 456.162 390.368 457.019 389.76C458.719 388.65 461.219 388.94 461.639 391.28Z" fill="url(#paint15_linear)"/>
<path d="M424.82 385.81C425.779 385.509 426.768 385.311 427.77 385.22C428.433 385.132 429.106 385.132 429.77 385.22C430.599 385.407 431.401 385.696 432.16 386.08C434.16 387 436.33 388.08 437.3 390.08C437.554 390.763 437.848 391.431 438.18 392.08C439.039 393.134 440.207 393.893 441.52 394.25C442.59 394.66 442.71 396.1 443.61 396.8C444.69 397.64 446.26 397.3 447.47 396.69C448.832 396.018 450.035 395.063 451 393.89C451.583 392.999 452.326 392.223 453.19 391.6C453.634 391.313 454.174 391.215 454.691 391.325C455.209 391.436 455.661 391.747 455.95 392.19C456.044 392.548 456.062 392.921 456.004 393.286C455.945 393.651 455.811 394 455.61 394.31C454.147 397.274 452.158 399.947 449.74 402.2C448.95 402.983 448.059 403.655 447.09 404.2C445.612 404.881 444.029 405.307 442.41 405.46C439.182 405.92 435.929 406.17 432.67 406.21C430.783 406.334 428.891 406.072 427.11 405.44C426.564 405.216 426.057 404.905 425.61 404.52C424.534 403.386 423.836 401.947 423.61 400.4C422.4 395.14 423.08 390.82 424.82 385.81Z" fill="#3E3E54"/>
<path d="M435.179 396.95C435.248 397.572 435.126 398.199 434.829 398.75C434.179 399.75 432.769 399.9 431.579 399.75C430.477 399.599 429.408 399.261 428.419 398.75C428.031 398.565 427.689 398.295 427.419 397.96C427.059 397.359 426.904 396.657 426.979 395.96C426.991 394.98 427.058 394.002 427.179 393.03C427.242 392.304 427.417 391.592 427.699 390.92C428.159 389.92 428.919 389.18 429.999 389.62C430.965 390.03 431.844 390.621 432.589 391.36C434.11 392.842 435.032 394.832 435.179 396.95Z" fill="url(#paint16_linear)"/>
<path d="M246.779 429.12C247.577 426.438 248.803 423.902 250.409 421.61L255.689 413.16C255.828 412.869 256.06 412.632 256.349 412.49C256.524 412.457 256.703 412.461 256.875 412.502C257.048 412.544 257.209 412.621 257.349 412.73C259.809 414.26 260.409 417.6 260.109 420.48C259.809 423.36 258.849 426.21 259.109 429.09C259.431 430.645 259.665 432.218 259.809 433.8C259.758 434.974 259.455 436.123 258.922 437.17C258.389 438.217 257.638 439.137 256.719 439.87C254.469 441.76 249.399 444.35 247.499 440.95C245.909 438.02 246.079 432.2 246.779 429.12Z" fill="url(#paint17_linear)"/>
<path d="M252.37 437.88C249.78 438.58 247.07 439.83 245.96 442.27C245.498 443.484 245.265 444.772 245.27 446.07C244.89 452.843 244.743 459.623 244.83 466.41C244.706 467.788 245.029 469.169 245.75 470.35C246.75 471.64 248.56 471.96 250.2 472.01C253.282 472.101 256.35 471.539 259.2 470.36C260.106 470.089 260.884 469.499 261.39 468.7C261.661 468.015 261.751 467.27 261.65 466.54C261.3 459.81 259.73 453.02 259.65 446.32C259.55 441.58 258.79 436.14 252.37 437.88Z" fill="#E57A7A"/>
<path d="M234.14 467.97C233.746 467.966 233.359 468.07 233.02 468.27C232.666 468.621 232.447 469.084 232.4 469.58C232.04 471.42 231.86 473.65 233.31 474.83C234.039 475.329 234.881 475.642 235.76 475.74C237.88 476.14 240.01 476.51 242.13 476.87C242.813 477.045 243.532 477.017 244.2 476.79C244.693 476.486 245.167 476.152 245.62 475.79C246.459 475.409 247.397 475.304 248.3 475.49C250.6 475.72 252.9 476.04 255.18 476.49C255.948 476.681 256.744 476.728 257.53 476.63C257.921 476.574 258.289 476.41 258.591 476.155C258.893 475.9 259.118 475.566 259.24 475.19C259.52 474.04 258.44 473.03 257.44 472.38C250.32 467.67 242.34 467.41 234.14 467.97Z" fill="url(#paint18_linear)"/>
<path d="M226.14 435.94C227.69 437.69 232.91 439.31 234.99 438.24C236.37 437.53 236.49 433.7 237.11 432.24C237.587 431.095 237.952 429.906 238.2 428.69C238.692 427.012 238.795 425.244 238.5 423.52C238.34 422.662 237.941 421.866 237.348 421.226C236.755 420.585 235.993 420.125 235.15 419.9C233.51 419.6 223.55 418.48 224.5 419.85C228.43 425.56 222.43 431.77 226.14 435.94Z" fill="url(#paint19_linear)"/>
<path d="M229.35 429.79C229.8 431.156 230.414 432.462 231.18 433.68C231.569 434.287 232.086 434.802 232.693 435.19C233.301 435.579 233.985 435.831 234.7 435.93C235.04 435.964 235.384 435.913 235.7 435.78C236.6 435.36 236.84 434.22 236.97 433.24L237.68 427.94C237.765 427.542 237.745 427.128 237.62 426.74C237.444 426.412 237.185 426.137 236.87 425.94C236.113 425.373 235.325 424.849 234.51 424.37C232.82 423.37 230.61 422.27 228.57 422.66C228.233 422.707 227.916 422.846 227.653 423.061C227.391 423.276 227.192 423.559 227.08 423.88C226.83 424.75 227.51 425.64 227.86 426.38C228.4 427.47 228.89 428.62 229.35 429.79Z" fill="url(#paint20_linear)"/>
<path d="M247.77 398.36C247.77 398.36 252.58 417.81 247.12 424.58C241.66 431.35 232.91 431.14 229.42 427.42C225.93 423.7 212.95 407.42 217.76 397.63C222.57 387.84 241.36 376.07 247.77 398.36Z" fill="url(#paint21_linear)"/>
<path d="M227.73 392.88C227.36 395.14 227.67 397.52 226.87 399.66C225.47 403.38 221.11 405.32 219.67 409.02C219.32 409.92 219.16 410.89 218.74 411.76C218.567 412.212 218.281 412.611 217.91 412.921C217.539 413.231 217.095 413.441 216.62 413.53C216.14 413.538 215.669 413.411 215.258 413.164C214.848 412.916 214.516 412.558 214.3 412.13C213.875 411.27 213.639 410.329 213.61 409.37C212.99 402.97 213.73 396.16 217.3 390.82C218.668 388.733 220.492 386.985 222.635 385.706C224.778 384.428 227.183 383.653 229.67 383.44C232.67 383.28 233.67 383.91 231.57 386.13C229.69 388.11 228.19 390.05 227.73 392.88Z" fill="#3E3E54"/>
<path d="M219.08 415.79C218.843 415.8 218.615 415.877 218.42 416.01C218.298 416.12 218.2 416.252 218.13 416.4C217.73 417.009 217.547 417.734 217.61 418.46C217.769 419.005 218.081 419.494 218.507 419.869C218.934 420.245 219.458 420.491 220.02 420.58C221.233 420.897 222.51 420.873 223.71 420.51C223.827 420.484 223.935 420.425 224.02 420.34C224.078 420.236 224.109 420.119 224.109 420C224.109 419.881 224.078 419.764 224.02 419.66C223.559 418.588 222.928 417.599 222.15 416.73C221.765 416.318 221.279 416.015 220.74 415.85C220.201 415.685 219.629 415.664 219.08 415.79Z" fill="url(#paint22_linear)"/>
<path d="M308.929 470.55C308.389 471.21 307.929 472.22 308.509 472.81C308.712 472.96 308.944 473.066 309.191 473.121C309.437 473.176 309.692 473.179 309.939 473.13L327.879 472.07C328.177 472.068 328.471 472.014 328.749 471.91C329.639 471.51 329.749 470.29 329.639 469.31C329.539 467.76 329.439 466.22 329.329 464.68C329.219 463.14 329.569 462.49 327.949 462.27C325.709 461.96 322.889 462.69 320.749 463.27C316.157 464.429 312.031 466.97 308.929 470.55Z" fill="url(#paint23_linear)"/>
<circle cx="359.5" cy="51.5" r="12.5" fill="#E57A7A"/>
<circle cx="327" cy="6" r="6" fill="#FDEEE5"/>
<circle cx="430" cy="33" r="6" fill="#EFA29B"/>
<circle cx="141.5" cy="245.5" r="12.5" fill="#E57A7A"/>
<circle cx="395" cy="260" r="6" fill="#EFA29B"/>
<circle cx="141" cy="183" r="6" fill="#EFA29B"/>
<circle cx="425.5" cy="284.5" r="12.5" fill="#E57A7A"/>
<circle cx="276" cy="233" r="90" fill="#EFA29B" fill-opacity="0.8"/>
<circle cx="230.5" cy="85.5" r="79.5" fill="#F7BDB1" fill-opacity="0.8"/>
<circle cx="370" cy="173" r="60" fill="#FCD9CD" fill-opacity="0.9"/>
<path d="M264.822 229.04V233H248.952V229.85L257.052 222.2C257.912 221.38 258.492 220.68 258.792 220.1C259.092 219.5 259.242 218.91 259.242 218.33C259.242 217.49 258.952 216.85 258.372 216.41C257.812 215.95 256.982 215.72 255.882 215.72C254.962 215.72 254.132 215.9 253.392 216.26C252.652 216.6 252.032 217.12 251.532 217.82L247.992 215.54C248.812 214.32 249.942 213.37 251.382 212.69C252.822 211.99 254.472 211.64 256.332 211.64C257.892 211.64 259.252 211.9 260.412 212.42C261.592 212.92 262.502 213.64 263.142 214.58C263.802 215.5 264.132 216.59 264.132 217.85C264.132 218.99 263.892 220.06 263.412 221.06C262.932 222.06 262.002 223.2 260.622 224.48L255.792 229.04H264.822ZM275.769 233.36C274.029 233.36 272.479 232.93 271.119 232.07C269.759 231.21 268.689 229.97 267.909 228.35C267.149 226.71 266.769 224.76 266.769 222.5C266.769 220.24 267.149 218.3 267.909 216.68C268.689 215.04 269.759 213.79 271.119 212.93C272.479 212.07 274.029 211.64 275.769 211.64C277.509 211.64 279.059 212.07 280.419 212.93C281.779 213.79 282.839 215.04 283.599 216.68C284.379 218.3 284.769 220.24 284.769 222.5C284.769 224.76 284.379 226.71 283.599 228.35C282.839 229.97 281.779 231.21 280.419 232.07C279.059 232.93 277.509 233.36 275.769 233.36ZM275.769 229.25C277.049 229.25 278.049 228.7 278.769 227.6C279.509 226.5 279.879 224.8 279.879 222.5C279.879 220.2 279.509 218.5 278.769 217.4C278.049 216.3 277.049 215.75 275.769 215.75C274.509 215.75 273.509 216.3 272.769 217.4C272.049 218.5 271.689 220.2 271.689 222.5C271.689 224.8 272.049 226.5 272.769 227.6C273.509 228.7 274.509 229.25 275.769 229.25ZM302.218 224.33H296.998V229.43H293.128V224.33H287.938V220.67H293.128V215.57H296.998V220.67H302.218V224.33ZM237.925 243C239.738 243 241.165 243.433 242.205 244.3C243.245 245.167 243.765 246.36 243.765 247.88C243.765 249.4 243.245 250.593 242.205 251.46C241.165 252.327 239.738 252.76 237.925 252.76H234.465V257H232.465V243H237.925ZM237.865 251.02C239.131 251.02 240.098 250.753 240.765 250.22C241.431 249.673 241.765 248.893 241.765 247.88C241.765 246.867 241.431 246.093 240.765 245.56C240.098 245.013 239.131 244.74 237.865 244.74H234.465V251.02H237.865ZM248.087 248.18C248.421 247.567 248.914 247.1 249.567 246.78C250.221 246.46 251.014 246.3 251.947 246.3V248.16C251.841 248.147 251.694 248.14 251.507 248.14C250.467 248.14 249.647 248.453 249.047 249.08C248.461 249.693 248.167 250.573 248.167 251.72V257H246.247V246.4H248.087V248.18ZM258.756 257.12C257.703 257.12 256.756 256.887 255.916 256.42C255.076 255.953 254.416 255.313 253.936 254.5C253.469 253.673 253.236 252.74 253.236 251.7C253.236 250.66 253.469 249.733 253.936 248.92C254.416 248.093 255.076 247.453 255.916 247C256.756 246.533 257.703 246.3 258.756 246.3C259.809 246.3 260.749 246.533 261.576 247C262.416 247.453 263.069 248.093 263.536 248.92C264.016 249.733 264.256 250.66 264.256 251.7C264.256 252.74 264.016 253.673 263.536 254.5C263.069 255.313 262.416 255.953 261.576 256.42C260.749 256.887 259.809 257.12 258.756 257.12ZM258.756 255.44C259.436 255.44 260.043 255.287 260.576 254.98C261.123 254.66 261.549 254.22 261.856 253.66C262.163 253.087 262.316 252.433 262.316 251.7C262.316 250.967 262.163 250.32 261.856 249.76C261.549 249.187 261.123 248.747 260.576 248.44C260.043 248.133 259.436 247.98 258.756 247.98C258.076 247.98 257.463 248.133 256.916 248.44C256.383 248.747 255.956 249.187 255.636 249.76C255.329 250.32 255.176 250.967 255.176 251.7C255.176 252.433 255.329 253.087 255.636 253.66C255.956 254.22 256.383 254.66 256.916 254.98C257.463 255.287 258.076 255.44 258.756 255.44ZM276.911 242.16V257H275.071V255.32C274.645 255.907 274.105 256.353 273.451 256.66C272.798 256.967 272.078 257.12 271.291 257.12C270.265 257.12 269.345 256.893 268.531 256.44C267.718 255.987 267.078 255.353 266.611 254.54C266.158 253.713 265.931 252.767 265.931 251.7C265.931 250.633 266.158 249.693 266.611 248.88C267.078 248.067 267.718 247.433 268.531 246.98C269.345 246.527 270.265 246.3 271.291 246.3C272.051 246.3 272.751 246.447 273.391 246.74C274.031 247.02 274.565 247.44 274.991 248V242.16H276.911ZM271.451 255.44C272.118 255.44 272.725 255.287 273.271 254.98C273.818 254.66 274.245 254.22 274.551 253.66C274.858 253.087 275.011 252.433 275.011 251.7C275.011 250.967 274.858 250.32 274.551 249.76C274.245 249.187 273.818 248.747 273.271 248.44C272.725 248.133 272.118 247.98 271.451 247.98C270.771 247.98 270.158 248.133 269.611 248.44C269.078 248.747 268.651 249.187 268.331 249.76C268.025 250.32 267.871 250.967 267.871 251.7C267.871 252.433 268.025 253.087 268.331 253.66C268.651 254.22 269.078 254.66 269.611 254.98C270.158 255.287 270.771 255.44 271.451 255.44ZM290.424 246.4V257H288.604V255.4C288.217 255.947 287.704 256.373 287.064 256.68C286.437 256.973 285.751 257.12 285.004 257.12C283.591 257.12 282.477 256.733 281.664 255.96C280.851 255.173 280.444 254.02 280.444 252.5V246.4H282.364V252.28C282.364 253.307 282.611 254.087 283.104 254.62C283.597 255.14 284.304 255.4 285.224 255.4C286.237 255.4 287.037 255.093 287.624 254.48C288.211 253.867 288.504 253 288.504 251.88V246.4H290.424ZM300.039 256.38C299.759 256.62 299.413 256.807 298.999 256.94C298.586 257.06 298.159 257.12 297.719 257.12C296.653 257.12 295.826 256.833 295.239 256.26C294.653 255.687 294.359 254.867 294.359 253.8V247.98H292.559V246.4H294.359V244.08H296.279V246.4H299.319V247.98H296.279V253.72C296.279 254.293 296.419 254.733 296.699 255.04C296.993 255.347 297.406 255.5 297.939 255.5C298.526 255.5 299.026 255.333 299.439 255L300.039 256.38ZM306.629 257.12C305.549 257.12 304.582 256.887 303.729 256.42C302.889 255.953 302.229 255.313 301.749 254.5C301.269 253.673 301.029 252.74 301.029 251.7C301.029 250.66 301.269 249.733 301.749 248.92C302.229 248.093 302.889 247.453 303.729 247C304.582 246.533 305.549 246.3 306.629 246.3C307.589 246.3 308.442 246.493 309.189 246.88C309.949 247.267 310.536 247.827 310.949 248.56L309.489 249.5C309.156 248.993 308.742 248.613 308.249 248.36C307.756 248.107 307.209 247.98 306.609 247.98C305.916 247.98 305.289 248.133 304.729 248.44C304.182 248.747 303.749 249.187 303.429 249.76C303.122 250.32 302.969 250.967 302.969 251.7C302.969 252.447 303.122 253.107 303.429 253.68C303.749 254.24 304.182 254.673 304.729 254.98C305.289 255.287 305.916 255.44 306.609 255.44C307.209 255.44 307.756 255.313 308.249 255.06C308.742 254.807 309.156 254.427 309.489 253.92L310.949 254.84C310.536 255.573 309.949 256.14 309.189 256.54C308.442 256.927 307.589 257.12 306.629 257.12ZM316.475 257.12C315.608 257.12 314.775 257.007 313.975 256.78C313.175 256.54 312.548 256.24 312.095 255.88L312.895 254.36C313.361 254.693 313.928 254.96 314.595 255.16C315.261 255.36 315.935 255.46 316.615 255.46C318.295 255.46 319.135 254.98 319.135 254.02C319.135 253.7 319.021 253.447 318.795 253.26C318.568 253.073 318.281 252.94 317.935 252.86C317.601 252.767 317.121 252.667 316.495 252.56C315.641 252.427 314.941 252.273 314.395 252.1C313.861 251.927 313.401 251.633 313.015 251.22C312.628 250.807 312.435 250.227 312.435 249.48C312.435 248.52 312.835 247.753 313.635 247.18C314.435 246.593 315.508 246.3 316.855 246.3C317.561 246.3 318.268 246.387 318.975 246.56C319.681 246.733 320.261 246.967 320.715 247.26L319.895 248.78C319.028 248.22 318.008 247.94 316.835 247.94C316.021 247.94 315.401 248.073 314.975 248.34C314.548 248.607 314.335 248.96 314.335 249.4C314.335 249.747 314.455 250.02 314.695 250.22C314.935 250.42 315.228 250.567 315.575 250.66C315.935 250.753 316.435 250.86 317.075 250.98C317.928 251.127 318.615 251.287 319.135 251.46C319.668 251.62 320.121 251.9 320.495 252.3C320.868 252.7 321.055 253.26 321.055 253.98C321.055 254.94 320.641 255.707 319.815 256.28C319.001 256.84 317.888 257.12 316.475 257.12Z" fill="white"/>
<path d="M221.469 71.89C224.429 71.89 226.609 72.48 228.009 73.66C229.429 74.84 230.139 76.42 230.139 78.4C230.139 79.68 229.819 80.85 229.179 81.91C228.539 82.95 227.559 83.79 226.239 84.43C224.939 85.05 223.329 85.36 221.409 85.36C219.929 85.36 218.469 85.17 217.029 84.79C215.609 84.39 214.399 83.83 213.399 83.11L215.319 79.39C216.119 79.99 217.039 80.46 218.079 80.8C219.119 81.12 220.189 81.28 221.289 81.28C222.509 81.28 223.469 81.04 224.169 80.56C224.869 80.08 225.219 79.41 225.219 78.55C225.219 77.65 224.849 76.97 224.109 76.51C223.389 76.05 222.129 75.82 220.329 75.82H214.959L216.039 64H228.849V67.9H220.089L219.759 71.89H221.469ZM247.081 76.33H241.861V81.43H237.991V76.33H232.801V72.67H237.991V67.57H241.861V72.67H247.081V76.33ZM195.451 109.16C194.398 109.16 193.378 109 192.391 108.68C191.418 108.347 190.651 107.92 190.091 107.4L190.831 105.84C191.364 106.32 192.044 106.713 192.871 107.02C193.711 107.313 194.571 107.46 195.451 107.46C196.611 107.46 197.478 107.267 198.051 106.88C198.624 106.48 198.911 105.953 198.911 105.3C198.911 104.82 198.751 104.433 198.431 104.14C198.124 103.833 197.738 103.6 197.271 103.44C196.818 103.28 196.171 103.1 195.331 102.9C194.278 102.647 193.424 102.393 192.771 102.14C192.131 101.887 191.578 101.5 191.111 100.98C190.658 100.447 190.431 99.7333 190.431 98.84C190.431 98.0933 190.624 97.42 191.011 96.82C191.411 96.22 192.011 95.74 192.811 95.38C193.611 95.02 194.604 94.84 195.791 94.84C196.618 94.84 197.431 94.9467 198.231 95.16C199.031 95.3733 199.718 95.68 200.291 96.08L199.631 97.68C199.044 97.3067 198.418 97.0267 197.751 96.84C197.084 96.64 196.431 96.54 195.791 96.54C194.658 96.54 193.804 96.7467 193.231 97.16C192.671 97.5733 192.391 98.1067 192.391 98.76C192.391 99.24 192.551 99.6333 192.871 99.94C193.191 100.233 193.584 100.467 194.051 100.64C194.531 100.8 195.178 100.973 195.991 101.16C197.044 101.413 197.891 101.667 198.531 101.92C199.171 102.173 199.718 102.56 200.171 103.08C200.638 103.6 200.871 104.3 200.871 105.18C200.871 105.913 200.671 106.587 200.271 107.2C199.871 107.8 199.264 108.28 198.451 108.64C197.638 108.987 196.638 109.16 195.451 109.16ZM213.093 103.76C213.093 103.907 213.08 104.1 213.053 104.34H204.453C204.573 105.273 204.98 106.027 205.673 106.6C206.38 107.16 207.253 107.44 208.293 107.44C209.56 107.44 210.58 107.013 211.353 106.16L212.413 107.4C211.933 107.96 211.333 108.387 210.613 108.68C209.906 108.973 209.113 109.12 208.233 109.12C207.113 109.12 206.12 108.893 205.253 108.44C204.386 107.973 203.713 107.327 203.233 106.5C202.766 105.673 202.533 104.74 202.533 103.7C202.533 102.673 202.76 101.747 203.213 100.92C203.68 100.093 204.313 99.4533 205.113 99C205.926 98.5333 206.84 98.3 207.853 98.3C208.866 98.3 209.766 98.5333 210.553 99C211.353 99.4533 211.973 100.093 212.413 100.92C212.866 101.747 213.093 102.693 213.093 103.76ZM207.853 99.92C206.933 99.92 206.16 100.2 205.533 100.76C204.92 101.32 204.56 102.053 204.453 102.96H211.253C211.146 102.067 210.78 101.34 210.153 100.78C209.54 100.207 208.773 99.92 207.853 99.92ZM217.599 100.18C217.932 99.5667 218.426 99.1 219.079 98.78C219.732 98.46 220.526 98.3 221.459 98.3V100.16C221.352 100.147 221.206 100.14 221.019 100.14C219.979 100.14 219.159 100.453 218.559 101.08C217.972 101.693 217.679 102.573 217.679 103.72V109H215.759V98.4H217.599V100.18ZM233.635 98.4L228.995 109H227.035L222.395 98.4H224.395L228.035 106.9L231.755 98.4H233.635ZM235.427 98.4H237.347V109H235.427V98.4ZM236.387 96.36C236.014 96.36 235.7 96.24 235.447 96C235.207 95.76 235.087 95.4667 235.087 95.12C235.087 94.7733 235.207 94.48 235.447 94.24C235.7 93.9867 236.014 93.86 236.387 93.86C236.76 93.86 237.067 93.98 237.307 94.22C237.56 94.4467 237.687 94.7333 237.687 95.08C237.687 95.44 237.56 95.7467 237.307 96C237.067 96.24 236.76 96.36 236.387 96.36ZM245.633 109.12C244.553 109.12 243.586 108.887 242.733 108.42C241.893 107.953 241.233 107.313 240.753 106.5C240.273 105.673 240.033 104.74 240.033 103.7C240.033 102.66 240.273 101.733 240.753 100.92C241.233 100.093 241.893 99.4533 242.733 99C243.586 98.5333 244.553 98.3 245.633 98.3C246.593 98.3 247.446 98.4933 248.193 98.88C248.953 99.2667 249.54 99.8267 249.953 100.56L248.493 101.5C248.16 100.993 247.746 100.613 247.253 100.36C246.76 100.107 246.213 99.98 245.613 99.98C244.92 99.98 244.293 100.133 243.733 100.44C243.186 100.747 242.753 101.187 242.433 101.76C242.126 102.32 241.973 102.967 241.973 103.7C241.973 104.447 242.126 105.107 242.433 105.68C242.753 106.24 243.186 106.673 243.733 106.98C244.293 107.287 244.92 107.44 245.613 107.44C246.213 107.44 246.76 107.313 247.253 107.06C247.746 106.807 248.16 106.427 248.493 105.92L249.953 106.84C249.54 107.573 248.953 108.14 248.193 108.54C247.446 108.927 246.593 109.12 245.633 109.12ZM261.862 103.76C261.862 103.907 261.849 104.1 261.822 104.34H253.222C253.342 105.273 253.749 106.027 254.442 106.6C255.149 107.16 256.022 107.44 257.062 107.44C258.329 107.44 259.349 107.013 260.122 106.16L261.182 107.4C260.702 107.96 260.102 108.387 259.382 108.68C258.676 108.973 257.882 109.12 257.002 109.12C255.882 109.12 254.889 108.893 254.022 108.44C253.156 107.973 252.482 107.327 252.002 106.5C251.536 105.673 251.302 104.74 251.302 103.7C251.302 102.673 251.529 101.747 251.982 100.92C252.449 100.093 253.082 99.4533 253.882 99C254.696 98.5333 255.609 98.3 256.622 98.3C257.636 98.3 258.536 98.5333 259.322 99C260.122 99.4533 260.742 100.093 261.182 100.92C261.636 101.747 261.862 102.693 261.862 103.76ZM256.622 99.92C255.702 99.92 254.929 100.2 254.302 100.76C253.689 101.32 253.329 102.053 253.222 102.96H260.022C259.916 102.067 259.549 101.34 258.922 100.78C258.309 100.207 257.542 99.92 256.622 99.92ZM267.568 109.12C266.702 109.12 265.868 109.007 265.068 108.78C264.268 108.54 263.642 108.24 263.188 107.88L263.988 106.36C264.455 106.693 265.022 106.96 265.688 107.16C266.355 107.36 267.028 107.46 267.708 107.46C269.388 107.46 270.228 106.98 270.228 106.02C270.228 105.7 270.115 105.447 269.888 105.26C269.662 105.073 269.375 104.94 269.028 104.86C268.695 104.767 268.215 104.667 267.588 104.56C266.735 104.427 266.035 104.273 265.488 104.1C264.955 103.927 264.495 103.633 264.108 103.22C263.722 102.807 263.528 102.227 263.528 101.48C263.528 100.52 263.928 99.7533 264.728 99.18C265.528 98.5933 266.602 98.3 267.948 98.3C268.655 98.3 269.362 98.3867 270.068 98.56C270.775 98.7333 271.355 98.9667 271.808 99.26L270.988 100.78C270.122 100.22 269.102 99.94 267.928 99.94C267.115 99.94 266.495 100.073 266.068 100.34C265.642 100.607 265.428 100.96 265.428 101.4C265.428 101.747 265.548 102.02 265.788 102.22C266.028 102.42 266.322 102.567 266.668 102.66C267.028 102.753 267.528 102.86 268.168 102.98C269.022 103.127 269.708 103.287 270.228 103.46C270.762 103.62 271.215 103.9 271.588 104.3C271.962 104.7 272.148 105.26 272.148 105.98C272.148 106.94 271.735 107.707 270.908 108.28C270.095 108.84 268.982 109.12 267.568 109.12Z" fill="white"/>
<path d="M344.496 151V172H339.636V154.9H335.436V151H344.496ZM357.144 172.36C355.404 172.36 353.854 171.93 352.494 171.07C351.134 170.21 350.064 168.97 349.284 167.35C348.524 165.71 348.144 163.76 348.144 161.5C348.144 159.24 348.524 157.3 349.284 155.68C350.064 154.04 351.134 152.79 352.494 151.93C353.854 151.07 355.404 150.64 357.144 150.64C358.884 150.64 360.434 151.07 361.794 151.93C363.154 152.79 364.214 154.04 364.974 155.68C365.754 157.3 366.144 159.24 366.144 161.5C366.144 163.76 365.754 165.71 364.974 167.35C364.214 168.97 363.154 170.21 361.794 171.07C360.434 171.93 358.884 172.36 357.144 172.36ZM357.144 168.25C358.424 168.25 359.424 167.7 360.144 166.6C360.884 165.5 361.254 163.8 361.254 161.5C361.254 159.2 360.884 157.5 360.144 156.4C359.424 155.3 358.424 154.75 357.144 154.75C355.884 154.75 354.884 155.3 354.144 156.4C353.424 157.5 353.064 159.2 353.064 161.5C353.064 163.8 353.424 165.5 354.144 166.6C354.884 167.7 355.884 168.25 357.144 168.25ZM377.505 172.36C375.765 172.36 374.215 171.93 372.855 171.07C371.495 170.21 370.425 168.97 369.645 167.35C368.885 165.71 368.505 163.76 368.505 161.5C368.505 159.24 368.885 157.3 369.645 155.68C370.425 154.04 371.495 152.79 372.855 151.93C374.215 151.07 375.765 150.64 377.505 150.64C379.245 150.64 380.795 151.07 382.155 151.93C383.515 152.79 384.575 154.04 385.335 155.68C386.115 157.3 386.505 159.24 386.505 161.5C386.505 163.76 386.115 165.71 385.335 167.35C384.575 168.97 383.515 170.21 382.155 171.07C380.795 171.93 379.245 172.36 377.505 172.36ZM377.505 168.25C378.785 168.25 379.785 167.7 380.505 166.6C381.245 165.5 381.615 163.8 381.615 161.5C381.615 159.2 381.245 157.5 380.505 156.4C379.785 155.3 378.785 154.75 377.505 154.75C376.245 154.75 375.245 155.3 374.505 156.4C373.785 157.5 373.425 159.2 373.425 161.5C373.425 163.8 373.785 165.5 374.505 166.6C375.245 167.7 376.245 168.25 377.505 168.25ZM403.954 163.33H398.734V168.43H394.864V163.33H389.674V159.67H394.864V154.57H398.734V159.67H403.954V163.33ZM343.967 196.16C342.567 196.16 341.3 195.853 340.167 195.24C339.047 194.613 338.167 193.76 337.527 192.68C336.887 191.587 336.567 190.36 336.567 189C336.567 187.64 336.887 186.42 337.527 185.34C338.167 184.247 339.054 183.393 340.187 182.78C341.32 182.153 342.587 181.84 343.987 181.84C345.08 181.84 346.08 182.027 346.987 182.4C347.894 182.76 348.667 183.3 349.307 184.02L348.007 185.28C346.954 184.173 345.64 183.62 344.067 183.62C343.027 183.62 342.087 183.853 341.247 184.32C340.407 184.787 339.747 185.433 339.267 186.26C338.8 187.073 338.567 187.987 338.567 189C338.567 190.013 338.8 190.933 339.267 191.76C339.747 192.573 340.407 193.213 341.247 193.68C342.087 194.147 343.027 194.38 344.067 194.38C345.627 194.38 346.94 193.82 348.007 192.7L349.307 193.96C348.667 194.68 347.887 195.227 346.967 195.6C346.06 195.973 345.06 196.16 343.967 196.16ZM351.88 181.16H353.8V196H351.88V181.16ZM357.466 185.4H359.386V196H357.466V185.4ZM358.426 183.36C358.053 183.36 357.739 183.24 357.486 183C357.246 182.76 357.126 182.467 357.126 182.12C357.126 181.773 357.246 181.48 357.486 181.24C357.739 180.987 358.053 180.86 358.426 180.86C358.799 180.86 359.106 180.98 359.346 181.22C359.599 181.447 359.726 181.733 359.726 182.08C359.726 182.44 359.599 182.747 359.346 183C359.106 183.24 358.799 183.36 358.426 183.36ZM372.632 190.76C372.632 190.907 372.619 191.1 372.592 191.34H363.992C364.112 192.273 364.519 193.027 365.212 193.6C365.919 194.16 366.792 194.44 367.832 194.44C369.099 194.44 370.119 194.013 370.892 193.16L371.952 194.4C371.472 194.96 370.872 195.387 370.152 195.68C369.445 195.973 368.652 196.12 367.772 196.12C366.652 196.12 365.659 195.893 364.792 195.44C363.925 194.973 363.252 194.327 362.772 193.5C362.305 192.673 362.072 191.74 362.072 190.7C362.072 189.673 362.299 188.747 362.752 187.92C363.219 187.093 363.852 186.453 364.652 186C365.465 185.533 366.379 185.3 367.392 185.3C368.405 185.3 369.305 185.533 370.092 186C370.892 186.453 371.512 187.093 371.952 187.92C372.405 188.747 372.632 189.693 372.632 190.76ZM367.392 186.92C366.472 186.92 365.699 187.2 365.072 187.76C364.459 188.32 364.099 189.053 363.992 189.96H370.792C370.685 189.067 370.319 188.34 369.692 187.78C369.079 187.207 368.312 186.92 367.392 186.92ZM380.958 185.3C382.305 185.3 383.371 185.693 384.158 186.48C384.958 187.253 385.358 188.393 385.358 189.9V196H383.438V190.12C383.438 189.093 383.191 188.32 382.698 187.8C382.205 187.28 381.498 187.02 380.578 187.02C379.538 187.02 378.718 187.327 378.118 187.94C377.518 188.54 377.218 189.407 377.218 190.54V196H375.298V185.4H377.138V187C377.525 186.453 378.045 186.033 378.698 185.74C379.365 185.447 380.118 185.3 380.958 185.3ZM394.871 195.38C394.591 195.62 394.245 195.807 393.831 195.94C393.418 196.06 392.991 196.12 392.551 196.12C391.485 196.12 390.658 195.833 390.071 195.26C389.485 194.687 389.191 193.867 389.191 192.8V186.98H387.391V185.4H389.191V183.08H391.111V185.4H394.151V186.98H391.111V192.72C391.111 193.293 391.251 193.733 391.531 194.04C391.825 194.347 392.238 194.5 392.771 194.5C393.358 194.5 393.858 194.333 394.271 194L394.871 195.38ZM400.233 196.12C399.366 196.12 398.533 196.007 397.733 195.78C396.933 195.54 396.306 195.24 395.853 194.88L396.653 193.36C397.119 193.693 397.686 193.96 398.353 194.16C399.019 194.36 399.693 194.46 400.373 194.46C402.053 194.46 402.893 193.98 402.893 193.02C402.893 192.7 402.779 192.447 402.553 192.26C402.326 192.073 402.039 191.94 401.693 191.86C401.359 191.767 400.879 191.667 400.253 191.56C399.399 191.427 398.699 191.273 398.153 191.1C397.619 190.927 397.159 190.633 396.773 190.22C396.386 189.807 396.193 189.227 396.193 188.48C396.193 187.52 396.593 186.753 397.393 186.18C398.193 185.593 399.266 185.3 400.613 185.3C401.319 185.3 402.026 185.387 402.733 185.56C403.439 185.733 404.019 185.967 404.473 186.26L403.653 187.78C402.786 187.22 401.766 186.94 400.593 186.94C399.779 186.94 399.159 187.073 398.733 187.34C398.306 187.607 398.093 187.96 398.093 188.4C398.093 188.747 398.213 189.02 398.453 189.22C398.693 189.42 398.986 189.567 399.333 189.66C399.693 189.753 400.193 189.86 400.833 189.98C401.686 190.127 402.373 190.287 402.893 190.46C403.426 190.62 403.879 190.9 404.253 191.3C404.626 191.7 404.813 192.26 404.813 192.98C404.813 193.94 404.399 194.707 403.573 195.28C402.759 195.84 401.646 196.12 400.233 196.12Z" fill="white"/>
<defs>
<linearGradient id="paint0_linear" x1="223.55" y1="443.22" x2="233.28" y2="407.93" gradientUnits="userSpaceOnUse">
<stop stop-opacity="0"/>
<stop offset="0.99"/>
</linearGradient>
<linearGradient id="paint1_linear" x1="159.087" y1="3110.29" x2="180308" y2="3110.29" gradientUnits="userSpaceOnUse">
<stop stop-opacity="0"/>
<stop offset="0.99"/>
</linearGradient>
<linearGradient id="paint2_linear" x1="216.77" y1="446.88" x2="237.75" y2="512.15" gradientUnits="userSpaceOnUse">
<stop stop-opacity="0"/>
<stop offset="0.8"/>
</linearGradient>
<linearGradient id="paint3_linear" x1="5934" y1="13836.2" x2="6449.21" y2="17260.7" gradientUnits="userSpaceOnUse">
<stop stop-opacity="0"/>
<stop offset="0.8"/>
</linearGradient>
<linearGradient id="paint4_linear" x1="119.38" y1="423.31" x2="138.16" y2="423.31" gradientUnits="userSpaceOnUse">
<stop stop-color="#E5C5D5"/>
<stop offset="0.42" stop-color="#EAD4D1"/>
<stop offset="1" stop-color="#F0E9CB"/>
</linearGradient>
<linearGradient id="paint5_linear" x1="1356.27" y1="4098.55" x2="1388.21" y2="3610.92" gradientUnits="userSpaceOnUse">
<stop stop-opacity="0"/>
<stop offset="0.99"/>
</linearGradient>
<linearGradient id="paint6_linear" x1="38149.4" y1="17780.3" x2="37357.8" y2="22107.4" gradientUnits="userSpaceOnUse">
<stop stop-opacity="0"/>
<stop offset="0.99"/>
</linearGradient>
<linearGradient id="paint7_linear" x1="436.58" y1="409.58" x2="452.21" y2="409.58" gradientUnits="userSpaceOnUse">
<stop stop-color="#867580"/>
<stop offset="0.57" stop-color="#9B8F8E"/>
</linearGradient>
<linearGradient id="paint8_linear" x1="6125.36" y1="8048.72" x2="6758.76" y2="8048.72" gradientUnits="userSpaceOnUse">
<stop stop-color="#E5C5D5"/>
<stop offset="0.42" stop-color="#EAD4D1"/>
<stop offset="1" stop-color="#F0E9CB"/>
</linearGradient>
<linearGradient id="paint9_linear" x1="15273.1" y1="10289.7" x2="15775.3" y2="13282.9" gradientUnits="userSpaceOnUse">
<stop stop-opacity="0"/>
<stop offset="0.99"/>
</linearGradient>
<linearGradient id="paint10_linear" x1="9652.3" y1="4054.18" x2="10387.2" y2="4054.18" gradientUnits="userSpaceOnUse">
<stop stop-color="#867580"/>
<stop offset="0.57" stop-color="#9B8F8E"/>
</linearGradient>
<linearGradient id="paint11_linear" x1="2361.19" y1="14753.8" x2="4255.16" y2="14753.8" gradientUnits="userSpaceOnUse">
<stop stop-color="#E5C5D5"/>
<stop offset="0.42" stop-color="#EAD4D1"/>
<stop offset="1" stop-color="#F0E9CB"/>
</linearGradient>
<linearGradient id="paint12_linear" x1="1801.93" y1="7113.06" x2="2188.56" y2="7113.06" gradientUnits="userSpaceOnUse">
<stop stop-color="#E5C5D5"/>
<stop offset="0.42" stop-color="#EAD4D1"/>
<stop offset="1" stop-color="#F0E9CB"/>
</linearGradient>
<linearGradient id="paint13_linear" x1="11536.8" y1="16169.5" x2="13138.8" y2="16169.5" gradientUnits="userSpaceOnUse">
<stop stop-color="#E5C5D5"/>
<stop offset="0.42" stop-color="#EAD4D1"/>
<stop offset="1" stop-color="#F0E9CB"/>
</linearGradient>
<linearGradient id="paint14_linear" x1="13815.9" y1="10439.9" x2="15127" y2="10439.9" gradientUnits="userSpaceOnUse">
<stop stop-color="#867580"/>
<stop offset="0.57" stop-color="#9B8F8E"/>
</linearGradient>
<linearGradient id="paint15_linear" x1="3387.73" y1="2478.76" x2="3442.18" y2="2478.76" gradientUnits="userSpaceOnUse">
<stop stop-color="#867580"/>
<stop offset="0.57" stop-color="#9B8F8E"/>
</linearGradient>
<linearGradient id="paint16_linear" x1="3490.11" y1="2974.49" x2="3557.9" y2="2974.49" gradientUnits="userSpaceOnUse">
<stop stop-color="#867580"/>
<stop offset="0.57" stop-color="#9B8F8E"/>
</linearGradient>
<linearGradient id="paint17_linear" x1="2905.92" y1="8961.05" x2="3099.86" y2="8961.05" gradientUnits="userSpaceOnUse">
<stop stop-color="#E5C5D5"/>
<stop offset="0.42" stop-color="#EAD4D1"/>
<stop offset="1" stop-color="#F0E9CB"/>
</linearGradient>
<linearGradient id="paint18_linear" x1="5037.47" y1="3498.29" x2="5774" y2="3498.29" gradientUnits="userSpaceOnUse">
<stop stop-color="#E5C5D5"/>
<stop offset="0.42" stop-color="#EAD4D1"/>
<stop offset="1" stop-color="#F0E9CB"/>
</linearGradient>
<linearGradient id="paint19_linear" x1="2634.15" y1="5948.24" x2="2836.9" y2="5948.24" gradientUnits="userSpaceOnUse">
<stop stop-color="#E5C5D5"/>
<stop offset="0.42" stop-color="#EAD4D1"/>
<stop offset="1" stop-color="#F0E9CB"/>
</linearGradient>
<linearGradient id="paint20_linear" x1="2066.3" y1="4338.65" x2="2296.24" y2="4054.02" gradientUnits="userSpaceOnUse">
<stop stop-opacity="0"/>
<stop offset="0.99"/>
</linearGradient>
<linearGradient id="paint21_linear" x1="5554.31" y1="12095.1" x2="6644.75" y2="12095.1" gradientUnits="userSpaceOnUse">
<stop stop-color="#E5C5D5"/>
<stop offset="0.42" stop-color="#EAD4D1"/>
<stop offset="1" stop-color="#F0E9CB"/>
</linearGradient>
<linearGradient id="paint22_linear" x1="1275.79" y1="1813.06" x2="1318.24" y2="1813.06" gradientUnits="userSpaceOnUse">
<stop stop-color="#E5C5D5"/>
<stop offset="0.42" stop-color="#EAD4D1"/>
<stop offset="1" stop-color="#F0E9CB"/>
</linearGradient>
<linearGradient id="paint23_linear" x1="5734.27" y1="4013.75" x2="6193.6" y2="4013.75" gradientUnits="userSpaceOnUse">
<stop stop-color="#E5C5D5"/>
<stop offset="0.42" stop-color="#EAD4D1"/>
<stop offset="1" stop-color="#F0E9CB"/>
</linearGradient>
</defs>
</svg>
