<svg width="641" height="538" viewBox="0 0 641 538" fill="none" xmlns="http://www.w3.org/2000/svg">
<path d="M297.786 277.14H296.303V433.338H297.786V277.14Z" fill="#E0E0E0"/>
<path d="M403.267 277.14H401.785V433.338H403.267V277.14Z" fill="#E0E0E0"/>
<path d="M508.751 277.14H507.267V433.338H508.751V277.14Z" fill="#E0E0E0"/>
<path d="M216.828 257.89H191.562V261.963H216.828V257.89Z" fill="#D9D9D9"/>
<path d="M227.399 265.417H191.562V269.49H227.399V265.417Z" fill="#D9D9D9"/>
<path d="M325.569 257.89H295.907V261.963H325.569V257.89Z" fill="#D9D9D9"/>
<path d="M314.874 265.417H295.907V269.49H314.874V265.417Z" fill="#D9D9D9"/>
<path d="M421.647 257.89H403.267V261.963H421.647V257.89Z" fill="#D9D9D9"/>
<path d="M424.692 265.417H403.267V269.49H424.692V265.417Z" fill="#D9D9D9"/>
<path d="M535.527 257.89H508.751V261.963H535.527V257.89Z" fill="#D9D9D9"/>
<path d="M530.176 265.417H508.751V269.49H530.176V265.417Z" fill="#D9D9D9"/>
<path d="M313.826 442.591H297.043V448.02H313.826V442.591Z" fill="#B8B8B8"/>
<path d="M420.05 442.591H403.267V448.02H420.05V442.591Z" fill="#B8B8B8"/>
<path d="M525.534 442.591H508.751V448.02H525.534V442.591Z" fill="#B8B8B8"/>
<g opacity="0.43">
<path opacity="0.43" d="M576.937 386.927C544.034 386.927 515.437 372.654 485.619 357.775C448.811 339.405 410.748 320.411 360.037 325.614C327.654 328.933 307.328 342.168 289.396 353.859C273.158 364.43 257.807 373.73 237.014 374.523C203.415 375.806 191.757 361.423 191.562 360.535V351.314C191.605 351.473 198.941 367.615 236.979 367.424C255.713 367.33 269.539 358.327 285.547 347.903C304.152 335.798 325.236 322.06 359.318 318.563C412.065 313.154 451.057 332.613 488.769 351.432C528.228 371.123 565.88 389.59 613.491 373.568V381.157C599.919 385.714 589.066 386.927 576.937 386.927Z" fill="url(#paint0_linear)"/>
</g>
<g opacity="0.22">
<path opacity="0.22" d="M379.452 385.16C355.167 385.16 335.905 368.769 317.048 352.724C302.75 340.554 287.917 328.121 270.799 321.993C218.53 303.271 191.806 337.46 191.567 337.762V327.36C191.835 327.004 196.62 320.791 210.416 314.856C222.977 309.455 244.054 305.146 273.123 315.292C291.538 321.721 306.835 334.736 321.626 347.322C351.631 372.85 377.546 394.9 422.551 360.363C456.636 334.206 488.758 309.28 520.388 300.172C551.309 291.265 583.547 297.786 613.724 328.07L613.501 337.514C549.401 272.903 494.821 313.842 426.85 365.999C408.843 379.809 393.323 385.157 379.452 385.16Z" fill="url(#paint1_linear)"/>
</g>
<path d="M397.301 239.824L396.231 238.563L414 223.372H424.792L449.275 202.439L464.588 215.531H475.881L481.59 220.411L499.324 205.25H508.325L545.643 173.344L546.712 174.605L508.931 206.907H499.93L481.59 222.587L475.275 217.188H463.983L449.275 204.615L425.4 225.029H414.608L397.301 239.824Z" fill="url(#paint2_linear)"/>
<path d="M399.868 218.84H393.728V217.183H399.185L408.406 207.929L415.11 214.659L431.128 198.584L436.055 203.528L452.293 187.232L462.023 196.997H473.12L490.243 179.813H505.012L515.93 168.857H529.295L542.555 155.547L543.723 156.719L529.978 170.514H516.613L505.696 181.47H490.926L473.804 198.654H461.34L452.293 189.575L436.055 205.874L431.128 200.93L415.11 217.002L408.406 210.272L399.868 218.84Z" fill="url(#paint3_linear)"/>
<path d="M563.865 222.608C563.865 222.573 563.846 222.536 563.835 222.501C548.042 167.227 508.618 119.982 454.167 95.6699C421.261 80.9386 384.98 75.4771 349.216 79.8715H349.149H349.114C332.653 81.9362 316.518 86.0746 301.088 92.189L300.997 92.2267C244.675 114.454 199.247 162.298 182.317 225.444C153.904 331.43 216.447 440.415 322.012 468.926C376.222 483.562 431.222 474.139 475.763 447.167L484.073 458.758L523.258 430.438L513.799 417.257C538.62 392.2 556.342 360.96 565.142 326.75C573.943 292.539 573.504 256.594 563.87 222.611L563.865 222.608ZM418.919 404.116C348.929 429.289 271.855 392.756 246.771 322.518C222.157 253.586 256.759 177.796 324.213 151.216C325.49 150.714 326.78 150.228 328.08 149.758C360.751 137.955 396.709 139.325 428.394 153.58C460.72 168.071 487.34 195.275 500.23 231.356C501.244 234.197 502.159 237.048 502.975 239.91C522.309 307.766 486.078 379.96 418.919 404.116Z" fill="url(#paint4_linear)"/>
<path d="M602.857 211.345L563.835 222.501L502.972 239.91C502.157 237.041 501.243 234.19 500.228 231.356C487.34 195.264 460.72 168.071 428.391 153.58L454.158 95.6699L456.879 89.577L470.726 58.4537C536.363 87.7505 583.855 144.722 602.857 211.345Z" fill="#424141"/>
<path d="M456.879 89.577L454.166 95.6726L428.394 153.583C406.011 143.52 381.31 139.799 356.97 142.823L349.197 79.8769L348.393 73.2756C385.359 68.7323 422.86 74.3673 456.879 89.577Z" fill="#8D8C8B"/>
<path d="M356.97 142.839C347.116 144.077 337.428 146.401 328.08 149.768C326.778 150.236 325.488 150.722 324.213 151.226L301.088 92.189L294.084 74.3247C311.024 67.6009 328.743 63.0546 346.82 60.794H346.86L348.398 73.2702L349.202 79.8715L356.97 142.839Z" fill="#C6C4C4"/>
<path d="M609.695 538H531.667L477.436 462.424L528.821 425.294L609.695 538Z" fill="url(#paint5_linear)"/>
<path d="M331.27 47.0938C331.27 47.0938 328.458 41.9156 326.858 40.0514C325.258 38.1872 319.945 36.7884 320.669 34.4024C321.393 32.0164 328.509 33.0574 330.471 35.3869C332.433 37.7165 338.416 38.5504 338.615 39.543C338.813 40.5356 336.537 45.9129 335.253 46.7925C333.969 47.6722 331.27 47.0938 331.27 47.0938Z" fill="#6A75BA"/>
<path d="M319.315 51.4812C319.315 51.4812 314.737 47.8363 312.531 46.763C310.325 45.6897 304.894 46.5236 304.616 44.0515C304.337 41.5793 311.279 39.691 313.997 41.0467C316.715 42.4025 322.537 40.7777 323.111 41.6009C323.685 42.424 323.725 48.2748 322.896 49.5929C322.068 50.911 319.315 51.4812 319.315 51.4812Z" fill="#545D94"/>
<path d="M329.501 60.9688C329.501 60.9688 331.501 47.2498 331.41 44.8665C331.386 44.1859 335.524 44.4388 335.331 45.7461C334.91 48.5922 336.821 59.6238 336.489 61.6413C336.157 63.6588 329.322 62.2412 329.501 60.9688Z" fill="#EEA886"/>
<path d="M323.226 64.9124C323.226 64.9124 319.473 51.5888 318.605 49.3723C318.216 48.3877 322.036 46.8598 322.553 48.6191C323.357 51.379 329.41 60.7617 329.906 62.7469C330.402 64.7322 323.572 66.1471 323.226 64.9124Z" fill="#EEA886"/>
<path d="M325.826 74.1714C325.826 74.1714 321.806 60.5546 321.184 59.1074L327.531 55.1719C327.531 55.1719 330.48 63.8714 330.884 66.0449C331.289 68.2184 325.826 74.1714 325.826 74.1714Z" fill="#D9D3C8"/>
<path d="M438.159 38.198C438.159 38.198 432.031 39.7528 429.115 44.4038C426.199 49.0549 423.679 54.4133 418.203 56.8424C412.727 59.2715 412.686 65.5338 413.11 66.4995C413.533 67.4652 430.369 86.4512 434.042 87.1856C437.714 87.92 444.589 87.4089 443.855 82.5319C443.12 77.6549 435.915 67.1532 439.96 61.87C444.005 56.5869 445.029 51.6857 445.029 51.6857L438.159 38.198Z" fill="#222538"/>
<path d="M437.092 60.9016C436.936 60.8549 436.775 60.8252 436.612 60.8128C436.128 60.77 435.639 60.8287 435.178 60.985C434.984 61.057 434.796 61.147 434.618 61.254C433.163 62.1148 429.715 64.4524 429.257 64.5089C428.721 64.5735 429.174 56.5061 429.174 56.5061C429.174 56.5061 431.01 53.2486 431.241 51.1046C431.471 48.9607 437.092 60.9016 437.092 60.9016Z" fill="#EEA886"/>
<path d="M393.982 69.332C393.982 69.332 387.249 64.5949 379.355 66.0691C371.461 67.5432 370.611 71.2473 367.901 71.4168C365.191 71.5862 356.139 70.8061 348.709 72.9824C341.279 75.1586 335.012 75.3899 334.16 74.7685C333.307 74.1471 338.802 61.7193 338.802 60.0112L329.592 57.5902C329.592 57.5902 326.963 68.6192 325.931 71.1047C324.826 73.7625 322.714 78.7659 325.724 83.1156C328.734 87.4653 337.178 85.507 342.287 86.3812C347.396 87.2555 370.255 86.696 374.249 86.4808C378.583 86.2494 391.672 85.628 391.672 85.628L393.982 69.332Z" fill="#D9D3C8"/>
<path d="M449.283 44.7751C449.283 44.7751 449.712 51.4516 448.235 53.453C447.866 53.9858 447.443 54.4789 446.972 54.9244C446.593 55.2533 446.304 55.6748 446.133 56.1484C445.675 57.4315 445.396 59.2392 445.032 59.6239C444.667 60.0085 443.488 58.9756 443.072 58.9729C442.657 58.9702 438.604 62.4699 437.636 61.7597C436.669 61.0496 430.756 55.0347 431.251 50.8975C431.747 46.7603 433.562 40.6082 440.218 40.6459C446.873 40.6836 448.782 43.1153 449.283 44.7751Z" fill="#EEA886"/>
<path d="M429.168 76.6327C429.043 76.9017 426.595 80.8264 423.915 83.1021C422.802 84.049 421.65 84.7161 420.604 84.7161C420.285 84.7161 419.975 84.7162 419.674 84.7296C416.597 84.813 414.233 85.2864 410.081 85.4936C405.765 85.7088 395.298 85.1062 394.987 85.1062C394.676 85.1062 391.661 85.6442 391.661 85.6442C390.589 84.3234 393.441 69.4127 393.982 69.3347C394.524 69.2567 398.003 70.5775 401.335 70.0341C404.666 69.4908 405.977 69.1787 410.931 63.3549C415.884 57.531 420.848 56.0542 422.926 56.5196C425.003 56.9849 429.168 56.5196 429.168 56.5196C429.168 56.5196 429.351 76.2427 429.168 76.6327Z" fill="#FFC955"/>
<path d="M446.484 49.5552C446.484 49.5552 447.725 52.7832 448.382 53.2243C448.382 53.2243 450.776 50.685 449.24 44.4146C447.704 38.1442 441.903 37.5578 438.159 38.1926C433.5 38.9996 428.809 54.8087 429.045 56.3501C429.281 57.8915 434.508 48.1725 439.081 48.9553C443.654 49.7381 443.689 49.9936 446.484 49.5552Z" fill="#222538"/>
<path d="M436.612 60.8128C436.127 60.7815 435.641 60.8492 435.184 61.0119C434.987 61.0758 434.797 61.1606 434.618 61.2647C433.546 59.5915 432.557 55.6157 432.524 55.4839C433.235 57.028 436.612 60.8128 436.612 60.8128Z" fill="#A77860"/>
<path d="M423.915 83.1022C422.802 84.049 421.65 84.7162 420.604 84.7162C420.285 84.7162 419.975 84.7162 419.674 84.7296L421.191 72.3691L423.915 83.1022Z" fill="#C29941"/>
<path d="M447.993 104.391L445.029 107.102C442.466 105.722 436.044 101.085 434.808 100.028C433.511 98.9221 424.872 91.6671 423.684 90.0155C422.497 88.3638 420.972 71.2769 421.127 70.4941C421.283 69.7114 428.633 69.3267 429.474 71.1344C429.474 71.1344 429.857 80.8775 430.056 82.5077C430.245 84.1578 430.915 85.7155 431.98 86.9865C433.522 88.8857 436.805 93.2946 439.99 96.8588C440.74 97.7089 447.015 103.543 447.993 104.391Z" fill="#EEA886"/>
<path d="M430.072 71.3495C430.072 71.3495 430.535 58.3757 426.319 58.5344C421.001 58.7388 420.205 65.2594 420.926 72.361C420.939 72.361 428.884 72.439 430.072 71.3495Z" fill="#FFC955"/>
<path d="M446.562 103.118C446.798 103.482 447.136 103.767 447.533 103.939C448.522 104.275 449.985 103.63 450.709 104.929C451.433 106.228 447.945 109.48 447.007 109.679C446.069 109.878 444.571 108.412 443.399 105.529C442.228 102.645 446.562 103.118 446.562 103.118Z" fill="#EEA886"/>
<path d="M450.39 104.523C451.635 105.493 452.829 106.53 453.965 107.627C455.544 109.157 457.147 111.164 456.742 111.544C456.19 112.063 455.115 110.338 453.451 108.921C451.918 107.616 452.003 108.114 452.003 108.114C452.003 108.114 451.987 107.969 453.387 109.704C454.888 111.568 456.442 113.779 455.979 114.099C455.686 114.298 455.673 114.352 455.019 113.76C455.322 114.177 455.252 114.317 455.089 114.451C454.25 115.156 451.604 112.746 450.572 111.786C451.376 112.528 451.877 113.152 451.068 113.249C450.141 113.359 446.567 109.787 445.171 108.625C443.651 107.363 450.39 104.523 450.39 104.523Z" fill="#EEA886"/>
<path d="M397.008 69.94C397.008 69.94 395.588 80.1485 396.287 85.1735C396.287 85.1735 397.027 85.7249 398.501 85.2784C398.501 85.2784 398.869 74.131 399.694 70.174C399.694 70.1606 399.241 69.8163 397.008 69.94Z" fill="#E0E0E0"/>
<path d="M398.442 0H397.344V77.6468H398.442V0Z" fill="#E0E0E0"/>
<path d="M569.118 403.683H590.42V402.185H569.118V403.683Z" fill="white"/>
<path d="M569.118 411.306H590.42V405.006H569.118V411.306Z" fill="white"/>
<path d="M559.109 414.368H571.675V413.426H559.109V414.368Z" fill="white"/>
<path d="M559.109 417.329H571.675V414.779H559.109V417.329Z" fill="white"/>
<path d="M593.915 411.758H594.854V394.107H593.915V411.758Z" fill="white"/>
<path d="M15.8524 287.798H36.3311L30.0642 274.748H9.58276L15.8524 287.798Z" fill="#FCD9CD"/>
<path d="M6.26961 287.798H11.1481L4.88113 274.748H0L6.26961 287.798Z" fill="#FCD9CD"/>
<path d="M556.684 53.1598H579.393V44.3689H556.684V53.1598Z" fill="url(#paint6_linear)"/>
<path d="M556.684 41.9237H579.393V40.2693H556.684V41.9237Z" fill="#FDEEE5"/>
<path style="mix-blend-mode:hard-light" d="M217.38 229.788H69.3839C65.9361 229.788 63.1411 232.593 63.1411 236.053V237.637C63.1411 241.097 65.9361 243.902 69.3839 243.902H217.38C220.828 243.902 223.623 241.097 223.623 237.637V236.053C223.623 232.593 220.828 229.788 217.38 229.788Z" fill="url(#paint7_linear)"/>
<path d="M308.759 437.644H390.248L364.567 516.797L366.968 517.583L393.727 435.11H306.926L280.419 516.797L282.821 517.583L308.759 437.644Z" fill="#616587"/>
<path d="M336.494 516.797L310.81 437.644H392.299L418.238 517.583L420.639 516.797L394.135 435.11H307.331L334.093 517.583L336.494 516.797Z" fill="#616587"/>
<path d="M400.917 460.036H301.177V462.57H400.917V460.036Z" fill="#616587"/>
<path d="M410.234 487.557H290.902V490.091H410.234V487.557Z" fill="#616587"/>
<path d="M349.604 256.992C349.604 256.992 351.636 253.425 348.414 243.862C345.297 234.616 334.513 235.453 331.085 241.379C327.657 247.305 328.815 250.982 333.862 257.672C338.909 264.362 347.498 260.05 349.604 256.992Z" fill="#EEA886"/>
<path d="M324.542 421.496C324.542 421.496 324.006 425.421 323.942 426.013C323.877 426.604 318.004 425.663 318.004 425.663L317.527 420.99C317.527 420.99 323.808 420.942 324.542 421.496Z" fill="#EEA886"/>
<path d="M324.003 425.512C324.003 425.512 325.864 427.88 327.662 428.91C329.461 429.94 332.289 430.349 333.353 431.417C334.12 432.189 336.149 435.506 328.678 435.452C321.208 435.398 317.602 435.92 316.804 434.645C316.005 433.37 317.962 425.257 317.962 425.257C317.962 425.257 319.79 425.765 324.003 425.512Z" fill="#152B3D"/>
<path d="M365.189 421.496C365.189 421.496 364.653 425.421 364.588 426.013C364.524 426.604 358.651 425.663 358.651 425.663L358.182 420.985C358.182 420.985 364.454 420.942 365.189 421.496Z" fill="#EEA886"/>
<path d="M364.65 425.512C364.65 425.512 366.51 427.88 368.309 428.91C370.107 429.94 376.728 430.793 377.792 431.869C378.559 432.641 379.838 435.742 369.325 435.452C361.854 435.245 358.252 435.92 357.45 434.645C356.649 433.37 358.608 425.257 358.608 425.257C360.609 425.539 362.632 425.625 364.65 425.512Z" fill="#152B3D"/>
<path d="M326.517 323.72C326.517 323.72 323.507 333.108 323.904 341.205C324.301 349.302 322.347 358.152 321.551 366.596C320.661 376.011 317.018 398.319 316.887 403.36C316.755 408.401 317.452 424.49 317.452 424.49L324.74 424.665C324.74 424.665 330.862 385.676 332.449 381.698C334.036 377.719 341.898 349.358 342.163 346.173C342.429 342.988 326.517 323.72 326.517 323.72Z" fill="#FFC05C"/>
<path d="M356.745 322.744C356.745 322.744 361.171 347.561 361.699 352.514C362.227 357.466 362.581 376.474 362.843 379.567C363.106 382.661 364.604 420.06 366.014 424.657H357.887C357.887 424.657 349.54 397.472 349.54 384.608C349.54 371.745 344.013 356.632 340.445 348.156C336.878 339.68 328.71 339.467 326.507 323.72C326.518 323.72 353.775 317.748 356.745 322.744Z" fill="#FFC05C"/>
<path d="M346.656 259.518C346.656 259.518 345.739 262.208 346.656 264.107C347.573 266.006 334.94 264.871 334.94 264.871C334.94 264.871 335.511 260.919 333.867 257.672C332.224 254.426 346.656 259.518 346.656 259.518Z" fill="#EEA886"/>
<path d="M325.931 325.759C325.931 325.759 330.488 330.442 357.15 325.027L356.745 322.735L326.419 323.881L325.931 325.759Z" fill="#FFC05C"/>
<path d="M348.556 264.726C348.556 264.726 353.223 265.204 354.555 265.46C355.887 265.716 364.862 263.846 366.703 263.658C368.545 263.469 376.393 258.068 376.645 257.433C376.897 256.798 381.422 245.307 381.676 242.821C381.931 240.335 386.08 241.619 385.724 243.332C385.059 246.533 384.204 254.307 383.735 256.561C383.228 258.982 381.872 264.505 381.111 265.169C380.349 265.834 373.281 271.243 366.368 273.535C362.124 274.958 358.055 276.86 354.239 279.206H320.136C320.136 279.206 306.87 260.18 306.586 257.312C306.302 254.444 315.849 235.391 317.755 233.002C319.661 230.614 322.414 233.783 322.414 233.783C322.414 233.783 316.707 250.587 315.946 252.976C315.185 255.364 322.583 265.861 324.615 265.888C326.646 265.915 331.852 265.253 334.178 265.156C336.505 265.059 338.939 264.042 338.939 264.042L348.556 264.726Z" fill="#EEA886"/>
<path d="M363.253 277.436C363.253 277.436 359.077 280.22 358.696 284.997C358.316 289.775 356.793 297.326 356.016 299.905C355.239 302.485 356.683 321.213 356.874 322.552C357.064 323.892 330.487 327.069 326.405 323.897C326.405 323.897 325.263 306.413 324.797 301.441C324.33 296.47 322.036 284.433 321.275 282.808C320.513 281.183 311.276 268.182 310.896 266.469C310.896 266.469 315.675 258.824 319.101 258.73C319.101 258.73 324.545 265.132 326.322 265.417C328.099 265.702 338.976 263.703 338.976 263.687C338.976 263.671 340.164 265.301 346.482 263.399C346.482 263.399 354 264.249 355.223 264.405C356.702 264.596 366.998 263.109 366.998 263.109C366.998 263.109 371.126 270.103 370.405 273.643L363.253 277.436Z" fill="#254380"/>
<path d="M381.438 244.314C381.438 244.314 382.37 239.886 381.247 238.614C380.609 237.89 379.071 235.975 378.931 235.692C378.792 235.41 377.144 234.46 377.144 234.003C377.144 233.546 378.752 232.981 380.159 234.286C381.566 235.59 382.44 235.87 383 235.727C383.561 235.585 384.367 230.904 384.44 229.745C384.512 228.585 384.954 225.519 385.678 225.731C386.402 225.944 386.367 227.281 386.367 227.281C386.367 227.281 387.209 224.957 387.771 225.414C388.334 225.871 388.262 226.998 388.262 226.998C388.262 226.998 389.313 225.696 389.602 226.646C389.769 227.233 389.769 227.856 389.602 228.443C389.602 228.443 390.691 227.843 390.76 229.322C390.83 230.802 390.444 235.13 389.672 236.68C388.9 238.229 386.013 242.278 385.667 243.859C385.322 245.441 381.438 244.314 381.438 244.314Z" fill="#EEA886"/>
<path d="M321.484 236.537C321.484 236.537 324.655 231.184 325.735 230.708C326.815 230.232 328.338 229.96 329.67 229.002C331.002 228.045 332.766 227.251 332.669 226.934C332.573 226.616 331.005 226.743 329.321 227.472C327.638 228.201 326.909 227.851 326.743 227.472C326.577 227.093 327.641 224.389 328.147 223.752C328.654 223.114 332.272 219.464 331.669 218.923C331.066 218.382 328.721 220.386 328.338 220.806C328.338 220.806 330.214 216.857 329.479 216.666C328.745 216.475 327.386 217.877 327.386 217.877C327.386 217.877 327.544 214.501 323.926 219.977C323.926 219.977 324.687 218.162 323.577 218.767C322.467 219.372 321.387 222.78 321.039 224.502C320.69 226.224 319.103 231.701 317.755 233.021C316.407 234.342 321.484 236.537 321.484 236.537Z" fill="#EEA886"/>
<path d="M333.851 257.672C333.851 257.672 335.521 257.82 339.076 256.596C342.63 255.372 342.898 249.126 343.665 249.871C345.235 251.378 346.715 250.337 347.307 249.446C347.307 249.446 345.573 247.152 346.377 246.049C346.969 245.298 347.683 244.652 348.489 244.139C348.489 244.139 345.988 232.034 334.613 237.554C321.28 243.996 333.851 257.672 333.851 257.672Z" fill="#353A3D"/>
<path d="M346.656 264.107L346.254 262.358C346.254 262.358 338.992 262.21 335.031 262.786L334.613 264.876C334.613 264.876 339.687 267.184 346.656 264.107Z" fill="#254380"/>
<path d="M344.855 248.327C344.193 247.227 341.753 246.487 341.467 249.602C341.247 252.023 345.828 254.657 345.868 252.405C345.908 250.154 345.292 249.059 344.855 248.327Z" fill="#EEA886"/>
<path d="M381.609 243.308C381.609 243.308 384.231 243.372 385.501 244.526C385.543 244.973 385.47 245.423 385.289 245.834C385.289 245.834 383.016 244.758 381.269 244.572C381.277 244.572 381.304 243.614 381.609 243.308Z" fill="#E55353"/>
<path d="M384.7 243.964C384.787 244.171 384.811 244.398 384.769 244.618C384.727 244.838 384.621 245.041 384.464 245.201C384.307 245.36 384.107 245.469 383.888 245.515C383.669 245.56 383.442 245.539 383.235 245.455C383.029 245.37 382.851 245.226 382.726 245.041C382.601 244.855 382.533 244.636 382.532 244.412C382.531 244.188 382.596 243.969 382.719 243.782C382.841 243.595 383.017 243.448 383.223 243.362C383.498 243.245 383.809 243.243 384.085 243.356C384.362 243.469 384.583 243.688 384.7 243.964Z" fill="#353A3D"/>
<path d="M591.695 305.296C591.695 305.296 589.371 305.608 589.39 304.618C589.409 303.628 589.567 302.343 589.567 302.343L591.695 305.296Z" fill="#EEA987"/>
<path d="M604.769 294.585L597.135 300.503C598.108 300.317 599.737 300.083 599.772 300.594C599.826 301.323 596.872 302.208 595.934 302.864C595.076 303.472 594.176 304.556 593.937 304.608L592.267 306.041L589.568 302.356C589.568 302.356 594.023 297.296 595.098 296.217C596.843 294.461 603.906 293.431 604.294 293.686C604.991 294.133 604.769 294.585 604.769 294.585Z" fill="#EEA987"/>
<path d="M595.346 306.302L589.181 301.067L568.062 322.483C564.757 324.764 574.508 332.627 577.264 334.34C584.346 338.746 592.695 348.941 601.356 342.725C610.737 335.984 597.067 331.187 592.51 331.306C588.562 331.408 579.958 323.612 579.958 323.612L595.346 306.302Z" fill="#2F4563"/>
<path d="M584.198 498.484C584.198 498.484 580.69 502.18 577.127 502.955C573.565 503.729 571.075 504.717 571.048 506.839C571.021 508.961 581.298 510.36 585.375 508.219C591.46 505.029 592.076 505.989 592.752 504.394C593.427 502.799 591.947 498.532 591.985 498.024C592.039 497.397 584.198 498.484 584.198 498.484Z" fill="#202338"/>
<path d="M584.593 496.714C584.593 496.714 584.129 498.446 584.199 498.484C584.268 498.522 592.24 499.415 591.985 498.024C591.79 496.897 591.511 495.673 591.511 495.673L584.593 496.714Z" fill="#2F6B8C"/>
<path d="M623.834 499.447C623.834 499.447 621.253 503.049 617.8 503.88C614.396 504.687 612.19 506.258 612.024 508.319C611.858 510.379 620.049 513.083 625.804 509.459C629.586 507.078 630.999 507.216 631.76 505.693C632.521 504.171 631.361 499.942 631.436 499.45C631.532 498.855 623.834 499.447 623.834 499.447Z" fill="#202338"/>
<path d="M623.939 497.666C623.939 497.666 623.771 499.407 623.835 499.447C623.899 499.487 631.482 500.832 631.437 499.447C631.374 498.616 631.213 497.795 630.957 497.002L623.939 497.666Z" fill="#2F6B8C"/>
<path d="M592.621 392.684C592.621 392.684 588.935 419.549 587.429 428.63C585.67 439.25 585.072 448.022 584.582 453.518C583.965 460.431 583.145 495.807 582.706 497.83C582.266 499.853 593.441 498.799 593.441 498.799C593.441 498.799 599.29 452.681 601.128 445.319C602.841 438.465 607.829 408.856 609.387 410.725C610.944 412.595 615.731 446.139 616.892 451.546C618.053 456.953 621.149 499.511 621.149 499.511C621.149 499.511 631.683 501.206 633.803 499.511C633.803 499.511 632.141 461.561 631.391 451.425C631.123 447.562 633.825 405.181 627.316 388.089C623.896 379.059 592.621 392.684 592.621 392.684Z" fill="#877D78"/>
<path d="M603.444 328.253C603.444 328.253 593.693 330.278 592.535 331.306C591.278 332.401 589.05 343.12 588.93 346.101C588.809 349.081 590.106 361.558 591.363 366.203C592.621 370.849 592.634 390.951 591.841 397.378C591.841 397.378 610.625 401.235 629.93 398.723C629.93 398.723 627.298 379.177 628.072 372.813C629.061 364.659 631.444 345.875 631.444 345.875C631.444 345.875 631.46 335.3 629.965 333.608C626.764 329.982 614.453 328.258 614.453 328.258L603.444 328.253Z" fill="#FFC05C"/>
<path d="M618.077 347.863C618.533 357.547 621.605 359.892 624.628 359.139C625.631 358.862 626.554 358.353 627.325 357.652C628.611 356.527 629.619 354.962 629.981 353.504C631.303 348.11 631.321 333.245 624.534 331.333C624.534 331.333 617.185 328.944 618.077 347.863Z" fill="#2F4563"/>
<path d="M588.911 352.258C588.911 352.258 594.352 351.352 594.684 359.271C595.017 367.19 598.437 381.902 603.996 387.763L582.102 388.597C576.537 382.733 573.793 368.691 573.388 360.78C573.007 353.517 567.614 353.767 567.614 353.767L588.911 352.258Z" fill="#F5E1D9"/>
<path d="M601.683 334.122C601.811 334.21 601.946 334.288 602.085 334.356C602.686 334.649 603.334 334.831 603.999 334.894C604.287 334.925 604.577 334.936 604.867 334.929C605.044 334.929 605.224 334.929 605.403 334.897C610.566 334.391 615.691 328.465 615.691 328.465C605.326 326.889 600.882 328.826 600.882 328.826C600.882 328.826 599.222 332.457 601.683 334.122Z" fill="#2F4563"/>
<path d="M603.9 298.275C603.9 298.275 591.637 295.806 594.786 311.144C597.936 326.483 600.9 327.623 608.189 324.261C615.477 320.898 614.579 311.042 614.833 306.192C615.088 301.342 607.795 298.351 603.9 298.275Z" fill="#EEA886"/>
<path d="M601.898 330.372C601.898 330.372 604.31 331.973 613.466 327.927C612.951 324.114 613.12 320.24 613.965 316.487C615.324 310.725 602.721 323.591 602.721 323.591C602.868 323.693 602.895 324.282 602.812 325.103C602.788 325.326 602.758 325.563 602.718 325.81C602.654 326.232 602.565 326.69 602.45 327.155C602.418 327.282 602.388 327.408 602.353 327.534C601.836 329.498 601.898 328.656 601.898 330.372Z" fill="#EEA886"/>
<path d="M614.434 314.111C614.434 314.111 613.818 309.979 612.048 309.869C610.279 309.759 609.77 312.29 609.77 312.29L608.382 312.435C608.382 312.435 608.955 308.056 607.175 307.357C605.395 306.657 595.77 309.041 594.322 307.825C592.875 306.609 593.591 298.536 596.124 297.293C598.657 296.051 605.414 292.667 610.681 296.061C610.681 296.061 614.702 295.502 615.386 298.751C616.069 302.001 615.466 311.653 614.434 314.111Z" fill="#353A3D"/>
<path d="M609.829 308.422C610.127 306.98 613.046 306.695 613.086 308.901C613.126 311.107 611.263 314.819 610.205 314.337C609.146 313.856 609.416 310.426 609.829 308.422Z" fill="#EEA886"/>
<path d="M613.464 326.187C613.464 326.187 608.677 329.084 603.943 329.735L606.462 333.77L614.442 328.255L613.464 326.187Z" fill="#4B6F9E"/>
<path d="M602.372 327.534C602.372 327.534 602.876 329.194 603.956 329.735L601.592 333.046L601.678 328.656L602.372 327.534Z" fill="#4B6F9E"/>
<path d="M603.943 329.735L602.066 332.355C602.066 332.355 603.251 333.861 605.819 332.721L603.943 329.735Z" fill="white"/>
<path d="M602.085 334.367C602.686 334.66 603.334 334.842 603.999 334.905C604.287 334.935 604.577 334.947 604.867 334.94L604.599 332.497H602.868C602.528 333.084 602.265 333.713 602.085 334.367Z" fill="white"/>
<path d="M602.399 327.373C607.827 327.661 611.301 322.012 611.405 321.845C607.998 325.581 602.718 325.805 602.718 325.805C602.654 326.232 602.512 326.91 602.399 327.373Z" fill="#A77860"/>
<path d="M588.911 352.258C588.911 352.258 582.395 352.866 583.772 361.993L564.43 363.042C564.43 363.042 561.763 356.826 567.615 353.767L588.911 352.258Z" fill="#EDDAD3"/>
<path d="M566.303 359.764L581.407 358.948L581.364 358.158L566.26 358.974L566.303 359.764Z" fill="#C9BAB3"/>
<path d="M567.594 356.272L582.698 355.457L582.656 354.667L567.552 355.483L567.594 356.272Z" fill="#C9BAB3"/>
<path d="M590.765 362.432L575.661 363.248L575.703 364.037L590.807 363.222L590.765 362.432Z" fill="#C9BAB3"/>
<path d="M592.654 367.748L577.55 368.564L577.593 369.353L592.697 368.538L592.654 367.748Z" fill="#C9BAB3"/>
<path d="M594.552 373.045L579.448 373.861L579.491 374.651L594.595 373.835L594.552 373.045Z" fill="#C9BAB3"/>
<path d="M596.442 378.364L581.338 379.179L581.38 379.969L596.484 379.153L596.442 378.364Z" fill="#C9BAB3"/>
<path d="M598.339 383.661L583.235 384.477L583.278 385.266L598.382 384.451L598.339 383.661Z" fill="#C9BAB3"/>
<path d="M605.677 369.315C605.677 369.315 604.836 369.714 604.109 369.515C602.852 369.17 601.78 367.419 600.137 368.317C598.494 369.216 599.869 375.255 600.708 376.14C601.547 377.025 604.104 376.509 607.302 374.206C610.499 371.903 605.677 369.315 605.677 369.315Z" fill="#EEA886"/>
<path d="M600.734 368.097C598.774 368.258 596.824 368.528 594.893 368.904C592.213 369.442 588.945 370.483 589.071 371.163C589.264 372.196 591.84 371.034 594.54 370.682C597.024 370.359 596.588 370.846 596.588 370.846C596.588 370.846 596.705 370.701 594.065 371.588C591.227 372.541 588.216 373.684 588.31 374.244C588.426 374.938 588.498 375.013 589.583 374.838C588.98 375.075 588.959 375.277 589.034 375.54C589.417 376.909 593.805 376.167 595.548 375.874C594.207 376.108 593.256 376.425 594.03 377.111C594.915 377.894 601.072 376.573 603.324 376.304C605.779 376.024 600.734 368.097 600.734 368.097Z" fill="#EEA886"/>
<path d="M622.371 331.524C620.379 332.18 619.315 335.005 620.529 340.869C621.87 347.354 623.368 350.507 624.234 352.035C625.1 353.563 629.766 361.383 628.911 362.623C628.056 363.863 616.779 366.806 616.01 367.024C614.482 367.459 604.246 369.509 604.246 369.509L606.752 378.305C606.752 378.305 637.912 372.971 639.429 371.449C640.947 369.926 641.737 367.863 640.062 362.547C638.355 357.143 635.291 344.489 634.747 343.502C634.202 342.515 631.35 328.562 622.371 331.524Z" fill="#2F4563"/>
<path d="M620.806 342.149C620.806 342.149 621.505 352.083 624.628 359.139C625.631 358.862 626.554 358.352 627.325 357.652C627.325 357.652 623.719 351.12 623.398 350.389C623.076 349.657 621.17 343.876 620.806 342.149Z" fill="#1E2C40"/>
<g style="mix-blend-mode:hard-light">
<path style="mix-blend-mode:hard-light" d="M213.241 253.04H72.6754C67.6643 253.04 63.6021 257.117 63.6021 262.146V357.487C63.6021 362.516 67.6643 366.593 72.6754 366.593H213.241C218.253 366.593 222.315 362.516 222.315 357.487V262.146C222.315 257.117 218.253 253.04 213.241 253.04Z" fill="url(#paint8_linear)"/>
</g>
<path d="M181.245 274.326H176.283V302.006H181.245V274.326Z" fill="url(#paint9_linear)"/>
<path d="M189.956 266.945H184.995V302.004H189.956V266.945Z" fill="url(#paint10_linear)"/>
<path d="M199.1 270.805H194.138V302.004H199.1V270.805Z" fill="url(#paint11_linear)"/>
<path d="M208.492 279.771H203.53V302.006H208.492V279.771Z" fill="url(#paint12_linear)"/>
<path d="M181.245 284.451H176.283V302.006H181.245V284.451Z" fill="#007BDE"/>
<path d="M189.956 279.771H184.995V302.006H189.956V279.771Z" fill="#007BDE"/>
<path d="M199.1 282.219H194.138V302.006H199.1V282.219Z" fill="#007BDE"/>
<path d="M208.492 288.166H203.53V302.006H208.492V288.166Z" fill="#007BDE"/>
<path d="M205.173 311.483H179.602C178.521 311.483 177.645 312.362 177.645 313.447V317.409C177.645 318.494 178.521 319.373 179.602 319.373H205.173C206.254 319.373 207.13 318.494 207.13 317.409V313.447C207.13 312.362 206.254 311.483 205.173 311.483Z" fill="white"/>
<path d="M205.173 326.257H179.602C178.521 326.257 177.645 327.136 177.645 328.22V332.183C177.645 333.267 178.521 334.146 179.602 334.146H205.173C206.254 334.146 207.13 333.267 207.13 332.183V328.22C207.13 327.136 206.254 326.257 205.173 326.257Z" fill="white"/>
<path d="M205.173 341.03H179.602C178.521 341.03 177.645 341.909 177.645 342.994V346.956C177.645 348.041 178.521 348.92 179.602 348.92H205.173C206.254 348.92 207.13 348.041 207.13 346.956V342.994C207.13 341.909 206.254 341.03 205.173 341.03Z" fill="white"/>
<path d="M163.39 293.883C159.478 282.904 151.38 273.935 140.878 268.948C130.376 263.961 118.33 263.366 107.39 267.292C96.4504 271.218 87.513 279.345 82.544 289.885C77.5749 300.424 76.9813 312.513 80.8938 323.491C81.2235 324.422 81.5853 325.337 81.966 326.232C86.4925 336.704 94.8994 344.998 105.409 349.361C115.919 353.724 127.707 353.815 138.282 349.613C148.857 345.412 157.39 337.248 162.075 326.847C166.761 316.447 167.233 304.626 163.39 293.883ZM133.203 339.723C125.36 342.548 116.739 342.271 109.092 338.95C101.444 335.629 95.3426 329.511 92.0257 321.84C91.7362 321.171 91.4682 320.486 91.2216 319.785C89.0346 313.646 88.7105 306.995 90.2902 300.672C91.8699 294.349 95.2825 288.638 100.096 284.261C104.91 279.884 110.909 277.038 117.335 276.083C123.761 275.127 130.324 276.106 136.196 278.894C142.067 281.682 146.983 286.155 150.322 291.747C153.66 297.339 155.272 303.799 154.952 310.31C154.632 316.821 152.396 323.091 148.525 328.326C144.655 333.561 139.325 337.528 133.208 339.723H133.203Z" fill="white"/>
<path d="M90.79 298.859L80.3228 295.58C83.0468 286.853 88.4109 279.193 95.6703 273.665C102.93 268.137 111.724 265.015 120.833 264.731L121.16 275.73C114.33 275.944 107.737 278.286 102.294 282.431C96.852 286.577 92.8311 292.321 90.79 298.864V298.859Z" fill="#1A598C"/>
<path d="M92.0255 321.84L81.971 326.232C81.5851 325.337 81.2232 324.422 80.8989 323.491C77.6786 314.5 77.478 304.699 80.3279 295.583L90.7898 298.859C88.6513 305.693 88.801 313.041 91.216 319.782C91.4662 320.483 91.736 321.169 92.0255 321.84Z" fill="#2273B5"/>
<path d="M88.7635 337.175C85.9735 333.884 83.6845 330.197 81.9712 326.232L92.0256 321.84C93.3096 324.813 95.0259 327.579 97.1185 330.047L88.7635 337.175Z" fill="#3788CC"/>
<path d="M208.076 495.202C208.076 495.202 206.468 498.207 205.423 499.401C204.377 500.596 200.356 502.726 200.33 506.269C200.306 510.113 207.101 509.045 209.757 508.905C212.413 508.765 212.617 506.713 213.735 504.536C214.852 502.36 215.981 502.729 216.193 500.975C216.404 499.221 215.12 495.202 215.12 495.202H208.076Z" fill="#202338"/>
<path d="M215.029 494.043C215.029 494.043 215.34 495.681 215.281 495.721C215.222 495.762 207.749 497.099 207.792 495.737C207.824 494.661 208.481 493.397 208.481 493.397L215.029 494.043Z" fill="#81807E"/>
<path d="M283.445 352.769C283.445 352.769 291.283 351.115 291.87 351.457C292.457 351.798 292.492 352.242 291.763 352.428C291.034 352.613 284.223 354.254 284.223 354.254C284.223 354.254 293.727 353.907 294.272 354.074C294.591 354.171 294.711 355.023 294.328 355.15C293.945 355.276 284.515 356.194 284.515 356.194C284.515 356.194 293.387 355.887 293.794 356.172C293.887 356.259 293.952 356.37 293.983 356.493C294.014 356.616 294.009 356.745 293.969 356.865C293.929 356.985 293.855 357.091 293.757 357.17C293.658 357.25 293.539 357.299 293.414 357.313C292.754 357.383 284.507 358.155 284.507 358.155C284.507 358.155 290.956 358.354 291.154 358.816C291.275 359.085 291.422 359.828 289.752 359.72C288.082 359.613 284.123 359.796 284.123 359.796L283.445 352.769Z" fill="#EEA886"/>
<path d="M248.564 494.635C248.564 494.635 251.837 498.301 255.164 499.07C258.49 499.84 260.811 500.819 260.838 502.925C260.865 505.031 251.272 506.422 247.465 504.294C241.788 501.128 241.212 502.083 240.582 500.499C239.952 498.914 241.338 494.683 241.298 494.177C241.247 493.556 248.564 494.635 248.564 494.635Z" fill="#202338"/>
<path d="M248.195 492.878C248.195 492.878 248.629 494.597 248.565 494.634C248.5 494.672 241.059 495.557 241.298 494.177C241.48 493.061 241.74 491.845 241.74 491.845L248.195 492.878Z" fill="#81807E"/>
<path d="M241.442 389.985C241.442 389.985 244.144 416.31 245.549 425.321C247.192 435.858 247.747 444.563 248.205 450.018C248.782 456.878 248.894 490.618 249.296 492.622C249.698 494.627 240.349 493.177 240.349 493.177C240.349 493.177 235.749 449.09 234.034 441.798C232.425 434.995 226.507 405.708 225.049 407.567C223.591 409.426 221.784 441.73 220.704 447.11C219.624 452.49 216.34 494.473 216.34 494.473C216.34 494.473 208.899 495.961 206.921 494.28C206.921 494.28 206.02 458.086 206.706 448.028C206.974 444.194 202.233 402.072 208.315 385.111C211.518 376.132 241.442 389.985 241.442 389.985Z" fill="#292C47"/>
<path d="M195.151 393.725C195.151 393.725 199.708 395.113 201.611 394.76C203.514 394.408 202.554 370.924 202.629 366.036C202.688 362.074 204.849 351.607 204.849 351.607C204.848 351.614 204.848 351.62 204.849 351.626C204.849 351.626 204.849 351.626 204.849 351.645C205.063 352.428 207.98 363.287 208.082 368.506C208.189 373.921 207.379 394.637 207.379 394.637L215.421 395.422L238.524 395.99L243.348 395.419C243.348 395.419 242.772 386.561 242.558 382.354C242.426 379.68 241.909 374.892 242.04 370.227C242.04 370.227 241.957 365.313 242.442 363.196C242.496 353.851 243.059 344.597 243.059 344.597C243.373 340.361 243.591 336.396 243.713 332.702C242.694 332.164 241.472 331.529 240.496 331.061C237.462 329.614 233.238 327.661 230.528 326.413C228.938 325.681 227.386 325.146 227.386 325.146C227.386 325.146 216.549 324.105 215.67 324.159C215.402 324.177 214.037 324.651 212.26 325.331C208.419 326.792 201.002 329.773 199.831 330.623C198.099 331.865 194.443 361.402 194.277 363.47C193.974 367.207 195.151 393.725 195.151 393.725Z" fill="#CAC7D1"/>
<path d="M242.654 391.729C242.654 391.729 226.797 393.073 212.901 391.729V396.301C212.901 396.301 233.76 399.325 243.343 395.43L242.654 391.729Z" fill="#1D2033"/>
<path d="M229.128 325.821C229.128 325.821 231.707 331.903 233.642 345.496C234.387 350.717 235.765 359.505 236.765 368.476C237.569 375.546 239.36 382.803 239.931 388.215C240.526 393.824 242.314 410.343 242.314 410.343L246.651 407.597C247.27 407.024 248.138 406.276 247.886 405.469C246.693 401.604 244.402 388.829 243.061 377.692C243.061 377.692 243.061 377.692 243.061 377.668C242.997 377.13 242.935 376.598 242.874 376.073V375.987C242.606 373.762 242.407 371.626 242.257 369.673C242.161 368.205 242.226 366.731 242.45 365.278C243.056 355.282 243.356 344.745 243.356 344.745C243.673 340.441 243.855 336.406 243.978 332.64C242.917 331.922 241.799 331.292 240.636 330.757C240.636 330.757 230.94 326.348 229.128 325.821Z" fill="#323657"/>
<path d="M228.314 328.987C228.314 328.987 228.603 333.151 225.097 333.248C221.591 333.345 218.806 329.963 218.806 329.963L224.628 331.47L228.18 328.449L228.314 328.987Z" fill="#CAC7D1"/>
<path d="M274.648 356.129C274.648 356.129 277.202 355.416 277.543 353.883C277.835 352.578 279.1 351.059 279.489 350.59C280.009 349.964 280.952 347.459 281.679 348.094C282.405 348.729 280.309 352.29 280.009 353.119C279.709 353.948 283.247 352.492 284.064 352.748C284.882 353.003 286.536 359.134 284.011 359.847C281.486 360.559 278.433 359.605 278.009 359.822C277.415 360.056 276.807 360.254 276.189 360.417L274.648 356.129Z" fill="#EEA886"/>
<path d="M223.577 297.113C223.577 297.113 231.619 298.474 230.26 311.117C228.901 323.76 221.792 322.644 221.318 322.625C220.843 322.606 214.174 322.779 213.812 307.322C213.823 307.322 213.718 295.9 223.577 297.113Z" fill="#EEA987"/>
<path d="M227.108 318.961C227.108 318.961 227.108 324.169 227.319 325.296C227.547 326.507 220.857 330.009 216.539 325.928C216.539 325.928 217.412 320.242 217.142 318.235C216.871 316.228 227.108 318.961 227.108 318.961Z" fill="#EEA987"/>
<path d="M230.292 308.172C230.292 308.172 231.184 307.236 231.498 308.196C231.812 309.156 230.364 313.221 230.179 313.614C230.179 313.614 230.013 313.982 229.804 313.775C229.595 313.568 230.292 308.172 230.292 308.172Z" fill="#EEA987"/>
<path d="M213.914 307.198C213.914 307.198 213.062 306.224 212.708 307.171C212.354 308.118 213.643 312.374 213.804 312.637C213.804 312.637 214.072 313.073 214.297 312.877C214.523 312.68 213.914 307.198 213.914 307.198Z" fill="#EEA987"/>
<path d="M230.938 306.469C230.67 308.199 230.402 309.484 230.402 309.484L229.23 311.02C229.23 311.02 229.3 307.626 229.12 307.093C229.053 306.891 228.973 306.534 228.89 306.146C228.756 305.506 228.622 304.785 228.525 304.532C228.372 304.148 221.628 302.17 215.622 304.946C215.622 304.946 215.673 305.468 215.667 306.052C215.667 306.73 215.592 307.488 215.281 307.601C214.705 307.814 214.946 311.575 214.946 311.575L214.011 310.499C214.011 310.499 213.743 308.535 213.475 306.278C213.475 306.273 213.475 306.267 213.475 306.262C213.416 305.724 213.354 305.186 213.295 304.648C213.161 302.378 213.386 298.254 216.332 295.833C218.318 294.977 221.494 294.251 226.786 295.878C226.786 295.878 228.104 296.255 228.445 296.583C231.731 300.231 230.938 306.469 230.938 306.469Z" fill="#353A3D"/>
<path d="M217.691 320.936C217.691 320.936 218.975 322.725 221.958 322.657C224.941 322.59 226.247 321.027 226.247 321.027C226.247 321.027 224.834 323.986 221.958 323.962C219.082 323.938 217.691 320.936 217.691 320.936Z" fill="#C78D71"/>
<path d="M227.628 329.256L224.625 331.483C224.625 331.483 227.148 326.119 227.199 323.97L227.628 329.256Z" fill="#A09EA6"/>
<path d="M227.198 323.962L229.241 325.867L231.388 332.296L227.627 329.248L227.198 323.962Z" fill="#EAE6F2"/>
<path d="M278.036 362.074C278.036 362.074 260.321 366.757 255.989 365.687C253.987 365.192 251.35 362.418 248.843 359.158C248.018 358.082 247.208 356.958 246.431 355.841C243.356 351.387 240.947 347.118 240.947 347.118C240.947 347.118 231.86 336.43 239.153 331.664C239.153 331.664 242.225 331.354 243.978 332.648C245.587 333.842 249.519 341.366 250.143 342.762C250.768 344.159 257.686 357.108 258.147 357.399C258.608 357.689 264.532 356.627 267.66 356.366C270.821 356.088 273.948 355.51 276.999 354.639L278.036 362.074Z" fill="#323657"/>
<path d="M226.813 325.88C226.242 327.804 225.51 329.675 224.626 331.475C224.626 331.475 221.476 328.707 220.484 327.709C219.492 326.711 226.813 325.88 226.813 325.88Z" fill="#EEA987"/>
<path d="M221.328 328.379L224.625 331.475C224.625 331.475 220.728 331.206 220.001 330.566L221.328 328.379Z" fill="#A09EA6"/>
<path d="M216.956 322.674C216.956 322.674 219.594 326.978 221.328 328.379L218.404 333.253L213.705 324.705L216.956 322.674Z" fill="#EAE6F2"/>
<path d="M202.959 366.26C202.624 370.795 204.535 395.89 202.629 396.242C200.723 396.595 193.709 395.048 193.709 395.048C193.709 395.048 192.83 367.984 193.111 365.149C193.317 363.083 196.596 332.113 198.322 330.867C199.322 330.149 206.722 327.516 210.354 326.079C211.019 325.81 213.121 324.93 213.716 324.705C214.485 325.565 221.197 341.383 221.835 353.695C222.028 357.461 221.154 365.372 220.494 371.844C219.784 378.749 218.996 384.14 218.417 389.913C217.281 401.292 216.485 410.357 216.485 410.357L205.203 405.316C203.377 404.398 200.847 400.635 201.536 398.706C204.144 391.373 207.433 378.849 207.433 372.414C207.433 372.414 206.175 356.659 205.178 353.197C205.168 353.197 203.388 360.492 202.959 366.26Z" fill="#323657"/>
<path d="M231.364 392.011H223.891V397.587H231.364V392.011Z" fill="#3A4066"/>
<path d="M207.138 421.458H182.547L188.316 405.025H212.906L207.138 421.458Z" fill="#EDDAD3"/>
<path d="M207.138 421.458H182.547L188.316 405.025H212.906L207.138 421.458Z" fill="#F2DFD8"/>
<path d="M188.316 437.892H212.906L207.138 421.458H182.547L188.316 437.892Z" fill="#D6C5BE"/>
<path d="M207.138 454.325H182.547L188.316 437.892H212.906L207.138 454.325Z" fill="#F2DFD8"/>
<path d="M188.316 470.761H212.906L207.138 454.325H182.547L188.316 470.761Z" fill="#D6C5BE"/>
<path d="M203.782 407.769H189.758V408.377H203.782V407.769Z" fill="#C9BAB3"/>
<path d="M202.948 409.975H188.924V410.583H202.948V409.975Z" fill="#C9BAB3"/>
<path d="M199.362 412.181H188.015V412.789H199.362V412.181Z" fill="#C9BAB3"/>
<path d="M203.782 440.523H189.758V441.13H203.782V440.523Z" fill="#C9BAB3"/>
<path d="M195.936 442.728H188.924V443.336H195.936V442.728Z" fill="#C9BAB3"/>
<path d="M201.225 396.554C201.225 396.554 201.356 396.974 201.589 397.679C201.986 398.895 203.272 400.28 202.482 401.94C201.691 403.599 195.738 402.553 194.832 401.781C193.926 401.009 194.296 398.47 196.378 395.212C198.461 391.954 201.225 396.554 201.225 396.554Z" fill="#EEA886"/>
<path d="M202.667 401.348C202.605 403.279 202.44 405.205 202.171 407.118C201.785 409.781 200.938 413.036 200.268 412.942C199.252 412.807 200.252 410.222 200.455 407.562C200.643 405.106 200.187 405.561 200.187 405.561C200.187 405.561 200.324 405.437 199.595 408.073C198.812 410.908 197.855 413.918 197.306 413.857C196.625 413.779 196.545 413.711 196.66 412.635C196.461 413.24 196.266 413.27 196.003 413.211C194.663 412.904 195.148 408.563 195.346 406.838C195.186 408.162 194.926 409.117 194.218 408.39C193.414 407.562 194.392 401.456 194.532 399.244C194.687 396.799 202.667 401.348 202.667 401.348Z" fill="#EEA886"/>
<path d="M203.251 378.946L203.136 398.889C203.136 398.889 199.169 398.712 193.703 396.686L193.333 368.562L203.251 378.946Z" fill="#323657"/>
<path d="M171.483 369.784L157.684 400.988L157.311 401.824C156.794 401.879 156.272 401.825 155.778 401.665L156.083 400.977L169.754 370.082L149.841 348.592L146.849 347.938L147.163 346.499L150.602 347.252L171.483 369.784Z" fill="url(#paint13_linear)"/>
<path d="M150.232 407.01H163.004C162.978 406.747 162.932 406.486 162.865 406.23C162.479 404.708 161.08 401.488 156.11 401.488C151.14 401.488 150.331 404.716 150.229 406.23C150.209 406.49 150.21 406.751 150.232 407.01Z" fill="url(#paint14_linear)"/>
<path d="M137.223 341.678L138.087 344.132L143.316 359.002C144.465 358.613 145.525 357.998 146.436 357.194C147.346 356.39 148.088 355.413 148.619 354.318C149.149 353.224 149.458 352.035 149.527 350.82C149.596 349.605 149.424 348.388 149.02 347.241C148.616 346.093 147.99 345.038 147.176 344.135C146.362 343.233 145.378 342.501 144.281 341.984C143.183 341.466 141.994 341.173 140.783 341.12C139.571 341.068 138.361 341.258 137.223 341.678Z" fill="url(#paint15_linear)"/>
<path d="M158.005 400.982V401.665C157.78 401.74 157.547 401.79 157.311 401.816C156.794 401.871 156.272 401.817 155.778 401.657L155.689 401.625V400.966H156.075H157.683L158.005 400.982Z" fill="#FFA855"/>
<path d="M150.232 407.011H163.004C162.978 406.747 162.932 406.486 162.865 406.23H150.229C150.209 406.49 150.21 406.751 150.232 407.011Z" fill="#FFA555"/>
<path d="M137.223 341.678L138.087 344.132C141.14 346.553 145.876 350.719 148.173 354.972C149.119 353.348 149.546 351.471 149.394 349.596C149.243 347.72 148.521 345.936 147.327 344.486C146.132 343.036 144.522 341.989 142.715 341.486C140.908 340.984 138.991 341.051 137.223 341.678Z" fill="#FFA855"/>
<path d="M94.13 367.992C94.13 367.992 96.3574 365.167 96.7086 364.748C97.0597 364.328 98.4401 363.941 100.059 363.626C101.678 363.311 103.948 363.701 104.133 363.927C104.299 364.068 104.432 364.243 104.525 364.441C104.617 364.638 104.667 364.853 104.669 365.071C104.698 365.591 104.607 366.111 104.401 366.591C104.545 366.863 104.623 367.166 104.629 367.474C104.636 367.782 104.571 368.087 104.439 368.366C104.563 368.656 104.606 368.974 104.564 369.287C104.522 369.599 104.396 369.895 104.2 370.141C104.2 370.141 104.61 371.01 104.069 371.618C104.069 371.618 102.686 372.019 102.206 372.331C101.726 372.643 98.802 373.259 95.9339 373.377C95.9446 373.385 93.2454 372.484 94.13 367.992Z" fill="#EEA886"/>
<path d="M29.9248 455.151L17.2462 508.203H14.4531L25.2045 455.035L29.9248 455.151Z" fill="#858585"/>
<path d="M43.756 455.151L31.0775 508.203H28.2844L39.0357 455.035L43.756 455.151Z" fill="#858585"/>
<path d="M66.127 455.151L78.8082 508.203H81.5986L70.8472 455.035L66.127 455.151Z" fill="#858585"/>
<path d="M78.1274 455.667H23.4942C23.4942 455.667 19.6907 455.578 17.1415 444.264C14.2761 431.541 8.48364 389.033 8.48364 389.033C8.48364 389.033 10.0195 385.079 34.0365 385.585L77.0445 441.582C77.0445 441.582 78.5107 450.411 78.1274 455.667Z" fill="#E2D2CA"/>
<path d="M79.8105 402.618C79.8105 402.618 82.5929 401.405 84.681 401.894C86.769 402.384 91.6502 404.213 94.0626 404.52C96.475 404.826 98.7802 406.23 98.7346 407.037C98.6891 407.844 80.0866 408.501 79.9982 406.666C79.9097 404.832 79.8105 402.618 79.8105 402.618Z" fill="#EEA886"/>
<path d="M94.13 367.992C94.13 367.992 90.4953 370.392 90.4175 371.126C90.2862 372.342 91.034 376.118 91.1252 376.065C91.2163 376.011 96.604 373.342 96.604 373.342L94.13 367.992Z" fill="#EEA886"/>
<path d="M94.0546 499.17C94.0546 499.17 98.7347 501.954 100.858 503C102.981 504.047 111.226 504.345 112.038 505.136C112.85 505.927 112.547 508.391 111.18 508.633C109.813 508.875 99.7854 509.766 96.4375 508.975C93.0896 508.184 86.8361 509.486 85.4476 509.01C84.0592 508.534 84.9759 501.042 85.5147 499.361C86.0534 497.68 94.0546 499.17 94.0546 499.17Z" fill="#292C47"/>
<path d="M93.9825 495.998L94.0548 499.17C94.0548 499.17 87.7826 500.329 85.5203 499.366L85.6784 495.869L93.9825 495.998Z" fill="#1C1E30"/>
<path d="M105.015 499.17C105.015 499.17 109.703 501.954 111.818 503C113.933 504.047 122.183 504.345 122.998 505.136C123.813 505.927 123.505 508.391 122.138 508.633C120.771 508.875 110.743 509.766 107.395 508.975C104.047 508.184 97.794 509.486 96.4055 509.01C95.017 508.534 95.9337 501.042 96.4752 499.361C97.0166 497.68 105.015 499.17 105.015 499.17Z" fill="#323657"/>
<path d="M104.943 495.998L105.015 499.17C105.015 499.17 98.7455 500.329 96.4832 499.366L96.6413 495.869L104.943 495.998Z" fill="#1C1E30"/>
<path d="M68.1078 422.179L60.9858 420.931L65.7356 408.931L68.1078 422.179Z" fill="#24263D"/>
<path d="M46.7713 424.638C46.7713 424.638 82.5609 432.264 88.147 434.648C93.733 437.031 97.0809 438.01 97.5018 439.199C97.9226 440.388 106.647 497.354 106.647 497.354H94.7784C94.7784 497.354 85.563 454.341 84.4452 451.673C83.3275 449.004 39.065 448.87 35.8538 445.647C32.6426 442.424 29.8496 433.596 33.3395 425.679C36.8295 417.762 46.7713 424.638 46.7713 424.638Z" fill="#282B45"/>
<path d="M64.8965 420.633C64.8965 420.633 105.95 432.221 109.301 437.518C112.721 442.914 95.6307 497.354 95.6307 497.354H83.8876C83.8876 497.354 95.1965 446.346 93.8053 444.092C92.4141 441.838 30.5464 444.022 42.0724 425.666C53.5984 407.309 64.8965 420.633 64.8965 420.633Z" fill="#282B45"/>
<path d="M60.6293 363.389C62.1732 362.582 67.3304 364.35 68.8476 366.728C72.3831 372.256 79.0682 379.083 79.0682 379.083L93.9742 366.51L96.9602 374.004L79.2692 388.969C78.5417 389.584 77.6123 389.906 76.6614 389.873C75.7104 389.84 74.8057 389.453 74.1227 388.788C69.4748 384.258 59.9163 374.738 59.1711 372.358C58.1954 369.205 57.6781 364.931 60.6293 363.389Z" fill="#323657"/>
<path d="M55.5847 331.37C55.5847 331.37 62.7067 332.562 62.7764 344.683C62.8461 356.804 58.2652 357.948 51.3282 356.172C47.1493 355.096 43.2278 349.178 44.7637 338.727C46.2996 328.277 55.5847 331.37 55.5847 331.37Z" fill="#EEA987"/>
<path d="M56.5175 360.307C56.5175 360.307 66.3333 363.884 67.7996 366.125C69.2658 368.366 68.3169 388.544 67.4806 395.761C66.6443 402.978 64.3391 418.532 64.8966 420.633L42.0671 425.679C42.0671 425.679 34.7361 398.914 34.527 394.639C34.3179 390.365 28.9409 370.467 31.5249 368.855C34.1088 367.244 45.348 360.936 45.348 360.936L56.5175 360.307Z" fill="#EDDAD3"/>
<path d="M42.0672 425.676L40.9495 421.545L64.9477 416.853L64.8967 420.633L42.0672 425.676Z" fill="#1F2136"/>
<path d="M54.0059 418.776L59.6938 417.585V422.104L54.0059 423.436V418.776Z" fill="#4F558A"/>
<path d="M51.4542 407.013C51.3925 408.194 51.3148 409.391 51.2558 410.604L51.2397 410.62C50.4356 423.917 49.2187 437.83 49.2187 437.83C47.5514 439.226 26.408 434.298 26.408 434.298C26.408 434.298 29.008 430.752 31.5169 420.923C34.0258 411.094 32.0691 401.684 29.4503 385.716C26.8315 369.749 29.008 369.845 29.008 369.845L45.3588 360.939C46.431 365.022 50.7599 379.839 51.7919 388.331C52.143 391.427 51.9125 398.844 51.4542 407.013Z" fill="#323657"/>
<path d="M56.6755 360.336C56.6755 360.336 61.4334 372.67 63.4544 385.251C65.513 398.077 65.4112 421.297 67.644 421.867C69.8768 422.438 69.1853 422.056 69.1853 422.056C69.1853 422.056 68.7671 408.025 68.5634 403.374C68.1077 392.993 70.0376 369.593 69.145 367.228C68.2524 364.864 61.8435 361.267 56.6755 360.336Z" fill="#323657"/>
<path d="M56.2898 358.399C56.2636 359.042 56.3405 359.686 56.5176 360.304C56.5176 360.304 55.2632 365.216 45.3481 360.933C45.3481 360.933 47.3076 353.609 45.3481 347.467L56.5176 354.424C56.5176 354.424 56.3809 355.529 56.3193 356.818C56.2898 357.34 56.2737 357.894 56.2898 358.399Z" fill="#EEA987"/>
<path d="M45.7529 358.986C45.7529 358.986 49.6503 360.869 53.5825 361.243L51.666 365.334L45.3481 360.936L45.7529 358.986Z" fill="#D6C5BF"/>
<path d="M53.5823 361.243C53.5823 361.243 56.3244 360.331 56.3056 358.986L56.6755 360.331L55.5578 364.635L53.5823 361.243Z" fill="#D6C5BF"/>
<path d="M61.924 338.383C61.924 338.383 63.9182 334.079 62.4601 330.945C61.0019 327.812 57.2493 329.105 55.5257 329.477C53.8022 329.848 50.5454 326.02 44.7744 330.692C39.0033 335.365 40.7242 340.269 43.284 346.106C45.8439 351.943 46.1763 352.39 46.1763 352.39C46.1763 352.39 46.195 346.472 46.8919 345.412C47.7095 344.177 50.7063 343.529 50.7063 343.529C50.7063 343.529 48.4252 340.401 50.6607 339.225C52.8962 338.05 57.5119 340.234 61.924 338.383Z" fill="#16202E"/>
<path d="M47.766 342.324C47.4631 341.428 45.9593 340.411 45.2061 342.09C44.4529 343.769 46.4177 346.714 47.4872 346.714C48.5567 346.714 48.4655 344.379 47.766 342.324Z" fill="#EEA987"/>
<path d="M53.5824 361.243L55.0137 363.712C55.0137 363.712 54.3517 364.476 52.2234 364.143L53.5824 361.243Z" fill="#007FE6"/>
<path d="M54.7082 363.93C54.7082 363.93 60.5677 381.232 60.6053 393.52C60.6428 405.808 59.6859 413.138 59.6859 413.138L58.3966 415.559L56.5202 413.348C56.5202 413.348 57.8605 377.676 52.6389 364.199C52.6362 364.196 54.4858 363.309 54.7082 363.93Z" fill="#007FE6"/>
<path d="M30.8225 368.855C35.1112 367.099 39.5528 373.057 41.9277 379.013C44.3025 384.969 48.8379 395.807 48.8379 395.807L80.5424 400.961L80.99 407.011H43.9997C43.9997 407.011 29.9085 381.676 28.9301 378.523C27.9517 375.371 27.7427 370.114 30.8225 368.855Z" fill="#323657"/>
<path d="M174.292 407.011H69.7537V410.623H174.292V407.011Z" fill="#E2D2CA"/>
<path d="M133.527 343.761H131.01V399.764H133.527V343.761Z" fill="#6E6760"/>
<path d="M137.183 407.01H156.022V405.865H137.183C136.202 405.865 135.495 405.631 135.084 405.168C134.781 404.8 134.631 404.329 134.666 403.852V379.355H133.524V403.769C133.467 404.549 133.715 405.321 134.216 405.921C134.857 406.642 135.854 407.01 137.183 407.01Z" fill="#918880"/>
<path d="M131.399 407.01H110.197V406.846C110.197 406.358 110.39 405.89 110.733 405.545C111.077 405.2 111.544 405.006 112.03 405.006H131.399V407.013V407.01Z" fill="#6E6760"/>
<path d="M163.422 508.808H166.392V410.626H163.422V508.808Z" fill="#706865"/>
<path d="M77.6558 508.808H80.6257L80.6257 410.626H77.6558L77.6558 508.808Z" fill="#706865"/>
<path d="M51.4542 407.013C51.3926 408.194 51.3148 409.391 51.2559 410.604L51.2398 410.62C51.2398 410.62 47.1199 411.158 43.6648 409.593C40.2097 408.027 37.7892 396.033 37.623 395.403C37.9742 396.094 43.5201 407.013 44.8737 407.013H51.4542Z" fill="#1F2136"/>
<path d="M56.319 356.818C56.2895 357.34 56.2734 357.894 56.2895 358.399C48.4089 358.523 48.2856 354.009 48.2856 354.009C49.5106 357.278 56.319 356.818 56.319 356.818Z" fill="#A77860"/>
<path d="M107.411 358.894L98.7969 367.24L99.5006 367.972L108.115 359.626L107.411 358.894Z" fill="#EB4747"/>
<path d="M107.401 358.924L109.022 358.063L108.106 359.656L107.401 358.924Z" fill="#EEA886"/>
<path d="M103.707 363.997C103.707 363.997 99.6219 364.882 99.638 365.611C99.654 366.34 100.07 366.588 100.07 366.588L98.5015 367.79C98.5015 367.79 97.8447 369.211 99.4074 369.517C99.4074 369.517 98.6703 370.782 100.212 370.878C100.212 370.878 100.051 371.936 100.748 372.118C101.445 372.301 104.063 371.615 104.063 371.615C104.063 371.615 104.688 371.204 104.315 370.141C104.51 369.895 104.633 369.6 104.673 369.288C104.713 368.976 104.667 368.659 104.54 368.371C104.68 368.093 104.751 367.785 104.745 367.474C104.739 367.163 104.658 366.858 104.508 366.585C104.508 366.585 105.312 364.837 104.117 363.925C104.133 363.935 103.878 363.957 103.707 363.997Z" fill="#D69779"/>
<path d="M96.8368 364.713C96.8368 364.713 99.5173 365.576 100.772 366.768C101.056 367.037 101.284 367.36 101.15 367.763C101.016 368.167 100.329 368.495 99.1447 368.188C97.9599 367.882 96.2793 368.089 96.2793 368.089C96.2793 368.089 95.1615 367.376 96.8368 364.713Z" fill="#EEA886"/>
<path d="M100.276 456.186C100.276 456.186 97.7672 440.474 97.6332 439.837C97.4991 439.199 94.9527 436.91 82.7458 432.899C82.7458 432.899 96.309 435.546 99.866 437.87C102.608 439.659 100.276 456.186 100.276 456.186Z" fill="#12131F"/>
<path d="M151.347 407.011C152.687 406.451 154.847 400.103 155.89 396.815C156.26 395.651 156.488 394.87 156.488 394.87H144.238C145.297 402.456 147.867 407.011 147.867 407.011H151.347Z" fill="#9E633A"/>
<path d="M152.322 391.088C152.322 390.647 154.29 388.799 155.271 387.591C156.252 386.384 154.893 384.094 154.893 384.094C150.505 385.916 151.264 391.088 151.264 391.088C151.264 391.088 152.322 391.53 152.322 391.088Z" fill="#97A43C"/>
<path d="M149.835 391.285H150.371C150.371 391.285 150.749 382.348 147.498 381.135C144.246 379.922 144.246 377.493 144.246 377.493C144.246 377.493 143.263 380.831 144.852 382.577C146.442 384.323 148.254 386.37 147.951 388.041C147.648 389.711 149.835 391.285 149.835 391.285Z" fill="#97A43C"/>
<path d="M155.89 396.815C156.26 395.651 156.488 394.87 156.488 394.87H144.238C145.297 402.456 147.867 407.011 147.867 407.011H148.672C148.519 399.906 153.18 397.582 155.89 396.815Z" fill="#82522F"/>
<path d="M156.485 391.088H144.147L143.445 394.87H156.987L156.485 391.088Z" fill="#C67B47"/>
<defs>
<linearGradient id="paint0_linear" x1="191.562" y1="352.282" x2="613.491" y2="352.282" gradientUnits="userSpaceOnUse">
<stop stop-color="#FFC05C"/>
<stop offset="1" stop-color="#FF3857"/>
</linearGradient>
<linearGradient id="paint1_linear" x1="191.562" y1="340.823" x2="613.713" y2="340.823" gradientUnits="userSpaceOnUse">
<stop stop-color="#40D5E6"/>
<stop offset="1" stop-color="#5577FF"/>
</linearGradient>
<linearGradient id="paint2_linear" x1="396.231" y1="206.584" x2="546.712" y2="206.584" gradientUnits="userSpaceOnUse">
<stop stop-color="#8FD6FF"/>
<stop offset="1" stop-color="#BFEBFE"/>
</linearGradient>
<linearGradient id="paint3_linear" x1="272128" y1="44200.5" x2="356064" y2="44200.5" gradientUnits="userSpaceOnUse">
<stop stop-color="#8FD6FF"/>
<stop offset="1" stop-color="#BFEBFE"/>
</linearGradient>
<linearGradient id="paint4_linear" x1="421.618" y1="139.393" x2="336.265" y2="381.702" gradientUnits="userSpaceOnUse">
<stop stop-color="#C6CBCF"/>
<stop offset="1" stop-color="#F8F1FE"/>
</linearGradient>
<linearGradient id="paint5_linear" x1="487.788" y1="419.274" x2="616.304" y2="604.441" gradientUnits="userSpaceOnUse">
<stop stop-color="#F7BDB1"/>
<stop offset="1" stop-color="#FCD9CD"/>
</linearGradient>
<linearGradient id="paint6_linear" x1="57523.3" y1="104.238" x2="57171.7" y2="3501.87" gradientUnits="userSpaceOnUse">
<stop stop-color="#FDEEE5"/>
<stop offset="1" stop-color="#FCD9CD"/>
</linearGradient>
<linearGradient id="paint7_linear" x1="143.381" y1="261.958" x2="143.381" y2="405.16" gradientUnits="userSpaceOnUse">
<stop stop-color="#626E7A"/>
<stop offset="1" stop-color="#F5F5F5"/>
</linearGradient>
<linearGradient id="paint8_linear" x1="142.957" y1="313.883" x2="142.957" y2="620.467" gradientUnits="userSpaceOnUse">
<stop stop-color="#44607D"/>
<stop offset="1" stop-color="#F5F5F5"/>
</linearGradient>
<linearGradient id="paint9_linear" x1="176.283" y1="288.166" x2="181.247" y2="288.166" gradientUnits="userSpaceOnUse">
<stop stop-color="#D5E4FF"/>
<stop offset="1" stop-color="#EDFFFE"/>
</linearGradient>
<linearGradient id="paint10_linear" x1="5309.7" y1="37342.6" x2="5401.58" y2="37342.6" gradientUnits="userSpaceOnUse">
<stop stop-color="#D5E4FF"/>
<stop offset="1" stop-color="#EDFFFE"/>
</linearGradient>
<linearGradient id="paint11_linear" x1="5488.14" y1="33488.3" x2="5579.98" y2="33488.3" gradientUnits="userSpaceOnUse">
<stop stop-color="#D5E4FF"/>
<stop offset="1" stop-color="#EDFFFE"/>
</linearGradient>
<linearGradient id="paint12_linear" x1="5671.27" y1="24324.5" x2="5763.11" y2="24324.5" gradientUnits="userSpaceOnUse">
<stop stop-color="#D5E4FF"/>
<stop offset="1" stop-color="#EDFFFE"/>
</linearGradient>
<linearGradient id="paint13_linear" x1="159.163" y1="392.611" x2="159.163" y2="368.49" gradientUnits="userSpaceOnUse">
<stop stop-color="#FF9F55"/>
<stop offset="1" stop-color="#FFD255"/>
</linearGradient>
<linearGradient id="paint14_linear" x1="109233" y1="8700.72" x2="108622" y2="8700.72" gradientUnits="userSpaceOnUse">
<stop stop-color="#FF9F55"/>
<stop offset="1" stop-color="#FFD255"/>
</linearGradient>
<linearGradient id="paint15_linear" x1="104508" y1="23623.3" x2="103947" y2="23623.3" gradientUnits="userSpaceOnUse">
<stop stop-color="#FF9F55"/>
<stop offset="1" stop-color="#FFD255"/>
</linearGradient>
</defs>
</svg>
