<svg width="478" height="340" viewBox="0 0 478 340" fill="none" xmlns="http://www.w3.org/2000/svg">
<g clip-path="url(#clip0)" filter="url(#filter0_d)">
<path d="M254.255 146.434L251.998 149.923L282.129 169.362L284.385 165.872L254.255 146.434Z" fill="#2F2E41"/>
<path d="M285.878 169.307C289.617 163.526 291.474 158.083 290.027 157.15C288.58 156.216 284.376 160.146 280.638 165.926C276.899 171.707 275.041 177.15 276.488 178.084C277.935 179.018 282.139 175.088 285.878 169.307Z" fill="#2F2E41"/>
<path d="M255.746 149.869C259.485 144.088 261.343 138.645 259.896 137.711C258.449 136.778 254.245 140.707 250.506 146.488C246.767 152.269 244.909 157.712 246.356 158.646C247.803 159.579 252.007 155.65 255.746 149.869Z" fill="#2F2E41"/>
<path d="M353.952 332C420.253 332 474 327.906 474 322.855C474 317.804 420.253 313.71 353.952 313.71C287.652 313.71 233.904 317.804 233.904 322.855C233.904 327.906 287.652 332 353.952 332Z" fill="#E6E6E6"/>
<path d="M124.048 288.17C190.349 288.17 244.096 284.075 244.096 279.025C244.096 273.974 190.349 269.88 124.048 269.88C57.7473 269.88 4 273.974 4 279.025C4 284.075 57.7473 288.17 124.048 288.17Z" fill="#E6E6E6"/>
<path d="M452.701 279.005C452.308 293.697 449.843 308.26 445.382 322.266C445.28 322.591 445.173 322.911 445.066 323.236H417.75C417.779 322.945 417.809 322.62 417.838 322.266C419.659 301.353 430.16 174.073 417.604 152.306C418.702 154.072 454.819 212.556 452.701 279.005Z" fill="#E6E6E6"/>
<path d="M450.652 322.266C450.424 322.591 450.186 322.916 449.943 323.236H429.451C429.607 322.96 429.786 322.635 429.995 322.266C433.381 316.164 443.401 297.919 452.702 279.005C462.697 258.679 471.868 237.582 471.095 229.947C471.333 231.669 478.25 284.166 450.652 322.266Z" fill="#E6E6E6"/>
<path d="M259.149 300.785C259.349 308.243 260.6 315.635 262.864 322.744C262.916 322.909 262.97 323.071 263.025 323.236H276.89C276.875 323.089 276.86 322.924 276.845 322.744C275.921 312.129 270.591 247.523 276.964 236.475C276.406 237.371 258.074 267.057 259.149 300.785Z" fill="#E6E6E6"/>
<path d="M260.19 322.744C260.305 322.909 260.426 323.074 260.55 323.236H270.951C270.872 323.096 270.781 322.931 270.675 322.744C268.956 319.646 263.87 310.386 259.149 300.785C254.076 290.468 249.421 279.76 249.813 275.884C249.692 276.758 246.182 303.405 260.19 322.744Z" fill="#E6E6E6"/>
<path d="M276.846 139.306C276.846 139.306 253.682 161.979 263.411 164.755C273.139 167.531 284.258 143.933 284.258 143.933L276.846 139.306Z" fill="#A0616A"/>
<path d="M300.009 215.652L297.229 228.608L318.077 229.533L314.834 215.652H300.009Z" fill="#A0616A"/>
<path d="M365.795 295.699L363.016 308.655L383.863 309.58L380.62 295.699H365.795Z" fill="#A0616A"/>
<path d="M329.196 129.127L331.049 136.53C331.049 136.53 279.626 126.351 282.406 152.262C285.185 178.173 297.23 203.159 297.23 203.159C297.23 203.159 296.304 211.488 298.157 212.876C300.01 214.264 298.157 218.891 298.157 218.891C298.157 218.891 315.298 221.204 315.761 217.04C316.009 214.256 315.853 211.451 315.298 208.711C315.298 208.711 316.225 208.711 315.298 204.084C314.372 199.457 310.629 162.142 307.849 157.052C307.849 157.052 332.439 175.86 345.411 173.546C345.411 173.546 343.558 192.054 350.97 216.577C358.383 241.101 358.383 243.877 358.383 243.877C358.383 243.877 367.185 290.61 364.868 296.162L364.405 298.476H381.546C381.546 298.476 380.157 273.952 381.546 270.713C382.936 267.475 382.936 239.712 375.06 225.831C369.483 216.001 370.522 187.499 373.573 176.233C376.135 166.772 376.782 159.491 375.28 149.806C373.674 139.449 368.878 134.035 363.015 129.127H329.196Z" fill="#2F2E41"/>
<path d="M342.862 59.4902C352.073 59.4902 359.54 52.0325 359.54 42.8329C359.54 33.6334 352.073 26.1757 342.862 26.1757C333.651 26.1757 326.185 33.6334 326.185 42.8329C326.185 52.0325 333.651 59.4902 342.862 59.4902Z" fill="#A0616A"/>
<path d="M338.461 54.6318C338.461 54.6318 343.557 69.4383 343.094 72.2145C342.63 74.9907 357.919 66.662 357.919 66.662C357.919 66.662 351.896 51.8556 353.749 47.6913L338.461 54.6318Z" fill="#A0616A"/>
<path d="M356.992 61.5724L340.778 68.0502L341.704 73.6026C341.704 73.6026 340.315 75.4534 340.778 76.3788C341.241 77.3042 334.755 81.0058 335.682 82.394C336.608 83.7821 330.123 89.3345 330.586 90.7226C331.049 92.1107 315.761 100.439 324.1 116.634C324.1 116.634 328.423 122.247 327.882 128.886C327.863 129.119 327.838 129.354 327.806 129.59C326.88 136.53 363.015 128.664 363.015 128.664V120.798C363.015 120.798 366.258 119.41 365.795 113.395C365.331 107.38 362.552 110.156 365.795 106.917C369.038 103.678 369.038 104.141 368.574 101.365C368.389 100.256 368.352 96.2699 368.374 91.8811C368.417 82.608 365.393 73.5803 359.772 66.1994L356.992 61.5724Z" fill="#E57A7A"/>
<path d="M348.19 73.6026L318.077 105.066L274.066 139.769L283.795 147.635L364.868 93.4988C364.868 93.4988 371.817 63.8859 348.19 73.6026Z" fill="#E57A7A"/>
<path d="M301.4 222.593C301.4 222.593 298.157 217.04 295.84 218.891L279.626 231.847C279.626 231.847 250.903 240.175 278.699 246.653C278.699 246.653 293.987 248.966 297.23 246.653C300.473 244.339 305.569 244.802 306.959 245.728C308.349 246.653 325.953 245.265 325.953 241.563C325.953 237.862 316.244 221.684 316.244 221.684C316.244 221.684 310.665 228.145 301.4 222.593Z" fill="#2F2E41"/>
<path d="M367.184 302.64C367.184 302.64 363.941 297.087 361.625 298.938L345.41 311.894C345.41 311.894 316.687 320.223 344.484 326.7C344.484 326.7 359.772 329.014 363.014 326.7C366.257 324.387 371.353 324.85 372.743 325.775C374.133 326.7 391.738 325.312 391.738 321.611C391.738 317.909 382.028 301.731 382.028 301.731C382.028 301.731 376.449 308.192 367.184 302.64Z" fill="#2F2E41"/>
<path d="M322.875 36.227C322.875 36.227 325.695 11.4695 349.813 18.4989C349.813 18.4989 366.875 15.0328 372.901 36.316L379.018 58.6299L376.218 57.1767L374.98 60.0218L370.512 61.2436L368.517 57.4715L367.677 62.1148L336.819 68.3459C336.819 68.3459 347.255 56.4369 347.181 38.995L344.107 42.3665L322.875 36.227Z" fill="#2F2E41"/>
<path d="M157.154 16.0957H118.577V64.1423H157.154V16.0957Z" fill="#2F2E41"/>
<path d="M86.7223 240.216L81.4619 259.551L90.2298 265.997L92.5674 264.239L96.659 244.317L86.7223 240.216Z" fill="#FFB8B8"/>
<path d="M152.77 238.458L151.017 261.895H162.122V240.216L152.77 238.458Z" fill="#FFB8B8"/>
<path d="M117.7 90.2163V104.279L139.327 107.794L158.031 100.177L154.524 91.3879L117.7 90.2163Z" fill="#FFB8B8"/>
<path d="M135.235 101.935L116.531 98.4195L111.855 136.505L100.165 183.966C100.165 183.966 82.6305 224.395 84.9685 233.77L86.1375 236.7L84.9685 241.973L96.6585 246.661L101.334 239.044C101.334 239.044 104.841 244.317 110.686 233.184C116.531 222.052 141.08 152.911 141.08 152.911L145.172 164.63C144.113 168.245 143.913 172.057 144.587 175.763C145.756 181.622 146.925 199.786 146.925 199.786C146.925 199.786 140.496 231.427 149.263 233.77L151.017 240.802L163.291 241.973L165.629 234.942C165.629 234.942 177.319 230.841 174.397 210.333C171.474 189.825 170.305 122.443 170.305 122.443L158.79 93.9814L135.235 101.935Z" fill="#2F2E41"/>
<path d="M84.9688 258.38C84.9688 258.38 82.0463 256.036 80.8773 256.622C79.7083 257.208 67.4338 273.028 67.4338 273.028C67.4338 273.028 54.5748 282.989 63.9268 284.161C73.2788 285.333 98.9967 272.442 98.9967 269.512C98.9967 266.583 93.5928 259.245 93.5928 259.245C93.5928 259.245 89.6447 262.481 84.9688 258.38Z" fill="#2F2E41"/>
<path d="M149.848 256.622C149.848 256.622 160.369 255.967 162.123 257.759C163.876 259.552 163.292 268.341 163.292 268.341C163.292 268.341 164.461 284.161 155.109 284.161C145.757 284.161 148.095 273.614 148.095 273.614L149.848 256.622Z" fill="#2F2E41"/>
<path d="M139.327 38.6541C147.397 38.6541 153.94 32.0959 153.94 24.0058C153.94 15.9157 147.397 9.35742 139.327 9.35742C131.257 9.35742 124.715 15.9157 124.715 24.0058C124.715 32.0959 131.257 38.6541 139.327 38.6541Z" fill="#FFB8B8"/>
<path d="M129.683 33.0878C129.683 33.0878 137.866 43.0487 121.5 50.6658C105.134 58.283 133.19 89.9234 133.19 89.9234C133.19 89.9234 165.922 77.6188 162.999 53.5955C162.999 53.5955 143.126 50.0799 147.802 33.6737L129.683 33.0878Z" fill="#FFB8B8"/>
<path d="M120.915 50.0799C120.915 50.0799 107.472 48.3221 106.887 59.4548C106.303 70.5876 106.887 97.5406 106.887 97.5406C106.887 97.5406 101.042 120.978 103.965 141.486C103.965 141.486 100.458 165.509 109.81 164.337C119.162 163.165 112.148 139.728 112.148 139.728L116.239 101.642L114.486 73.5173L122.084 56.5252L120.915 50.0799Z" fill="#FFB8B8"/>
<path d="M159.605 52.6684C159.605 52.6684 172.351 52.4236 172.935 61.7986C173.52 71.1735 168.844 99.8844 168.844 99.8844L161.83 103.4L155.4 83.4782L159.605 52.6684Z" fill="#FFB8B8"/>
<path d="M163.291 100.763L162.122 103.693L165.629 112.482C165.629 112.482 151.601 123.615 152.77 125.958C153.939 128.302 160.369 123.029 160.369 123.029L169.721 127.716C169.721 127.716 177.319 119.513 173.812 111.896C171.869 107.801 170.244 103.563 168.951 99.2199C168.951 99.2199 163.876 99.0055 163.291 100.763Z" fill="#FFB8B8"/>
<path d="M118.285 48.0291L116.532 67.3649C116.532 67.3649 108.349 75.568 117.701 86.7007L116.532 95.4898C116.532 95.4898 138.158 94.3179 142.249 95.4898C146.341 96.6616 158.977 94.5463 158.977 94.5463L159.2 87.8726C159.2 87.8726 165.045 79.6695 163.291 67.3649C161.538 55.0603 163.291 50.9587 163.291 50.9587L159.2 50.3728C159.2 50.3728 156.57 68.2438 138.45 70.0016C138.45 70.0016 115.947 72.0524 122.376 48.0291L118.285 48.0291Z" fill="#E6E6E6"/>
<path d="M140.789 0.275452C140.789 0.275452 125.592 -0.668972 122.085 8.80445C118.578 18.2779 112.441 23.2513 112.441 23.2513C112.441 23.2513 102.773 29.988 107.607 42.0139C107.607 42.0139 92.5677 52.1451 102.504 61.1448C102.504 61.1448 101.92 70.1445 107.765 76.3022C107.765 76.3022 112.441 78.6706 110.687 80.0916C108.934 81.5126 122.377 80.5653 121.208 67.7762C120.039 54.9871 127.93 45.9784 127.93 45.9784C127.93 45.9784 120.331 29.3969 123.838 23.7129C125.968 20.2618 126.882 17.6883 128.65 16.1989C129.634 15.389 130.547 14.4958 131.378 13.5294C132.162 12.5339 133.229 11.7986 134.439 11.4203C135.65 11.0419 136.946 11.0382 138.158 11.4096C143.419 12.8306 144.588 17.0936 144.588 17.0936C144.588 17.0936 148.387 27.2775 154.817 32.0142C161.246 36.7509 149.848 45.0401 149.848 45.0401C149.848 45.0401 151.83 54.7994 156.976 60.5773C162.123 66.3552 155.493 71.3916 155.109 72.0392C154.232 73.5173 150.731 82.8509 165.194 82.8922C165.194 82.8922 168.552 75.8285 173.228 71.5655C177.904 67.3026 174.397 54.9871 174.397 54.9871C174.397 54.9871 181.411 50.7241 173.813 40.3034C173.813 40.3034 176.151 30.83 169.721 24.6723C169.721 24.6723 160.662 -3.04022 140.789 0.275452Z" fill="#2F2E41"/>
<path d="M123.545 26.0566C124.352 26.0566 125.006 25.0073 125.006 23.7129C125.006 22.4185 124.352 21.3691 123.545 21.3691C122.738 21.3691 122.084 22.4185 122.084 23.7129C122.084 25.0073 122.738 26.0566 123.545 26.0566Z" fill="#FFB8B8"/>
<path d="M53.7515 265.4H17.8818V269.554H53.7515V265.4Z" fill="#2F2E41"/>
<path d="M53.7519 279.938C55.4746 279.938 56.871 274.359 56.871 267.477C56.871 260.595 55.4746 255.016 53.7519 255.016C52.0293 255.016 50.6328 260.595 50.6328 267.477C50.6328 274.359 52.0293 279.938 53.7519 279.938Z" fill="#2F2E41"/>
<path d="M17.8818 279.938C19.6044 279.938 21.0009 274.359 21.0009 267.477C21.0009 260.595 19.6044 255.016 17.8818 255.016C16.1592 255.016 14.7627 260.595 14.7627 267.477C14.7627 274.359 16.1592 279.938 17.8818 279.938Z" fill="#2F2E41"/>
<path d="M45.2369 265.4H9.36719V269.554H45.2369V265.4Z" fill="#2F2E41"/>
<path d="M45.2363 279.938C46.9589 279.938 48.3554 274.359 48.3554 267.477C48.3554 260.595 46.9589 255.016 45.2363 255.016C43.5137 255.016 42.1172 260.595 42.1172 267.477C42.1172 274.359 43.5137 279.938 45.2363 279.938Z" fill="#2F2E41"/>
<path d="M9.36716 279.938C11.0898 279.938 12.4863 274.359 12.4863 267.477C12.4863 260.595 11.0898 255.016 9.36716 255.016C7.64452 255.016 6.24805 260.595 6.24805 267.477C6.24805 274.359 7.64452 279.938 9.36716 279.938Z" fill="#2F2E41"/>
<path d="M453.3 307.268H417.431V311.422H453.3V307.268Z" fill="#2F2E41"/>
<path d="M453.301 321.806C455.023 321.806 456.42 316.227 456.42 309.345C456.42 302.463 455.023 296.884 453.301 296.884C451.578 296.884 450.182 302.463 450.182 309.345C450.182 316.227 451.578 321.806 453.301 321.806Z" fill="#2F2E41"/>
<path d="M417.431 321.806C419.153 321.806 420.55 316.227 420.55 309.345C420.55 302.463 419.153 296.884 417.431 296.884C415.708 296.884 414.312 302.463 414.312 309.345C414.312 316.227 415.708 321.806 417.431 321.806Z" fill="#2F2E41"/>
</g>
<defs>
<filter id="filter0_d" x="0" y="0" width="478" height="340" filterUnits="userSpaceOnUse" color-interpolation-filters="sRGB">
<feFlood flood-opacity="0" result="BackgroundImageFix"/>
<feColorMatrix in="SourceAlpha" type="matrix" values="0 0 0 0 0 0 0 0 0 0 0 0 0 0 0 0 0 0 127 0"/>
<feOffset dy="4"/>
<feGaussianBlur stdDeviation="2"/>
<feColorMatrix type="matrix" values="0 0 0 0 0 0 0 0 0 0 0 0 0 0 0 0 0 0 0.25 0"/>
<feBlend mode="normal" in2="BackgroundImageFix" result="effect1_dropShadow"/>
<feBlend mode="normal" in="SourceGraphic" in2="effect1_dropShadow" result="shape"/>
</filter>
<clipPath id="clip0">
<rect width="470" height="332" fill="white" transform="translate(4)"/>
</clipPath>
</defs>
</svg>
