<svg width="570" height="343" viewBox="0 0 570 343" fill="none" xmlns="http://www.w3.org/2000/svg">
<g clip-path="url(#clip0)">
<path d="M37.3769 251.142L33.954 237.655C27.8847 235.086 21.6752 232.861 15.355 230.99L14.9228 237.257L13.1703 230.352C5.33224 228.116 0 227.132 0 227.132C0 227.132 7.20263 254.492 22.3096 275.41L39.9126 278.498L26.2373 280.468C28.1384 282.753 30.1815 284.916 32.3545 286.944C54.3309 307.321 78.8085 316.67 87.0267 307.826C95.245 298.981 84.0918 275.293 62.1153 254.915C55.3024 248.598 46.7439 243.529 38.177 239.539L37.3769 251.142Z" fill="#E6E6E6"/>
<path d="M69.9311 236.496L73.9794 223.184C70.1133 217.85 65.9492 212.739 61.5069 207.874L57.8938 213.016L59.9665 206.2C54.4137 200.239 50.3587 196.642 50.3587 196.642C50.3587 196.642 42.3668 223.783 44.4754 249.49L57.946 261.224L45.2202 255.849C45.6655 258.786 46.2953 261.692 47.1059 264.551C55.3746 293.342 71.4908 313.985 83.1025 310.657C94.7142 307.329 97.4243 281.292 89.1557 252.5C86.5924 243.574 81.8891 234.815 76.6199 226.976L69.9311 236.496Z" fill="#E6E6E6"/>
<path d="M570.001 312.66H0.0522461V314.097H570.001V312.66Z" fill="white"/>
<path d="M90.0995 163.888C90.0995 163.888 85.6611 217.199 84.7081 228.623C84.0546 235.784 82.4523 242.827 79.9432 249.566C79.9432 249.566 78.0373 253.374 78.0373 257.182V305.733C78.0373 305.733 74.2254 305.733 75.1783 309.541C76.1313 313.348 77.0843 320.012 77.0843 320.012H91.3789C91.3789 320.012 90.4259 317.156 93.2849 316.204C96.1438 315.252 93.2849 307.637 93.2849 307.637L108.532 250.518L131.404 202.92C131.404 202.92 144.746 245.759 147.604 250.518C147.604 250.518 158.087 303.829 159.993 308.589C161.899 313.349 162.852 313.348 161.899 315.252C160.946 317.156 160.946 319.06 161.899 320.012C162.852 320.964 180.959 320.012 180.959 320.012L176.194 252.422L167.617 171.505L123.78 158.177L90.0995 163.888Z" fill="#2F2E41"/>
<path d="M87.5668 312.397C87.5668 312.397 82.8019 295.261 75.1781 308.589C67.5543 321.916 67.5543 326.676 67.5543 326.676C67.5543 326.676 55.1656 344.764 72.3192 342.86C89.4728 340.956 85.6609 332.388 85.6609 332.388C85.6609 332.388 92.3317 328.58 92.3317 325.724C92.3317 322.868 87.5668 312.397 87.5668 312.397Z" fill="#2F2E41"/>
<path d="M164.758 310.493C164.758 310.493 169.523 293.357 177.147 306.685C184.771 320.012 184.771 324.772 184.771 324.772C184.771 324.772 197.159 342.86 180.006 340.956C162.852 339.052 166.664 330.484 166.664 330.484C166.664 330.484 159.993 326.676 159.993 323.82C159.993 320.964 164.758 310.493 164.758 310.493Z" fill="#2F2E41"/>
<path d="M119.968 35.373C119.968 35.373 121.874 47.7486 116.156 50.6045C110.439 53.4604 128.545 63.9321 133.31 63.9321C138.075 63.9321 146.652 54.4124 146.652 54.4124C146.652 54.4124 141.887 40.1329 142.84 37.2769L119.968 35.373Z" fill="#A0616A"/>
<path d="M130.451 44.8927C141.504 44.8927 150.463 35.9423 150.463 24.9013C150.463 13.8604 141.504 4.90994 130.451 4.90994C119.398 4.90994 110.438 13.8604 110.438 24.9013C110.438 35.9423 119.398 44.8927 130.451 44.8927Z" fill="#A0616A"/>
<path d="M169.523 65.8361L145.699 51.4173C145.699 51.4173 132.144 66.788 117.479 49.6526L92.3317 56.3164L96.1436 121.05C96.1436 121.05 90.4258 146.754 92.3317 151.513C94.2376 156.273 87.5668 158.177 89.4728 159.129C91.3787 160.081 89.4728 166.745 89.4728 166.745C89.4728 166.745 126.639 185.784 167.617 171.505L163.805 159.129C164.324 157.511 164.421 155.788 164.087 154.123C163.754 152.457 163.001 150.903 161.899 149.61C161.899 149.61 165.711 143.898 160.946 139.138C160.946 139.138 162.852 130.57 158.087 126.762L157.134 113.435L159.993 106.771L169.523 65.8361Z" fill="#CFCCE0"/>
<path d="M120.209 15.6188C120.209 15.6188 117.823 20.7767 127.367 18.7135C127.367 18.7135 130.946 20.7767 130.946 17.6819C130.946 17.6819 135.717 22.8399 136.91 19.7451C138.103 16.6503 140.489 20.7767 140.489 20.7767L142.875 15.6188L145.261 18.7135H153.611C153.611 18.7135 155.997 -1.91814 127.367 0.14503C98.7359 2.2082 112.821 34.897 112.821 34.897C112.821 34.897 113.051 29.0293 115.437 32.1241C117.823 35.2188 120.209 15.6188 120.209 15.6188Z" fill="#2F2E41"/>
<path d="M178.099 103.915L179.052 123.906C179.052 123.906 182.864 161.033 175.24 177.217V185.784C175.24 185.784 173.334 207.68 163.805 206.728C154.275 205.776 166.664 175.313 166.664 175.313L164.758 133.426L162.852 109.627L178.099 103.915Z" fill="#A0616A"/>
<path d="M159.04 66.7881L168.547 65.2452C175.395 71.8179 180.059 80.3309 181.912 89.6353C184.77 104.867 185.723 107.723 185.723 107.723L162.852 113.435L150.463 89.6353L159.04 66.7881Z" fill="#CFCCE0"/>
<path d="M268.497 55.9238H118.108V130.551H268.497V55.9238Z" fill="white"/>
<path d="M134.53 60.4116C130.666 58.0906 126.007 58.2679 124.236 58.4452C124.911 60.0901 126.934 64.2856 130.798 66.6078C134.671 68.9346 139.324 68.7521 141.092 68.576C140.418 66.9317 138.394 62.7344 134.53 60.4116Z" fill="#E57A7A"/>
<path d="M152.685 106.468H128.537C127.823 106.467 127.116 106.607 126.456 106.879C125.796 107.152 125.197 107.551 124.692 108.055C124.186 108.559 123.786 109.158 123.512 109.817C123.239 110.476 123.098 111.182 123.098 111.895C123.098 112.609 123.239 113.315 123.512 113.974C123.786 114.633 124.186 115.231 124.692 115.735C125.197 116.239 125.796 116.639 126.456 116.912C127.116 117.184 127.823 117.324 128.537 117.323H152.685C153.399 117.324 154.107 117.184 154.766 116.912C155.426 116.639 156.026 116.239 156.531 115.735C157.036 115.231 157.437 114.633 157.711 113.974C157.984 113.315 158.125 112.609 158.125 111.895C158.125 111.182 157.984 110.476 157.711 109.817C157.437 109.158 157.036 108.559 156.531 108.055C156.026 107.551 155.426 107.152 154.766 106.879C154.107 106.607 153.399 106.467 152.685 106.468Z" fill="#E57A7A"/>
<path d="M262.036 49.1766H126.645C125.07 49.1766 123.511 49.4865 122.055 50.0886C120.6 50.6906 119.278 51.5731 118.165 52.6856C117.051 53.7981 116.167 55.1188 115.565 56.5724C114.962 58.026 114.652 59.5839 114.652 61.1572V127.053C114.652 130.23 115.915 133.278 118.165 135.524C120.414 137.771 123.464 139.033 126.645 139.033H262.036C265.217 139.033 268.267 137.771 270.516 135.524C272.766 133.278 274.029 130.23 274.029 127.053V61.1572C274.029 59.5839 273.719 58.026 273.116 56.5724C272.514 55.1188 271.63 53.7981 270.516 52.6856C269.403 51.5731 268.081 50.6906 266.626 50.0886C265.17 49.4865 263.611 49.1766 262.036 49.1766ZM123.295 57.3492C123.563 57.3009 129.902 56.2232 135.152 59.3787C140.401 62.5336 142.418 68.6343 142.501 68.8922L142.714 69.5501L142.032 69.6708C141.061 69.8223 140.078 69.8945 139.094 69.8864C135.974 69.946 132.895 69.1706 130.175 67.6408C124.926 64.4864 122.909 58.3857 122.826 58.1277L122.614 57.4699L123.295 57.3492ZM152.685 118.529H128.537C126.776 118.529 125.087 117.83 123.841 116.586C122.596 115.342 121.896 113.655 121.896 111.895C121.896 110.136 122.596 108.449 123.841 107.205C125.087 105.961 126.776 105.262 128.537 105.262H152.685C154.446 105.262 156.135 105.961 157.381 107.205C158.626 108.449 159.326 110.136 159.326 111.895C159.326 113.655 158.626 115.342 157.381 116.586C156.135 117.83 154.446 118.529 152.685 118.529ZM262.559 117.323C262.553 119.241 261.788 121.078 260.431 122.434C259.073 123.79 257.234 124.554 255.314 124.56H237.203C235.284 124.554 233.444 123.79 232.087 122.434C230.73 121.078 229.965 119.241 229.959 117.323V106.468C229.965 104.55 230.73 102.713 232.087 101.357C233.444 100.001 235.284 99.2366 237.203 99.231H255.314C257.234 99.2366 259.073 100.001 260.431 101.357C261.788 102.713 262.553 104.55 262.559 106.468V117.323Z" fill="#E57A7A"/>
<path d="M242.939 115.212H235.09C234.53 115.212 233.993 115.435 233.596 115.83C233.2 116.226 232.978 116.763 232.978 117.323C232.978 117.883 233.2 118.42 233.596 118.815C233.993 119.211 234.53 119.434 235.09 119.434H242.939C243.499 119.434 244.036 119.211 244.433 118.815C244.829 118.42 245.052 117.883 245.052 117.323C245.052 116.763 244.829 116.226 244.433 115.83C244.036 115.435 243.499 115.212 242.939 115.212ZM242.939 118.228H235.09C234.971 118.228 234.853 118.205 234.743 118.159C234.633 118.114 234.533 118.048 234.449 117.963C234.364 117.879 234.297 117.78 234.252 117.67C234.206 117.56 234.183 117.442 234.183 117.323C234.183 117.204 234.206 117.086 234.252 116.976C234.297 116.866 234.364 116.767 234.449 116.682C234.533 116.598 234.633 116.532 234.743 116.487C234.853 116.441 234.971 116.418 235.09 116.418H242.939C243.178 116.419 243.408 116.515 243.577 116.684C243.747 116.854 243.842 117.083 243.842 117.323C243.842 117.562 243.747 117.792 243.577 117.962C243.408 118.131 243.178 118.227 242.939 118.228Z" fill="#E57A7A"/>
<path d="M257.427 115.212H249.579C249.019 115.212 248.481 115.435 248.085 115.83C247.689 116.226 247.466 116.763 247.466 117.323C247.466 117.883 247.689 118.42 248.085 118.815C248.481 119.211 249.019 119.434 249.579 119.434H257.427C257.988 119.434 258.525 119.211 258.921 118.815C259.318 118.42 259.54 117.883 259.54 117.323C259.54 116.763 259.318 116.226 258.921 115.83C258.525 115.435 257.988 115.212 257.427 115.212ZM257.427 118.228H249.579C249.46 118.228 249.342 118.205 249.232 118.159C249.122 118.114 249.022 118.048 248.937 117.963C248.853 117.879 248.786 117.78 248.74 117.67C248.695 117.56 248.671 117.442 248.671 117.323C248.671 117.204 248.695 117.086 248.74 116.976C248.786 116.866 248.853 116.767 248.937 116.682C249.022 116.598 249.122 116.532 249.232 116.487C249.342 116.441 249.46 116.418 249.579 116.418H257.427C257.667 116.419 257.897 116.515 258.066 116.684C258.235 116.854 258.331 117.083 258.331 117.323C258.331 117.562 258.235 117.792 258.066 117.962C257.897 118.131 257.667 118.227 257.427 118.228Z" fill="#E57A7A"/>
<path d="M242.939 109.785H235.09C234.53 109.785 233.993 110.007 233.596 110.403C233.2 110.799 232.978 111.336 232.978 111.895C232.978 112.455 233.2 112.992 233.596 113.388C233.993 113.784 234.53 114.006 235.09 114.006H242.939C243.499 114.006 244.036 113.784 244.433 113.388C244.829 112.992 245.052 112.455 245.052 111.895C245.052 111.336 244.829 110.799 244.433 110.403C244.036 110.007 243.499 109.785 242.939 109.785ZM242.939 112.8H235.09C234.972 112.8 234.854 112.777 234.744 112.731C234.634 112.686 234.534 112.619 234.45 112.535C234.366 112.451 234.299 112.351 234.254 112.242C234.208 112.132 234.185 112.014 234.185 111.895C234.185 111.777 234.208 111.659 234.254 111.549C234.299 111.439 234.366 111.34 234.45 111.256C234.534 111.172 234.634 111.105 234.744 111.06C234.854 111.014 234.972 110.991 235.09 110.991H242.939C243.057 110.991 243.175 111.014 243.285 111.06C243.395 111.105 243.495 111.172 243.579 111.256C243.663 111.34 243.73 111.439 243.775 111.549C243.821 111.659 243.844 111.777 243.844 111.895C243.844 112.014 243.821 112.132 243.775 112.242C243.73 112.351 243.663 112.451 243.579 112.535C243.495 112.619 243.395 112.686 243.285 112.731C243.175 112.777 243.057 112.8 242.939 112.8Z" fill="#E57A7A"/>
<path d="M257.427 109.785H249.579C249.019 109.785 248.481 110.007 248.085 110.403C247.689 110.799 247.466 111.336 247.466 111.895C247.466 112.455 247.689 112.992 248.085 113.388C248.481 113.784 249.019 114.006 249.579 114.006H257.427C257.988 114.006 258.525 113.784 258.921 113.388C259.318 112.992 259.54 112.455 259.54 111.895C259.54 111.336 259.318 110.799 258.921 110.403C258.525 110.007 257.988 109.785 257.427 109.785ZM257.427 112.8H249.579C249.46 112.8 249.343 112.777 249.233 112.731C249.123 112.686 249.023 112.619 248.939 112.535C248.855 112.451 248.788 112.351 248.743 112.242C248.697 112.132 248.674 112.014 248.674 111.895C248.674 111.777 248.697 111.659 248.743 111.549C248.788 111.439 248.855 111.34 248.939 111.256C249.023 111.172 249.123 111.105 249.233 111.06C249.343 111.014 249.46 110.991 249.579 110.991H257.427C257.546 110.991 257.664 111.014 257.774 111.06C257.884 111.105 257.984 111.172 258.068 111.256C258.152 111.34 258.218 111.439 258.264 111.549C258.31 111.659 258.333 111.777 258.333 111.895C258.333 112.014 258.31 112.132 258.264 112.242C258.218 112.351 258.152 112.451 258.068 112.535C257.984 112.619 257.884 112.686 257.774 112.731C257.664 112.777 257.546 112.8 257.427 112.8Z" fill="#E57A7A"/>
<path d="M242.939 104.357H235.09C234.53 104.357 233.993 104.579 233.596 104.975C233.2 105.371 232.978 105.908 232.978 106.468C232.978 107.028 233.2 107.564 233.596 107.96C233.993 108.356 234.53 108.579 235.09 108.579H242.939C243.499 108.579 244.036 108.356 244.433 107.96C244.829 107.564 245.052 107.028 245.052 106.468C245.052 105.908 244.829 105.371 244.433 104.975C244.036 104.579 243.499 104.357 242.939 104.357ZM242.939 107.372H235.09C234.971 107.373 234.853 107.35 234.743 107.304C234.633 107.259 234.533 107.192 234.449 107.108C234.364 107.024 234.297 106.924 234.252 106.815C234.206 106.705 234.183 106.587 234.183 106.468C234.183 106.349 234.206 106.231 234.252 106.121C234.297 106.011 234.364 105.911 234.449 105.827C234.533 105.743 234.633 105.677 234.743 105.631C234.853 105.586 234.971 105.563 235.09 105.563H242.939C243.178 105.564 243.408 105.659 243.577 105.829C243.747 105.999 243.842 106.228 243.842 106.468C243.842 106.707 243.747 106.937 243.577 107.107C243.408 107.276 243.178 107.372 242.939 107.372Z" fill="#E57A7A"/>
<path d="M257.427 104.357H249.579C249.019 104.357 248.481 104.579 248.085 104.975C247.689 105.371 247.466 105.908 247.466 106.468C247.466 107.028 247.689 107.564 248.085 107.96C248.481 108.356 249.019 108.579 249.579 108.579H257.427C257.988 108.579 258.525 108.356 258.921 107.96C259.318 107.564 259.54 107.028 259.54 106.468C259.54 105.908 259.318 105.371 258.921 104.975C258.525 104.579 257.988 104.357 257.427 104.357ZM257.427 107.372H249.579C249.46 107.373 249.342 107.35 249.232 107.304C249.122 107.259 249.022 107.192 248.937 107.108C248.853 107.024 248.786 106.924 248.74 106.815C248.695 106.705 248.671 106.587 248.671 106.468C248.671 106.349 248.695 106.231 248.74 106.121C248.786 106.011 248.853 105.911 248.937 105.827C249.022 105.743 249.122 105.677 249.232 105.631C249.342 105.586 249.46 105.563 249.579 105.563H257.427C257.667 105.564 257.897 105.659 258.066 105.829C258.235 105.999 258.331 106.228 258.331 106.468C258.331 106.707 258.235 106.937 258.066 107.107C257.897 107.276 257.667 107.372 257.427 107.372Z" fill="#E57A7A"/>
<path d="M78.0372 92.4913C78.0372 92.4913 69.4604 128.666 79.9431 128.666C90.4258 128.666 115.203 87.7314 115.203 87.7314C115.203 87.7314 140.934 74.4038 130.451 69.644C119.968 64.8841 106.626 77.2597 106.626 77.2597L91.232 98.6102L90.4258 87.7314L78.0372 92.4913Z" fill="#A0616A"/>
<path d="M98.0495 62.0282L92.3316 56.3164C92.3316 56.3164 80.8959 62.9802 79.9429 69.644C78.99 76.3078 74.2251 97.2511 74.2251 97.2511L91.8551 98.6791L97.573 90.1113L98.0495 62.0282Z" fill="#CFCCE0"/>
<path d="M368.915 48.4862C368.197 46.3685 359.194 39.1702 364.711 37.9604L369.235 43.9863L390.035 23.209L392.127 25.2987L368.915 48.4862Z" fill="#E57A7A"/>
<path d="M368.915 119.138C368.197 117.02 359.194 109.822 364.711 108.612L369.235 114.638L390.035 93.8607L392.127 95.9504L368.915 119.138Z" fill="#E57A7A"/>
<path d="M368.915 190.799C368.197 188.681 359.194 181.483 364.711 180.273L369.235 186.299L390.035 165.522L392.127 167.611L368.915 190.799Z" fill="#E57A7A"/>
<path d="M431.917 46.3065C435.462 46.3065 438.335 43.4359 438.335 39.8949C438.335 36.3539 435.462 33.4833 431.917 33.4833C428.372 33.4833 425.499 36.3539 425.499 39.8949C425.499 43.4359 428.372 46.3065 431.917 46.3065Z" fill="white"/>
<path d="M559.321 39.2537H455.985V40.536H559.321V39.2537Z" fill="white"/>
<path d="M431.917 116.958C435.462 116.958 438.335 114.088 438.335 110.547C438.335 107.006 435.462 104.135 431.917 104.135C428.372 104.135 425.499 107.006 425.499 110.547C425.499 114.088 428.372 116.958 431.917 116.958Z" fill="white"/>
<path d="M559.321 109.905H455.985V111.188H559.321V109.905Z" fill="white"/>
<path d="M431.917 188.619C435.462 188.619 438.335 185.749 438.335 182.208C438.335 178.667 435.462 175.796 431.917 175.796C428.372 175.796 425.499 178.667 425.499 182.208C425.499 185.749 428.372 188.619 431.917 188.619Z" fill="white"/>
<path d="M559.321 181.566H455.985V182.849H559.321V181.566Z" fill="white"/>
<path d="M385.126 200.352H353.035V167.653H374.857V168.935H354.318V199.07H383.843V184.323H385.126V200.352Z" fill="white"/>
<path d="M385.126 128.543H353.035V95.8435H374.857V97.1258H354.318V127.26H383.843V112.514H385.126V128.543Z" fill="white"/>
<path d="M385.126 55.4505H353.035V22.7515H374.857V24.0338H354.318V54.1682H383.843V39.4216H385.126V55.4505Z" fill="white"/>
</g>
<defs>
<clipPath id="clip0">
<rect width="570" height="343" fill="white"/>
</clipPath>
</defs>
</svg>
