<svg width="570" height="433" viewBox="0 0 570 433" fill="none" xmlns="http://www.w3.org/2000/svg">
<g clip-path="url(#clip0)">
<path opacity="0.1" d="M562.748 124.902C562.649 125.367 562.555 125.832 562.445 126.292C559.021 142.1 553.424 157.333 545.102 171.323C544.825 171.788 544.548 172.253 544.267 172.718C538.779 181.719 532.213 190.015 524.715 197.421C520.569 201.518 516.048 205.411 510.671 208.217C503.137 212.157 494.329 213.756 485.673 215.063C476.683 216.427 467.567 217.566 458.478 218.794C455.248 219.223 452.037 219.677 448.845 220.158C440.064 221.459 431.345 222.964 422.835 224.961C412.315 227.422 402.119 230.646 392.487 235.182C391.717 235.531 390.957 235.9 390.205 236.29C389.453 236.666 388.696 237.048 387.955 237.435C387.214 237.821 386.483 238.208 385.757 238.605C385.381 238.809 385.005 239.013 384.634 239.227C384.264 239.441 383.898 239.629 383.538 239.838C382.452 240.445 381.387 241.067 380.322 241.694L380.28 241.72C379.575 242.133 378.881 242.556 378.192 242.979C374.255 245.373 370.402 247.871 366.549 250.384L364.127 251.952L360.373 254.382C359.642 254.857 358.896 255.333 358.16 255.803C357.637 256.148 357.115 256.493 356.546 256.848C353.811 258.573 351.038 260.266 348.193 261.881C347.52 262.268 346.841 262.654 346.157 263.031C340.408 266.241 334.396 268.954 328.187 271.141L328.103 271.172C324.979 272.263 321.792 273.164 318.56 273.869C316.696 274.277 314.827 274.611 312.937 274.867C307.885 275.584 302.762 275.656 297.692 275.081C287.736 273.926 278.406 270.101 268.455 268.81C247.969 266.197 228.072 274.616 208.807 281.211C204.07 282.831 199.298 284.348 194.492 285.763C191.297 286.709 188.091 287.602 184.859 288.465C165.06 293.701 144.852 297.248 124.454 299.068C115.927 299.904 107.349 300.095 98.7939 299.637C95.5413 299.439 92.3253 299.115 89.1667 298.592C78.3596 296.92 68.2834 293.413 60.1493 286.991C53.4875 281.718 48.7209 274.846 45.0924 267.655C41.3781 260.318 38.7556 252.477 37.3082 244.38C37.1098 243.277 36.9323 242.169 36.7861 241.061C36.5251 239.166 36.3301 237.26 36.2014 235.344C35.4989 225.131 36.7173 214.876 39.7933 205.113C43.239 194.181 48.982 183.687 51.5088 172.671C51.6133 172.204 51.7125 171.739 51.8064 171.276C52.1515 169.603 52.4077 167.912 52.5739 166.212C53.8634 152.677 48.9193 139.482 45.0402 126.245C44.9045 125.785 44.7687 125.32 44.6382 124.855C44.2206 123.385 43.8203 121.916 43.4374 120.45C39.8455 106.455 38.8483 91.4725 42.0487 77.504C42.1479 77.0389 42.268 76.5738 42.3828 76.1139C44.5254 67.2842 48.5544 59.0242 54.1924 51.9027C60.1859 44.3776 68.0536 38.1118 76.4592 32.609C80.5558 29.9265 84.7916 27.4198 89.1667 25.0891C92.2992 23.4169 95.5083 21.8334 98.7939 20.3389C125.133 8.31949 155.179 2.45091 184.891 3.74691C186.457 3.81485 188.023 3.89846 189.589 4.01343C191.156 4.12839 192.868 4.26426 194.507 4.41581C213.647 6.2762 232.27 10.7652 250.762 15.6722C256.959 17.3183 263.146 19.0063 269.327 20.6629C272.078 21.3945 274.825 22.1261 277.576 22.8368C291.051 26.3224 304.724 29.4788 318.57 31.8356C321.776 32.3896 324.985 32.8947 328.197 33.3511C339.351 34.992 350.595 35.9466 361.866 36.2096C366.248 36.2967 370.632 36.2584 375.018 36.0947C377.231 36.0145 379.447 35.8943 381.664 35.7341C404.557 34.1193 426.683 28.7158 448.845 23.6677C452.051 22.9361 455.262 22.2149 458.478 21.5042C462.696 20.574 466.915 19.6752 471.154 18.8443C497.535 13.655 521.049 16.639 545.577 27.3467C551.153 29.7767 556.723 32.7136 560.138 37.2757C563.552 41.8378 564.409 47.4399 565.045 52.8486C565.949 60.5514 566.539 68.3536 566.763 76.1975C566.763 76.6574 566.763 77.1225 566.794 77.5876C567.149 93.4322 565.97 109.428 562.748 124.902Z" fill="#FDEEE5"/>
<path opacity="0.1" d="M387.756 171.323H386.033V171.94V172.718H387.986L387.756 171.323ZM368.215 171.323C368.212 171.335 368.212 171.347 368.215 171.359C368.168 171.741 368.115 172.122 368.063 172.509V172.614V172.718H382.995V172.635L384.039 171.323H368.215ZM328.197 171.323V126.292H345.373C345.191 126.172 345.003 126.046 344.81 125.932L344.559 125.77L344.235 125.571C344.047 125.461 343.859 125.351 343.661 125.247C343.463 125.142 343.343 125.069 343.175 124.98L343.061 124.918H343.034H328.197V122.435L327.795 122.592L327.372 122.791H327.341L327.252 122.838L326.986 122.979L326.719 123.12C326.458 123.261 326.197 123.418 325.936 123.58L325.686 123.747L325.164 124.082C324.49 124.531 323.827 125.001 323.143 125.44C322.971 125.55 322.799 125.66 322.621 125.759C322.25 125.979 321.869 126.188 321.478 126.376C321.311 126.459 321.149 126.532 320.956 126.6L320.674 126.71L320.413 126.799C319.8 127.012 319.172 127.177 318.533 127.29V171.312H292.779C292.779 171.365 292.815 171.407 292.831 171.459C292.972 171.877 293.113 172.29 293.249 172.708H318.57V220.973C318.702 220.973 318.832 220.973 318.961 220.973L319.415 220.999L320.235 221.046L321.546 221.203L322.146 221.261L322.799 221.329H322.898L324.052 221.47L324.297 221.501L324.856 221.579L325.654 221.694L327.57 221.611L327.831 221.658C327.936 221.658 328.045 221.689 328.155 221.71V172.718H368.011V172.614V172.509C368.063 172.122 368.115 171.741 368.162 171.359C368.16 171.347 368.16 171.335 368.162 171.323H328.197ZM387.756 171.323H386.033V171.94V172.718H387.986L387.756 171.323ZM367.139 171.323C367.076 171.788 367.019 172.253 366.956 172.718H383.606L384.738 171.323H367.139ZM328.197 171.323V126.292H345.373C345.191 126.172 345.003 126.046 344.81 125.932L344.559 125.77L344.235 125.571C344.047 125.461 343.859 125.351 343.661 125.247C343.463 125.142 343.343 125.069 343.175 124.98L343.061 124.918H343.024H328.197V122.435L327.795 122.592L327.372 122.791H327.341L327.252 122.838L326.986 122.979L326.719 123.12C326.458 123.261 326.197 123.418 325.936 123.58L325.686 123.747L325.164 124.082C324.49 124.531 323.827 125.001 323.143 125.44C322.971 125.55 322.799 125.66 322.621 125.759C322.25 125.979 321.869 126.188 321.478 126.376C321.311 126.459 321.149 126.532 320.956 126.6L320.674 126.71L320.413 126.799C319.8 127.012 319.172 127.177 318.533 127.29V171.312H292.779C292.779 171.365 292.815 171.407 292.831 171.459C292.972 171.872 293.118 172.29 293.254 172.708H318.57V220.968H318.961L319.415 220.994L320.235 221.041L321.546 221.203L322.146 221.261L322.799 221.329H322.898L324.052 221.47L324.297 221.501L324.856 221.579L325.654 221.694L327.57 221.611L327.831 221.658C327.936 221.658 328.045 221.689 328.155 221.71V172.718H366.967C367.029 172.253 367.087 171.788 367.149 171.323H328.197ZM458.477 77.551H566.794C566.794 77.0859 566.794 76.6208 566.763 76.1609H458.477V21.4885C455.261 22.1853 452.051 22.9065 448.845 23.652V76.1609H331.042L330.745 75.8944L331.194 75.4972L375.012 36.0842C370.627 36.2514 366.243 36.2898 361.861 36.1992L328.192 66.4775V33.3511C324.976 32.8947 321.767 32.3896 318.564 31.8356V64.9516L269.337 20.6628C263.156 19.0063 256.969 17.3183 250.772 15.6722L317.719 75.8944L317.421 76.1609H194.523V4.46284C192.883 4.30955 191.244 4.17542 189.605 4.06045C188.038 3.94549 186.472 3.86187 184.906 3.79394V76.1609H98.7936V20.3859C95.5427 21.877 92.3336 23.4604 89.1663 25.1361V76.1609H42.3825C42.2676 76.6208 42.1475 77.0859 42.0483 77.551H89.1663V124.902H44.6379C44.7684 125.367 44.9041 125.832 45.0399 126.292H89.1663V171.323H51.8061C51.7121 171.786 51.6129 172.251 51.5085 172.718H89.1663V298.624C92.2988 299.11 95.541 299.449 98.7936 299.669V172.718H184.89V288.486C188.122 287.623 191.328 286.73 194.523 285.784V172.718H318.57V273.864C321.802 273.159 324.989 272.258 328.113 271.167L328.197 271.136V172.718H448.845V220.158C452.047 219.688 455.258 219.237 458.477 218.805V172.718H544.266C544.548 172.253 544.825 171.788 545.101 171.323H458.477V126.292H562.445C562.555 125.832 562.649 125.367 562.748 124.902H458.477V77.551ZM98.7936 77.551H184.89V124.902H98.7936V77.551ZM98.7936 171.323V126.292H184.89V171.323H98.7936ZM194.523 77.551H318.57V124.902H194.523V77.551ZM194.523 171.323V126.292H318.57V171.323H194.523ZM448.845 171.323H328.197V126.292H448.845V171.323ZM448.845 124.902H328.197V78.8209L329.888 77.551H448.845V124.902ZM368.215 171.323C368.212 171.335 368.212 171.347 368.215 171.359C368.168 171.741 368.115 172.122 368.063 172.509V172.614V172.718H382.995V172.635L384.039 171.323H368.215ZM387.756 171.323H386.033V171.94V172.718H387.986L387.756 171.323ZM328.197 171.323V126.292H345.373C345.191 126.172 345.003 126.046 344.81 125.932L344.559 125.77L344.235 125.571C344.047 125.461 343.859 125.351 343.661 125.247C343.463 125.142 343.343 125.069 343.175 124.98L343.061 124.918H343.034H328.197V122.435L327.795 122.592L327.372 122.791H327.341L327.252 122.838L326.986 122.979L326.719 123.12C326.458 123.261 326.197 123.418 325.936 123.58L325.686 123.747L325.164 124.082C324.49 124.531 323.827 125.001 323.143 125.44C322.971 125.55 322.799 125.66 322.621 125.759C322.25 125.979 321.869 126.188 321.478 126.376C321.311 126.459 321.149 126.532 320.956 126.6L320.674 126.71L320.413 126.799C319.8 127.012 319.172 127.177 318.533 127.29V171.312H292.779C292.779 171.365 292.815 171.407 292.831 171.459C292.972 171.877 293.113 172.29 293.249 172.708H318.57V220.973C318.702 220.973 318.832 220.973 318.961 220.973L319.415 220.999L320.235 221.046L321.546 221.203L322.146 221.261L322.799 221.329H322.898L324.052 221.47L324.297 221.501L324.856 221.579L325.654 221.694L327.57 221.611L327.831 221.658C327.936 221.658 328.045 221.689 328.155 221.71V172.718H368.011V172.614V172.509C368.063 172.122 368.115 171.741 368.162 171.359C368.16 171.347 368.16 171.335 368.162 171.323H328.197Z" fill="#E57A7A"/>
<path opacity="0.1" d="M140.19 44.9524H140.936C140.69 44.8482 140.476 44.6807 140.315 44.4668C140.155 44.2529 140.054 44.0004 140.023 43.7348C140.023 42.7732 141.458 41.9894 143.212 41.9894H165.537C167.291 41.9894 168.721 42.7732 168.721 43.7348C168.721 44.6911 167.291 45.4802 165.537 45.4802H164.79C165.036 45.5826 165.251 45.749 165.412 45.9621C165.572 46.1752 165.673 46.4274 165.704 46.6926C165.704 47.513 164.66 48.2029 163.266 48.3858H169.693C171.441 48.3858 172.877 49.1696 172.877 50.1312C172.877 51.0927 171.441 51.8766 169.693 51.8766H147.363C145.614 51.8766 144.178 51.0875 144.178 50.1312C144.178 49.3107 145.222 48.6261 146.616 48.438H140.19C138.435 48.438 137.005 47.6541 137.005 46.6926C137.005 45.731 138.435 44.9524 140.19 44.9524Z" fill="#E57A7A"/>
<path opacity="0.1" d="M382.144 61.5548H382.891C382.646 61.4499 382.433 61.282 382.273 61.0682C382.114 60.8544 382.013 60.6022 381.982 60.3372C381.982 59.3756 383.413 58.5918 385.167 58.5918H407.491C409.246 58.5918 410.681 59.3756 410.681 60.3372C410.681 61.2935 409.246 62.0774 407.491 62.0774H406.75C406.995 62.1823 407.208 62.3502 407.368 62.564C407.527 62.7778 407.627 63.0299 407.658 63.295C407.658 64.1154 406.614 64.8052 405.22 64.9882H411.647C413.401 64.9882 414.832 65.772 414.832 66.7336C414.832 67.6951 413.401 68.479 411.647 68.479H389.323C387.569 68.479 386.133 67.6899 386.133 66.7336C386.133 65.9131 387.177 65.2233 388.571 65.0404H382.144C380.395 65.0404 378.959 64.2565 378.959 63.295C378.959 62.3334 380.395 61.5548 382.144 61.5548Z" fill="#E57A7A"/>
<path opacity="0.1" d="M105.925 132.605H106.667C106.421 132.5 106.208 132.333 106.048 132.119C105.889 131.905 105.789 131.652 105.758 131.387C105.758 130.431 107.194 129.642 108.943 129.642H131.272C133.021 129.642 134.457 130.431 134.457 131.387C134.457 132.349 133.021 133.133 131.272 133.133H130.526C130.771 133.235 130.985 133.402 131.145 133.615C131.305 133.828 131.405 134.08 131.434 134.345C131.434 135.166 130.39 135.855 128.996 136.038H135.423C137.177 136.038 138.613 136.827 138.613 137.784C138.613 138.74 137.177 139.529 135.423 139.529H113.12C111.365 139.529 109.935 138.745 109.935 137.784C109.935 136.968 110.979 136.279 112.373 136.09H105.925C104.171 136.09 102.735 135.307 102.735 134.345C102.735 133.384 104.192 132.605 105.925 132.605Z" fill="#E57A7A"/>
<path opacity="0.1" d="M526.282 318.829C530.032 300.46 484.116 275.555 423.726 263.202C363.337 250.849 311.341 255.725 307.59 274.094C303.84 292.463 349.756 317.368 410.146 329.721C470.536 342.074 522.531 337.197 526.282 318.829Z" fill="#E57A7A"/>
<path d="M404.327 201.131C404.327 201.131 410.263 171.966 432.927 174.667C432.927 174.667 448.589 175.744 451.811 186.007V208.693L404.327 201.131Z" fill="#3A3768"/>
<path d="M528.442 211.938L326.62 195.189L300.72 200.593L302.338 236.781L304.103 236.996L306.113 291.339L504.155 326.984L525.205 309.159V250.248L527.899 248.665L528.442 211.938Z" fill="#D48A9B"/>
<path opacity="0.05" d="M528.714 211.938L528.171 248.665L506.316 258.928L506.045 220.576L528.714 211.938Z" fill="black"/>
<path opacity="0.05" d="M525.205 250.285L525.471 308.082L504.426 325.908L505.778 258.928L525.205 250.285Z" fill="black"/>
<path opacity="0.05" d="M304.375 239.159L505.941 263.778L506.045 259.106L304.223 237.32L304.375 239.159Z" fill="black"/>
<path opacity="0.05" d="M525.205 252.407V250.285L505.235 259.106V263.788L525.205 252.407Z" fill="black"/>
<path d="M300.448 200.593L326.349 195.189L528.171 211.938L505.507 220.576L300.448 200.593Z" fill="#EFC6CD"/>
<path opacity="0.1" d="M506.671 212.978L516.575 213.626L500.161 218.543L491.802 217.942L506.671 212.978Z" fill="black"/>
<path d="M506.671 212.544L516.575 213.192L500.161 218.115L491.802 217.509L506.671 212.544Z" fill="white"/>
<path d="M505.486 213.657C505.878 213.49 506.29 213.809 506.708 213.887C506.948 213.934 507.194 213.887 507.434 213.934C507.919 213.997 508.4 214.321 508.864 214.159" fill="#D3DAE1"/>
<path d="M504.975 213.955C505.361 213.788 505.779 214.101 506.196 214.185C506.436 214.227 506.682 214.185 506.922 214.227C507.407 214.295 507.888 214.619 508.352 214.457" fill="#D3DAE1"/>
<path d="M503.794 214.551C504.186 214.384 504.604 214.697 505.021 214.775C505.256 214.823 505.507 214.775 505.742 214.823C506.233 214.89 506.713 215.214 507.172 215.047" fill="#D3DAE1"/>
<path opacity="0.1" d="M463.861 208.097L473.765 208.75L457.35 213.668L448.992 213.061L463.861 208.097Z" fill="black"/>
<path d="M463.861 207.668L473.765 208.316L457.35 213.234L448.992 212.633L463.861 207.668Z" fill="white"/>
<path d="M462.675 208.782C463.067 208.614 463.479 208.928 463.897 209.011C464.137 209.053 464.382 209.011 464.623 209.053C465.108 209.121 465.589 209.445 466.053 209.283" fill="#D3DAE1"/>
<path d="M462.164 209.079C462.55 208.912 462.968 209.226 463.385 209.304C463.625 209.351 463.871 209.304 464.111 209.351C464.596 209.419 465.077 209.743 465.541 209.576" fill="#D3DAE1"/>
<path d="M460.984 209.67C461.375 209.503 461.793 209.821 462.211 209.9C462.446 209.947 462.696 209.9 462.931 209.947C463.422 210.01 463.902 210.339 464.362 210.172" fill="#D3DAE1"/>
<path opacity="0.1" d="M484.394 210.537L494.303 211.185L477.889 216.108L469.525 215.502L484.394 210.537Z" fill="black"/>
<path d="M484.394 210.109L494.303 210.757L477.889 215.674L469.525 215.068L484.394 210.109Z" fill="white"/>
<path d="M483.209 211.222C483.601 211.055 484.018 211.368 484.436 211.447C484.671 211.494 484.916 211.447 485.156 211.494C485.642 211.556 486.127 211.886 486.587 211.718" fill="#D3DAE1"/>
<path d="M482.697 211.515C483.089 211.347 483.507 211.666 483.924 211.745C484.159 211.792 484.405 211.745 484.645 211.792C485.13 211.854 485.616 212.183 486.075 212.016" fill="#D3DAE1"/>
<path d="M481.522 212.11C481.909 211.943 482.326 212.257 482.744 212.34C482.984 212.382 483.23 212.34 483.47 212.382C483.955 212.45 484.436 212.774 484.9 212.612" fill="#D3DAE1"/>
<path opacity="0.1" d="M260.165 413.56C318.547 413.56 365.876 403.808 365.876 391.779C365.876 379.749 318.547 369.998 260.165 369.998C201.782 369.998 154.453 379.749 154.453 391.779C154.453 403.808 201.782 413.56 260.165 413.56Z" fill="#E57A7A"/>
<path d="M375.926 213.412C374.798 203.493 370.334 194.029 370.334 194.029L370.674 190.685C370.674 190.685 370.747 189.012 370.637 186.504C370.649 184.938 370.854 183.379 371.248 181.863C372.162 178.963 370.105 175.399 369.875 175.07C369.645 174.741 369.99 168.381 367.933 165.261C365.876 162.141 352.176 156.341 352.176 156.341C352.176 156.341 351.44 154.799 350.401 152.996L350.495 152.813C349.645 151.27 348.592 149.848 347.363 148.585C346.522 147.687 345.713 147.174 345.06 147.425C344.795 146.558 344.593 145.672 344.455 144.776C344.59 144.812 344.731 144.849 344.867 144.875C345.433 145.006 346.019 145.021 346.59 144.917C347.864 144.629 348.71 143.485 349.42 142.408C352.959 137.026 356.008 131.121 356.63 124.75C356.797 123.45 356.735 122.131 356.447 120.852C356.153 119.858 355.743 118.902 355.225 118.004C354.31 116.162 353.151 114.451 351.78 112.919C349.341 110.348 345.979 108.775 342.523 107.845C338.629 106.797 334.573 106.494 330.567 106.951C329.523 107.072 328.479 107.244 327.435 107.312C326.11 107.37 324.783 107.348 323.462 107.244L316.628 106.847L316.596 106.742L315.458 106.674C315.009 107.568 315.458 108.629 316.017 109.465C316.575 110.301 317.218 111.174 317.171 112.162C317.124 113.149 316.408 113.944 315.85 114.774C315.291 115.605 314.868 116.692 315.427 117.508C315.505 117.62 315.598 117.722 315.704 117.811C316.294 118.422 317.322 118.49 318.215 118.48H318.371C316.123 121.443 314.907 125.063 314.91 128.785C314.925 131.965 315.814 135.08 317.48 137.788C319.146 140.496 321.524 142.693 324.355 144.138C324.454 144.478 324.553 144.828 324.647 145.183C325.682 148.854 326.053 152.68 325.743 156.482L325.623 156.743L325.55 156.466C325.55 156.466 317.5 161.932 315.108 163.38C312.717 164.827 310.316 169.734 310.201 171.072C310.086 172.41 306.317 192.587 306.317 192.587C305.551 194.619 304.919 196.7 304.427 198.816L299.618 203.044C299.618 203.044 289.699 203.937 286.827 203.268L286.911 203.822C284.378 203.244 281.8 202.894 279.205 202.777C277.788 202.595 276.348 202.787 275.028 203.336L274.929 203.383L274.851 203.42C273.339 203.627 271.863 204.042 270.465 204.653C270.298 204.721 270.147 204.789 270 204.857L270.032 204.172L259.298 203.618L253.816 202.505C253.816 202.505 251.874 200.938 250.73 201.167C249.587 201.397 247.191 199.83 247.191 199.83C246.644 199.401 246.052 199.033 245.426 198.732C245.243 197.468 245.128 196.699 245.128 196.699C245.128 196.699 240.863 179.757 237.668 169.797C235.527 163.145 232.447 159.868 230.63 158.441C229.821 157.03 229.288 156.121 229.288 156.121C228.939 154.898 227.017 152.144 226.527 152.076C226.448 151.951 226.391 151.888 226.36 151.888C226.255 151.877 226.148 151.893 226.051 151.935C225.154 147.462 224.631 141.855 226.005 136.968C227.884 135.422 229.399 133.479 230.441 131.278C231.482 129.078 232.025 126.674 232.029 124.238C232.029 124.165 232.029 124.092 232.029 124.019C232.029 123.946 232.029 123.867 232.029 123.794C232.028 119.91 230.654 116.153 228.15 113.186L227.973 112.987C228.02 112.954 228.066 112.917 228.108 112.877C228.501 112.559 228.8 112.14 228.973 111.665C229.147 111.191 229.189 110.678 229.095 110.181C228.86 109.178 228.077 108.388 227.675 107.437C227.434 106.705 227.24 105.958 227.096 105.201C226.788 104.125 226.224 103.14 225.451 102.332L225.529 102.541C223.483 100.236 219.964 99.0918 216.795 99.6039C214.44 99.9801 212.248 101.078 209.883 101.417C208.186 101.658 206.458 101.501 204.751 101.673C203.167 101.836 201.625 102.282 200.198 102.99C199.825 103.149 199.495 103.392 199.232 103.701C198.989 104.114 198.826 104.57 198.752 105.044C198.172 107.16 196.335 108.671 195.003 110.437C193.482 112.455 192.602 114.884 192.476 117.408C192.424 118.05 192.486 118.696 192.659 119.316C192.774 119.687 192.951 120.037 193.035 120.413C193.296 121.563 192.696 122.707 192.403 123.846C192.035 125.3 192.165 126.835 192.774 128.205C194.836 132.824 201.608 134.366 203.017 139.216C204.096 139.712 205.235 140.063 206.405 140.261C206.499 140.741 206.583 141.227 206.651 141.719C206.619 141.732 206.589 141.75 206.562 141.771C204.735 143.553 204.281 146.997 204.281 146.997L204.061 147.174C203.315 147.791 200.762 149.86 198.454 151.454C195.713 153.351 191.145 159.706 187.95 161.603C184.755 163.5 182.123 175.19 182.813 179.439C183.502 183.687 186.352 195.602 185.209 199.95C184.066 204.298 186.921 224.14 186.921 224.14C188.838 224.505 190.713 225.062 192.518 225.802L192.461 226.669L192.288 229.282C192.288 229.282 187.115 248.012 189.093 262.43C191.072 276.848 188.18 278.332 188.18 278.332C188.18 278.332 188.785 284.723 187.266 286.954C185.747 289.186 185.439 294.088 185.439 294.088C185.439 294.088 185.287 305.088 185.59 308.197C185.893 311.307 186.044 316.971 184.979 318.309C183.914 319.647 181.935 328.411 182.087 331.086C182.238 333.762 178.281 339.86 180.411 347.736C182.541 355.611 174.146 355.763 174.146 355.763C174.146 355.763 175.216 367.782 177.498 371.221L177.832 371.712C177.774 371.91 177.717 372.119 177.654 372.344C176.793 375.48 175.613 380.428 176.433 381.625C177.649 383.412 178.26 383.109 178.26 383.109L178.714 391.136C178.714 391.136 187.851 398.865 194.857 398.572C201.863 398.28 200.49 391.136 200.49 391.136L194.523 375.647L194.319 375.124L200.95 362.582C200.95 362.582 202.777 357.085 203.231 355.151C203.685 353.218 206.165 346.367 206.165 346.367C206.165 346.367 212.43 331.504 212.561 329.717C212.691 327.93 213.172 318.278 214.388 316.339C215.605 314.4 218.956 303.275 218.956 303.275L219.04 303.348C219.608 303.907 220.015 304.61 220.215 305.382C220.416 306.155 220.403 306.967 220.178 307.732C219.411 310.554 219.87 316.35 219.87 316.35C219.87 316.35 219.567 321.257 218.956 323.786C218.346 326.315 218.199 346.973 219.264 351.875C220.115 355.799 220.089 363.147 220.048 365.927C219.332 368.879 218.706 372.548 219.87 372.982C221.854 373.729 231.904 373.577 231.904 373.577C231.904 373.577 236.164 372.088 241.954 377.293C247.744 382.498 265.552 375.809 265.552 375.809C265.552 375.809 271.034 374.319 260.222 370.013C252.678 367.009 247.807 365.007 244.622 362.865C244.695 362.723 244.773 362.582 244.841 362.431C244.841 362.431 240.424 358.25 244.079 350.84C247.734 343.43 247.582 337.164 247.582 337.164L248.193 312.19L246.366 279.037L244.951 244.244L245.202 244.16C245.442 250.557 246.689 265.785 253.221 262.832C261.444 259.116 254.437 249.454 254.437 249.454L250.746 242.253L251.848 241.877L247.718 228.519C247.322 225.912 247.269 223.265 247.561 220.644C247.643 219.111 247.612 217.574 247.467 216.045C252.876 215.1 258.055 214.096 258.984 214.326C260.081 214.593 266.215 214.645 268.627 214.655C267.839 215.272 267.207 215.883 267.207 215.883L277.028 222.499C277.028 222.499 280.359 220.675 281.053 218.742C281.736 218.569 282.367 218.232 282.891 217.759C282.995 220.043 283.601 222.515 285.71 222.572C286.237 222.583 286.761 222.48 287.245 222.269L303.304 219.087L301.926 227.704L302.886 229.413C302.401 236.682 301.842 244.401 301.352 251.189L301.127 252.673L301.242 252.699C300.48 263.151 299.869 271.068 299.869 271.068C300.768 269.352 302.164 267.948 303.873 267.039L303.978 282.549C303.978 282.549 304.782 307.074 304.782 310.418C304.782 313.763 304.891 321.23 304.891 321.23C304.891 321.23 306.609 330.37 307.632 333.38C308.655 336.391 309.459 350.103 309.459 350.103C309.459 350.103 311.861 353.892 310.833 355.329C309.804 356.766 314.832 359.896 314.832 359.896C314.832 359.896 311.631 364.244 311.402 367.144C311.376 367.479 311.704 367.834 312.3 368.19C312.112 368.341 311.919 368.493 311.704 368.639C310.222 369.632 308.05 370.322 304.782 370.039C295.87 369.256 289.589 377.507 295.071 379.179C300.553 380.852 316.998 381.186 316.998 381.186C316.998 381.186 321.979 378.077 325.874 379.477C325.816 382.749 325.978 385.748 326.004 386.145L325.957 386.182C323.629 388.272 319.17 391.868 314.816 393.336C308.551 395.453 307.162 404.039 315.27 405.152C323.378 406.265 335.256 403.814 335.256 403.814C335.256 403.814 341.421 399.247 346.104 398.243C350.788 397.24 354.787 395.008 353.988 392.333C353.466 390.624 352.124 386.145 351.216 383.135C351.163 382.954 351.111 382.78 351.059 382.613C351.2 382.299 351.341 381.975 351.472 381.641C351.472 381.641 349.075 369.156 351.017 366.037C352.959 362.917 351.931 331.698 351.931 331.698C351.931 331.698 348.616 323.786 350.333 318.994C352.051 314.202 347.592 307.398 347.592 307.398C347.592 307.398 348.078 293.764 349.383 286.165C349.442 285.841 349.5 285.528 349.555 285.225C351.741 284.575 353.871 283.752 355.925 282.763C355.925 282.763 357.068 265.591 357.752 261.693C357.82 261.327 357.914 260.736 358.029 259.968L358.551 257.214L359.167 254.079L361.255 243.392L365.025 238.511L374.736 228.582C374.736 228.582 377.069 223.335 375.926 213.412ZM226.172 152.097L226.098 152.149C226.087 152.112 226.079 152.073 226.072 152.034C226.103 152.059 226.136 152.08 226.172 152.097ZM322.115 164.268L321.739 165.089L323.112 163.719L321.248 165.81L321.875 164.493L322.115 164.268ZM312.843 183.447C312.482 184.403 312.096 185.438 311.694 186.514L312.43 184.314L312.843 183.447Z" fill="url(#paint0_linear)"/>
<path d="M282.88 214.713C282.88 214.713 281.601 223.236 285.439 223.346C289.276 223.456 291.839 216.772 291.839 216.772L290.273 211.426L282.88 214.713Z" fill="#585B8A"/>
<path opacity="0.2" d="M282.88 214.713C282.88 214.713 281.601 223.236 285.439 223.346C289.276 223.456 291.839 216.772 291.839 216.772L290.273 211.426L282.88 214.713Z" fill="black"/>
<path d="M196.93 399.205C190.101 399.503 181.194 391.779 181.194 391.779L180.75 383.757C180.75 383.757 180.16 384.055 178.97 382.273C178.171 381.076 179.32 376.117 180.16 372.997C180.568 371.471 180.902 370.384 180.902 370.384L195.886 374.398L196.601 376.295L202.417 391.774C202.417 391.774 203.753 398.907 196.93 399.205Z" fill="#636992"/>
<path d="M265.777 376.483C265.777 376.483 248.418 383.167 242.806 377.967C237.193 372.767 233.011 374.251 233.011 374.251C233.011 374.251 223.217 374.403 221.285 373.656C220.147 373.222 220.763 369.506 221.473 366.549C221.954 364.505 222.476 362.817 222.476 362.817C222.476 362.817 239.537 357.022 242.21 360.586C243.013 361.633 243.973 362.55 245.056 363.303C248.146 365.54 252.976 367.568 260.614 370.687C271.118 374.994 265.777 376.483 265.777 376.483Z" fill="#636992"/>
<path d="M250.198 240.722L254.943 250.227C254.943 250.227 261.772 259.885 253.758 263.595C245.744 267.305 245.896 242.211 245.896 242.211L250.198 240.722Z" fill="#FFD6D6"/>
<path d="M230.312 158.29C230.312 158.29 235.506 160.667 238.623 170.617C241.74 180.567 245.896 197.504 245.896 197.504C245.896 197.504 248.715 216.662 248.266 221.418C247.98 224.037 248.031 226.681 248.417 229.288L252.422 242.655L244.408 245.477L232.092 198.246L230.312 158.29Z" fill="#DCE6F2"/>
<path opacity="0.05" d="M230.312 158.29C230.312 158.29 235.506 160.667 238.623 170.617C241.74 180.567 245.896 197.504 245.896 197.504C245.896 197.504 248.715 216.662 248.266 221.418C247.98 224.037 248.031 226.681 248.417 229.288L252.422 242.655L244.408 245.477L232.092 198.246L230.312 158.29Z" fill="black"/>
<path opacity="0.1" d="M195.886 374.403L196.601 376.3L195.724 377.977C192.31 379.462 183.852 378.275 183.852 378.275C183.852 378.275 182.286 376.284 180.145 373.008C180.552 371.482 180.886 370.395 180.886 370.395L195.886 374.403Z" fill="black"/>
<path opacity="0.1" d="M245.598 364.004C241.27 373.818 226.558 370.175 222.47 368.947C221.796 368.743 221.426 368.608 221.426 368.608C221.426 368.608 221.452 367.808 221.462 366.549C221.943 364.505 222.465 362.817 222.465 362.817C222.465 362.817 239.526 357.022 242.199 360.586C243.002 361.633 243.962 362.55 245.045 363.303C245.208 363.553 245.393 363.787 245.598 364.004Z" fill="black"/>
<path d="M244.852 351.53C241.291 358.95 245.599 363.115 245.599 363.115C241.27 372.924 226.558 369.287 222.47 368.054C221.797 367.855 221.426 367.719 221.426 367.719C221.426 367.719 221.724 357.466 220.685 352.564C219.646 347.663 219.792 327.021 220.387 324.497C220.982 321.972 221.275 317.065 221.275 317.065C221.275 317.065 220.831 311.275 221.572 308.453C221.795 307.691 221.81 306.883 221.616 306.113C221.421 305.342 221.024 304.639 220.465 304.074L220.387 303.996C220.387 303.996 217.124 315.137 215.934 317.06C214.743 318.983 214.305 328.646 214.153 330.428C214.002 332.21 207.92 347.067 207.92 347.067C207.92 347.067 205.549 353.897 205.106 355.825C204.662 357.754 202.876 363.256 202.876 363.256L195.724 377.073C192.309 378.558 183.852 377.371 183.852 377.371C183.852 377.371 182.223 375.281 179.993 371.874C177.764 368.466 176.73 356.431 176.73 356.431C176.73 356.431 184.891 356.28 182.813 348.41C180.735 340.54 184.593 334.446 184.447 331.771C184.301 329.095 186.227 320.337 187.266 318.999C188.305 317.661 188.154 312.017 187.856 308.897C187.558 305.778 187.71 294.788 187.71 294.788C187.71 294.788 188.007 289.886 189.49 287.66C190.973 285.434 190.383 279.042 190.383 279.042C190.383 279.042 193.197 277.558 191.27 263.151C189.344 248.743 194.403 230.03 194.403 230.03L194.575 227.417L194.847 223.184C194.847 223.184 237.287 220.508 240.701 223.774C241.594 224.681 242.326 225.732 242.868 226.884C244.036 229.397 244.861 232.057 245.322 234.79L247.102 279.795L248.882 312.916L248.287 337.869C248.287 337.869 248.418 344.099 244.852 351.53Z" fill="#565988"/>
<path opacity="0.1" d="M232.27 262.707L227.816 359.248L222.47 368.048C221.797 367.85 221.426 367.714 221.426 367.714C221.426 367.714 221.724 357.461 220.685 352.559C219.646 347.657 219.792 327.015 220.387 324.491C220.982 321.967 221.275 317.06 221.275 317.06C221.275 317.06 220.831 311.27 221.572 308.448C221.795 307.686 221.81 306.877 221.616 306.107C221.421 305.337 221.024 304.633 220.466 304.069L220.539 303.546L232.27 262.707Z" fill="black"/>
<path opacity="0.1" d="M184.311 366.381C184.311 366.381 195.885 361.777 197.666 363.246C199.446 364.714 184.019 366.956 184.019 366.956L184.311 366.381Z" fill="black"/>
<path opacity="0.1" d="M241.443 354.2C240.999 354.352 229.722 358.381 230.761 362.666C231.8 366.951 241.443 354.2 241.443 354.2Z" fill="black"/>
<path d="M206.202 134.455C206.202 134.455 209.982 143.59 207.982 148.272C205.983 152.954 229.571 160.971 229.571 160.971C229.571 160.971 222.674 143.145 229.351 133.117C236.029 123.089 206.202 134.455 206.202 134.455Z" fill="#FFD6D6"/>
<path d="M344.314 398.907C339.751 399.91 333.742 404.478 333.742 404.478C333.742 404.478 322.167 406.928 314.263 405.815C306.358 404.702 307.7 396.121 313.819 394.005C318.064 392.542 322.413 388.931 324.684 386.861C325.686 385.936 326.281 385.294 326.281 385.294L348.433 380.836C348.433 380.836 348.793 382.074 349.295 383.783C350.182 386.799 351.493 391.272 351.994 392.976C352.772 395.677 348.877 397.903 344.314 398.907Z" fill="#505484"/>
<path d="M338.639 381.751C338.639 381.751 329.288 382.754 325.394 380.528C321.499 378.301 315.934 381.865 315.934 381.865C315.934 381.865 299.906 381.531 294.565 379.859C289.224 378.186 295.343 369.93 304.025 370.724C307.189 371.011 309.329 370.316 310.775 369.324C312.286 368.287 313.339 366.707 313.715 364.913L332.51 366.026L335.12 372.694L338.639 381.751Z" fill="#505484"/>
<path opacity="0.1" d="M335.407 375.736C335.407 375.736 313.563 372.161 310.775 369.324C312.286 368.287 313.339 366.707 313.715 364.913L332.51 366.026L335.12 372.694L335.407 375.736Z" fill="black"/>
<path d="M303.022 250.64L303.247 283.275C303.247 283.275 304.025 307.784 304.025 311.129C304.025 314.474 304.135 321.931 304.135 321.931C304.135 321.931 305.805 331.065 306.808 334.075C307.81 337.086 308.588 350.798 308.588 350.798C308.588 350.798 310.927 354.587 309.924 356.024C308.922 357.461 313.819 360.591 313.819 360.591C313.819 360.591 310.687 364.939 310.483 367.834C310.279 370.729 335.407 374.842 335.407 374.842L325.618 274.365L317.824 249.193L303.022 250.64Z" fill="#575988"/>
<path opacity="0.1" d="M303.022 250.64L303.247 283.275C303.247 283.275 304.025 307.784 304.025 311.129C304.025 314.474 304.135 321.931 304.135 321.931C304.135 321.931 305.805 331.065 306.808 334.075C307.81 337.086 308.588 350.798 308.588 350.798C308.588 350.798 310.927 354.587 309.924 356.024C308.922 357.461 313.819 360.591 313.819 360.591C313.819 360.591 310.687 364.939 310.483 367.834C310.279 370.729 335.407 374.842 335.407 374.842L325.618 274.365L317.824 249.193L303.022 250.64Z" fill="black"/>
<path opacity="0.1" d="M349.295 383.809C342.022 401.164 324.725 387.771 324.725 387.771C324.725 387.771 324.725 387.436 324.684 386.861C325.686 385.936 326.281 385.294 326.281 385.294L348.433 380.836C348.433 380.836 348.793 382.101 349.295 383.809Z" fill="black"/>
<path d="M349.545 382.31C342.419 400.6 324.725 386.877 324.725 386.877C324.725 386.877 324.167 377.408 325.284 373.065C326.401 368.723 324.057 355.684 324.057 355.684C324.057 355.684 322.72 344.099 321.499 341.428C320.277 338.758 320.387 333.407 320.387 332.962C320.387 332.518 320.83 328.949 319.828 326.498C318.826 324.047 318.262 318.032 318.262 318.032C318.262 318.032 318.262 309.566 317.259 304.555L313.808 287.31L307.575 251.994L309.522 251.659L344.413 245.535C344.413 245.535 350.981 278.98 348.751 282.408C348.271 283.16 347.848 284.807 347.498 286.928C346.225 294.516 345.749 308.14 345.749 308.14C345.749 308.14 350.088 314.933 348.423 319.725C346.757 324.517 349.989 332.424 349.989 332.424C349.989 332.424 350.991 363.617 349.096 366.737C347.201 369.857 349.545 382.31 349.545 382.31Z" fill="#575988"/>
<path d="M346.204 154.282C346.204 154.282 314.597 176.559 321.718 165.418C325.555 159.418 324.85 151.778 323.347 146.009C322.587 143.075 321.537 140.223 320.214 137.496C320.214 137.496 347.07 126.062 343.51 136.31C342.675 138.697 342.32 141.226 342.466 143.752C342.679 147.547 343.976 151.202 346.204 154.282Z" fill="#D28690"/>
<path d="M289.297 205.301C289.297 205.301 275.942 201.439 273.718 205.228C271.494 209.017 274.386 217.331 278.417 218.669C282.447 220.007 291.699 214.138 291.699 214.138L289.297 205.301Z" fill="#D28690"/>
<path d="M304.583 198.732L299.018 203.859C299.018 203.859 289.333 204.747 286.55 204.078C286.55 204.078 289.114 221.235 285.438 223.351L307.919 218.784L304.583 198.732Z" fill="#585B8A"/>
<path opacity="0.1" d="M304.583 198.732L299.018 203.859C299.018 203.859 289.333 204.747 286.55 204.078C286.55 204.078 289.114 221.235 285.438 223.351L307.919 218.784L304.583 198.732Z" fill="black"/>
<path opacity="0.1" d="M233.131 125.095C233.131 129.53 231.371 133.784 228.238 136.92C225.105 140.056 220.855 141.818 216.424 141.818C207.852 137.695 199.718 134.34 199.718 125.095C199.629 122.845 199.995 120.601 200.794 118.496C201.592 116.391 202.808 114.469 204.367 112.846C205.926 111.223 207.796 109.931 209.866 109.049C211.935 108.167 214.162 107.712 216.411 107.712C218.661 107.712 220.887 108.167 222.957 109.049C225.027 109.931 226.897 111.223 228.456 112.846C230.015 114.469 231.23 116.391 232.029 118.496C232.828 120.601 233.194 122.845 233.105 125.095H233.131Z" fill="black"/>
<path d="M233.131 124.646C233.133 128.579 231.748 132.386 229.22 135.397C226.692 138.407 223.183 140.427 219.312 141.101C215.441 141.775 211.457 141.059 208.062 139.079C204.667 137.1 202.079 133.984 200.755 130.281C199.432 126.578 199.456 122.526 200.826 118.84C202.195 115.154 204.82 112.07 208.239 110.132C211.658 108.194 215.651 107.527 219.514 108.248C223.376 108.97 226.86 111.033 229.351 114.074C231.791 117.057 233.126 120.791 233.131 124.646Z" fill="#FFD6D6"/>
<path opacity="0.1" d="M242.868 226.899C241.215 227.927 239.485 228.825 237.694 229.585C237.694 229.585 229.236 228.357 228.014 229.805C226.793 231.252 216.007 231.812 216.007 231.812C216.007 231.812 199.535 231.033 197.086 228.917C196.329 228.303 195.487 227.803 194.585 227.432L194.857 223.199C194.857 223.199 237.297 220.524 240.711 223.79C241.6 224.697 242.329 225.749 242.868 226.899Z" fill="black"/>
<path d="M244.93 223.905C244.596 225.797 237.694 228.692 237.694 228.692C237.694 228.692 229.236 227.469 228.015 228.917C226.793 230.364 216.007 230.923 216.007 230.923C216.007 230.923 199.535 230.139 197.086 228.023C194.638 225.906 189.182 224.887 189.182 224.887C189.182 224.887 186.399 205.061 187.517 200.718C188.634 196.375 185.846 184.45 185.178 180.217C184.51 175.984 187.068 164.289 190.185 162.397C193.301 160.505 197.755 154.151 200.423 152.259C202.673 150.665 205.158 148.601 205.884 147.979L206.098 147.802C206.098 147.802 206.547 144.347 208.327 142.576C210.107 140.804 226.464 153.827 226.464 153.827C226.464 153.827 226.579 154.83 227.691 152.939C227.942 152.515 230.098 155.63 230.474 156.947C230.474 156.947 239.375 172.546 239.934 175.76C240.492 178.973 242.826 189.462 243.27 192.022C243.385 192.681 243.573 194.991 243.792 198.084C243.834 198.69 243.87 199.333 243.917 200.002C244.246 205.134 244.601 211.687 244.815 216.641C244.815 217.205 244.862 217.749 244.878 218.272C244.991 220.147 245.008 222.028 244.93 223.905Z" fill="#DCE6F2"/>
<path opacity="0.1" d="M188.415 183.687C188.415 183.687 194.533 191.15 196.538 191.15C198.543 191.15 188.415 183.687 188.415 183.687Z" fill="black"/>
<path opacity="0.1" d="M201.305 199.73C201.305 199.73 191.286 210.647 192.623 212.654C193.959 214.661 201.305 199.73 201.305 199.73Z" fill="black"/>
<path opacity="0.1" d="M193.959 221.454C193.959 221.454 205.445 208.865 205.967 204.522L193.959 221.454Z" fill="black"/>
<path opacity="0.1" d="M208.426 222.342C208.426 222.342 221.671 215.324 222.783 209.753C223.895 204.183 208.426 222.342 208.426 222.342Z" fill="black"/>
<path opacity="0.1" d="M225.232 154.616L223.394 159.068L226.453 160.516L229.461 168.929C229.461 168.929 237.751 185.527 237.417 194.16C237.083 202.793 238.921 215.768 238.921 215.768L243.703 214.88L241.448 189.488C241.096 185.556 240.113 181.708 238.534 178.09C234.713 169.332 227.602 153.163 227.153 153.163C226.542 153.163 226.97 153.388 226.97 153.388L225.232 154.616Z" fill="black"/>
<path d="M225.676 154.167L223.838 158.624L226.903 160.072L229.904 168.485C229.904 168.485 238.195 185.082 237.861 193.715C237.527 202.349 239.365 215.324 239.365 215.324L244.152 214.436L241.892 189.044C241.544 185.112 240.562 181.263 238.983 177.646C235.162 168.882 228.051 152.719 227.607 152.719C226.991 152.719 227.419 152.944 227.419 152.944L225.676 154.167Z" fill="#575989"/>
<path d="M279.873 219.636C277.545 219.458 271.958 216.631 269.74 215.455L268.8 214.932L268.915 206.304C269.463 205.982 270.032 205.694 270.617 205.442C273.582 204.146 279.664 202.385 282.713 208.055C286.827 215.659 282.823 219.834 279.873 219.636Z" fill="#FFD6D6"/>
<path opacity="0.1" d="M229.351 114.074C229.112 114.224 228.849 114.332 228.573 114.393C226.636 114.816 224.433 113.149 222.773 114.22C221.76 114.879 221.525 116.243 221.389 117.445C221.153 119.535 220.916 121.612 220.679 123.674C220.629 124.408 220.475 125.132 220.22 125.822C219.4 127.698 217.15 128.581 215.098 128.55C214.294 128.607 213.501 128.344 212.89 127.818C212.529 127.452 212.336 126.94 211.939 126.606C209.329 124.416 208.535 129.783 209.225 131.309C210.331 133.802 214.263 136.205 212.613 139.372C212.335 139.887 211.915 140.31 211.402 140.59C208.916 139.811 206.646 138.46 204.774 136.646C202.902 134.832 201.48 132.606 200.622 130.144C199.763 127.682 199.491 125.053 199.829 122.467C200.166 119.881 201.103 117.41 202.564 115.251C204.025 113.092 205.971 111.306 208.245 110.034C210.519 108.762 213.059 108.039 215.662 107.925C218.265 107.811 220.858 108.307 223.235 109.375C225.612 110.443 227.706 112.052 229.351 114.074Z" fill="black"/>
<path d="M211.496 126.585C211.887 126.914 212.086 127.426 212.446 127.792C213.057 128.317 213.851 128.58 214.654 128.524C216.706 128.555 218.956 127.677 219.771 125.79C220.03 125.103 220.187 124.381 220.235 123.648L220.945 117.419C221.081 116.217 221.311 114.853 222.329 114.194C223.989 113.149 226.192 114.79 228.129 114.367C228.827 114.189 229.432 113.752 229.82 113.145C230.208 112.537 230.35 111.804 230.218 111.095C229.993 110.097 229.231 109.308 228.839 108.357C228.602 107.626 228.412 106.881 228.27 106.126C227.189 102.07 222.433 99.792 218.298 100.471C216.001 100.853 213.866 101.95 211.563 102.285C209.914 102.525 208.227 102.368 206.562 102.546C205.015 102.706 203.51 103.151 202.124 103.858C201.76 104.019 201.439 104.262 201.184 104.568C200.948 104.982 200.789 105.435 200.715 105.906C200.156 107.997 198.36 109.538 197.06 111.299C195.573 113.326 194.713 115.744 194.585 118.255C194.534 118.896 194.594 119.541 194.763 120.162C194.872 120.528 195.045 120.883 195.128 121.26C195.384 122.404 194.799 123.549 194.512 124.688C194.155 126.142 194.284 127.672 194.878 129.046C196.882 133.66 203.487 135.202 204.86 140.046C206.079 140.632 207.396 140.986 208.744 141.092C210.091 141.118 211.543 140.538 212.169 139.341C213.814 136.205 209.888 133.77 208.781 131.283C208.086 129.752 208.864 124.39 211.496 126.585Z" fill="#353045"/>
<path opacity="0.1" d="M343.536 136.31C342.702 138.697 342.347 141.226 342.492 143.752C341.688 144.436 340.811 142.388 339.881 142.915C337.334 144.389 334.389 147.896 331.236 147.896C328.501 147.897 325.805 147.251 323.368 146.009C322.608 143.075 321.558 140.223 320.235 137.496C320.235 137.496 347.097 126.062 343.536 136.31Z" fill="black"/>
<path d="M348.579 129.626C348.579 133.064 347.561 136.424 345.653 139.283C343.745 142.141 341.033 144.369 337.86 145.684C334.687 147 331.195 147.344 327.827 146.673C324.459 146.003 321.365 144.347 318.936 141.916C316.508 139.486 314.854 136.389 314.184 133.017C313.514 129.645 313.858 126.151 315.172 122.975C316.486 119.799 318.712 117.084 321.567 115.174C324.423 113.264 327.78 112.245 331.215 112.245C333.495 112.244 335.753 112.694 337.861 113.567C339.968 114.44 341.882 115.72 343.495 117.334C345.107 118.948 346.386 120.865 347.259 122.974C348.131 125.083 348.58 127.343 348.579 129.626Z" fill="#D28690"/>
<path d="M347.838 158.143C347.838 158.143 344.57 161.707 344.126 162C343.682 162.293 334.206 202.239 334.039 202.704C333.872 203.169 322.757 239.238 322.757 239.238L304.949 248.001L306.437 203.885L319.489 167.503C319.489 167.503 323.796 162.601 325.127 160.819C326.459 159.037 343.082 148.34 343.082 148.34L345.922 154.198L347.838 158.143Z" fill="#F0F3F7"/>
<path opacity="0.1" d="M345.483 155.092L325.007 169.766L324.678 161.707C326.015 159.925 342.633 149.233 342.633 149.233L345.483 155.092Z" fill="black"/>
<path d="M345.927 154.198L325.451 168.872L325.132 160.819C326.469 159.032 343.087 148.34 343.087 148.34L345.927 154.198Z" fill="#F0F3F7"/>
<path d="M324.448 157.234L325.132 160.819L320.554 165.475L324.208 157.286C324.208 157.286 316.377 162.747 314.028 164.195C311.678 165.642 309.329 170.544 309.24 171.882C309.151 173.22 305.455 193.381 305.455 193.381C305.455 193.381 302.672 200.843 303.455 202.96C304.239 205.076 299.227 271.805 299.227 271.805C299.897 270.509 300.844 269.377 302.001 268.489C303.157 267.601 304.495 266.979 305.92 266.668L304.134 227.234C304.134 227.234 306.306 201 306.416 200.666C306.525 200.331 311.48 185.124 311.48 185.124L324.448 157.234Z" fill="#585B8A"/>
<path opacity="0.1" d="M325.581 161.263L325.226 168.579C325.226 168.579 320.272 184.231 318.606 186.791C316.941 189.352 311.872 204.617 311.872 204.617L309.016 231.132L304.119 233.364L301.707 228.917L305.716 203.31C305.716 203.31 313.281 181.701 314.398 179.47L319.98 167.701L325.581 161.263Z" fill="black"/>
<path d="M325.133 160.819L324.783 168.135C324.783 168.135 319.828 183.786 318.158 186.347C316.487 188.908 311.428 204.172 311.428 204.172L308.588 230.683L303.691 232.909L301.242 228.457L305.252 202.85C305.252 202.85 312.817 181.236 313.929 179.01L319.552 167.257L325.133 160.819Z" fill="#663D5C"/>
<path d="M267.411 216.662L276.981 223.294C276.981 223.294 283.731 219.505 279.8 217.054C275.869 214.603 272.381 214.232 271.118 214.232C269.854 214.232 267.411 216.662 267.411 216.662Z" fill="#D28690"/>
<path d="M274.558 204.402C274.345 204.535 274.169 204.721 274.047 204.941C273.925 205.162 273.862 205.41 273.864 205.662C273.864 207.695 274.094 213.077 275.796 210.647C277.884 207.674 277.503 205.003 280.693 206.932C282.675 208.167 284.41 209.762 285.809 211.635L284.922 205.249C284.922 205.249 278.364 202.009 274.558 204.402Z" fill="#D28690"/>
<path opacity="0.1" d="M348.762 282.387C348.282 283.14 347.859 284.786 347.509 286.907C327.993 292.765 313.715 280.38 313.715 280.38C311.987 274.52 310.575 268.572 309.486 262.56C309.136 260.501 309.214 256.509 309.538 251.638L344.429 245.514C344.429 245.514 350.991 278.933 348.762 282.387Z" fill="black"/>
<path d="M368.794 182.684C367.906 185.584 368.241 191.484 368.241 191.484L360.227 229.361C360.227 229.361 356.332 258.547 355.664 262.445C354.995 266.344 353.883 283.5 353.883 283.5C331.178 294.642 313.683 279.492 313.683 279.492C311.956 273.63 310.544 267.68 309.454 261.667C308.337 255.051 311.626 228.545 313.182 216.772C313.646 213.286 313.96 211.091 313.96 211.091L319.802 189.368C319.802 189.368 326.98 171.041 329.653 165.695C332.327 160.349 343.061 148.34 343.061 148.34C344.392 147.493 346.522 150.482 348.104 153.205C349.299 155.264 350.192 157.177 350.192 157.177C350.192 157.177 363.547 162.967 365.547 166.06C367.546 169.154 367.217 175.53 367.442 175.864C367.666 176.199 369.687 179.789 368.794 182.684Z" fill="#585B8A"/>
<path opacity="0.1" d="M337.303 169.206C337.303 169.206 338.305 175.112 335.736 176.894C333.256 178.618 314.796 214.953 313.647 217.221C314.112 213.73 314.425 211.535 314.425 211.535L320.267 189.817C320.267 189.817 327.451 171.49 330.119 166.139C332.787 160.788 343.531 148.784 343.531 148.784C344.862 147.937 346.987 150.927 348.569 153.649C346.183 158.608 341.208 167.984 337.303 169.206Z" fill="black"/>
<path d="M336.858 168.762C336.858 168.762 337.856 174.667 335.292 176.449C332.729 178.231 314.357 214.504 313.192 216.772C313.657 213.286 313.97 211.091 313.97 211.091L319.812 189.368C319.812 189.368 326.991 171.041 329.664 165.695C332.337 160.349 343.071 148.34 343.071 148.34C344.402 147.493 346.533 150.482 348.114 153.205C345.739 158.159 340.758 167.539 336.858 168.762Z" fill="#585B8A"/>
<path d="M363.344 222.123L357.063 254.831V254.837L356.463 257.967V257.972L355.111 265.011L349.342 263.788L346.653 263.219L309.444 255.328L306.708 254.748L300.464 253.426L301.686 245.305L302.192 241.929L306.698 211.985L363.344 222.123Z" fill="#E57A7A"/>
<path d="M328.62 248.858C328.62 248.858 313.819 254.204 317.046 260.554C320.272 266.903 340.973 255.652 340.973 255.652L328.62 248.858Z" fill="#D28690"/>
<path opacity="0.1" d="M339.192 294.417C339.192 294.861 339.751 300.547 341.975 302.548C344.199 304.55 339.192 294.417 339.192 294.417Z" fill="black"/>
<path opacity="0.1" d="M324.282 314.578C324.282 314.578 326.95 321.931 337.522 324.941C348.094 327.951 324.282 314.578 324.282 314.578Z" fill="black"/>
<path opacity="0.1" d="M348.579 129.626C348.58 132.682 347.776 135.683 346.248 138.328C344.72 140.974 342.522 143.169 339.876 144.692C338.879 144.134 337.994 143.395 337.266 142.513C336.509 141.593 335.919 140.339 336.373 139.242C336.738 138.358 337.704 137.799 337.939 136.885C338.05 136.326 338.021 135.748 337.856 135.202C337.662 134.34 337.48 133.478 337.292 132.621C337.13 131.889 336.843 131.027 336.117 130.849C335.391 130.671 334.786 131.278 334.217 131.727C332.823 132.83 330.15 133.577 328.474 132.673C326.798 131.769 327.268 128.743 326.996 127.107C326.993 126.965 326.958 126.826 326.895 126.698C326.832 126.571 326.742 126.459 326.631 126.37C326.387 126.289 326.126 126.271 325.874 126.318C324.971 126.318 324.245 125.508 323.984 124.641C323.799 123.755 323.697 122.854 323.681 121.949C323.582 121.045 323.253 120.089 322.48 119.624C321.863 119.336 321.178 119.224 320.502 119.3L317.228 119.337C319.4 116.398 322.441 114.219 325.921 113.11C329.401 112.002 333.141 112.019 336.61 113.16C340.08 114.302 343.101 116.509 345.245 119.468C347.389 122.426 348.547 125.987 348.553 129.642L348.579 129.626Z" fill="black"/>
<path d="M334.682 131.727C335.251 131.278 335.877 130.682 336.582 130.854C337.287 131.027 337.59 131.899 337.751 132.621L338.315 135.197C338.482 135.744 338.513 136.323 338.404 136.885C338.138 137.805 337.177 138.358 336.806 139.242C336.352 140.339 336.947 141.593 337.699 142.508C339.07 144.162 340.966 145.296 343.071 145.722C343.621 145.854 344.193 145.866 344.747 145.758C345.99 145.471 346.836 144.326 347.504 143.255C350.955 137.872 353.926 131.973 354.531 125.608C354.697 124.309 354.637 122.992 354.354 121.714C354.071 120.721 353.671 119.765 353.163 118.866C352.275 117.03 351.146 115.32 349.806 113.782C347.431 111.221 344.152 109.648 340.785 108.718C336.997 107.666 333.042 107.355 329.137 107.803C328.093 107.923 327.091 108.096 326.062 108.164C324.771 108.224 323.477 108.203 322.188 108.101L314.503 107.641C314.065 108.535 314.503 109.596 315.025 110.432C315.547 111.268 316.195 112.135 316.153 113.128C316.111 114.121 315.406 114.905 314.863 115.741C314.32 116.577 313.908 117.659 314.451 118.474C314.994 119.29 316.101 119.342 317.061 119.331L320.935 119.29C321.61 119.22 322.291 119.338 322.903 119.629C323.676 120.094 324.005 121.056 324.104 121.955C324.126 122.859 324.227 123.76 324.407 124.646C324.673 125.513 325.394 126.334 326.297 126.323C326.55 126.273 326.812 126.293 327.054 126.381C327.165 126.468 327.255 126.579 327.318 126.706C327.381 126.832 327.416 126.971 327.419 127.113C327.691 128.748 327.19 131.769 328.897 132.678C330.604 133.587 333.288 132.83 334.682 131.727Z" fill="#663D5C"/>
<path opacity="0.1" d="M356.75 166.055C354.83 165.851 352.898 166.306 351.271 167.346C349.644 168.386 348.419 169.949 347.796 171.778C345.708 177.73 342.225 188.469 343.097 192.712C344.324 198.727 345.77 208.755 345.77 208.755C345.77 208.755 352.114 212.413 348.903 216.103C345.692 219.792 344.784 225.018 344.784 225.018C344.784 225.018 340.664 226.8 339.777 230.589C338.889 234.378 332.875 239.609 332.875 239.609L323.864 248.634C323.864 248.634 338.774 263.788 341.782 264.562L351.017 253.755L361.924 239.274L371.384 229.345C371.384 229.345 373.608 224.119 372.496 214.19C371.384 204.261 367.04 194.808 367.04 194.808L367.374 191.463C367.374 191.463 368.398 167.503 356.75 166.055Z" fill="black"/>
<path d="M357.638 166.055C355.72 165.854 353.79 166.31 352.165 167.35C350.541 168.389 349.317 169.951 348.694 171.778C346.606 177.73 343.124 188.469 343.996 192.712C345.217 198.727 346.663 208.755 346.663 208.755C346.663 208.755 353.007 212.413 349.796 216.103C346.585 219.792 345.682 225.018 345.682 225.018C345.682 225.018 341.563 226.8 340.67 230.589C339.777 234.377 333.773 239.608 333.773 239.608L324.757 248.633C324.757 248.633 339.667 263.788 342.675 264.562L351.91 253.755L362.791 239.274L372.251 229.345C372.251 229.345 374.48 224.119 373.363 214.19C372.245 204.261 367.912 194.808 367.912 194.808L368.246 191.463C368.246 191.463 369.285 167.503 357.638 166.055Z" fill="#585B8A"/>
<path opacity="0.1" d="M348.318 199.955C348.318 199.955 357.778 211.535 361.788 208.975C365.798 206.414 348.318 199.955 348.318 199.955Z" fill="black"/>
<path opacity="0.1" d="M351.879 191.04C352.881 191.374 361.12 202.85 365.349 201.491C369.578 200.133 351.879 191.04 351.879 191.04Z" fill="black"/>
<path opacity="0.1" d="M354.218 210.752C354.218 210.752 354.776 217.326 361.563 216.432C368.35 215.538 354.218 210.752 354.218 210.752Z" fill="black"/>
<path opacity="0.1" d="M324.224 157.731L320.554 165.919L325.138 161.263L324.224 157.731Z" fill="black"/>
<path d="M324.224 157.286L320.554 165.475L325.138 160.819L324.224 157.286Z" fill="#F0F3F7"/>
<path opacity="0.3" d="M309.444 255.328L306.708 254.748L301.686 245.305L302.192 241.929L309.444 255.328Z" fill="black"/>
<path opacity="0.3" d="M357.063 254.837L356.463 257.967V257.972L349.342 263.788L346.653 263.219L357.063 254.837Z" fill="black"/>
<path opacity="0.1" d="M244.862 218.292C243.484 218.522 242.148 218.731 240.926 218.888C234.139 219.782 217.996 211.76 217.996 211.76C217.996 211.76 198.298 195.273 192.623 179.679C186.948 164.085 199.41 161.744 199.41 161.744C204.109 159.068 214.326 166.531 215.772 167.759C217.218 168.987 218.445 172.102 218.33 174.108C218.215 176.115 221.672 178.676 221.672 178.676C221.672 178.676 227.571 188.923 229.017 190.036C230.463 191.15 230.798 192.153 231.241 194.05C231.685 195.947 235.58 197.504 237.25 197.389C238.921 197.274 240.905 197.948 240.905 198.837C240.905 199.553 242.539 199.908 243.881 200.023C244.278 205.735 244.669 213.218 244.862 218.292Z" fill="black"/>
<path opacity="0.1" d="M244.8 216.662C243.755 216.829 242.753 216.981 241.813 217.106C235.026 218 218.889 209.978 218.889 209.978C218.889 209.978 199.19 193.491 193.515 177.897C187.84 162.303 200.302 159.962 200.302 159.962C205.001 157.286 215.213 164.749 216.659 165.977C218.105 167.205 219.332 170.32 219.223 172.326C219.113 174.333 222.559 176.894 222.559 176.894C222.559 176.894 228.458 187.141 229.905 188.254C231.351 189.368 231.685 190.371 232.134 192.268C232.583 194.165 236.472 195.717 238.143 195.607C239.814 195.497 241.798 196.166 241.798 197.055C241.798 197.577 242.727 197.927 243.761 198.1C243.802 198.706 243.839 199.349 243.886 200.018C244.231 205.155 244.586 211.708 244.8 216.662Z" fill="black"/>
<path opacity="0.1" d="M270.617 205.442L270.194 215.455H269.74L268.8 214.932L268.915 206.304C269.463 205.981 270.032 205.693 270.617 205.442Z" fill="black"/>
<path d="M199.41 160.85C199.41 160.85 186.948 163.192 192.623 178.785C198.298 194.379 217.996 210.872 217.996 210.872C217.996 210.872 234.134 218.888 240.926 218C247.718 217.111 258.061 214.77 259.397 215.105C260.734 215.439 269.75 215.439 269.75 215.439L270.194 204.988L259.752 204.428L254.411 203.315C254.411 203.315 252.516 201.748 251.404 201.977C250.292 202.207 247.958 200.64 247.958 200.64C247.958 200.64 246.173 199.192 244.826 199.192C243.479 199.192 240.931 198.858 240.931 197.969C240.931 197.081 238.926 196.402 237.277 196.522C235.627 196.642 231.685 195.074 231.226 193.156C230.766 191.238 230.448 190.261 229.002 189.148C227.555 188.035 221.656 177.782 221.656 177.782C221.656 177.782 218.205 175.221 218.314 173.22C218.424 171.218 217.202 168.093 215.756 166.865C214.31 165.637 204.077 158.18 199.41 160.85Z" fill="#DCE6F2"/>
<path opacity="0.1" d="M231.466 196.72C231.466 196.72 226.678 201.512 227.9 202.401L231.466 196.72Z" fill="black"/>
<path opacity="0.1" d="M236.582 200.509C236.582 200.509 230.348 205.301 232.019 205.636C233.69 205.97 236.582 200.509 236.582 200.509Z" fill="black"/>
<path opacity="0.1" d="M226.004 207.616C226.897 208.066 240.137 215.977 245.149 215.862L226.004 207.616Z" fill="black"/>
<path opacity="0.1" d="M226.903 154.726C226.903 154.726 224.564 162.413 223.671 162.413C222.972 162.413 211.225 152.891 206.322 148.888L206.536 148.711C206.536 148.711 206.98 145.257 208.76 143.485C210.541 141.713 226.903 154.726 226.903 154.726Z" fill="black"/>
<path d="M226.453 153.832C226.453 153.832 224.12 161.519 223.227 161.519C222.522 161.519 210.775 151.998 205.873 147.995L206.087 147.817C206.087 147.817 206.536 144.363 208.316 142.591C210.097 140.82 226.453 153.832 226.453 153.832Z" fill="#DCE6F2"/>
<g opacity="0.15">
<path opacity="0.15" d="M194.936 128.989C196.502 132.568 200.814 134.303 203.315 137.157C201.827 133.65 197.478 131.931 194.936 128.989Z" fill="black"/>
<path opacity="0.15" d="M210.896 137.235C210.275 138.432 208.807 139.012 207.471 138.986C206.283 138.9 205.119 138.603 204.036 138.108C204.429 138.688 204.728 139.326 204.923 139.999C206.142 140.586 207.459 140.94 208.807 141.045C210.16 141.076 211.611 140.496 212.232 139.294C213.23 137.386 212.191 135.756 210.974 134.214C211.201 134.688 211.312 135.209 211.298 135.734C211.285 136.259 211.147 136.774 210.896 137.235Z" fill="black"/>
<path opacity="0.15" d="M230.27 111.043C230.046 110.04 229.283 109.251 228.892 108.305C228.652 107.573 228.462 106.826 228.323 106.068C228.026 104.997 227.476 104.013 226.72 103.199C226.825 103.456 226.914 103.72 226.986 103.988C227.133 104.749 227.328 105.5 227.571 106.235C227.963 107.181 228.725 107.97 228.949 108.974C229.082 109.683 228.939 110.415 228.551 111.023C228.164 111.63 227.559 112.067 226.861 112.245C224.929 112.668 222.726 110.996 221.066 112.073C220.048 112.726 219.813 114.09 219.677 115.292C219.444 117.382 219.207 119.46 218.967 121.526C218.92 122.259 218.765 122.981 218.508 123.669C217.688 125.55 215.438 126.433 213.386 126.402C212.584 126.455 211.794 126.193 211.183 125.67C210.886 125.249 210.567 124.845 210.227 124.458C207.617 122.263 206.823 127.63 207.513 129.161C207.858 129.85 208.285 130.494 208.786 131.079C208.212 129.354 209.016 124.39 211.564 126.517C211.903 126.902 212.221 127.307 212.514 127.729C213.127 128.251 213.919 128.514 214.723 128.461C216.774 128.492 219.025 127.609 219.844 125.728C220.102 125.038 220.257 124.315 220.304 123.58C220.54 121.49 220.777 119.413 221.014 117.351C221.149 116.149 221.384 114.785 222.397 114.132C224.063 113.055 226.266 114.727 228.198 114.299C228.89 114.119 229.489 113.683 229.874 113.079C230.258 112.475 230.4 111.748 230.27 111.043Z" fill="black"/>
</g>
<path opacity="0.1" d="M345.859 144.426C345.304 144.529 344.733 144.515 344.184 144.384C342.081 143.959 340.187 142.826 338.817 141.175C338.06 140.255 337.464 139.001 337.924 137.904C338.289 137.021 339.25 136.467 339.49 135.547C339.599 134.986 339.568 134.406 339.401 133.859L338.837 131.283C338.676 130.551 338.394 129.689 337.668 129.516C336.942 129.344 336.337 129.94 335.768 130.389C334.374 131.492 331.695 132.244 330.025 131.335C328.354 130.426 328.819 127.405 328.547 125.77C328.543 125.628 328.508 125.49 328.445 125.364C328.381 125.237 328.292 125.126 328.182 125.038C327.937 124.953 327.674 124.933 327.419 124.98C326.516 124.98 325.796 124.17 325.53 123.303C325.349 122.417 325.249 121.516 325.232 120.612C325.127 119.713 324.804 118.751 324.026 118.286C323.413 117.997 322.732 117.88 322.058 117.946L318.184 117.988C317.228 117.988 316.095 117.926 315.573 117.131C315.051 116.337 315.438 115.208 315.986 114.398C316.534 113.588 317.228 112.783 317.275 111.785C317.322 110.787 316.675 109.925 316.148 109.089C315.845 108.631 315.623 108.126 315.49 107.594L314.378 107.526C313.944 108.415 314.378 109.475 314.9 110.317C315.422 111.158 316.075 112.02 316.028 113.008C315.981 113.996 315.286 114.79 314.738 115.621C314.19 116.452 313.788 117.539 314.331 118.354C314.874 119.169 315.975 119.227 316.941 119.216L320.815 119.169C321.49 119.104 322.171 119.223 322.783 119.514C323.561 119.979 323.89 120.941 323.989 121.84C324.006 122.744 324.107 123.645 324.292 124.531C324.553 125.393 325.279 126.219 326.182 126.203C326.435 126.158 326.696 126.178 326.939 126.261C327.05 126.35 327.14 126.462 327.203 126.589C327.266 126.716 327.301 126.856 327.305 126.998C327.576 128.628 327.075 131.654 328.782 132.563C330.489 133.472 333.152 132.72 334.525 131.617C335.094 131.168 335.726 130.572 336.431 130.739C337.135 130.906 337.438 131.784 337.595 132.506L338.164 135.087C338.329 135.634 338.358 136.214 338.247 136.775C337.986 137.69 337.021 138.249 336.655 139.127C336.201 140.224 336.791 141.484 337.548 142.398C338.928 144.056 340.836 145.189 342.951 145.607C343.501 145.738 344.072 145.752 344.627 145.649C345.525 145.375 346.295 144.789 346.799 143.997C346.514 144.195 346.196 144.34 345.859 144.426Z" fill="black"/>
<path opacity="0.1" d="M106.343 375.218C113.312 375.218 118.962 374.35 118.962 373.279C118.962 372.209 113.312 371.341 106.343 371.341C99.3737 371.341 93.7241 372.209 93.7241 373.279C93.7241 374.35 99.3737 375.218 106.343 375.218Z" fill="#FDEEE5"/>
<path opacity="0.1" d="M546.94 324.81C553.909 324.81 559.558 323.942 559.558 322.871C559.558 321.801 553.909 320.933 546.94 320.933C539.97 320.933 534.321 321.801 534.321 322.871C534.321 323.942 539.97 324.81 546.94 324.81Z" fill="#FDEEE5"/>
<path opacity="0.1" d="M418.293 406.61C438.477 406.61 454.839 404.097 454.839 400.997C454.839 397.897 438.477 395.385 418.293 395.385C398.109 395.385 381.747 397.897 381.747 400.997C381.747 404.097 398.109 406.61 418.293 406.61Z" fill="#FDEEE5"/>
<path opacity="0.1" d="M522.182 381.599C537.926 381.599 550.688 379.638 550.688 377.22C550.688 374.801 537.926 372.841 522.182 372.841C506.439 372.841 493.677 374.801 493.677 377.22C493.677 379.638 506.439 381.599 522.182 381.599Z" fill="#FDEEE5"/>
<path opacity="0.1" d="M517.489 428.281C544.186 428.281 565.828 424.956 565.828 420.855C565.828 416.754 544.186 413.429 517.489 413.429C490.791 413.429 469.149 416.754 469.149 420.855C469.149 424.956 490.791 428.281 517.489 428.281Z" fill="#FDEEE5"/>
<path opacity="0.1" d="M52.3334 433C72.5171 433 88.8792 430.487 88.8792 427.387C88.8792 424.288 72.5171 421.775 52.3334 421.775C32.1497 421.775 15.7876 424.288 15.7876 427.387C15.7876 430.487 32.1497 433 52.3334 433Z" fill="#FDEEE5"/>
<path d="M106.918 311.531C106.918 311.531 108.348 313.402 106.26 316.235C104.171 319.067 102.449 321.46 103.127 323.206C103.127 323.206 106.26 317.98 108.87 317.886C111.481 317.792 109.742 314.688 106.918 311.531Z" fill="#E57A7A"/>
<path opacity="0.1" d="M106.918 311.531C107.045 311.71 107.144 311.907 107.21 312.117C109.716 315.064 111.047 317.808 108.64 317.865C106.401 317.928 103.712 321.941 103.07 322.955C103.089 323.033 103.114 323.11 103.143 323.185C103.143 323.185 106.275 317.959 108.886 317.865C111.496 317.771 109.742 314.688 106.918 311.531Z" fill="black"/>
<path d="M109.58 313.914C109.58 314.573 109.502 315.106 109.413 315.106C109.324 315.106 109.246 314.583 109.246 313.914C109.246 313.245 109.34 313.569 109.429 313.569C109.518 313.569 109.58 313.256 109.58 313.914Z" fill="#FFD037"/>
<path d="M110.489 314.703C109.914 315.017 109.408 315.226 109.366 315.127C109.324 315.027 109.752 314.729 110.332 314.411C110.911 314.092 110.682 314.327 110.724 314.411C110.765 314.494 111.068 314.385 110.489 314.703Z" fill="#FFD037"/>
<path d="M99.3683 311.531C99.3683 311.531 97.9378 313.402 100.026 316.235C102.114 319.067 103.843 321.46 103.159 323.206C103.159 323.206 100.026 317.98 97.4418 317.886C94.8575 317.792 96.5282 314.688 99.3683 311.531Z" fill="#E57A7A"/>
<path opacity="0.1" d="M99.3679 311.531C99.2432 311.711 99.1447 311.909 99.0756 312.117C96.5696 315.064 95.2382 317.808 97.6451 317.865C99.8848 317.928 102.574 321.941 103.221 322.955C103.2 323.033 103.173 323.11 103.143 323.185C103.143 323.185 100.01 317.959 97.4258 317.865C94.8415 317.771 96.5278 314.688 99.3679 311.531Z" fill="black"/>
<path d="M96.7104 313.914C96.7104 314.573 96.7837 315.106 96.8726 315.106C96.9615 315.106 97.04 314.583 97.04 313.914C97.04 313.245 96.9458 313.569 96.8569 313.569C96.768 313.569 96.7104 313.256 96.7104 313.914Z" fill="#FFD037"/>
<path d="M95.7969 314.703C96.3764 315.017 96.8776 315.226 96.9246 315.127C96.9716 315.027 96.5331 314.729 95.9535 314.411C95.374 314.092 95.6037 314.327 95.562 314.411C95.5202 314.494 95.2174 314.385 95.7969 314.703Z" fill="#FFD037"/>
<path opacity="0.1" d="M103.143 337.514C111.398 337.514 118.09 336.487 118.09 335.22C118.09 333.953 111.398 332.926 103.143 332.926C94.8874 332.926 88.1953 333.953 88.1953 335.22C88.1953 336.487 94.8874 337.514 103.143 337.514Z" fill="#E57A7A"/>
<path d="M110.838 320.676L110.765 321.262L110.666 322.087L110.624 322.432L110.525 323.258L110.478 323.603L110.379 324.429L109.236 333.835C109.136 334.671 107.769 335.324 106.103 335.324H100.183C98.533 335.324 97.1651 334.671 97.0503 333.835L95.9069 324.429L95.8077 323.603L95.7659 323.258L95.6615 322.432L95.6197 322.087L95.5206 321.262L95.4475 320.676C95.39 320.201 96.1314 319.804 97.0659 319.804H109.225C110.155 319.804 110.896 320.201 110.838 320.676Z" fill="#65617D"/>
<path d="M110.765 321.262L110.666 322.087H95.6197L95.5205 321.262H110.765Z" fill="#9D9CB5"/>
<path d="M110.624 322.432L110.525 323.258H95.7655L95.6611 322.432H110.624Z" fill="#9D9CB5"/>
<path d="M110.483 323.603L110.379 324.429H95.9068L95.8076 323.603H110.483Z" fill="#9D9CB5"/>
<path d="M536.994 304.294C536.994 304.294 535.209 312.613 543.149 313.595L543.64 312.671C543.64 312.671 537.485 306.875 536.994 304.294Z" fill="#E57A7A"/>
<path d="M546.167 312.603L544.319 312.995L544.136 313.036C544.136 313.036 539.207 309.033 539.27 300.097C539.929 301.415 540.718 302.663 541.625 303.823C543.577 306.41 545.796 309.859 546.167 312.603Z" fill="#E57A7A"/>
<path d="M546.788 313.46C546.643 313.554 546.479 313.615 546.307 313.638C546.135 313.66 545.961 313.644 545.796 313.59C541.056 312.482 542.664 297.019 542.664 297.019C542.925 297.139 543.186 299.11 544.303 301.649C546.209 306.107 548.313 312.341 546.788 313.46Z" fill="#E57A7A"/>
<path d="M557.303 304.294C557.303 304.294 557.611 312.613 549.67 313.595L549.174 312.655C549.174 312.655 556.812 306.875 557.303 304.294Z" fill="#E57A7A"/>
<path d="M555.027 300.113C555.089 309.049 548.689 313.052 548.689 313.052L548.501 313.01L546.658 312.618C547.023 309.875 549.268 306.426 551.195 303.839C552.3 302.432 553.589 301.179 555.027 300.113Z" fill="#E57A7A"/>
<path d="M548.474 312.655C548.194 313.002 547.836 313.279 547.43 313.465C547.304 313.522 547.173 313.565 547.039 313.595C545.874 313.867 545.472 313.026 545.535 311.594C545.645 309.049 547.242 304.633 548.668 301.325C549.354 299.702 550.367 298.238 551.643 297.024C551.643 297.024 551.57 309.059 548.474 312.655Z" fill="#E57A7A"/>
<path d="M547.148 291.595C547.148 291.595 541.854 310.408 546.412 313.219C550.97 316.031 548.318 293.257 547.148 291.595Z" fill="#E57A7A"/>
<path opacity="0.1" d="M536.994 304.294C536.994 304.294 535.209 312.613 543.149 313.595L543.64 312.671C543.64 312.671 537.485 306.875 536.994 304.294Z" fill="black"/>
<path opacity="0.1" d="M546.167 312.603L544.319 312.995L544.136 313.036C544.136 313.036 539.207 309.033 539.27 300.097C539.929 301.415 540.718 302.663 541.625 303.823C543.577 306.41 545.796 309.859 546.167 312.603Z" fill="black"/>
<path opacity="0.1" d="M546.788 313.46C546.643 313.554 546.479 313.615 546.307 313.638C546.135 313.66 545.961 313.644 545.796 313.59C541.056 312.482 542.664 297.019 542.664 297.019C542.925 297.139 543.186 299.11 544.303 301.649C546.209 306.107 548.313 312.341 546.788 313.46Z" fill="black"/>
<path opacity="0.1" d="M557.303 304.294C557.303 304.294 557.611 312.613 549.67 313.595L549.174 312.655C549.174 312.655 556.812 306.875 557.303 304.294Z" fill="black"/>
<path opacity="0.1" d="M555.027 300.113C555.089 309.049 548.689 313.052 548.689 313.052L548.501 313.01L546.658 312.618C547.023 309.875 549.268 306.426 551.195 303.839C552.3 302.432 553.589 301.179 555.027 300.113Z" fill="black"/>
<path opacity="0.1" d="M548.474 312.655C548.194 313.002 547.836 313.279 547.43 313.465C547.304 313.522 547.173 313.565 547.039 313.595C545.874 313.867 545.472 313.026 545.535 311.594C545.645 309.049 547.242 304.633 548.668 301.325C549.354 299.702 550.367 298.238 551.643 297.024C551.643 297.024 551.57 309.059 548.474 312.655Z" fill="black"/>
<path opacity="0.1" d="M547.148 291.595C547.148 291.595 541.854 310.408 546.412 313.219C550.97 316.031 548.318 293.257 547.148 291.595Z" fill="black"/>
<path d="M536.994 304.294C536.994 304.294 535.95 312.613 543.886 313.595L544.376 312.671C544.376 312.671 537.485 306.875 536.994 304.294Z" fill="#E57A7A"/>
<path d="M546.903 312.603L545.055 312.995L544.872 313.036C544.872 313.036 539.208 309.033 539.255 300.113C539.255 300.113 540.706 301.681 542.345 303.839C544.314 306.41 546.532 309.859 546.903 312.603Z" fill="#E57A7A"/>
<path opacity="0.1" d="M546.903 312.603L545.055 312.995C543.306 311.458 542.611 307.445 542.361 303.823C544.313 306.41 546.532 309.859 546.903 312.603Z" fill="black"/>
<path d="M547.529 313.46C547.383 313.554 547.218 313.615 547.045 313.638C546.873 313.66 546.698 313.644 546.532 313.59C541.792 312.482 542.658 297.019 542.658 297.019C542.919 297.139 543.943 299.11 545.034 301.649C546.95 306.107 549.049 312.341 547.529 313.46Z" fill="#E57A7A"/>
<path d="M557.303 304.294C557.303 304.294 558.347 312.613 550.412 313.595L549.921 312.671C549.921 312.671 556.812 306.875 557.303 304.294Z" fill="#E57A7A"/>
<path d="M555.026 300.113C555.089 309.049 549.424 313.052 549.424 313.052L549.242 313.01L547.394 312.618C547.759 309.875 550.004 306.426 551.936 303.839C553.575 301.681 555.026 300.113 555.026 300.113Z" fill="#E57A7A"/>
<path opacity="0.1" d="M551.936 303.823C551.696 307.199 551.079 310.915 549.581 312.65C549.479 312.775 549.365 312.89 549.242 312.995L547.394 312.603C547.759 309.859 549.983 306.41 551.936 303.823Z" fill="black"/>
<path d="M549.21 312.655C548.931 313.004 548.573 313.281 548.166 313.465C548.042 313.521 547.913 313.565 547.78 313.595C546.61 313.867 546.214 313.026 546.271 311.594C546.386 309.049 547.983 304.633 549.403 301.325C550.448 298.948 551.393 297.145 551.643 297.024C551.643 297.019 552.306 309.059 549.21 312.655Z" fill="#E57A7A"/>
<path opacity="0.1" d="M547.53 313.46C547.26 313.463 546.996 313.378 546.778 313.219C544.549 311.829 544.502 306.614 545.034 301.649C546.95 306.107 549.049 312.341 547.53 313.46Z" fill="black"/>
<path opacity="0.1" d="M549.21 312.655C548.955 313.214 548.61 313.507 548.166 313.465C547.939 313.437 547.722 313.355 547.534 313.224C546.954 312.826 546.512 312.256 546.271 311.594C546.386 309.049 547.983 304.633 549.404 301.325C549.915 305.908 550.088 310.768 549.21 312.655Z" fill="black"/>
<path d="M547.148 291.595C547.148 291.595 542.596 310.408 547.148 313.219C551.701 316.031 548.318 293.257 547.148 291.595Z" fill="#E57A7A"/>
<path d="M555.888 312.299H536.931V315.44H539.824L539.897 315.811L541.056 321.91H552.077L553.236 315.811L553.304 315.44H555.888V312.299Z" fill="#4B4770"/>
<path opacity="0.1" d="M555.888 312.299H536.931V315.44H539.824L539.897 315.811L541.056 321.91H552.077L553.236 315.811L553.304 315.44H555.888V312.299Z" fill="black"/>
<path d="M554.291 314.144L553.972 315.811L552.813 321.91H541.792L540.633 315.811L540.314 314.144H554.291Z" fill="#4B4770"/>
<path opacity="0.1" d="M554.291 314.144L553.972 315.811H540.633L540.314 314.144H554.291Z" fill="black"/>
<path d="M556.624 312.299H537.667V315.44H556.624V312.299Z" fill="#4B4770"/>
<path d="M72.773 366.042C72.2732 366.731 71.8725 367.488 71.5826 368.289C71.5095 368.482 71.4364 368.707 71.3633 368.921C71.2309 368.859 71.0927 368.81 70.9509 368.775C70.3423 368.621 69.7127 368.568 69.0871 368.618C69.0871 368.372 69.1184 368.095 69.1236 367.85C69.2019 365.096 68.8782 361.26 66.2521 362.885C63.7357 364.453 65.5317 367.066 67.1554 368.738C67.2963 368.885 67.4373 369.02 67.573 369.151C66.0903 370.196 65.8084 372.668 65.563 375.234C65.3176 377.8 63.1405 380.606 61.6944 382.2C61.5482 382.362 61.4177 382.508 61.2871 382.644C60.7025 382.177 60.0258 381.839 59.3014 381.653C58.5771 381.466 57.8215 381.436 57.0844 381.562C57.0269 381.338 56.9591 381.102 56.8912 380.857C55.7217 376.629 53.294 369.308 50.1981 367.703L50.6053 367.181C51.921 365.462 53.4037 362.901 51.2162 362.248C49.0286 361.595 48.8302 364.463 48.9503 366.617C48.9712 366.888 48.9921 367.144 49.013 367.385C48.5757 367.405 48.1471 367.514 47.7538 367.707C47.3604 367.899 47.0107 368.17 46.7262 368.503L46.3869 368.101C44.6118 366.01 41.3592 362.681 40.3725 365.195C39.4536 367.536 42.3198 370.578 44.3351 372.339L44.4604 372.448C43.1082 377.941 49.013 382.419 52.1924 384.379L52.6049 384.63C48.2194 389.803 45.5098 399.502 45.5098 399.502L57.7892 401.697C57.7892 401.697 65.9337 394.663 64.8895 388.058H64.973C73.1123 386.428 74.9605 377.742 73.6918 372.584L73.838 372.527C75.3209 371.92 76.6201 370.937 77.6074 369.674C79.8837 366.512 75.1223 362.938 72.773 366.042Z" fill="#E57A7A"/>
<path opacity="0.1" d="M72.773 366.042C72.2732 366.731 71.8725 367.488 71.5826 368.289C71.5095 368.482 71.4364 368.707 71.3633 368.921C71.2309 368.859 71.0927 368.81 70.9509 368.775C70.3423 368.621 69.7127 368.568 69.0871 368.618C69.0871 368.372 69.1184 368.095 69.1236 367.85C69.2019 365.096 68.8782 361.26 66.2521 362.885C63.7357 364.453 65.5317 367.066 67.1554 368.738C67.2963 368.885 67.4373 369.02 67.573 369.151C66.0903 370.196 65.8084 372.668 65.563 375.234C65.3176 377.8 63.1405 380.606 61.6944 382.2C61.5482 382.362 61.4177 382.508 61.2871 382.644C60.7025 382.177 60.0258 381.839 59.3014 381.653C58.5771 381.466 57.8215 381.436 57.0844 381.562C57.0269 381.338 56.9591 381.102 56.8912 380.857C55.7217 376.629 53.294 369.308 50.1981 367.703L50.6053 367.181C51.921 365.462 53.4037 362.901 51.2162 362.248C49.0286 361.595 48.8302 364.463 48.9503 366.617C48.9712 366.888 48.9921 367.144 49.013 367.385C48.5757 367.405 48.1471 367.514 47.7538 367.707C47.3604 367.899 47.0107 368.17 46.7262 368.503L46.3869 368.101C44.6118 366.01 41.3592 362.681 40.3725 365.195C39.4536 367.536 42.3198 370.578 44.3351 372.339L44.4604 372.448C43.1082 377.941 49.013 382.419 52.1924 384.379L52.6049 384.63C48.2194 389.803 45.5098 399.502 45.5098 399.502L57.7892 401.697C57.7892 401.697 65.9337 394.663 64.8895 388.058H64.973C73.1123 386.428 74.9605 377.742 73.6918 372.584L73.838 372.527C75.3209 371.92 76.6201 370.937 77.6074 369.674C79.8837 366.512 75.1223 362.938 72.773 366.042Z" fill="black"/>
<path d="M48.3292 369.616L46.8935 373.797C46.8935 373.797 46.0947 373.232 45.087 372.344C43.0718 370.583 40.2056 367.542 41.1244 365.2C42.1112 362.687 45.3637 366.005 47.1388 368.106C47.8541 368.942 48.3292 369.616 48.3292 369.616Z" fill="#E57A7A"/>
<path d="M51.3574 367.186C50.9213 367.762 50.4542 368.313 49.9582 368.838C49.8357 368.104 49.7503 367.364 49.7024 366.622C49.5823 364.469 49.812 361.61 51.9682 362.253C54.1245 362.896 52.6731 365.467 51.3574 367.186Z" fill="#E57A7A"/>
<path d="M69.9016 367.85C69.8598 369.235 69.7241 370.343 69.7241 370.343C69.0926 369.848 68.4943 369.312 67.9333 368.738C66.3097 367.05 64.5137 364.448 67.0301 362.885C69.6301 361.255 69.9538 365.096 69.9016 367.85Z" fill="#E57A7A"/>
<path d="M78.3597 369.663C77.3724 370.926 76.0732 371.91 74.5902 372.516C74.1786 372.695 73.7567 372.848 73.3268 372.976L71.6353 370.599C71.8129 369.813 72.0467 369.041 72.3348 368.289C72.6247 367.488 73.0254 366.731 73.5252 366.042C75.8641 362.938 80.636 366.512 78.3597 369.663Z" fill="#E57A7A"/>
<path opacity="0.1" d="M47.1392 368.106C47.8544 368.942 48.3295 369.59 48.3295 369.59L46.8938 373.771C46.8938 373.771 46.095 373.206 45.0874 372.318C45.3113 370.971 45.8676 369.701 46.7059 368.623C46.8468 368.451 46.9982 368.273 47.1392 368.106Z" fill="black"/>
<path opacity="0.1" d="M51.3571 367.186C50.921 367.762 50.4539 368.313 49.958 368.838C49.8354 368.104 49.75 367.364 49.7021 366.622C50.2988 366.634 50.877 366.831 51.3571 367.186Z" fill="black"/>
<path d="M58.4158 383.888L54.8448 385.456C54.8448 385.456 54.0669 385.079 52.9444 384.379C49.1906 382.069 41.6465 376.253 46.6794 369.397C51.7123 362.54 55.9568 374.837 57.6431 380.852C58.1496 382.681 58.4158 383.888 58.4158 383.888Z" fill="#E57A7A"/>
<path opacity="0.1" d="M67.9072 368.738C68.4267 368.202 69.1304 367.885 69.8755 367.85C69.8337 369.235 69.698 370.343 69.698 370.343C69.0665 369.848 68.4682 369.312 67.9072 368.738Z" fill="black"/>
<path opacity="0.1" d="M74.6005 372.516C74.1889 372.695 73.767 372.848 73.3371 372.976L71.6455 370.599C71.8231 369.813 72.0569 369.041 72.3451 368.289C73.4258 368.926 74.2298 370.515 74.6005 372.516Z" fill="black"/>
<path d="M65.7252 388.048C65.532 388.089 65.3284 388.126 65.1248 388.157C53.1534 389.976 61.1778 383.512 61.1778 383.512C61.1778 383.512 61.6999 382.989 62.4465 382.2C63.8927 380.606 66.0645 377.815 66.3151 375.234C66.691 371.351 67.1244 367.709 71.703 368.775C76.1982 369.83 77.0596 385.774 65.7252 388.048Z" fill="#E57A7A"/>
<path d="M65.5004 417.882H42.6279V423.902H65.5004V417.882Z" fill="#D4DFEC"/>
<path d="M68.8782 398.316H38.9941V419.324H68.8782V398.316Z" fill="#D4DFEC"/>
<path opacity="0.1" d="M65.5004 417.882H42.6279V423.902H65.5004V417.882Z" fill="black"/>
<path opacity="0.1" d="M68.8782 398.316H38.9941V419.324H68.8782V398.316Z" fill="black"/>
<path d="M67.0043 417.882H44.1318V423.902H67.0043V417.882Z" fill="#D4DFEC"/>
<path opacity="0.1" d="M57.6431 380.857C58.1652 382.655 58.4158 383.888 58.4158 383.888L54.8447 385.456C54.8447 385.456 54.0668 385.079 52.9443 384.379C54.3435 382.608 55.9202 381.27 57.6431 380.857Z" fill="black"/>
<path opacity="0.1" d="M65.7252 388.048C65.532 388.089 65.3284 388.126 65.1248 388.157C53.1534 389.976 61.1778 383.512 61.1778 383.512C61.1778 383.512 61.6999 382.989 62.4465 382.2C64.681 383.992 65.6051 386.01 65.7252 388.048Z" fill="black"/>
<path d="M46.2617 399.508C46.2617 399.508 52.9653 375.469 62.368 382.884C71.7707 390.3 58.5411 401.697 58.5411 401.697L46.2617 399.508Z" fill="#E57A7A"/>
<path opacity="0.1" d="M49.6449 373.917C50.0601 373.917 50.3967 373.58 50.3967 373.164C50.3967 372.749 50.0601 372.412 49.6449 372.412C49.2297 372.412 48.8931 372.749 48.8931 373.164C48.8931 373.58 49.2297 373.917 49.6449 373.917Z" fill="black"/>
<path opacity="0.1" d="M49.5824 377.429C49.9976 377.429 50.3342 377.092 50.3342 376.676C50.3342 376.261 49.9976 375.924 49.5824 375.924C49.1672 375.924 48.8306 376.261 48.8306 376.676C48.8306 377.092 49.1672 377.429 49.5824 377.429Z" fill="black"/>
<path opacity="0.1" d="M71.3895 374.607C71.8047 374.607 72.1413 374.27 72.1413 373.854C72.1413 373.439 71.8047 373.102 71.3895 373.102C70.9743 373.102 70.6377 373.439 70.6377 373.854C70.6377 374.27 70.9743 374.607 71.3895 374.607Z" fill="black"/>
<path opacity="0.1" d="M53.8475 392.61C54.2627 392.61 54.5993 392.273 54.5993 391.857C54.5993 391.442 54.2627 391.105 53.8475 391.105C53.4323 391.105 53.0957 391.442 53.0957 391.857C53.0957 392.273 53.4323 392.61 53.8475 392.61Z" fill="black"/>
<path opacity="0.1" d="M69.8236 380.439C70.2388 380.439 70.5754 380.102 70.5754 379.686C70.5754 379.271 70.2388 378.934 69.8236 378.934C69.4084 378.934 69.0718 379.271 69.0718 379.686C69.0718 380.102 69.4084 380.439 69.8236 380.439Z" fill="black"/>
<path opacity="0.1" d="M62.055 388.22C62.4702 388.22 62.8068 387.883 62.8068 387.468C62.8068 387.052 62.4702 386.715 62.055 386.715C61.6398 386.715 61.3032 387.052 61.3032 387.468C61.3032 387.883 61.6398 388.22 62.055 388.22Z" fill="black"/>
<path opacity="0.1" d="M52.2137 375.422C52.6289 375.422 52.9655 375.085 52.9655 374.67C52.9655 374.254 52.6289 373.917 52.2137 373.917C51.7985 373.917 51.4619 374.254 51.4619 374.67C51.4619 375.085 51.7985 375.422 52.2137 375.422Z" fill="black"/>
<path opacity="0.1" d="M69.3221 376.864C69.7373 376.864 70.0739 376.527 70.0739 376.112C70.0739 375.696 69.7373 375.359 69.3221 375.359C68.9069 375.359 68.5703 375.696 68.5703 376.112C68.5703 376.527 68.9069 376.864 69.3221 376.864Z" fill="black"/>
<path opacity="0.1" d="M66.7537 382.696C67.169 382.696 67.5055 382.359 67.5055 381.944C67.5055 381.528 67.169 381.191 66.7537 381.191C66.3385 381.191 66.002 381.528 66.002 381.944C66.002 382.359 66.3385 382.696 66.7537 382.696Z" fill="black"/>
<path opacity="0.1" d="M58.8597 392.045C59.2749 392.045 59.6115 391.708 59.6115 391.293C59.6115 390.877 59.2749 390.54 58.8597 390.54C58.4445 390.54 58.1079 390.877 58.1079 391.293C58.1079 391.708 58.4445 392.045 58.8597 392.045Z" fill="black"/>
<path opacity="0.1" d="M57.2308 388.345C57.646 388.345 57.9826 388.009 57.9826 387.593C57.9826 387.177 57.646 386.84 57.2308 386.84C56.8156 386.84 56.479 387.177 56.479 387.593C56.479 388.009 56.8156 388.345 57.2308 388.345Z" fill="black"/>
<path opacity="0.1" d="M53.3412 380C53.7564 380 54.093 379.663 54.093 379.247C54.093 378.832 53.7564 378.495 53.3412 378.495C52.9259 378.495 52.5894 378.832 52.5894 379.247C52.5894 379.663 52.9259 380 53.3412 380Z" fill="black"/>
<path opacity="0.1" d="M67.0043 417.882H44.1318V420.082H67.0043V417.882Z" fill="black"/>
<path d="M70.3821 398.316H40.498V419.324H70.3821V398.316Z" fill="#D4DFEC"/>
<path opacity="0.1" d="M59.8622 395.432C60.2774 395.432 60.614 395.095 60.614 394.679C60.614 394.264 60.2774 393.927 59.8622 393.927C59.4469 393.927 59.1104 394.264 59.1104 394.679C59.1104 395.095 59.4469 395.432 59.8622 395.432Z" fill="black"/>
<path opacity="0.1" d="M55.3514 396.372C55.7666 396.372 56.1032 396.035 56.1032 395.62C56.1032 395.204 55.7666 394.867 55.3514 394.867C54.9362 394.867 54.5996 395.204 54.5996 395.62C54.5996 396.035 54.9362 396.372 55.3514 396.372Z" fill="black"/>
<path opacity="0.1" d="M26.1041 32.6404C29.1201 32.6404 31.5651 30.1931 31.5651 27.1742C31.5651 24.1553 29.1201 21.708 26.1041 21.708C23.088 21.708 20.6431 24.1553 20.6431 27.1742C20.6431 30.1931 23.088 32.6404 26.1041 32.6404Z" fill="#E57A7A"/>
<path opacity="0.1" d="M550.573 206.466C554.61 206.466 557.882 203.191 557.882 199.15C557.882 195.11 554.61 191.834 550.573 191.834C546.537 191.834 543.264 195.11 543.264 199.15C543.264 203.191 546.537 206.466 550.573 206.466Z" fill="#E57A7A"/>
<path opacity="0.1" d="M564.664 188.814C567.611 188.814 570 186.423 570 183.473C570 180.523 567.611 178.132 564.664 178.132C561.718 178.132 559.329 180.523 559.329 183.473C559.329 186.423 561.718 188.814 564.664 188.814Z" fill="#E57A7A"/>
<path opacity="0.1" d="M35.5015 14.6323C39.5383 14.6323 42.8107 11.3567 42.8107 7.31613C42.8107 3.27554 39.5383 0 35.5015 0C31.4648 0 28.1924 3.27554 28.1924 7.31613C28.1924 11.3567 31.4648 14.6323 35.5015 14.6323Z" fill="#E57A7A"/>
<path opacity="0.1" d="M7.30916 48.0774C11.3459 48.0774 14.6183 44.8019 14.6183 40.7613C14.6183 36.7207 11.3459 33.4452 7.30916 33.4452C3.27242 33.4452 0 36.7207 0 40.7613C0 44.8019 3.27242 48.0774 7.30916 48.0774Z" fill="#E57A7A"/>
</g>
<defs>
<linearGradient id="paint0_linear" x1="275.206" y1="405.444" x2="275.206" y2="99.4733" gradientUnits="userSpaceOnUse">
<stop stop-color="#808080" stop-opacity="0.25"/>
<stop offset="0.54" stop-color="#808080" stop-opacity="0.12"/>
<stop offset="1" stop-color="#808080" stop-opacity="0.1"/>
</linearGradient>
<clipPath id="clip0">
<rect width="570" height="433" fill="white"/>
</clipPath>
</defs>
</svg>
