<svg width="464" height="70" viewBox="0 0 464 70" fill="none" xmlns="http://www.w3.org/2000/svg">
<g clip-path="url(#clip0)">
<path d="M154.57 48.89H128.67L123.56 60.89H113.65L137 9.08H146.47L169.85 60.88H159.75L154.57 48.89ZM151.39 41.34L141.62 18.7L131.93 41.34H151.39Z" fill="white"/>
<path d="M177.62 58.8C174.454 57.1594 171.813 54.6608 170 51.59C168.147 48.4161 167.199 44.7949 167.26 41.12C167.196 37.4543 168.144 33.8419 170 30.68C171.813 27.6331 174.437 25.1506 177.58 23.51C180.997 21.7383 184.802 20.8481 188.65 20.92C192.21 20.8438 195.732 21.6548 198.9 23.28C201.769 24.7959 204.086 27.1793 205.52 30.09L198.42 34.24C197.39 32.5158 195.92 31.0971 194.16 30.13C191.881 28.9598 189.295 28.5238 186.758 28.8819C184.221 29.24 181.856 30.3746 179.99 32.13C178.836 33.3165 177.939 34.7279 177.354 36.2763C176.769 37.8246 176.509 39.4768 176.59 41.13C176.509 42.7798 176.765 44.4287 177.343 45.9762C177.92 47.5236 178.808 48.937 179.95 50.13C181.824 51.8862 184.195 53.0208 186.738 53.3788C189.282 53.7368 191.874 53.3007 194.16 52.13C195.923 51.1574 197.393 49.7315 198.42 48L205.52 52.14C204.039 55.0542 201.701 57.4447 198.82 58.99C195.688 60.639 192.189 61.4649 188.65 61.39C184.815 61.454 181.025 60.564 177.62 58.8Z" fill="white"/>
<path d="M248.3 44.08H217.3C217.754 46.8524 219.276 49.3367 221.54 51C224.036 52.7597 227.038 53.6552 230.09 53.55C232.078 53.6141 234.057 53.266 235.904 52.5277C237.751 51.7894 239.424 50.6768 240.82 49.26L245.82 54.96C244.013 57.0992 241.699 58.7527 239.09 59.77C236.161 60.8878 233.045 61.4376 229.91 61.39C225.919 61.4824 221.967 60.593 218.4 58.8C215.206 57.1843 212.546 54.6807 210.74 51.59C208.899 48.4111 207.952 44.7933 208 41.12C207.943 37.482 208.851 33.8937 210.63 30.72C212.357 27.6695 214.912 25.1699 218 23.51C221.217 21.7535 224.835 20.8611 228.5 20.92C232.106 20.8596 235.666 21.7383 238.83 23.47C241.83 25.1414 244.292 27.6316 245.93 30.65C247.68 33.9368 248.558 37.6173 248.48 41.34C248.44 42 248.39 42.89 248.3 44.08ZM221 30.94C218.933 32.7313 217.604 35.2255 217.27 37.94H239.69C239.393 35.218 238.073 32.7103 235.998 30.9244C233.922 29.1384 231.246 28.2075 228.51 28.32C225.77 28.2413 223.097 29.174 221 30.94Z" fill="white"/>
<path d="M314.6 21.36L300 60.88H291.12L280.93 33.64L270.57 60.88H261.69L247.19 21.36H255.92L266.35 50.52L277.23 21.36H285L295.66 50.66L306.39 21.36H314.6Z" fill="white"/>
<path d="M324.19 58.8C321.058 57.1506 318.456 54.6517 316.68 51.59C314.856 48.4069 313.929 44.7882 314 41.12C313.936 37.4582 314.873 33.8483 316.71 30.68C318.496 27.6368 321.097 25.1533 324.22 23.51C327.58 21.8089 331.294 20.9225 335.06 20.9225C338.826 20.9225 342.54 21.8089 345.9 23.51C349.02 25.1564 351.621 27.6391 353.41 30.68C355.239 33.851 356.173 37.4596 356.11 41.12C356.17 44.7896 355.237 48.4071 353.41 51.59C351.631 54.6493 349.029 57.1476 345.9 58.8C342.54 60.5011 338.826 61.3875 335.06 61.3875C331.294 61.3875 327.58 60.5011 324.22 58.8H324.19ZM343.43 50.07C344.562 48.8712 345.441 47.4561 346.013 45.9097C346.585 44.3632 346.839 42.7171 346.76 41.07C346.838 39.4231 346.583 37.7773 346.011 36.231C345.439 34.6846 344.561 33.2695 343.43 32.07C342.334 30.9517 341.018 30.0723 339.566 29.4872C338.113 28.9021 336.555 28.6238 334.99 28.67C333.43 28.6221 331.878 28.8997 330.432 29.4851C328.986 30.0705 327.677 30.9508 326.59 32.07C325.471 33.2759 324.603 34.6931 324.038 36.2385C323.473 37.7839 323.222 39.4264 323.3 41.07C323.221 42.7137 323.472 44.3566 324.037 45.9021C324.601 47.4476 325.47 48.8647 326.59 50.07C327.675 51.1925 328.983 52.0757 330.43 52.6629C331.876 53.2501 333.429 53.5285 334.99 53.48C336.556 53.5267 338.115 53.2477 339.568 52.6607C341.021 52.0738 342.336 51.1916 343.43 50.07Z" fill="white"/>
<path d="M383.2 20.92V29.72C382.494 29.585 381.778 29.5113 381.06 29.5C377.447 29.5 374.633 30.55 372.62 32.65C370.607 34.75 369.607 37.77 369.62 41.71V60.88H360.37V21.36H369.17V27.13C371.823 22.99 376.5 20.92 383.2 20.92Z" fill="white"/>
<path d="M403.56 43.93L396.67 50.44V60.88H387.42V6H396.67V39.12L415.84 21.36H426.94L410.44 37.94L428.49 60.88H417.24L403.56 43.93Z" fill="white"/>
<path d="M436.42 60.14C433.815 59.5193 431.336 58.4573 429.09 57L432.64 50C434.612 51.2772 436.771 52.2388 439.04 52.85C441.433 53.5557 443.915 53.9193 446.41 53.93C451.93 53.93 454.69 52.4733 454.69 49.56C454.709 48.9125 454.511 48.2771 454.13 47.7539C453.748 47.2307 453.202 46.8494 452.58 46.67C450.382 45.8971 448.115 45.3378 445.81 45C443.121 44.6318 440.464 44.0635 437.86 43.3C435.824 42.6869 433.986 41.5488 432.53 40C430.931 38.1475 430.119 35.7428 430.27 33.3C430.233 31.5256 430.645 29.7706 431.466 28.1974C432.288 26.6242 433.493 25.2837 434.97 24.3C438.1 22.06 442.34 20.94 447.66 20.94C450.399 20.9444 453.129 21.253 455.8 21.86C458.137 22.3312 460.384 23.1682 462.46 24.34L458.91 31.34C455.478 29.3324 451.565 28.2954 447.59 28.34C445.46 28.2177 443.334 28.6375 441.41 29.56C440.793 29.8468 440.269 30.3002 439.896 30.8692C439.523 31.4382 439.317 32.1 439.3 32.78C439.268 33.491 439.472 34.1927 439.881 34.7753C440.29 35.3578 440.88 35.7885 441.56 36C443.83 36.8088 446.175 37.3884 448.56 37.73C451.188 38.1109 453.785 38.6824 456.33 39.44C458.319 40.0591 460.117 41.178 461.55 42.69C463.099 44.4921 463.881 46.8286 463.73 49.2C463.757 50.9698 463.329 52.7168 462.487 54.2735C461.644 55.8302 460.416 57.1444 458.92 58.09C455.707 60.3033 451.34 61.41 445.82 61.41C442.644 61.4121 439.482 60.9849 436.42 60.14Z" fill="white"/>
<path d="M74.6 69.92H24.14L49.37 45.92L74.6 69.92Z" fill="#E57A7A"/>
<path d="M49.37 34.14L16.23 65.55L0 46.63L49.37 0L98.74 46.63L82.52 65.55L49.37 34.14Z" fill="#E57A7A"/>
</g>
<defs>
<clipPath id="clip0">
<rect width="463.72" height="69.92" fill="white"/>
</clipPath>
</defs>
</svg>
